<svg xmlns="http://www.w3.org/2000/svg" width="40" height="40" viewBox="0 0 40 40">
  <g id="avatar" transform="translate(14894.86 5170)">
    <g id="Ellipse_3704" data-name="Ellipse 3704" transform="translate(-14894.86 -5170)" fill="#fff" stroke="#d6d6d6" stroke-miterlimit="10" stroke-width="1">
      <circle cx="20" cy="20" r="20" stroke="none"/>
      <circle cx="20" cy="20" r="19.5" fill="none"/>
    </g>
    <path id="Path_18383" data-name="Path 18383" d="M11.492,27.082H1.5c-1.91,0-1.457-2.977-1.457-2.977a11.522,11.522,0,0,1,7.6-9.136,10.734,10.734,0,0,1,7.693,0,11.522,11.522,0,0,1,7.6,9.136s.452,2.977-1.457,2.977ZM4.972,6.52a6.52,6.52,0,1,1,6.52,6.52A6.52,6.52,0,0,1,4.972,6.52Z" transform="translate(-14886.223 -5164.188)" fill="#d6d6d6"/>
  </g>
</svg>
