<svg xmlns="http://www.w3.org/2000/svg" width="24" height="24" viewBox="0 0 24 24">
  <g id="hosodoanhnghiep" transform="translate(6439 7571)">
    <g id="Group_14271" data-name="Group 14271" transform="translate(-6439 -7571)">
      <rect id="Rectangle_148681" data-name="Rectangle 148681" width="24" height="24" fill="#fff" opacity="0"/>
      <g id="Group_14254" data-name="Group 14254" transform="translate(3.6 2.4)">
        <path id="Path_18260" data-name="Path 18260" d="M1196.322-983.759h4.653a1.743,1.743,0,0,1,1.738,1.738v17.462h-8.129v-17.462A1.742,1.742,0,0,1,1196.322-983.759Z" transform="translate(-1186.501 983.759)" fill="none" stroke="#858585" stroke-linecap="round" stroke-linejoin="round" stroke-width="1.2" fill-rule="evenodd"/>
        <path id="Path_18261" data-name="Path 18261" d="M1159.391-947.036l-6.182,3.549c-.249.143-.521.235-.521.521v9.254h6.7Z" transform="translate(-1151.308 952.912)" fill="none" stroke="#858585" stroke-linecap="round" stroke-linejoin="round" stroke-width="1.2" fill-rule="evenodd"/>
        <line id="Line_597" data-name="Line 597" x2="2.032" transform="translate(3.715 12.552)" fill="none" stroke="#858585" stroke-linecap="round" stroke-linejoin="round" stroke-width="1.2"/>
        <line id="Line_598" data-name="Line 598" x2="2.032" transform="translate(3.715 15.522)" fill="none" stroke="#858585" stroke-linecap="round" stroke-linejoin="round" stroke-width="1.2"/>
        <line id="Line_599" data-name="Line 599" x2="2.731" transform="translate(10.782 12.552)" fill="none" stroke="#858585" stroke-linecap="round" stroke-linejoin="round" stroke-width="1.2"/>
        <line id="Line_600" data-name="Line 600" x2="2.731" transform="translate(10.782 15.522)" fill="none" stroke="#858585" stroke-linecap="round" stroke-linejoin="round" stroke-width="1.2"/>
        <line id="Line_601" data-name="Line 601" x2="2.731" transform="translate(10.782 6.648)" fill="none" stroke="#858585" stroke-linecap="round" stroke-linejoin="round" stroke-width="1.2"/>
        <line id="Line_602" data-name="Line 602" x2="2.731" transform="translate(10.782 9.618)" fill="none" stroke="#858585" stroke-linecap="round" stroke-linejoin="round" stroke-width="1.2"/>
        <line id="Line_603" data-name="Line 603" x2="2.731" transform="translate(10.782 3.715)" fill="none" stroke="#858585" stroke-linecap="round" stroke-linejoin="round" stroke-width="1.2"/>
        <line id="Line_604" data-name="Line 604" x2="17.637" transform="translate(0 19.2)" fill="none" stroke="#858585" stroke-linecap="round" stroke-linejoin="round" stroke-width="1.2"/>
      </g>
    </g>
  </g>
</svg>
