<svg xmlns="http://www.w3.org/2000/svg" width="36" height="36" viewBox="0 0 36 36">
  <g id="quanlytindang" transform="translate(6470 7577)">
    <g id="Group_14274" data-name="Group 14274" transform="translate(-6464 -7571)">
      <rect id="Rectangle_148947" data-name="Rectangle 148947" width="36" height="36" rx="18" transform="translate(-6 -6)" fill="none"/>
      <g id="Group_17967" data-name="Group 17967" transform="translate(-1808.916 -1030.842)">
        <g id="Path_21379" data-name="Path 21379" fill="none" stroke-linecap="round" stroke-linejoin="round">
          <path d="M1825.99,1053.06h-11.1a2.818,2.818,0,0,1-2.814-2.814V1035.42a2.819,2.819,0,0,1,2.814-2.813h11.1a2.817,2.817,0,0,1,2.814,2.813v8.393h-.007a9,9,0,0,1-3.992,2.055,1.754,1.754,0,0,0,0,1.454,1.79,1.79,0,0,0-1.139,1.657,1.748,1.748,0,0,0,1.155,1.646,1.814,1.814,0,0,0-.147.708,1.767,1.767,0,0,0,1.4,1.727v0C1826.049,1053.06,1826.02,1053.06,1825.99,1053.06Z" stroke="none"/>
          <path d="M 1823.525512695312 1051.859985351562 C 1823.494140625 1051.688720703125 1823.477661132812 1051.513061523438 1823.477416992188 1051.334716796875 C 1823.477416992188 1051.332397460938 1823.477416992188 1051.330078125 1823.477416992188 1051.327758789062 C 1823.4775390625 1051.28564453125 1823.478637695312 1051.24365234375 1823.48046875 1051.201782226562 C 1822.852294921875 1050.65185546875 1822.4697265625 1049.845947265625 1822.4697265625 1048.979248046875 C 1822.4697265625 1048.976806640625 1822.4697265625 1048.974487304688 1822.4697265625 1048.972045898438 C 1822.474853515625 1048.109375 1822.841918945312 1047.318603515625 1823.455078125 1046.767944335938 C 1823.451416015625 1046.708984375 1823.44970703125 1046.650024414062 1823.44970703125 1046.591064453125 C 1823.44970703125 1046.169555664062 1823.537963867188 1045.760375976562 1823.710815429688 1045.37744140625 C 1824.18896484375 1044.311645507812 1825.253051757812 1043.622924804688 1826.421508789062 1043.622924804688 C 1826.473510742188 1043.622924804688 1826.525268554688 1043.624267578125 1826.576782226562 1043.626953125 C 1826.860595703125 1043.303466796875 1827.212036132812 1043.044799804688 1827.604370117188 1042.869750976562 L 1827.604370117188 1035.421630859375 C 1827.603149414062 1034.532592773438 1826.878295898438 1033.808349609375 1825.990356445312 1033.807006835938 L 1814.891723632812 1033.807006835938 C 1814.002685546875 1033.808349609375 1813.27783203125 1034.532958984375 1813.276000976562 1035.420043945312 L 1813.276000976562 1050.244018554688 C 1813.27734375 1051.134399414062 1814.001708984375 1051.859252929688 1814.890014648438 1051.859985351562 L 1823.525512695312 1051.859985351562 M 1826.07666015625 1053.06201171875 C 1826.048950195312 1053.059936523438 1826.020263671875 1053.059936523438 1825.990356445312 1053.059936523438 L 1814.890014648438 1053.059936523438 C 1813.3369140625 1053.058715820312 1812.078247070312 1051.798828125 1812.076049804688 1050.245727539062 L 1812.076049804688 1035.420043945312 C 1812.079223632812 1033.866821289062 1813.338134765625 1032.609252929688 1814.890014648438 1032.607055664062 L 1825.990356445312 1032.607055664062 C 1827.543334960938 1032.609252929688 1828.80224609375 1033.866821289062 1828.804321289062 1035.420043945312 L 1828.804321289062 1043.8134765625 L 1828.797729492188 1043.8134765625 C 1828.057861328125 1043.816772460938 1827.3984375 1044.282470703125 1827.1474609375 1044.979370117188 C 1826.254516601562 1044.57763671875 1825.2060546875 1044.975952148438 1824.8056640625 1045.86865234375 C 1824.702758789062 1046.096557617188 1824.649658203125 1046.342163085938 1824.649658203125 1046.591064453125 C 1824.649658203125 1046.84326171875 1824.703857421875 1047.09326171875 1824.808959960938 1047.322265625 C 1824.125366210938 1047.588745117188 1823.674072265625 1048.245849609375 1823.669677734375 1048.979248046875 C 1823.669677734375 1049.717041015625 1824.130859375 1050.375244140625 1824.824340820312 1050.625244140625 C 1824.728271484375 1050.8486328125 1824.678466796875 1051.08984375 1824.677368164062 1051.333129882812 C 1824.678466796875 1052.167236328125 1825.261352539062 1052.886108398438 1826.07666015625 1053.059936523438 L 1826.07666015625 1053.06201171875 Z" stroke="none" fill="#838383"/>
        </g>
        <path id="Path_21380" data-name="Path 21380" d="M1814.515,1046.673a.658.658,0,0,0,.657.657h3.908a.656.656,0,0,0,0-1.313h-3.908a.657.657,0,0,0-.657.656Z" transform="translate(0.259 1.424)" fill="#838383"/>
        <path id="Path_21381" data-name="Path 21381" d="M1814.515,1044.265a.657.657,0,0,0,.657.655h3.908a.656.656,0,0,0,0-1.313h-3.908A.659.659,0,0,0,1814.515,1044.265Z" transform="translate(0.259 1.168)" fill="#838383"/>
        <path id="Path_21382" data-name="Path 21382" d="M1814.515,1041.894a.657.657,0,0,0,.657.656h3.908a.655.655,0,1,0,.03-1.31h-3.938A.656.656,0,0,0,1814.515,1041.894Z" transform="translate(0.259 0.916)" fill="#838383"/>
        <path id="Path_21383" data-name="Path 21383" d="M1820.04,1039.526a.656.656,0,0,0,.655.655h3.91a.655.655,0,0,0,0-1.31h-3.91a.656.656,0,0,0-.655.655Z" transform="translate(0.845 0.665)" fill="#838383"/>
        <path id="Path_21384" data-name="Path 21384" d="M1814.515,1039.526a.657.657,0,0,0,.657.655h3.908a.655.655,0,0,0,0-1.31h-3.908a.657.657,0,0,0-.657.655Z" transform="translate(0.259 0.665)" fill="#838383"/>
        <path id="Path_21385" data-name="Path 21385" d="M1820.04,1037.158a.655.655,0,0,0,.655.654h3.91a.656.656,0,0,0,0-1.312h-3.91a.656.656,0,0,0-.655.657Z" transform="translate(0.845 0.413)" fill="#838383"/>
        <path id="Path_21386" data-name="Path 21386" d="M1814.515,1037.158a.656.656,0,0,0,.657.654h3.908a.656.656,0,0,0,0-1.312h-3.908a.656.656,0,0,0-.657.656Z" transform="translate(0.259 0.413)" fill="#838383"/>
        <g id="Path_21387" data-name="Path 21387" transform="translate(1.212 1.174)" fill="none" stroke-linecap="round" stroke-linejoin="round">
          <path d="M1826.872,1051.138v-.035a.613.613,0,0,0-.406-.565.6.6,0,0,0-.245-.053.639.639,0,0,0-.435.177l-.021.025a.748.748,0,1,1-1.057-1.058l.021-.024a.619.619,0,0,0-.437-1.052h-.065a.749.749,0,0,1,0-1.5h.035a.618.618,0,0,0,.56-.4.606.606,0,0,0-.124-.679l-.021-.023a.732.732,0,0,1-.217-.527.722.722,0,0,1,.217-.529.748.748,0,0,1,1.059,0v0l.022.021a.608.608,0,0,0,.434.173.631.631,0,0,0,.248-.047h.028a.627.627,0,0,0,.376-.566v-.063a.746.746,0,1,1,1.492,0v.035a.624.624,0,0,0,.374.563.579.579,0,0,0,.248.051.628.628,0,0,0,.435-.174l.021-.024a.748.748,0,0,1,1.057,1.059l-.021.022a.619.619,0,0,0-.123.681v.029a.609.609,0,0,0,.562.374h.065a.748.748,0,1,1,0,1.5h-.035a.612.612,0,0,0-.562.373.62.62,0,0,0,.125.682l.019.023a.746.746,0,0,1,0,1.056h0a.744.744,0,0,1-.528.217.755.755,0,0,1-.53-.217l-.021-.024a.621.621,0,0,0-.682-.123.611.611,0,0,0-.373.563v.065a.748.748,0,0,1-1.5.033v-.033Z" stroke="none"/>
          <path d="M 1827.599243164062 1049.89697265625 C 1827.776611328125 1049.688842773438 1828.002563476562 1049.51953125 1828.265014648438 1049.4072265625 C 1828.531372070312 1049.291381835938 1828.819213867188 1049.2421875 1829.108276367188 1049.260131835938 C 1829.090209960938 1048.97802734375 1829.138305664062 1048.689575195312 1829.256469726562 1048.417114257812 C 1829.362182617188 1048.171752929688 1829.517333984375 1047.95849609375 1829.70751953125 1047.786865234375 C 1829.500244140625 1047.60791015625 1829.332275390625 1047.380493164062 1829.221435546875 1047.116577148438 C 1829.193237304688 1047.049438476562 1829.171264648438 1046.980224609375 1829.15576171875 1046.909545898438 C 1829.088989257812 1046.694458007812 1829.0634765625 1046.472900390625 1829.077392578125 1046.255126953125 C 1829.0380859375 1046.257690429688 1828.998413085938 1046.258911132812 1828.958740234375 1046.258911132812 L 1828.950317382812 1046.259033203125 C 1828.698974609375 1046.259033203125 1828.447021484375 1046.205322265625 1828.220947265625 1046.103637695312 C 1827.981323242188 1045.997314453125 1827.772338867188 1045.842529296875 1827.603393554688 1045.654052734375 C 1827.427490234375 1045.859252929688 1827.205322265625 1046.026611328125 1826.948608398438 1046.138793945312 C 1826.870971679688 1046.172607421875 1826.790283203125 1046.198120117188 1826.707763671875 1046.214965820312 C 1826.543212890625 1046.262573242188 1826.373657226562 1046.28662109375 1826.20166015625 1046.28662109375 L 1826.19287109375 1046.286499023438 L 1826.18408203125 1046.28662109375 C 1826.146118164062 1046.28662109375 1826.108276367188 1046.285400390625 1826.070678710938 1046.283081054688 C 1826.08935546875 1046.560424804688 1826.044799804688 1046.84326171875 1825.932739257812 1047.107543945312 C 1825.827758789062 1047.372436523438 1825.666259765625 1047.602416992188 1825.464721679688 1047.78564453125 C 1825.495361328125 1047.811645507812 1825.525146484375 1047.838745117188 1825.55419921875 1047.866943359375 C 1825.902587890625 1048.205932617188 1826.09814453125 1048.660278320312 1826.10498046875 1049.146240234375 C 1826.105712890625 1049.194091796875 1826.1044921875 1049.241577148438 1826.1015625 1049.288818359375 C 1826.141357421875 1049.286254882812 1826.18115234375 1049.284423828125 1826.2216796875 1049.28466796875 C 1826.4609375 1049.28466796875 1826.694458007812 1049.331909179688 1826.916259765625 1049.425170898438 C 1827.181518554688 1049.528442382812 1827.413818359375 1049.692260742188 1827.599243164062 1049.89697265625 M 1827.619995117188 1051.901733398438 C 1827.21484375 1051.901733398438 1826.880859375 1051.577514648438 1826.8720703125 1051.17041015625 C 1826.8720703125 1051.15966796875 1826.8720703125 1051.149169921875 1826.8720703125 1051.138427734375 L 1826.8720703125 1051.137329101562 C 1826.8720703125 1051.1376953125 1826.8720703125 1051.138061523438 1826.8720703125 1051.138427734375 L 1826.8720703125 1051.10302734375 C 1826.866577148438 1050.8486328125 1826.706176757812 1050.6240234375 1826.466186523438 1050.537841796875 C 1826.389892578125 1050.503540039062 1826.306884765625 1050.484619140625 1826.2216796875 1050.484619140625 C 1826.060180664062 1050.48583984375 1825.904174804688 1050.549926757812 1825.786987304688 1050.66162109375 L 1825.765991210938 1050.68701171875 C 1825.62646484375 1050.824340820312 1825.43798828125 1050.901733398438 1825.242553710938 1050.901733398438 C 1825.2392578125 1050.901733398438 1825.235961914062 1050.901733398438 1825.232543945312 1050.901733398438 C 1824.823608398438 1050.901733398438 1824.49169921875 1050.571166992188 1824.48828125 1050.16162109375 C 1824.487182617188 1049.961547851562 1824.56689453125 1049.768920898438 1824.70849609375 1049.628540039062 L 1824.7294921875 1049.604248046875 C 1824.968505859375 1049.358642578125 1824.962890625 1048.965942382812 1824.71728515625 1048.726928710938 C 1824.603393554688 1048.616333007812 1824.451904296875 1048.55322265625 1824.29248046875 1048.55224609375 L 1824.227294921875 1048.55224609375 C 1823.813598632812 1048.543334960938 1823.486206054688 1048.200439453125 1823.494995117188 1047.786743164062 C 1823.50390625 1047.386352539062 1823.826904296875 1047.064453125 1824.227294921875 1047.055541992188 L 1824.2626953125 1047.055541992188 C 1824.513793945312 1047.0478515625 1824.734985351562 1046.887451171875 1824.822387695312 1046.65185546875 C 1824.926391601562 1046.421752929688 1824.877685546875 1046.151733398438 1824.698608398438 1045.97265625 L 1824.677490234375 1045.949340820312 C 1824.537109375 1045.81005859375 1824.45849609375 1045.619750976562 1824.460815429688 1045.421875 C 1824.457397460938 1045.22265625 1824.536010742188 1045.031372070312 1824.677490234375 1044.89306640625 C 1824.969604492188 1044.599975585938 1825.442993164062 1044.5986328125 1825.736083984375 1044.890747070312 L 1825.737182617188 1044.89306640625 L 1825.75927734375 1044.913940429688 C 1825.873413085938 1045.024780273438 1826.024780273438 1045.086547851562 1826.18408203125 1045.086547851562 C 1826.18994140625 1045.086547851562 1826.19580078125 1045.086547851562 1826.20166015625 1045.086547851562 C 1826.283935546875 1045.086547851562 1826.364868164062 1045.070068359375 1826.440673828125 1045.0390625 L 1826.468383789062 1045.0390625 C 1826.693969726562 1044.940551757812 1826.841186523438 1044.719360351562 1826.844482421875 1044.47265625 L 1826.844482421875 1044.40966796875 C 1826.844482421875 1043.996948242188 1827.178466796875 1043.662963867188 1827.591186523438 1043.662963867188 C 1828.002563476562 1043.662963867188 1828.336669921875 1043.996948242188 1828.336669921875 1044.40966796875 L 1828.336669921875 1044.445068359375 C 1828.339965820312 1044.689453125 1828.485961914062 1044.90966796875 1828.710571289062 1045.008056640625 C 1828.7880859375 1045.04345703125 1828.87255859375 1045.057861328125 1828.958251953125 1045.058959960938 C 1829.120971679688 1045.058959960938 1829.275756835938 1044.9970703125 1829.39306640625 1044.88525390625 L 1829.4140625 1044.860961914062 C 1829.712768554688 1044.574462890625 1830.186401367188 1044.583374023438 1830.47265625 1044.880859375 C 1830.752563476562 1045.170654296875 1830.75146484375 1045.630859375 1830.471557617188 1045.919555664062 L 1830.450561523438 1045.941650390625 C 1830.274658203125 1046.121948242188 1830.225952148438 1046.391845703125 1830.327758789062 1046.623046875 L 1830.327758789062 1046.65185546875 C 1830.422973632812 1046.878540039062 1830.644165039062 1047.025634765625 1830.889770507812 1047.025634765625 L 1830.954956054688 1047.025634765625 C 1831.36865234375 1047.025634765625 1831.703857421875 1047.36083984375 1831.703857421875 1047.7734375 C 1831.703857421875 1048.187255859375 1831.36865234375 1048.521240234375 1830.954956054688 1048.521240234375 L 1830.919555664062 1048.521240234375 C 1830.675048828125 1048.521240234375 1830.453857421875 1048.668334960938 1830.357666015625 1048.893920898438 C 1830.256958007812 1049.125122070312 1830.3056640625 1049.39501953125 1830.482666015625 1049.575439453125 L 1830.50146484375 1049.5986328125 C 1830.79345703125 1049.889526367188 1830.794555664062 1050.362915039062 1830.50244140625 1050.655029296875 L 1830.50146484375 1050.656127929688 C 1830.361938476562 1050.79443359375 1830.17431640625 1050.872924804688 1829.97802734375 1050.872924804688 C 1829.9765625 1050.872924804688 1829.975219726562 1050.872924804688 1829.973876953125 1050.872924804688 C 1829.775756835938 1050.872924804688 1829.585571289062 1050.79541015625 1829.443969726562 1050.656127929688 L 1829.422973632812 1050.631713867188 C 1829.2412109375 1050.455688476562 1828.971557617188 1050.407104492188 1828.740478515625 1050.509033203125 C 1828.514770507812 1050.604125976562 1828.36767578125 1050.826538085938 1828.36767578125 1051.072021484375 L 1828.36767578125 1051.137329101562 C 1828.37646484375 1051.5498046875 1828.049194335938 1051.892822265625 1827.636474609375 1051.901611328125 C 1827.630981445312 1051.901733398438 1827.62548828125 1051.901733398438 1827.619995117188 1051.901733398438 Z" stroke="none" fill="#838383"/>
        </g>
        <path id="Path_21388" data-name="Path 21388" d="M1826.373,1047.466a.909.909,0,1,0,.909-.909.909.909,0,0,0-.909.909Z" transform="translate(1.518 1.481)" fill="#838383"/>
      </g>
    </g>
  </g>
</svg>
