<svg id="success" xmlns="http://www.w3.org/2000/svg" width="11.465" height="14" viewBox="0 0 11.465 14">
  <path id="bg" d="M987.086,227.625v-4.253a8.458,8.458,0,0,1-5.731-2.011,8.457,8.457,0,0,1-5.731,2.011v4.253a5.991,5.991,0,1,0,11.462,0Z" transform="translate(-975.623 -221.361)" fill="#06983c"/>
  <path id="tick" d="M981.139,231.708a.608.608,0,0,1-.42-.168l-2.358-2.243a.61.61,0,0,1,.841-.884l1.908,1.815,3.484-3.8a.61.61,0,1,1,.9.824l-3.9,4.256a.608.608,0,0,1-.429.2Z" transform="translate(-975.941 -221.97)" fill="#fff"/>
</svg>
