<svg xmlns="http://www.w3.org/2000/svg" width="36" height="36" viewBox="0 0 36 36">
  <g id="tichdiem" transform="translate(-12 -742)">
    <rect id="Rectangle_148956" data-name="Rectangle 148956" width="36" height="36" rx="18" transform="translate(12 742)" fill="none"/>
    <g id="Group_14294" data-name="Group 14294" transform="translate(20.383 750)">
      <g id="Path_18318" data-name="Path 18318" transform="translate(-1821.251 310.135)" fill="none" stroke-linecap="round" stroke-linejoin="round">
        <path d="M1833.743-288.492l-1.958-3.921a9.522,9.522,0,0,0,6.554-3.577l2.077,4.16a.642.642,0,0,1-.029.626.636.636,0,0,1-.545.306h-3.132l-1.879,2.505a.637.637,0,0,1-.515.257A.651.651,0,0,1,1833.743-288.492Z" stroke="none"/>
        <path d="M 1834.413696289062 -289.8357849121094 L 1835.750610351562 -291.6181030273438 C 1835.977294921875 -291.9202270507812 1836.332885742188 -292.0980529785156 1836.710571289062 -292.0980529785156 L 1838.940551757812 -292.0980224609375 L 1838.031860351562 -293.9181213378906 C 1836.760009765625 -292.778564453125 1835.225708007812 -291.9523010253906 1833.573364257812 -291.5181579589844 L 1834.413696289062 -289.8357849121094 M 1834.3193359375 -288.1354064941406 C 1834.318237304688 -288.1354064941406 1834.317260742188 -288.1354064941406 1834.316162109375 -288.1354064941406 C 1834.073608398438 -288.1383361816406 1833.852905273438 -288.27587890625 1833.743286132812 -288.4924926757812 L 1831.784790039062 -292.4133605957031 C 1834.365356445312 -292.66357421875 1836.732299804688 -293.9553833007812 1838.338745117188 -295.989990234375 L 1840.415771484375 -291.8297729492188 C 1840.515869140625 -291.6299743652344 1840.504638671875 -291.3935852050781 1840.38720703125 -291.2036743164062 C 1840.271850585938 -291.0145263671875 1840.06640625 -290.8980407714844 1839.844970703125 -290.8980407714844 C 1839.844116210938 -290.8980407714844 1839.843139648438 -290.8980407714844 1839.842163085938 -290.8980407714844 L 1836.710571289062 -290.8980407714844 L 1834.831176757812 -288.3925476074219 C 1834.711181640625 -288.2302856445312 1834.5205078125 -288.1354064941406 1834.3193359375 -288.1354064941406 Z" stroke="none" fill="#838383"/>
      </g>
      <g id="Path_18319" data-name="Path 18319" transform="translate(-1821.135 310.135)" fill="none" stroke-linecap="round" stroke-linejoin="round">
        <path d="M1826.788-288.394l-1.879-2.505h-3.131a.644.644,0,0,1-.642-.647.648.648,0,0,1,.067-.285l2.077-4.16a9.536,9.536,0,0,0,6.557,3.577l-1.962,3.921a.642.642,0,0,1-.861.288.637.637,0,0,1-.227-.189Z" stroke="none"/>
        <path d="M 1827.205078125 -289.8370361328125 L 1828.046997070312 -291.5197143554688 C 1826.393798828125 -291.9543151855469 1824.859130859375 -292.7804870605469 1823.586547851562 -293.9198608398438 L 1822.677490234375 -292.0989990234375 L 1824.908447265625 -292.0989990234375 C 1825.2861328125 -292.0989990234375 1825.641723632812 -291.9211730957031 1825.868408203125 -291.6190490722656 L 1827.205078125 -289.8370361328125 M 1827.299438476562 -288.1380615234375 C 1827.203369140625 -288.1380615234375 1827.105834960938 -288.1597595214844 1827.01416015625 -288.2055969238281 C 1826.92431640625 -288.2501220703125 1826.847045898438 -288.3144226074219 1826.786865234375 -288.3945617675781 L 1826.787841796875 -288.3935241699219 L 1824.908447265625 -290.8989868164062 L 1821.776977539062 -290.8989868164062 C 1821.4208984375 -290.8999328613281 1821.132934570312 -291.1897583007812 1821.134887695312 -291.5458679199219 C 1821.134887695312 -291.644775390625 1821.15869140625 -291.7417297363281 1821.202270507812 -291.8307495117188 L 1823.279296875 -295.990966796875 C 1824.887573242188 -293.9563598632812 1827.255615234375 -292.6655578613281 1829.836303710938 -292.4143371582031 L 1827.874755859375 -288.4934692382812 C 1827.762329101562 -288.2685852050781 1827.53515625 -288.1380615234375 1827.299438476562 -288.1380615234375 Z" stroke="none" fill="#838383"/>
      </g>
      <g id="Path_18320" data-name="Path 18320" transform="translate(-1821.15 310.291)" fill="none" stroke-miterlimit="10">
        <path d="M1822.531-302.055a8.239,8.239,0,0,1,8.24-8.236,8.24,8.24,0,0,1,8.237,8.24,8.239,8.239,0,0,1-8.239,8.236,8.248,8.248,0,0,1-8.234-8.239Z" stroke="none"/>
        <path d="M 1830.76953125 -309.0909118652344 C 1826.966430664062 -309.0909118652344 1823.857666015625 -306.0585327148438 1823.734619140625 -302.2848815917969 L 1823.73486328125 -302.0548706054688 C 1823.739135742188 -298.1785278320312 1826.895629882812 -295.0200805664062 1830.769287109375 -295.0142211914062 C 1834.649169921875 -295.0142211914062 1837.807006835938 -298.1709594726562 1837.80859375 -302.0506286621094 C 1837.80859375 -305.931884765625 1834.651611328125 -309.0901489257812 1830.771362304688 -309.0909118652344 L 1830.76953125 -309.0909118652344 M 1830.76953125 -310.2909240722656 C 1830.770385742188 -310.2909240722656 1830.7705078125 -310.2909240722656 1830.771362304688 -310.2909240722656 C 1835.3212890625 -310.2900085449219 1839.008544921875 -306.5995178222656 1839.008544921875 -302.0506286621094 C 1839.006713867188 -297.5006408691406 1835.319091796875 -293.814208984375 1830.769287109375 -293.814208984375 C 1826.223022460938 -293.8211059570312 1822.539916992188 -297.5066223144531 1822.534912109375 -302.0535583496094 L 1822.530883789062 -302.0545349121094 C 1822.531860351562 -306.6026611328125 1826.220581054688 -310.2909240722656 1830.76953125 -310.2909240722656 Z" stroke="none" fill="#838383"/>
      </g>
      <path id="Path_18321" data-name="Path 18321" d="M1831.278-306.885l1.057,2.375a.515.515,0,0,0,.418.3l2.586.272a.517.517,0,0,1,.292.9l-1.932,1.74a.516.516,0,0,0-.16.492l.541,2.543a.517.517,0,0,1-.765.555l-2.251-1.3a.519.519,0,0,0-.517,0l-2.251,1.3a.517.517,0,0,1-.765-.555l.541-2.543a.517.517,0,0,0-.16-.492l-1.932-1.74a.517.517,0,0,1,.292-.9l2.586-.272a.514.514,0,0,0,.418-.3l1.057-2.375A.517.517,0,0,1,1831.278-306.885Z" transform="translate(-1821.186 310.257)" fill="none" stroke="#838383" stroke-miterlimit="10" stroke-width="1.2"/>
    </g>
  </g>
</svg>
