<svg id="Component_82_2" data-name="Component 82 – 2" xmlns="http://www.w3.org/2000/svg" xmlns:xlink="http://www.w3.org/1999/xlink" width="125" height="108" viewBox="0 0 125 108">
  <defs>
    <clipPath id="clip-path">
      <rect id="Rectangle_148660" data-name="Rectangle 148660" width="48.932" height="48.932" transform="translate(906 346)" fill="#fff" stroke="#707070" stroke-width="1"/>
    </clipPath>
  </defs>
  <g id="Polygon_2" data-name="Polygon 2" fill="none">
    <path d="M87.983,0a10,10,0,0,1,8.655,4.991l25.463,44a10,10,0,0,1,0,10.018l-25.463,44A10,10,0,0,1,87.983,108H37.017a10,10,0,0,1-8.655-4.991L2.9,59.009a10,10,0,0,1,0-10.018l25.463-44A10,10,0,0,1,37.017,0Z" stroke="none"/>
    <path d="M 37.01674652099609 1.000007629394531 C 33.81539916992188 1.000007629394531 30.83056640625 2.721267700195312 29.22708129882812 5.492103576660156 L 3.764114379882812 49.49208831787109 C 2.154983520507812 52.27267074584961 2.154983520507812 55.72732162475586 3.764114379882812 58.50788879394531 L 29.22706604003906 102.5079040527344 C 30.83056640625 105.2787399291992 33.81538391113281 107 37.01673126220703 107 L 87.98324584960938 107 C 91.18460083007812 107 94.16941833496094 105.2787399291992 95.77291870117188 102.5079040527344 L 121.2358856201172 58.50791931152344 C 122.8450012207031 55.72732162475586 122.8450012207031 52.27267074584961 121.2358856201172 49.49210357666016 L 95.77291870117188 5.492103576660156 C 94.16943359375 2.721267700195312 91.18460083007812 1.000007629394531 87.98324584960938 1.000007629394531 L 37.01674652099609 1.000007629394531 M 37.01674652099609 7.62939453125e-06 L 87.98324584960938 7.62939453125e-06 C 91.55228424072266 7.62939453125e-06 94.85078430175781 1.902153015136719 96.63843536376953 4.991218566894531 L 122.1014022827148 48.9912223815918 C 123.8944854736328 52.08968734741211 123.8944854736328 55.91030502319336 122.1014022827148 59.00878524780273 L 96.63843536376953 103.0087890625 C 94.85078430175781 106.0978393554688 91.55228424072266 108 87.98324584960938 108 L 37.01673126220703 108 C 33.44770050048828 108 30.14920043945312 106.0978393554688 28.36154937744141 103.0087890625 L 2.898597717285156 59.00876998901367 C 1.105499267578125 55.91030502319336 1.105499267578125 52.08968734741211 2.898597717285156 48.99120330810547 L 28.36156463623047 4.991218566894531 C 30.14921569824219 1.902153015136719 33.44771575927734 7.62939453125e-06 37.01674652099609 7.62939453125e-06 Z" stroke="none" fill="#8218d1"/>
  </g>
  <path id="Polygon_3" data-name="Polygon 3" d="M80.465,0a10,10,0,0,1,8.669,5.015l23,40a10,10,0,0,1,0,9.969l-23,40A10,10,0,0,1,80.465,100H34.535a10,10,0,0,1-8.669-5.015l-23-40a10,10,0,0,1,0-9.969l23-40A10,10,0,0,1,34.535,0Z" transform="translate(5 4)" fill="#8218d1"/>
  <g id="Mask_Group_113" data-name="Mask Group 113" transform="translate(-868 -316)" clip-path="url(#clip-path)">
    <g id="renewable-energy" transform="translate(906 346)">
      <g id="Group_16037" data-name="Group 16037" transform="translate(14.431 8.697)">
        <g id="Group_16036" data-name="Group 16036">
          <path id="Path_18384" data-name="Path 18384" d="M31.829,22.549a1.432,1.432,0,0,0-.942-1.03l-7.033-2.345,5-9.99a1.433,1.433,0,0,0-2.3-1.655L12.217,21.865a1.432,1.432,0,0,0,.56,2.373l7.033,2.345-5,9.99a1.433,1.433,0,0,0,2.3,1.655L31.447,23.892A1.435,1.435,0,0,0,31.829,22.549Z" transform="translate(-11.797 -7.109)" fill="#fff"/>
        </g>
      </g>
      <g id="Group_16039" data-name="Group 16039" transform="translate(2.867)">
        <g id="Group_16038" data-name="Group 16038">
          <path id="Path_18385" data-name="Path 18385" d="M23.942,0A24.641,24.641,0,0,0,5.211,8.843V7.263a1.434,1.434,0,1,0-2.867,0v6.09c0,1.368,1.767,1.564,1.434,1.434l.088,0L9.6,14.428a1.433,1.433,0,1,0-.176-2.862l-2.9.181A21.577,21.577,0,0,1,45.541,24.466a1.434,1.434,0,0,0,2.867,0A24.561,24.561,0,0,0,23.942,0Z" transform="translate(-2.344)" fill="#fff"/>
        </g>
      </g>
      <g id="Group_16041" data-name="Group 16041" transform="translate(0 23.032)">
        <g id="Group_16040" data-name="Group 16040">
          <path id="Path_18386" data-name="Path 18386" d="M44.543,29.944l-5.734.356a1.433,1.433,0,0,0-1.343,1.519,1.45,1.45,0,0,0,1.519,1.343l2.9-.181A21.577,21.577,0,0,1,2.867,20.262a1.434,1.434,0,1,0-2.867,0A24.561,24.561,0,0,0,24.466,44.727,24.641,24.641,0,0,0,43.2,35.885v1.58a1.434,1.434,0,0,0,2.867,0v-6.09A1.5,1.5,0,0,0,44.543,29.944Z" transform="translate(0 -18.828)" fill="#fff"/>
        </g>
      </g>
    </g>
  </g>
</svg>
