<svg xmlns="http://www.w3.org/2000/svg" xmlns:xlink="http://www.w3.org/1999/xlink" width="62" height="62" viewBox="0 0 62 62">
  <defs>
    <clipPath id="clip-path">
      <rect width="62" height="62" fill="none"/>
    </clipPath>
  </defs>
  <g id="Repeat_Grid_17" data-name="Repeat Grid 17" clip-path="url(#clip-path)">
    <g id="Group_18203" data-name="Group 18203" transform="translate(1965.011 -1406.815)">
      <rect id="Rectangle_148976" data-name="Rectangle 148976" width="62" height="62" transform="translate(-1965.011 1406.815)" fill="none"/>
      <g id="Group_18202" data-name="Group 18202">
        <g id="Group_18185" data-name="Group 18185">
          <g id="Group_18184" data-name="Group 18184">
            <path id="Path_21616" data-name="Path 21616" d="M-1945.5,1414.651a.9.9,0,0,0-.905.905.9.9,0,0,0,.905.905,9.4,9.4,0,0,1,9.27,9.511.905.905,0,0,0,.905.9.9.9,0,0,0,.905-.9A11.215,11.215,0,0,0-1945.5,1414.651Z" fill="#fff"/>
          </g>
        </g>
        <g id="Group_18187" data-name="Group 18187">
          <g id="Group_18186" data-name="Group 18186">
            <path id="Path_21617" data-name="Path 21617" d="M-1945.5,1418.944a.905.905,0,0,0-.905.905.9.9,0,0,0,.905.905,5.154,5.154,0,0,1,5.076,5.218.905.905,0,0,0,.905.9.9.9,0,0,0,.905-.9A6.966,6.966,0,0,0-1945.5,1418.944Z" fill="#fff"/>
          </g>
        </g>
        <g id="Group_18189" data-name="Group 18189">
          <g id="Group_18188" data-name="Group 18188">
            <path id="Path_21618" data-name="Path 21618" d="M-1945.485,1422.9a.9.9,0,0,0-.905.9.905.905,0,0,0,.905.905,1.213,1.213,0,0,1,1.186,1.235.9.9,0,0,0,.9.905.9.9,0,0,0,.905-.905A3.024,3.024,0,0,0-1945.485,1422.9Z" fill="#fff"/>
          </g>
        </g>
        <g id="Group_18191" data-name="Group 18191">
          <g id="Group_18190" data-name="Group 18190">
            <path id="Path_21619" data-name="Path 21619" d="M-1915.688,1421.823h-2.006a.905.905,0,0,0-.905.905.9.9,0,0,0,.905.905h2.006a3.035,3.035,0,0,1,3.032,3.032v12.284a3.029,3.029,0,0,1-1.153,2.377v-2.367a3.837,3.837,0,0,0-3.133-3.77l-.585-.109a4.068,4.068,0,0,0,.2-1.269v-2.08a4.105,4.105,0,0,0-4.1-4.1,4.105,4.105,0,0,0-4.1,4.1v2.08a4.068,4.068,0,0,0,.2,1.269l-.586.109a3.836,3.836,0,0,0-3.132,3.77v2.624a3.033,3.033,0,0,1-1.533-2.634v-12.284a3.035,3.035,0,0,1,3.032-3.032h2.157a.905.905,0,0,0,.905-.905.906.906,0,0,0-.905-.905h-2.157a4.847,4.847,0,0,0-4.842,4.842v12.284a4.847,4.847,0,0,0,4.842,4.842h4.554v2.6a.9.9,0,0,0,.557.835.9.9,0,0,0,.347.07.909.909,0,0,0,.639-.263l3.264-3.244h2.494a4.847,4.847,0,0,0,4.842-4.842v-12.284A4.847,4.847,0,0,0-1915.688,1421.823Zm-8.029,9.908a2.294,2.294,0,0,1,2.291-2.291,2.294,2.294,0,0,1,2.291,2.291v2.08a2.293,2.293,0,0,1-2.291,2.29,2.293,2.293,0,0,1-2.291-2.29Zm8.1,10.248-.068,0h-2.867a.9.9,0,0,0-.638.263l-1.986,1.974v-1.332a.905.905,0,0,0-.905-.905h-5.148v-3.022a2.027,2.027,0,0,1,1.654-1.991l1.276-.238a4.087,4.087,0,0,0,2.876,1.181,4.088,4.088,0,0,0,2.877-1.181l1.276.238a2.026,2.026,0,0,1,1.654,1.991v3.02Z" fill="#fff"/>
          </g>
        </g>
        <g id="Group_18193" data-name="Group 18193">
          <g id="Group_18192" data-name="Group 18192">
            <path id="Path_21620" data-name="Path 21620" d="M-1921.338,1422.089a.909.909,0,0,0-.64-.265.906.906,0,0,0-.639.265.906.906,0,0,0-.266.64.911.911,0,0,0,.266.64.911.911,0,0,0,.639.265.913.913,0,0,0,.64-.265.917.917,0,0,0,.265-.64A.907.907,0,0,0-1921.338,1422.089Z" fill="#fff"/>
          </g>
        </g>
        <g id="Group_18195" data-name="Group 18195">
          <g id="Group_18194" data-name="Group 18194">
            <path id="Path_21621" data-name="Path 21621" d="M-1940.356,1445.094a.907.907,0,0,0-.64-.265.911.911,0,0,0-.64.265.913.913,0,0,0-.265.64.911.911,0,0,0,.265.639.909.909,0,0,0,.64.266.906.906,0,0,0,.64-.266.907.907,0,0,0,.265-.639A.909.909,0,0,0-1940.356,1445.094Z" fill="#fff"/>
          </g>
        </g>
        <g id="Group_18197" data-name="Group 18197">
          <g id="Group_18196" data-name="Group 18196">
            <path id="Path_21622" data-name="Path 21622" d="M-1920.548,1453.277l-6.933-6.933a2.717,2.717,0,0,0-3.452-.322l-4.425,3.026a.907.907,0,0,1-1.151-.107l-1.463-1.464a.906.906,0,0,0-1.28,0,.906.906,0,0,0,0,1.28l1.463,1.464a2.718,2.718,0,0,0,3.453.321l4.425-3.026a.906.906,0,0,1,1.15.107l6.933,6.934a.9.9,0,0,1,0,1.279,11.415,11.415,0,0,1-16.125,0l-14.079-14.078a11.328,11.328,0,0,1-3.339-8.062,11.325,11.325,0,0,1,3.34-8.063.9.9,0,0,1,.639-.265.9.9,0,0,1,.64.265l6.933,6.933a.906.906,0,0,1,.108,1.151l-3.026,4.424a2.719,2.719,0,0,0,.321,3.453l2.2,2.2a.906.906,0,0,0,1.28,0,.906.906,0,0,0,0-1.28l-2.2-2.2a.907.907,0,0,1-.107-1.151l3.026-4.425a2.717,2.717,0,0,0-.322-3.452l-6.933-6.933a2.716,2.716,0,0,0-3.839,0,13.226,13.226,0,0,0,0,18.685l14.078,14.078a13.17,13.17,0,0,0,9.342,3.864,13.171,13.171,0,0,0,9.343-3.864A2.717,2.717,0,0,0-1920.548,1453.277Z" fill="#fff"/>
          </g>
        </g>
        <g id="Group_18199" data-name="Group 18199">
          <g id="Group_18198" data-name="Group 18198">
            <path id="Path_21623" data-name="Path 21623" d="M-1944.984,1436.9l-5.486-5.486a.906.906,0,0,0-1.28,0,.9.9,0,0,0,0,1.28l5.486,5.486a.9.9,0,0,0,.64.265.9.9,0,0,0,.64-.265A.906.906,0,0,0-1944.984,1436.9Z" fill="#fff"/>
          </g>
        </g>
        <g id="Group_18201" data-name="Group 18201">
          <g id="Group_18200" data-name="Group 18200">
            <path id="Path_21624" data-name="Path 21624" d="M-1923.988,1457.9l-5.772-5.772a.906.906,0,0,0-1.28,0,.9.9,0,0,0,0,1.28l5.772,5.772a.9.9,0,0,0,.64.265.907.907,0,0,0,.64-.265A.906.906,0,0,0-1923.988,1457.9Z" fill="#fff"/>
          </g>
        </g>
      </g>
    </g>
  </g>
</svg>
