<svg xmlns="http://www.w3.org/2000/svg" width="62" height="62" viewBox="0 0 62 62">
  <g id="Group_18171" data-name="Group 18171" transform="translate(1963.011 -1315.815)">
    <rect id="Rectangle_148976" data-name="Rectangle 148976" width="62" height="62" transform="translate(-1963.011 1315.815)" fill="none"/>
    <g id="Group_18170" data-name="Group 18170">
      <g id="Group_18153" data-name="Group 18153">
        <g id="Group_18152" data-name="Group 18152">
          <path id="Path_21604" data-name="Path 21604" d="M-1943.5,1323.651a.9.9,0,0,0-.905.905.9.9,0,0,0,.905.905,9.4,9.4,0,0,1,9.27,9.511.905.905,0,0,0,.905.9.9.9,0,0,0,.905-.9A11.215,11.215,0,0,0-1943.5,1323.651Z" fill="#8218d1"/>
        </g>
      </g>
      <g id="Group_18155" data-name="Group 18155">
        <g id="Group_18154" data-name="Group 18154">
          <path id="Path_21605" data-name="Path 21605" d="M-1943.5,1327.944a.905.905,0,0,0-.905.905.9.9,0,0,0,.905.905,5.154,5.154,0,0,1,5.076,5.218.905.905,0,0,0,.905.9.9.9,0,0,0,.905-.9A6.966,6.966,0,0,0-1943.5,1327.944Z" fill="#8218d1"/>
        </g>
      </g>
      <g id="Group_18157" data-name="Group 18157">
        <g id="Group_18156" data-name="Group 18156">
          <path id="Path_21606" data-name="Path 21606" d="M-1943.485,1331.9a.9.9,0,0,0-.905.9.905.905,0,0,0,.905.905,1.213,1.213,0,0,1,1.186,1.235.9.9,0,0,0,.9.905.9.9,0,0,0,.905-.905A3.024,3.024,0,0,0-1943.485,1331.9Z" fill="#8218d1"/>
        </g>
      </g>
      <g id="Group_18159" data-name="Group 18159">
        <g id="Group_18158" data-name="Group 18158">
          <path id="Path_21607" data-name="Path 21607" d="M-1913.688,1330.823h-2.006a.905.905,0,0,0-.905.905.9.9,0,0,0,.905.905h2.006a3.035,3.035,0,0,1,3.032,3.032v12.284a3.029,3.029,0,0,1-1.153,2.377v-2.367a3.837,3.837,0,0,0-3.133-3.77l-.585-.109a4.068,4.068,0,0,0,.2-1.269v-2.08a4.105,4.105,0,0,0-4.1-4.1,4.105,4.105,0,0,0-4.1,4.1v2.08a4.068,4.068,0,0,0,.2,1.269l-.586.109a3.836,3.836,0,0,0-3.132,3.77v2.624a3.033,3.033,0,0,1-1.533-2.634v-12.284a3.035,3.035,0,0,1,3.032-3.032h2.157a.905.905,0,0,0,.905-.905.906.906,0,0,0-.905-.905h-2.157a4.847,4.847,0,0,0-4.842,4.842v12.284a4.847,4.847,0,0,0,4.842,4.842h4.554v2.6a.9.9,0,0,0,.557.835.9.9,0,0,0,.347.07.909.909,0,0,0,.639-.263l3.264-3.244h2.494a4.847,4.847,0,0,0,4.842-4.842v-12.284A4.847,4.847,0,0,0-1913.688,1330.823Zm-8.029,9.908a2.294,2.294,0,0,1,2.291-2.291,2.294,2.294,0,0,1,2.291,2.291v2.08a2.293,2.293,0,0,1-2.291,2.29,2.293,2.293,0,0,1-2.291-2.29Zm8.1,10.248-.068,0h-2.867a.9.9,0,0,0-.638.263l-1.986,1.974v-1.332a.905.905,0,0,0-.905-.905h-5.148v-3.022a2.027,2.027,0,0,1,1.654-1.991l1.276-.238a4.087,4.087,0,0,0,2.876,1.181,4.088,4.088,0,0,0,2.877-1.181l1.276.238a2.026,2.026,0,0,1,1.654,1.991v3.02Z" fill="#8218d1"/>
        </g>
      </g>
      <g id="Group_18161" data-name="Group 18161">
        <g id="Group_18160" data-name="Group 18160">
          <path id="Path_21608" data-name="Path 21608" d="M-1919.338,1331.089a.909.909,0,0,0-.64-.265.906.906,0,0,0-.639.265.906.906,0,0,0-.266.64.911.911,0,0,0,.266.64.911.911,0,0,0,.639.265.913.913,0,0,0,.64-.265.917.917,0,0,0,.265-.64A.907.907,0,0,0-1919.338,1331.089Z" fill="#8218d1"/>
        </g>
      </g>
      <g id="Group_18163" data-name="Group 18163">
        <g id="Group_18162" data-name="Group 18162">
          <path id="Path_21609" data-name="Path 21609" d="M-1938.356,1354.094a.907.907,0,0,0-.64-.265.911.911,0,0,0-.64.265.913.913,0,0,0-.265.64.911.911,0,0,0,.265.639.909.909,0,0,0,.64.266.906.906,0,0,0,.64-.266.907.907,0,0,0,.265-.639A.909.909,0,0,0-1938.356,1354.094Z" fill="#8218d1"/>
        </g>
      </g>
      <g id="Group_18165" data-name="Group 18165">
        <g id="Group_18164" data-name="Group 18164">
          <path id="Path_21610" data-name="Path 21610" d="M-1918.548,1362.277l-6.933-6.933a2.717,2.717,0,0,0-3.452-.322l-4.425,3.026a.907.907,0,0,1-1.151-.107l-1.463-1.464a.906.906,0,0,0-1.28,0,.906.906,0,0,0,0,1.28l1.463,1.464a2.718,2.718,0,0,0,3.453.321l4.425-3.026a.906.906,0,0,1,1.15.107l6.933,6.934a.9.9,0,0,1,0,1.279,11.415,11.415,0,0,1-16.125,0l-14.079-14.078a11.328,11.328,0,0,1-3.339-8.062,11.325,11.325,0,0,1,3.34-8.063.9.9,0,0,1,.639-.265.9.9,0,0,1,.64.265l6.933,6.933a.906.906,0,0,1,.108,1.151l-3.026,4.424a2.719,2.719,0,0,0,.321,3.453l2.2,2.2a.906.906,0,0,0,1.28,0,.906.906,0,0,0,0-1.28l-2.2-2.2a.907.907,0,0,1-.107-1.151l3.026-4.425a2.717,2.717,0,0,0-.322-3.452l-6.933-6.933a2.716,2.716,0,0,0-3.839,0,13.226,13.226,0,0,0,0,18.685l14.078,14.078a13.17,13.17,0,0,0,9.342,3.864,13.171,13.171,0,0,0,9.343-3.864A2.717,2.717,0,0,0-1918.548,1362.277Z" fill="#8218d1"/>
        </g>
      </g>
      <g id="Group_18167" data-name="Group 18167">
        <g id="Group_18166" data-name="Group 18166">
          <path id="Path_21611" data-name="Path 21611" d="M-1942.984,1345.9l-5.486-5.486a.906.906,0,0,0-1.28,0,.9.9,0,0,0,0,1.28l5.486,5.486a.9.9,0,0,0,.64.265.9.9,0,0,0,.64-.265A.906.906,0,0,0-1942.984,1345.9Z" fill="#8218d1"/>
        </g>
      </g>
      <g id="Group_18169" data-name="Group 18169">
        <g id="Group_18168" data-name="Group 18168">
          <path id="Path_21612" data-name="Path 21612" d="M-1921.988,1366.9l-5.772-5.772a.906.906,0,0,0-1.28,0,.9.9,0,0,0,0,1.28l5.772,5.772a.9.9,0,0,0,.64.265.907.907,0,0,0,.64-.265A.906.906,0,0,0-1921.988,1366.9Z" fill="#8218d1"/>
        </g>
      </g>
    </g>
  </g>
</svg>
