<svg xmlns="http://www.w3.org/2000/svg" width="121.892" height="108" viewBox="0 0 121.892 108">
  <g id="Group_18297" data-name="Group 18297" transform="translate(-425.554 -722)">
    <g id="Path_21794" data-name="Path 21794" transform="translate(424 722)" fill="none">
      <path d="M87.983,0a10,10,0,0,1,8.655,4.991l25.463,44a10,10,0,0,1,0,10.018l-25.463,44A10,10,0,0,1,87.983,108H37.017a10,10,0,0,1-8.655-4.991L2.9,59.009a10,10,0,0,1,0-10.018l25.463-44A10,10,0,0,1,37.017,0Z" stroke="none"/>
      <path d="M 37.01674652099609 1.000007629394531 C 33.81539916992188 1.000007629394531 30.83056640625 2.721267700195312 29.22708129882812 5.492103576660156 L 3.764114379882812 49.49208831787109 C 2.154983520507812 52.27267074584961 2.154983520507812 55.72732162475586 3.764114379882812 58.50788879394531 L 29.22706604003906 102.5079040527344 C 30.83056640625 105.2787399291992 33.81538391113281 107 37.01673126220703 107 L 87.98324584960938 107 C 91.18460083007812 107 94.16941833496094 105.2787399291992 95.77291870117188 102.5079040527344 L 121.2358856201172 58.50791931152344 C 122.8450012207031 55.72732162475586 122.8450012207031 52.27267074584961 121.2358856201172 49.49210357666016 L 95.77291870117188 5.492103576660156 C 94.16943359375 2.721267700195312 91.18460083007812 1.000007629394531 87.98324584960938 1.000007629394531 L 37.01674652099609 1.000007629394531 M 37.01674652099609 7.62939453125e-06 L 87.98324584960938 7.62939453125e-06 C 91.55228424072266 7.62939453125e-06 94.85078430175781 1.902153015136719 96.63843536376953 4.991218566894531 L 122.1014022827148 48.9912223815918 C 123.8944854736328 52.08968734741211 123.8944854736328 55.91030502319336 122.1014022827148 59.00878524780273 L 96.63843536376953 103.0087890625 C 94.85078430175781 106.0978393554688 91.55228424072266 108 87.98324584960938 108 L 37.01673126220703 108 C 33.44770050048828 108 30.14920043945312 106.0978393554688 28.36154937744141 103.0087890625 L 2.898597717285156 59.00876998901367 C 1.105499267578125 55.91030502319336 1.105499267578125 52.08968734741211 2.898597717285156 48.99120330810547 L 28.36156463623047 4.991218566894531 C 30.14921569824219 1.902153015136719 33.44771575927734 7.62939453125e-06 37.01674652099609 7.62939453125e-06 Z" stroke="none" fill="#8218d1"/>
    </g>
    <path id="Polygon_5" data-name="Polygon 5" d="M80.465,0a10,10,0,0,1,8.669,5.015l23,40a10,10,0,0,1,0,9.969l-23,40A10,10,0,0,1,80.465,100H34.535a10,10,0,0,1-8.669-5.015l-23-40a10,10,0,0,1,0-9.969l23-40A10,10,0,0,1,34.535,0Z" transform="translate(429 726)" fill="#8218d1"/>
    <g id="Group_18141" data-name="Group 18141" transform="translate(2384.551 -537.6)">
      <rect id="Rectangle_148976" data-name="Rectangle 148976" width="70" height="70" transform="translate(-1933.55 1278.599)" fill="none"/>
      <g id="Group_18140" data-name="Group 18140" transform="translate(-1925.185 1286.963)">
        <g id="Group_18123" data-name="Group 18123" transform="translate(12.384)">
          <g id="Group_18122" data-name="Group 18122">
            <path id="Path_21576" data-name="Path 21576" d="M-1920.966,1283.193a1.042,1.042,0,0,0-1.041,1.041,1.041,1.041,0,0,0,1.041,1.041,10.813,10.813,0,0,1,10.659,10.938,1.041,1.041,0,0,0,1.041,1.039,1.04,1.04,0,0,0,1.041-1.039A12.9,12.9,0,0,0-1920.966,1283.193Z" transform="translate(1922.007 -1283.193)" fill="#fff"/>
          </g>
        </g>
        <g id="Group_18125" data-name="Group 18125" transform="translate(12.382 4.937)">
          <g id="Group_18124" data-name="Group 18124">
            <path id="Path_21577" data-name="Path 21577" d="M-1920.969,1285.963a1.04,1.04,0,0,0-1.039,1.041,1.039,1.039,0,0,0,1.039,1.041,5.928,5.928,0,0,1,5.839,6,1.04,1.04,0,0,0,1.039,1.041,1.04,1.04,0,0,0,1.041-1.041A8.01,8.01,0,0,0-1920.969,1285.963Z" transform="translate(1922.008 -1285.963)" fill="#fff"/>
          </g>
        </g>
        <g id="Group_18127" data-name="Group 18127" transform="translate(12.401 9.485)">
          <g id="Group_18126" data-name="Group 18126">
            <path id="Path_21578" data-name="Path 21578" d="M-1920.956,1288.515a1.04,1.04,0,0,0-1.041,1.041,1.041,1.041,0,0,0,1.041,1.041,1.394,1.394,0,0,1,1.363,1.42,1.039,1.039,0,0,0,1.041,1.039,1.039,1.039,0,0,0,1.039-1.039A3.476,3.476,0,0,0-1920.956,1288.515Z" transform="translate(1921.997 -1288.515)" fill="#fff"/>
          </g>
        </g>
        <g id="Group_18129" data-name="Group 18129" transform="translate(28.504 8.248)">
          <g id="Group_18128" data-name="Group 18128">
            <path id="Path_21579" data-name="Path 21579" d="M-1893.764,1287.821h-2.306a1.041,1.041,0,0,0-1.041,1.041,1.041,1.041,0,0,0,1.041,1.039h2.306a3.49,3.49,0,0,1,3.486,3.486v14.126a3.479,3.479,0,0,1-1.326,2.732v-2.721a4.411,4.411,0,0,0-3.6-4.335l-.674-.126a4.706,4.706,0,0,0,.232-1.46v-2.39a4.72,4.72,0,0,0-4.714-4.716,4.721,4.721,0,0,0-4.716,4.716v2.39a4.706,4.706,0,0,0,.232,1.46l-.672.126a4.411,4.411,0,0,0-3.6,4.335v3.017a3.486,3.486,0,0,1-1.763-3.028v-14.126a3.49,3.49,0,0,1,3.486-3.486h2.479a1.04,1.04,0,0,0,1.041-1.039,1.04,1.04,0,0,0-1.041-1.041h-2.479a5.574,5.574,0,0,0-5.568,5.566v14.126a5.574,5.574,0,0,0,5.568,5.566h5.236v2.992a1.042,1.042,0,0,0,.64.961,1.054,1.054,0,0,0,.4.08,1.037,1.037,0,0,0,.732-.3l3.754-3.73h2.867a5.573,5.573,0,0,0,5.568-5.566v-14.126A5.573,5.573,0,0,0-1893.764,1287.821Zm-9.23,11.392a2.637,2.637,0,0,1,2.634-2.634,2.637,2.637,0,0,1,2.634,2.634v2.39a2.637,2.637,0,0,1-2.634,2.634,2.637,2.637,0,0,1-2.634-2.634Zm9.311,11.782-.08,0h-3.3v0a1.043,1.043,0,0,0-.735.3l-2.283,2.271v-1.533a1.042,1.042,0,0,0-1.041-1.041h-5.919v-3.473a2.332,2.332,0,0,1,1.9-2.29l1.467-.273a4.7,4.7,0,0,0,3.308,1.358,4.7,4.7,0,0,0,3.306-1.358l1.469.273a2.332,2.332,0,0,1,1.9,2.29V1311Z" transform="translate(1912.962 -1287.821)" fill="#fff"/>
          </g>
        </g>
        <g id="Group_18131" data-name="Group 18131" transform="translate(39.431 8.248)">
          <g id="Group_18130" data-name="Group 18130">
            <path id="Path_21580" data-name="Path 21580" d="M-1905.056,1288.126a1.042,1.042,0,0,0-.734-.3,1.043,1.043,0,0,0-.736.3,1.044,1.044,0,0,0-.3.736,1.05,1.05,0,0,0,.3.736,1.051,1.051,0,0,0,.736.3,1.05,1.05,0,0,0,.734-.3,1.052,1.052,0,0,0,.3-.736A1.046,1.046,0,0,0-1905.056,1288.126Z" transform="translate(1906.831 -1287.821)" fill="#fff"/>
          </g>
        </g>
        <g id="Group_18133" data-name="Group 18133" transform="translate(17.563 34.7)">
          <g id="Group_18132" data-name="Group 18132">
            <path id="Path_21581" data-name="Path 21581" d="M-1917.324,1302.968a1.046,1.046,0,0,0-.736-.3,1.047,1.047,0,0,0-.736.3,1.044,1.044,0,0,0-.3.736,1.041,1.041,0,0,0,.3.734,1.042,1.042,0,0,0,.736.306,1.044,1.044,0,0,0,.736-.306,1.04,1.04,0,0,0,.3-.734A1.047,1.047,0,0,0-1917.324,1302.968Z" transform="translate(1919.101 -1302.663)" fill="#fff"/>
          </g>
        </g>
        <g id="Group_18135" data-name="Group 18135" transform="translate(0 10.244)">
          <g id="Group_18134" data-name="Group 18134">
            <path id="Path_21582" data-name="Path 21582" d="M-1886.841,1323.11l-7.972-7.972a3.125,3.125,0,0,0-3.969-.369l-5.088,3.479a1.042,1.042,0,0,1-1.322-.123l-1.683-1.682a1.041,1.041,0,0,0-1.472,0,1.039,1.039,0,0,0,0,1.47l1.683,1.684a3.124,3.124,0,0,0,3.969.369l5.088-3.479a1.038,1.038,0,0,1,1.322.123l7.972,7.972a1.041,1.041,0,0,1,0,1.472,13.125,13.125,0,0,1-18.54,0l-16.188-16.188a13.022,13.022,0,0,1-3.841-9.271,13.024,13.024,0,0,1,3.841-9.271,1.035,1.035,0,0,1,.736-.3,1.038,1.038,0,0,1,.736.3l7.972,7.972a1.044,1.044,0,0,1,.123,1.324l-3.479,5.088a3.122,3.122,0,0,0,.369,3.969l2.529,2.529a1.041,1.041,0,0,0,1.472,0,1.041,1.041,0,0,0,0-1.472l-2.529-2.529a1.037,1.037,0,0,1-.123-1.322l3.479-5.089a3.122,3.122,0,0,0-.371-3.969l-7.972-7.972a3.125,3.125,0,0,0-4.415,0,15.211,15.211,0,0,0,0,21.485l16.188,16.186a15.145,15.145,0,0,0,10.741,4.443,15.146,15.146,0,0,0,10.743-4.443A3.124,3.124,0,0,0-1886.841,1323.11Z" transform="translate(1928.955 -1288.941)" fill="#fff"/>
          </g>
        </g>
        <g id="Group_18137" data-name="Group 18137" transform="translate(5.932 18.975)">
          <g id="Group_18136" data-name="Group 18136">
            <path id="Path_21583" data-name="Path 21583" d="M-1917.543,1300.452l-6.307-6.309a1.045,1.045,0,0,0-1.472,0,1.042,1.042,0,0,0,0,1.472l6.309,6.307a1.036,1.036,0,0,0,.736.3,1.036,1.036,0,0,0,.734-.3A1.039,1.039,0,0,0-1917.543,1300.452Z" transform="translate(1925.627 -1293.84)" fill="#fff"/>
          </g>
        </g>
        <g id="Group_18139" data-name="Group 18139" transform="translate(29.746 42.786)">
          <g id="Group_18138" data-name="Group 18138">
            <path id="Path_21584" data-name="Path 21584" d="M-1903.853,1314.142l-6.637-6.637a1.039,1.039,0,0,0-1.47,0,1.042,1.042,0,0,0,0,1.473l6.637,6.637a1.036,1.036,0,0,0,.734.3,1.037,1.037,0,0,0,.736-.3A1.042,1.042,0,0,0-1903.853,1314.142Z" transform="translate(1912.265 -1307.2)" fill="#fff"/>
          </g>
        </g>
      </g>
    </g>
  </g>
</svg>
