<svg xmlns="http://www.w3.org/2000/svg" width="62" height="62" viewBox="0 0 62 62">
  <g id="Group_18173" data-name="Group 18173" transform="translate(1887.223 -1315.815)">
    <rect id="Rectangle_148976" data-name="Rectangle 148976" width="62" height="62" transform="translate(-1887.223 1315.815)" fill="none"/>
    <g id="Group_18172" data-name="Group 18172">
      <path id="Path_21613" data-name="Path 21613" d="M-1868.663,1369.164a.871.871,0,0,0,1.247.007l4.283-4.3a2.759,2.759,0,0,0,.629-2.795l.921-.905a2.606,2.606,0,0,1,1.84-.758H-1848a7.831,7.831,0,0,0,5.546-2.3c.061-.061-.467.573,8.012-9.756a3.656,3.656,0,0,0-.42-5.077,3.5,3.5,0,0,0-4.957.4l-5.213,5.461a3.528,3.528,0,0,0-2.747-1.34h-9.851a11.206,11.206,0,0,0-4.424-.9,10.891,10.891,0,0,0-9.962,5.757,2.609,2.609,0,0,0-2.363.746l-4.2,4.3a.914.914,0,0,0,0,1.27Zm6.61-20.457a9.5,9.5,0,0,1,3.889.825.865.865,0,0,0,.354.076h10.032a1.789,1.789,0,0,1,1.767,1.8,1.786,1.786,0,0,1-1.767,1.8h-7.208a.892.892,0,0,0-.883.9.891.891,0,0,0,.883.9h7.208a3.571,3.571,0,0,0,3.534-3.6,3.674,3.674,0,0,0-.031-.471c5.042-5.284,5.753-6.026,5.784-6.063a1.75,1.75,0,0,1,2.491-.214,1.828,1.828,0,0,1,.207,2.541l-7.924,9.655a6.091,6.091,0,0,1-4.282,1.756h-11.744a4.35,4.35,0,0,0-3.067,1.262l-.751.738-6.921-7.054A9.092,9.092,0,0,1-1862.053,1348.707Zm-11.075,5.976a.869.869,0,0,1,1.094-.127c.153.095-.286-.312,7.652,7.767a.915.915,0,0,1,.005,1.269l-3.652,3.667-8.68-8.915Z" fill="#8218d1"/>
      <g id="Group_16125" data-name="Group 16125">
        <g id="Group_16124" data-name="Group 16124">
          <path id="Path_18423" data-name="Path 18423" d="M-1852.811,1332.033a4.752,4.752,0,0,0-.327-6.622,4.54,4.54,0,0,0-6.5.333,4.753,4.753,0,0,0,0,6.289,8.459,8.459,0,0,0-4.639,7.565v2.344a1.161,1.161,0,0,0,1.15,1.172h13.8a1.161,1.161,0,0,0,1.15-1.172h0V1339.6A8.46,8.46,0,0,0-1852.811,1332.033Zm-3.414-5.485a2.322,2.322,0,0,1,2.3,2.344,2.323,2.323,0,0,1-2.3,2.344,2.323,2.323,0,0,1-2.3-2.344h0A2.326,2.326,0,0,1-1856.225,1326.548Zm5.75,14.223h-11.5V1339.6a5.816,5.816,0,0,1,5.588-6.025,5.8,5.8,0,0,1,5.912,5.695q0,.165,0,.33Z" fill="#8218d1"/>
        </g>
      </g>
    </g>
  </g>
</svg>
