<svg xmlns="http://www.w3.org/2000/svg" width="125" height="108" viewBox="0 0 125 108">
  <g id="Group_18298" data-name="Group 18298" transform="translate(-699 -722)">
    <g id="Polygon_6" data-name="Polygon 6" transform="translate(699 722)" fill="none">
      <path d="M87.983,0a10,10,0,0,1,8.655,4.991l25.463,44a10,10,0,0,1,0,10.018l-25.463,44A10,10,0,0,1,87.983,108H37.017a10,10,0,0,1-8.655-4.991L2.9,59.009a10,10,0,0,1,0-10.018l25.463-44A10,10,0,0,1,37.017,0Z" stroke="none"/>
      <path d="M 37.01674652099609 1.000007629394531 C 33.81539916992188 1.000007629394531 30.83056640625 2.721267700195312 29.22708129882812 5.492103576660156 L 3.764114379882812 49.49208831787109 C 2.154983520507812 52.27267074584961 2.154983520507812 55.72732162475586 3.764114379882812 58.50788879394531 L 29.22706604003906 102.5079040527344 C 30.83056640625 105.2787399291992 33.81538391113281 107 37.01673126220703 107 L 87.98324584960938 107 C 91.18460083007812 107 94.16941833496094 105.2787399291992 95.77291870117188 102.5079040527344 L 121.2358856201172 58.50791931152344 C 122.8450012207031 55.72732162475586 122.8450012207031 52.27267074584961 121.2358856201172 49.49210357666016 L 95.77291870117188 5.492103576660156 C 94.16943359375 2.721267700195312 91.18460083007812 1.000007629394531 87.98324584960938 1.000007629394531 L 37.01674652099609 1.000007629394531 M 37.01674652099609 7.62939453125e-06 L 87.98324584960938 7.62939453125e-06 C 91.55228424072266 7.62939453125e-06 94.85078430175781 1.902153015136719 96.63843536376953 4.991218566894531 L 122.1014022827148 48.9912223815918 C 123.8944854736328 52.08968734741211 123.8944854736328 55.91030502319336 122.1014022827148 59.00878524780273 L 96.63843536376953 103.0087890625 C 94.85078430175781 106.0978393554688 91.55228424072266 108 87.98324584960938 108 L 37.01673126220703 108 C 33.44770050048828 108 30.14920043945312 106.0978393554688 28.36154937744141 103.0087890625 L 2.898597717285156 59.00876998901367 C 1.105499267578125 55.91030502319336 1.105499267578125 52.08968734741211 2.898597717285156 48.99120330810547 L 28.36156463623047 4.991218566894531 C 30.14921569824219 1.902153015136719 33.44771575927734 7.62939453125e-06 37.01674652099609 7.62939453125e-06 Z" stroke="none" fill="#8218d1"/>
    </g>
    <path id="Polygon_7" data-name="Polygon 7" d="M80.465,0a10,10,0,0,1,8.669,5.015l23,40a10,10,0,0,1,0,9.969l-23,40A10,10,0,0,1,80.465,100H34.535a10,10,0,0,1-8.669-5.015l-23-40a10,10,0,0,1,0-9.969l23-40A10,10,0,0,1,34.535,0Z" transform="translate(704 726)" fill="#8218d1"/>
    <g id="Group_18143" data-name="Group 18143" transform="translate(2603.223 -536.049)">
      <rect id="Rectangle_148976" data-name="Rectangle 148976" width="70" height="70" transform="translate(-1876.223 1277.049)" fill="none"/>
      <g id="Group_18142" data-name="Group 18142" transform="translate(-1866.756 1286.515)">
        <g id="Group_18210" data-name="Group 18210" transform="translate(-1061.462 -902.75)">
          <path id="Path_21585" data-name="Path 21585" d="M1072.487,953.767a.985.985,0,0,0,1.393.025l.016-.016,4.835-4.856a3.118,3.118,0,0,0,.71-3.155l1.04-1.022a2.945,2.945,0,0,1,2.077-.856h13.26a8.847,8.847,0,0,0,6.261-2.592c.068-.068-.527.646,9.046-11.014a4.127,4.127,0,0,0-.474-5.731,3.948,3.948,0,0,0-5.568.415l-.032.038-5.885,6.165a3.977,3.977,0,0,0-3.1-1.514h-11.121a12.674,12.674,0,0,0-5-1.015,12.3,12.3,0,0,0-11.247,6.5,2.942,2.942,0,0,0-2.667.842l-4.744,4.851a1.032,1.032,0,0,0,0,1.435Zm7.462-23.1a10.7,10.7,0,0,1,4.391.933.983.983,0,0,0,.4.084h11.326a2.033,2.033,0,0,1,0,4.066h-8.138a1.007,1.007,0,0,0-1,1.014v0a1.008,1.008,0,0,0,1,1.017h8.14a4.034,4.034,0,0,0,3.99-4.067,4.119,4.119,0,0,0-.035-.532c5.693-5.964,6.5-6.8,6.531-6.844a1.976,1.976,0,0,1,2.781-.269l.031.026a2.064,2.064,0,0,1,.233,2.87l-8.946,10.9a6.87,6.87,0,0,1-4.833,1.983h-13.26a4.911,4.911,0,0,0-3.463,1.425l-.847.835-7.814-7.964A10.263,10.263,0,0,1,1079.949,930.667Zm-12.5,6.746a.979.979,0,0,1,1.234-.142c.173.107-.322-.354,8.64,8.769a1.032,1.032,0,0,1,.005,1.433l-4.123,4.139-9.8-10.066Z" fill="#fff"/>
          <path id="Path_21641" data-name="Path 21641" d="M1078.744,924.069a1.028,1.028,0,0,1-1.016-1.039v-2.649a9.219,9.219,0,0,1,5.08-8.287l.327-.166-.242-.275a5.1,5.1,0,0,1,0-6.724l.089-.1a4.842,4.842,0,0,1,6.841-.255,5.05,5.05,0,0,1,.35,7.08l-.242.276.327.165a9.216,9.216,0,0,1,5.084,8.285v2.647a1.03,1.03,0,0,1-1.019,1.042Zm7.6-10.77a6.862,6.862,0,0,0-6.588,7.093v1.6h13.55l0-1.977a6.87,6.87,0,0,0-6.83-6.716Zm.184-7.933a2.93,2.93,0,1,0,2.886,2.926,2.9,2.9,0,0,0-2.881-2.926h-.005Z" fill="#fff"/>
        </g>
      </g>
    </g>
  </g>
</svg>
