<svg xmlns="http://www.w3.org/2000/svg" width="62" height="62" viewBox="0 0 62 62">
  <g id="Group_18179" data-name="Group 18179" transform="translate(2112.562 -1314.525)">
    <rect id="Rectangle_148976" data-name="Rectangle 148976" width="62" height="62" transform="translate(-2112.562 1314.525)" fill="none"/>
    <g id="Group_18178" data-name="Group 18178">
      <g id="Group_18177" data-name="Group 18177">
        <g id="Group_18176" data-name="Group 18176">
          <path id="Path_21614" data-name="Path 21614" d="M-2056.686,1340.885a3.176,3.176,0,0,0-1.743-1.715l-.883-.358v-4.668a3.2,3.2,0,0,0-3.2-3.2h-16.215l-9.3-3.767a.738.738,0,0,0-.961.407.737.737,0,0,0,.407.96l5.924,2.4h-15.42l1.528-3.772a1.721,1.721,0,0,1,2.239-.948l2.995,1.213a.736.736,0,0,0,.96-.407.738.738,0,0,0-.406-.961l-3-1.213a3.2,3.2,0,0,0-4.161,1.762l-1.752,4.326h-.954a3.2,3.2,0,0,0-3.194,3.2v7.045l-2.646,6.53a3.174,3.174,0,0,0,.02,2.445,3.173,3.173,0,0,0,1.742,1.716l.884.357v4.668a3.2,3.2,0,0,0,3.194,3.195h3.148a.737.737,0,0,0,.738-.737.738.738,0,0,0-.738-.738h-3.148a1.721,1.721,0,0,1-1.719-1.72v-13.183h9.694a14.111,14.111,0,0,0-4.933,7.026.744.744,0,0,0,.467.9.743.743,0,0,0,.951-.494,13.176,13.176,0,0,1,5.2-6.837v14.309h-3.562a.738.738,0,0,0-.738.738.738.738,0,0,0,.738.737h10.116l7.33,2.969a.728.728,0,0,0,.276.055.737.737,0,0,0,.684-.461.738.738,0,0,0-.406-.961l-3.955-1.6h15.421l-1.528,3.773a1.723,1.723,0,0,1-2.24.948l-4.957-2.008a.738.738,0,0,0-.961.406.738.738,0,0,0,.407.961l4.957,2.008a3.174,3.174,0,0,0,1.2.234,3.2,3.2,0,0,0,2.965-1.995l1.753-4.327h.953a3.2,3.2,0,0,0,3.2-3.195v-7.045l2.645-6.529a3.174,3.174,0,0,0-.019-2.445Zm-47.455,9.627a1.707,1.707,0,0,1-.938-.923,1.707,1.707,0,0,1-.01-1.316l1.278-3.154v5.527Zm6.622-11.008c-.126-.3-.217-.773.449-1.464a1.309,1.309,0,0,1,1.144-.454c.892.135,2.07,1.166,3.316,2.9.433.6.81,1.2,1.1,1.694-2.827-.276-5.47-1.41-6.01-2.679Zm6.563.77c-1.171-1.759-2.928-3.871-4.749-4.146a2.718,2.718,0,0,0-2.427.888,2.787,2.787,0,0,0-.745,3.065,4.808,4.808,0,0,0,2.267,2.165h-5.726v-8.1a1.722,1.722,0,0,1,1.719-1.72h9.661v7.85Zm30.169,16.631a1.722,1.722,0,0,1-1.72,1.72h-26.973v-14.309a13.176,13.176,0,0,1,5.2,6.837.744.744,0,0,0,.951.494.744.744,0,0,0,.467-.9,14.111,14.111,0,0,0-4.933-7.026h27.007Zm-28.141-14.722c.288-.486.662-1.079,1.091-1.679,1.25-1.746,2.432-2.782,3.326-2.918a1.307,1.307,0,0,1,1.145.454c.666.692.575,1.167.449,1.464-.54,1.269-3.184,2.4-6.011,2.679Zm28.141.063h-23.039a4.805,4.805,0,0,0,2.266-2.165,2.787,2.787,0,0,0-.744-3.065,2.716,2.716,0,0,0-2.427-.888c-1.821.275-3.578,2.388-4.749,4.146v-7.849h26.973a1.721,1.721,0,0,1,1.719,1.719v8.1Zm2.753.531-1.278,3.154V1340.4l.329.133a1.71,1.71,0,0,1,.938.924,1.711,1.711,0,0,1,.011,1.316Z" fill="#8218d1"/>
          <path id="Path_21615" data-name="Path 21615" d="M-2068.981,1354.941v.708a.739.739,0,0,0,.738.738.738.738,0,0,0,.738-.738v-.687a2.433,2.433,0,0,0,1.181-.6,2.547,2.547,0,0,0,.769-1.829,2.294,2.294,0,0,0-.511-1.484,3.026,3.026,0,0,0-2.091-.973c-.875-.1-1.006-.548-1.006-.808a.866.866,0,0,1,.92-.92.97.97,0,0,1,.868.436.74.74,0,0,0,.684.459.748.748,0,0,0,.664-1.066,2.371,2.371,0,0,0-1.478-1.2v-.721a.738.738,0,0,0-.738-.738.738.738,0,0,0-.738.738v.719a2.179,2.179,0,0,0-1.215.872,2.631,2.631,0,0,0-.443,1.424,2.322,2.322,0,0,0,2.32,2.275c1.288.142,1.288.758,1.288.99a1.07,1.07,0,0,1-.3.755,1.279,1.279,0,0,1-.984.263,1.178,1.178,0,0,1-1.163-.7h0a.739.739,0,0,0-.716-.561.746.746,0,0,0-.692,1,2.544,2.544,0,0,0,1.91,1.658Z" fill="#8218d1"/>
        </g>
      </g>
    </g>
  </g>
</svg>
