<svg xmlns="http://www.w3.org/2000/svg" width="62" height="62" viewBox="0 0 62 62">
  <g id="Group_18207" data-name="Group 18207" transform="translate(1825.608 -1406.815)">
    <rect id="Rectangle_148976" data-name="Rectangle 148976" width="62" height="62" transform="translate(-1825.608 1406.815)" fill="none"/>
    <g id="download">
      <path id="Path_18439" data-name="Path 18439" d="M-1773.015,1438.933a2.256,2.256,0,0,0-3.115,0l-7.786,7.788a.73.73,0,0,0-.2.354l-.778,3.376a.733.733,0,0,0,.549.881.716.716,0,0,0,.332,0l3.377-.779a.736.736,0,0,0,.354-.2l7.781-7.791a2.2,2.2,0,0,0,0-3.114h0Zm-10.182,10.7.412-1.783,1.371,1.368Zm2.914-1.356-1.557-1.555,5.19-5.19,1.557,1.557Zm6.748-6.749-.519.521-1.557-1.557.521-.52a.75.75,0,0,1,1.036,0l.519.519a.735.735,0,0,1,0,1.038Z" fill="#fff"/>
      <path id="Path_18440" data-name="Path 18440" d="M-1794.585,1454.305l-1.038,1.038,2.077,2.077a.735.735,0,0,0,1.038,0l4.671-4.672-1.038-1.038-4.152,4.153Z" fill="#fff"/>
      <path id="Path_18441" data-name="Path 18441" d="M-1786.433,1446.664v-7.34a2.936,2.936,0,0,0-2.937-2.936h-.756a3.67,3.67,0,0,0,.773-5.133,3.67,3.67,0,0,0-5.132-.774,3.671,3.671,0,0,0-.774,5.133,3.684,3.684,0,0,0,.774.774h-.757a2.935,2.935,0,0,0-2.936,2.936v7.34a.733.733,0,0,0,.734.734h10.277A.734.734,0,0,0-1786.433,1446.664Zm-8.075-13.213a2.2,2.2,0,0,1,2.2-2.2,2.2,2.2,0,0,1,2.2,2.2,2.2,2.2,0,0,1-2.2,2.2A2.2,2.2,0,0,1-1794.508,1433.451Zm6.607,12.479h-8.809v-6.606a1.468,1.468,0,0,1,1.468-1.468h5.872a1.469,1.469,0,0,1,1.469,1.468Z" fill="#fff"/>
      <path id="Path_18442" data-name="Path 18442" d="M-1815.244,1430.335a10.617,10.617,0,0,0,.727,1.73.3.3,0,0,1-.062.353.68.68,0,0,0-.073.088,1.813,1.813,0,0,0,.073,2.485l1.591,1.582a1.836,1.836,0,0,0,2.491.074.906.906,0,0,0,.093-.081.306.306,0,0,1,.348-.065,10.938,10.938,0,0,0,1.762.734.294.294,0,0,1,.2.294,1.82,1.82,0,0,0,1.822,1.813h.359v20.48a.759.759,0,0,0,.754.749h22.124a.761.761,0,0,0,.539-.22l3.817-3.793a.754.754,0,0,0,.221-.538v-3.034h-1.526v2.721l-3.367,3.348H-1804.4v-31.1h24.411v10.619h1.526V1427.2a.762.762,0,0,0-.763-.759h-13.732v-.356a1.819,1.819,0,0,0-1.823-1.813.3.3,0,0,1-.294-.212,10.71,10.71,0,0,0-.726-1.73.3.3,0,0,1,.061-.353.888.888,0,0,0,.074-.088,1.814,1.814,0,0,0-.074-2.485l-1.589-1.582a1.834,1.834,0,0,0-2.491-.073.638.638,0,0,0-.092.081.307.307,0,0,1-.349.064,10.993,10.993,0,0,0-1.762-.734.293.293,0,0,1-.2-.294,1.82,1.82,0,0,0-1.82-1.8h-2.243a1.832,1.832,0,0,0-1.295.541,1.815,1.815,0,0,0-.528,1.294.267.267,0,0,1-.187.264,11.175,11.175,0,0,0-1.766.734.306.306,0,0,1-.355-.062.864.864,0,0,0-.088-.073,1.837,1.837,0,0,0-2.5.073l-1.594,1.574a1.814,1.814,0,0,0-.074,2.477.9.9,0,0,0,.081.092.3.3,0,0,1,.065.346,10.8,10.8,0,0,0-.734,1.749.294.294,0,0,1-.294.2,1.821,1.821,0,0,0-1.819,1.813v2.23a1.821,1.821,0,0,0,1.823,1.813.3.3,0,0,1,.294.211Zm10.086-3.9a.762.762,0,0,0-.763.759h0v5.249a5.312,5.312,0,0,1-4.472-6.037,5.313,5.313,0,0,1,6.037-4.472,5.313,5.313,0,0,1,4.477,4.5Zm-10.681,1.874v-2.23a.3.3,0,0,1,.086-.21.294.294,0,0,1,.212-.086,1.807,1.807,0,0,0,1.747-1.26,9.259,9.259,0,0,1,.631-1.5,1.823,1.823,0,0,0-.275-2.055.657.657,0,0,0-.069-.08.293.293,0,0,1,0-.414l1.583-1.575a.3.3,0,0,1,.421,0,.788.788,0,0,0,.074.067,1.849,1.849,0,0,0,2.074.273,9.853,9.853,0,0,1,1.514-.628,1.8,1.8,0,0,0,1.264-1.735.289.289,0,0,1,.086-.21.293.293,0,0,1,.211-.086h2.243a.293.293,0,0,1,.211.086.289.289,0,0,1,.086.21,1.8,1.8,0,0,0,1.267,1.737,9.356,9.356,0,0,1,1.51.628,1.85,1.85,0,0,0,2.069-.273.739.739,0,0,0,.08-.069.293.293,0,0,1,.415,0h0l1.582,1.573a.294.294,0,0,1,.008.415l0,0a.8.8,0,0,0-.066.074,1.825,1.825,0,0,0-.274,2.066,9.164,9.164,0,0,1,.623,1.482,1.813,1.813,0,0,0,1.754,1.273.294.294,0,0,1,.212.086.3.3,0,0,1,.086.21v.359h-3.861a6.862,6.862,0,0,0-7.544-6.1,6.863,6.863,0,0,0-6.106,7.545,6.863,6.863,0,0,0,6.067,6.1v3.837h-.359a.292.292,0,0,1-.211-.086.289.289,0,0,1-.086-.209,1.8,1.8,0,0,0-1.267-1.738,9.367,9.367,0,0,1-1.51-.628,1.852,1.852,0,0,0-2.069.273.739.739,0,0,0-.08.069.3.3,0,0,1-.416,0l-1.582-1.571a.293.293,0,0,1-.008-.415l0,0a.776.776,0,0,0,.067-.073,1.828,1.828,0,0,0,.271-2.067,9.077,9.077,0,0,1-.623-1.482,1.814,1.814,0,0,0-1.755-1.273.3.3,0,0,1-.208-.087.3.3,0,0,1-.084-.209Z" fill="#fff"/>
    </g>
  </g>
</svg>
