<svg xmlns="http://www.w3.org/2000/svg" width="125" height="108" viewBox="0 0 125 108">
  <g id="Group_18090" data-name="Group 18090" transform="translate(-1088 -722)">
    <g id="Component_85_4" data-name="Component 85 – 4" transform="translate(1088 722)">
      <g id="Polygon_8" data-name="Polygon 8" fill="none">
        <path d="M87.983,0a10,10,0,0,1,8.655,4.991l25.463,44a10,10,0,0,1,0,10.018l-25.463,44A10,10,0,0,1,87.983,108H37.017a10,10,0,0,1-8.655-4.991L2.9,59.009a10,10,0,0,1,0-10.018l25.463-44A10,10,0,0,1,37.017,0Z" stroke="none"/>
        <path d="M 37.01674652099609 1.000007629394531 C 33.81539916992188 1.000007629394531 30.83056640625 2.721267700195312 29.22708129882812 5.492103576660156 L 3.764114379882812 49.49208831787109 C 2.154983520507812 52.27267074584961 2.154983520507812 55.72732162475586 3.764114379882812 58.50788879394531 L 29.22706604003906 102.5079040527344 C 30.83056640625 105.2787399291992 33.81538391113281 107 37.01673126220703 107 L 87.98324584960938 107 C 91.18460083007812 107 94.16941833496094 105.2787399291992 95.77291870117188 102.5079040527344 L 121.2358856201172 58.50791931152344 C 122.8450012207031 55.72732162475586 122.8450012207031 52.27267074584961 121.2358856201172 49.49210357666016 L 95.77291870117188 5.492103576660156 C 94.16943359375 2.721267700195312 91.18460083007812 1.000007629394531 87.98324584960938 1.000007629394531 L 37.01674652099609 1.000007629394531 M 37.01674652099609 7.62939453125e-06 L 87.98324584960938 7.62939453125e-06 C 91.55228424072266 7.62939453125e-06 94.85078430175781 1.902153015136719 96.63843536376953 4.991218566894531 L 122.1014022827148 48.9912223815918 C 123.8944854736328 52.08968734741211 123.8944854736328 55.91030502319336 122.1014022827148 59.00878524780273 L 96.63843536376953 103.0087890625 C 94.85078430175781 106.0978393554688 91.55228424072266 108 87.98324584960938 108 L 37.01673126220703 108 C 33.44770050048828 108 30.14920043945312 106.0978393554688 28.36154937744141 103.0087890625 L 2.898597717285156 59.00876998901367 C 1.105499267578125 55.91030502319336 1.105499267578125 52.08968734741211 2.898597717285156 48.99120330810547 L 28.36156463623047 4.991218566894531 C 30.14921569824219 1.902153015136719 33.44771575927734 7.62939453125e-06 37.01674652099609 7.62939453125e-06 Z" stroke="none" fill="#ff8500"/>
      </g>
      <path id="Polygon_9" data-name="Polygon 9" d="M80.465,0a10,10,0,0,1,8.669,5.015l23,40a10,10,0,0,1,0,9.969l-23,40A10,10,0,0,1,80.465,100H34.535a10,10,0,0,1-8.669-5.015l-23-40a10,10,0,0,1,0-9.969l23-40A10,10,0,0,1,34.535,0Z" transform="translate(5 4)" fill="#ff8500"/>
    </g>
    <g id="Group_18144" data-name="Group 18144" transform="translate(2935.099 -532.104)">
      <rect id="Rectangle_148976" data-name="Rectangle 148976" width="70" height="70" transform="translate(-1819.098 1273.105)" fill="none"/>
      <g id="download" transform="translate(-1809.288 1282.916)">
        <path id="Path_18439" data-name="Path 18439" d="M-1779.184,1294.6a2.5,2.5,0,0,0-3.449,0l-8.618,8.622a.805.805,0,0,0-.218.391l-.861,3.739a.812.812,0,0,0,.607.975.825.825,0,0,0,.367,0l3.739-.863a.806.806,0,0,0,.391-.218l8.615-8.624a2.438,2.438,0,0,0,0-3.447h0Zm-11.271,11.844.456-1.973,1.517,1.513Zm3.226-1.5-1.724-1.721,5.745-5.744,1.724,1.723Zm7.469-7.47-.573.576-1.724-1.724.577-.575a.832.832,0,0,1,1.148,0l.573.575a.811.811,0,0,1,0,1.148Z" transform="translate(1828.277 -1268.177)" fill="#fff"/>
        <path id="Path_18440" data-name="Path 18440" d="M-1798.113,1305.431l-1.149,1.15,2.3,2.3a.811.811,0,0,0,1.148,0l5.171-5.171-1.148-1.148-4.6,4.6Z" transform="translate(1823.33 -1261.988)" fill="#fff"/>
        <path id="Path_18441" data-name="Path 18441" d="M-1787.91,1307.107v-8.126a3.25,3.25,0,0,0-3.251-3.25H-1792a4.062,4.062,0,0,0,.856-5.681,4.062,4.062,0,0,0-5.681-.856,4.061,4.061,0,0,0-.856,5.681,4.056,4.056,0,0,0,.856.856h-.837a3.25,3.25,0,0,0-3.252,3.25v8.126a.813.813,0,0,0,.813.813h11.375A.813.813,0,0,0-1787.91,1307.107Zm-8.939-14.625a2.438,2.438,0,0,1,2.438-2.438,2.438,2.438,0,0,1,2.438,2.438,2.439,2.439,0,0,1-2.438,2.438A2.439,2.439,0,0,1-1796.849,1292.482Zm7.314,13.813h-9.751v-7.314a1.625,1.625,0,0,1,1.625-1.625h6.5a1.625,1.625,0,0,1,1.626,1.625Z" transform="translate(1822.15 -1272.123)" fill="#fff"/>
        <path id="Path_18442" data-name="Path 18442" d="M-1810.943,1295.822a12.125,12.125,0,0,0,.8,1.917.333.333,0,0,1-.069.39.822.822,0,0,0-.081.1,2.007,2.007,0,0,0,.081,2.75l1.762,1.752a2.031,2.031,0,0,0,2.757.081.814.814,0,0,0,.1-.089.338.338,0,0,1,.386-.07,12.15,12.15,0,0,0,1.949.812.327.327,0,0,1,.221.326,2.015,2.015,0,0,0,2.018,2.006h.4v22.67a.841.841,0,0,0,.835.829h24.489a.841.841,0,0,0,.6-.244l4.226-4.2a.832.832,0,0,0,.244-.6V1320.9h-1.688v3.011l-3.729,3.706h-23.295v-34.425h27.023v11.753h1.688v-12.594a.841.841,0,0,0-.844-.839h-15.2v-.394a2.016,2.016,0,0,0-2.019-2.008.332.332,0,0,1-.324-.235,11.815,11.815,0,0,0-.8-1.915.333.333,0,0,1,.069-.391.806.806,0,0,0,.081-.1,2.009,2.009,0,0,0-.081-2.752l-1.759-1.75a2.031,2.031,0,0,0-2.757-.081.71.71,0,0,0-.1.089.338.338,0,0,1-.386.071,12.117,12.117,0,0,0-1.951-.812.325.325,0,0,1-.219-.326,2.016,2.016,0,0,0-2.015-2h-2.482a2.038,2.038,0,0,0-1.435.6,2.017,2.017,0,0,0-.585,1.433.3.3,0,0,1-.206.293,12.393,12.393,0,0,0-1.956.812.337.337,0,0,1-.393-.069.723.723,0,0,0-.1-.081,2.035,2.035,0,0,0-2.764.081l-1.764,1.743a2.008,2.008,0,0,0-.083,2.742,1.054,1.054,0,0,0,.089.1.331.331,0,0,1,.072.382,12.066,12.066,0,0,0-.812,1.937.326.326,0,0,1-.326.22,2.017,2.017,0,0,0-2.015,2.008v2.467a2.016,2.016,0,0,0,2.02,2.007.333.333,0,0,1,.325.233Zm11.165-4.313a.842.842,0,0,0-.844.839h0v5.811a5.881,5.881,0,0,1-4.95-6.683,5.88,5.88,0,0,1,6.683-4.95,5.88,5.88,0,0,1,4.955,4.983Zm-11.822,2.073v-2.467a.322.322,0,0,1,.095-.234.321.321,0,0,1,.233-.094,2,2,0,0,0,1.936-1.4,10.208,10.208,0,0,1,.7-1.661,2.023,2.023,0,0,0-.3-2.277.906.906,0,0,0-.077-.087.323.323,0,0,1,0-.458l1.752-1.743a.33.33,0,0,1,.467-.005.766.766,0,0,0,.083.074,2.046,2.046,0,0,0,2.3.3,10.95,10.95,0,0,1,1.674-.7,1.989,1.989,0,0,0,1.4-1.92.336.336,0,0,1,.094-.234.328.328,0,0,1,.235-.094h2.482a.321.321,0,0,1,.234.094.322.322,0,0,1,.094.234,2,2,0,0,0,1.4,1.923,10.3,10.3,0,0,1,1.671.7,2.047,2.047,0,0,0,2.291-.3.877.877,0,0,0,.087-.077.327.327,0,0,1,.46,0l0,0,1.75,1.741a.324.324,0,0,1,.009.46l0,0a.951.951,0,0,0-.074.081,2.021,2.021,0,0,0-.3,2.287,10.2,10.2,0,0,1,.691,1.642,2,2,0,0,0,1.941,1.409.325.325,0,0,1,.235.094.321.321,0,0,1,.094.233v.4h-4.272a7.6,7.6,0,0,0-8.352-6.758,7.6,7.6,0,0,0-6.758,8.351,7.6,7.6,0,0,0,6.715,6.753v4.248h-.4a.328.328,0,0,1-.235-.094.335.335,0,0,1-.094-.233,1.993,1.993,0,0,0-1.4-1.923,10.382,10.382,0,0,1-1.673-.693,2.046,2.046,0,0,0-2.289.3.647.647,0,0,0-.089.076.329.329,0,0,1-.46,0l-1.752-1.74a.324.324,0,0,1-.009-.46l0,0c.026-.026.05-.051.074-.081a2.023,2.023,0,0,0,.3-2.289,10.161,10.161,0,0,1-.691-1.64,2,2,0,0,0-1.94-1.408.326.326,0,0,1-.23-.1.326.326,0,0,1-.095-.231Z" transform="translate(1813.29 -1278.913)" fill="#fff"/>
      </g>
    </g>
  </g>
</svg>
