<svg xmlns="http://www.w3.org/2000/svg" width="62" height="62" viewBox="0 0 62 62">
  <g id="Group_18151" data-name="Group 18151" transform="translate(2038.993 -1314.697)">
    <rect id="Rectangle_148976" data-name="Rectangle 148976" width="62" height="62" transform="translate(-2038.993 1314.697)" fill="none"/>
    <g id="Group_18150" data-name="Group 18150">
      <path id="Path_18420" data-name="Path 18420" d="M-1995.7,1349.363a8.723,8.723,0,0,0-8.724,8.723,8.723,8.723,0,0,0,8.724,8.723,8.723,8.723,0,0,0,8.724-8.723A8.732,8.732,0,0,0-1995.7,1349.363Z" fill="none" stroke="#8218d1" stroke-miterlimit="10" stroke-width="1.5"/>
      <path id="Path_18420-2" data-name="Path 18420" d="M-2020.287,1349.363a8.723,8.723,0,0,0-8.724,8.723,8.723,8.723,0,0,0,8.724,8.723,8.723,8.723,0,0,0,8.724-8.723A8.732,8.732,0,0,0-2020.287,1349.363Z" fill="none" stroke="#8218d1" stroke-miterlimit="10" stroke-width="1.5"/>
      <g id="Group_16121" data-name="Group 16121">
        <g id="Group_16120" data-name="Group 16120">
          <path id="Path_18421" data-name="Path 18421" d="M-1991.025,1354.672a1.261,1.261,0,0,0-1.784,0h0l-4.153,4.153-1.631-1.631a1.261,1.261,0,0,0-1.784,0,1.261,1.261,0,0,0,0,1.784l2.523,2.522a1.259,1.259,0,0,0,1.783,0l5.045-5.044a1.262,1.262,0,0,0,0-1.784Z" fill="#8218d1"/>
        </g>
      </g>
      <g id="Group_16123" data-name="Group 16123">
        <g id="Group_16122" data-name="Group 16122">
          <path id="Path_18422" data-name="Path 18422" d="M-2016.789,1359.717l-1.631-1.631,1.631-1.631a1.261,1.261,0,0,0,0-1.784,1.263,1.263,0,0,0-1.784,0l-1.631,1.631-1.631-1.631a1.261,1.261,0,0,0-1.783,0,1.261,1.261,0,0,0,0,1.784l1.63,1.631-1.63,1.631a1.26,1.26,0,0,0,0,1.783,1.26,1.26,0,0,0,1.783,0l1.631-1.63,1.631,1.63a1.261,1.261,0,0,0,1.784,0A1.26,1.26,0,0,0-2016.789,1359.717Z" fill="#8218d1"/>
        </g>
      </g>
      <g id="Group_18148" data-name="Group 18148">
        <path id="Path_18423" data-name="Path 18423" d="M-1991.959,1333.014a5.044,5.044,0,0,0-.358-7.125,5.044,5.044,0,0,0-7.125.358,5.043,5.043,0,0,0,0,6.767,9.08,9.08,0,0,0-5.087,8.138v2.522a1.261,1.261,0,0,0,1.261,1.262h15.135a1.261,1.261,0,0,0,1.261-1.262h0v-2.522A9.08,9.08,0,0,0-1991.959,1333.014Zm-3.743-6.633a3.253,3.253,0,0,1,3.253,3.252,3.253,3.253,0,0,1-3.253,3.253,3.252,3.252,0,0,1-3.253-3.253h0A3.256,3.256,0,0,1-1995.7,1326.381Zm7.083,17.058h-14.165V1341.9c-.11-4.252,2.972-7.8,6.884-7.915s7.171,3.231,7.281,7.482c0,.145,0,.289,0,.433Z" fill="#8218d1"/>
      </g>
      <g id="Group_18149" data-name="Group 18149">
        <path id="Path_18423-2" data-name="Path 18423" d="M-2016.544,1333.014a5.045,5.045,0,0,0-.359-7.125,5.044,5.044,0,0,0-7.125.358,5.043,5.043,0,0,0,0,6.767,9.08,9.08,0,0,0-5.087,8.138v2.522a1.262,1.262,0,0,0,1.261,1.262h15.135a1.262,1.262,0,0,0,1.262-1.262h0v-2.522A9.083,9.083,0,0,0-2016.544,1333.014Zm-3.744-6.633a3.252,3.252,0,0,1,3.253,3.252,3.252,3.252,0,0,1-3.253,3.253,3.252,3.252,0,0,1-3.253-3.253h0A3.256,3.256,0,0,1-2020.288,1326.381Zm7.083,17.058h-14.165V1341.9c-.11-4.252,2.972-7.8,6.884-7.915s7.172,3.231,7.282,7.482c0,.145,0,.289,0,.433Z" fill="#8218d1"/>
      </g>
    </g>
  </g>
</svg>
