<svg xmlns="http://www.w3.org/2000/svg" width="125" height="108" viewBox="0 0 125 108">
  <g id="Group_18301" data-name="Group 18301" transform="translate(-178 -722)">
    <g id="Polygon_2" data-name="Polygon 2" transform="translate(178 722)" fill="none">
      <path d="M87.983,0a10,10,0,0,1,8.655,4.991l25.463,44a10,10,0,0,1,0,10.018l-25.463,44A10,10,0,0,1,87.983,108H37.017a10,10,0,0,1-8.655-4.991L2.9,59.009a10,10,0,0,1,0-10.018l25.463-44A10,10,0,0,1,37.017,0Z" stroke="none"/>
      <path d="M 37.01674652099609 1.000007629394531 C 33.81539916992188 1.000007629394531 30.83056640625 2.721267700195312 29.22708129882812 5.492103576660156 L 3.764114379882812 49.49208831787109 C 2.154983520507812 52.27267074584961 2.154983520507812 55.72732162475586 3.764114379882812 58.50788879394531 L 29.22706604003906 102.5079040527344 C 30.83056640625 105.2787399291992 33.81538391113281 107 37.01673126220703 107 L 87.98324584960938 107 C 91.18460083007812 107 94.16941833496094 105.2787399291992 95.77291870117188 102.5079040527344 L 121.2358856201172 58.50791931152344 C 122.8450012207031 55.72732162475586 122.8450012207031 52.27267074584961 121.2358856201172 49.49210357666016 L 95.77291870117188 5.492103576660156 C 94.16943359375 2.721267700195312 91.18460083007812 1.000007629394531 87.98324584960938 1.000007629394531 L 37.01674652099609 1.000007629394531 M 37.01674652099609 7.62939453125e-06 L 87.98324584960938 7.62939453125e-06 C 91.55228424072266 7.62939453125e-06 94.85078430175781 1.902153015136719 96.63843536376953 4.991218566894531 L 122.1014022827148 48.9912223815918 C 123.8944854736328 52.08968734741211 123.8944854736328 55.91030502319336 122.1014022827148 59.00878524780273 L 96.63843536376953 103.0087890625 C 94.85078430175781 106.0978393554688 91.55228424072266 108 87.98324584960938 108 L 37.01673126220703 108 C 33.44770050048828 108 30.14920043945312 106.0978393554688 28.36154937744141 103.0087890625 L 2.898597717285156 59.00876998901367 C 1.105499267578125 55.91030502319336 1.105499267578125 52.08968734741211 2.898597717285156 48.99120330810547 L 28.36156463623047 4.991218566894531 C 30.14921569824219 1.902153015136719 33.44771575927734 7.62939453125e-06 37.01674652099609 7.62939453125e-06 Z" stroke="none" fill="#8218d1"/>
    </g>
    <path id="Polygon_3" data-name="Polygon 3" d="M80.465,0a10,10,0,0,1,8.669,5.015l23,40a10,10,0,0,1,0,9.969l-23,40A10,10,0,0,1,80.465,100H34.535a10,10,0,0,1-8.669-5.015l-23-40a10,10,0,0,1,0-9.969l23-40A10,10,0,0,1,34.535,0Z" transform="translate(183 726)" fill="#8218d1"/>
    <g id="Group_18080" data-name="Group 18080" transform="translate(596.609 504.25)">
      <rect id="Rectangle_148976" data-name="Rectangle 148976" width="67.2" height="67.2" transform="translate(-389.208 239.749)" fill="none"/>
      <g id="Group_18121" data-name="Group 18121" transform="translate(-390.609 239.75)">
        <rect id="Rectangle_148976-2" data-name="Rectangle 148976" width="70" height="70" fill="none"/>
        <g id="Group_18120" data-name="Group 18120" transform="translate(11.175 10.428)">
          <path id="Path_18420" data-name="Path 18420" d="M-1959.834,1300.944a9.851,9.851,0,0,0-9.851,9.85,9.85,9.85,0,0,0,9.851,9.849,9.85,9.85,0,0,0,9.85-9.849A9.86,9.86,0,0,0-1959.834,1300.944Z" transform="translate(1997.562 -1272.97)" fill="none" stroke="#fff" stroke-miterlimit="10" stroke-width="1.5"/>
          <path id="Path_18420-2" data-name="Path 18420" d="M-1975.7,1300.944a9.849,9.849,0,0,0-9.85,9.85,9.849,9.849,0,0,0,9.85,9.849,9.85,9.85,0,0,0,9.849-9.849A9.86,9.86,0,0,0-1975.7,1300.944Z" transform="translate(1985.665 -1272.97)" fill="none" stroke="#fff" stroke-miterlimit="10" stroke-width="1.5"/>
          <g id="Group_16121" data-name="Group 16121" transform="translate(32.031 33.553)">
            <g id="Group_16120" data-name="Group 16120">
              <path id="Path_18421" data-name="Path 18421" d="M-1956.336,1304.549a1.424,1.424,0,0,0-2.014,0h0l-4.688,4.688-1.841-1.841a1.424,1.424,0,0,0-2.014,0,1.421,1.421,0,0,0,0,2.012l2.847,2.849a1.427,1.427,0,0,0,2.014,0l5.7-5.7a1.422,1.422,0,0,0,0-2.013Z" transform="translate(1967.312 -1304.132)" fill="#fff"/>
            </g>
          </g>
          <g id="Group_16123" data-name="Group 16123" transform="translate(5.79 33.551)">
            <g id="Group_16122" data-name="Group 16122">
              <path id="Path_18422" data-name="Path 18422" d="M-1974.177,1310.245l-1.843-1.841,1.843-1.841a1.427,1.427,0,0,0,0-2.014,1.424,1.424,0,0,0-2.015,0l-1.841,1.841-1.843-1.841a1.424,1.424,0,0,0-2.014,0,1.427,1.427,0,0,0,0,2.014l1.843,1.841-1.843,1.841a1.427,1.427,0,0,0,0,2.014,1.423,1.423,0,0,0,2.014,0l1.843-1.841,1.841,1.841a1.424,1.424,0,0,0,2.015,0A1.427,1.427,0,0,0-1974.177,1310.245Z" transform="translate(1982.306 -1304.131)" fill="#fff"/>
            </g>
          </g>
          <g id="Group_18118" data-name="Group 18118" transform="translate(27.76)">
            <path id="Path_18423" data-name="Path 18423" d="M-1955.559,1294.474a5.694,5.694,0,0,0-.4-8.044,5.7,5.7,0,0,0-8.045.4,5.693,5.693,0,0,0,0,7.639,10.256,10.256,0,0,0-5.743,9.189v2.848a1.423,1.423,0,0,0,1.424,1.424h17.088a1.424,1.424,0,0,0,1.425-1.424h0v-2.848A10.257,10.257,0,0,0-1955.559,1294.474Zm-4.226-7.489a3.674,3.674,0,0,1,3.673,3.673,3.672,3.672,0,0,1-3.673,3.672,3.673,3.673,0,0,1-3.673-3.672h0A3.679,3.679,0,0,1-1959.786,1286.985Zm8,19.26h-15.992v-1.739c-.125-4.8,3.356-8.8,7.772-8.938s8.1,3.647,8.222,8.448c0,.163,0,.327,0,.49Z" transform="translate(1969.752 -1284.959)" fill="#fff"/>
          </g>
          <g id="Group_18119" data-name="Group 18119">
            <path id="Path_18423-2" data-name="Path 18423" d="M-1971.421,1294.474a5.692,5.692,0,0,0-.4-8.044,5.7,5.7,0,0,0-8.045.4,5.694,5.694,0,0,0,0,7.639,10.256,10.256,0,0,0-5.744,9.189v2.848a1.424,1.424,0,0,0,1.424,1.424h17.088a1.424,1.424,0,0,0,1.425-1.424h0v-2.848A10.256,10.256,0,0,0-1971.421,1294.474Zm-4.226-7.489a3.674,3.674,0,0,1,3.673,3.673,3.673,3.673,0,0,1-3.673,3.672,3.673,3.673,0,0,1-3.674-3.672h0A3.68,3.68,0,0,1-1975.647,1286.985Zm8,19.26h-15.994v-1.739c-.124-4.8,3.357-8.8,7.772-8.938s8.1,3.647,8.222,8.448c.005.163.005.327,0,.49Z" transform="translate(1985.614 -1284.959)" fill="#fff"/>
          </g>
        </g>
      </g>
    </g>
  </g>
</svg>
