<svg xmlns="http://www.w3.org/2000/svg" width="62" height="62" viewBox="0 0 62 62">
  <g id="Group_18182" data-name="Group 18182" transform="translate(2040.993 -1405.697)">
    <rect id="Rectangle_148976" data-name="Rectangle 148976" width="62" height="62" transform="translate(-2040.993 1405.697)" fill="none"/>
    <g id="Group_18209" data-name="Group 18209">
      <path id="Path_18420" data-name="Path 18420" d="M-1997.7,1440.363a8.723,8.723,0,0,0-8.724,8.723,8.723,8.723,0,0,0,8.724,8.723,8.723,8.723,0,0,0,8.724-8.723A8.732,8.732,0,0,0-1997.7,1440.363Z" transform="translate(0.105)" fill="none" stroke="#fff" stroke-miterlimit="10" stroke-width="1.5"/>
      <path id="Path_18420-2" data-name="Path 18420" d="M-2022.287,1440.363a8.723,8.723,0,0,0-8.724,8.723,8.723,8.723,0,0,0,8.724,8.723,8.723,8.723,0,0,0,8.724-8.723A8.732,8.732,0,0,0-2022.287,1440.363Z" fill="none" stroke="#fff" stroke-miterlimit="10" stroke-width="1.5"/>
      <g id="Group_18180" data-name="Group 18180">
        <path id="Path_18423" data-name="Path 18423" d="M-1993.959,1424.014a5.044,5.044,0,0,0-.358-7.125,5.044,5.044,0,0,0-7.125.358,5.043,5.043,0,0,0,0,6.767,9.08,9.08,0,0,0-5.087,8.138v2.522a1.261,1.261,0,0,0,1.261,1.262h15.135a1.261,1.261,0,0,0,1.261-1.262h0v-2.522A9.08,9.08,0,0,0-1993.959,1424.014Zm-3.743-6.633a3.253,3.253,0,0,1,3.253,3.252,3.253,3.253,0,0,1-3.253,3.253,3.252,3.252,0,0,1-3.253-3.253h0A3.256,3.256,0,0,1-1997.7,1417.381Zm7.083,17.058h-14.165V1432.9c-.11-4.252,2.972-7.8,6.884-7.915s7.171,3.231,7.281,7.482c0,.145,0,.289,0,.433Z" fill="#fff"/>
      </g>
      <g id="Group_18181" data-name="Group 18181">
        <path id="Path_18423-2" data-name="Path 18423" d="M-2018.544,1424.014a5.045,5.045,0,0,0-.359-7.125,5.044,5.044,0,0,0-7.125.358,5.043,5.043,0,0,0,0,6.767,9.08,9.08,0,0,0-5.087,8.138v2.522a1.262,1.262,0,0,0,1.261,1.262h15.135a1.262,1.262,0,0,0,1.262-1.262h0v-2.522A9.083,9.083,0,0,0-2018.544,1424.014Zm-3.744-6.633a3.252,3.252,0,0,1,3.253,3.252,3.252,3.252,0,0,1-3.253,3.253,3.252,3.252,0,0,1-3.253-3.253h0A3.256,3.256,0,0,1-2022.288,1417.381Zm7.083,17.058h-14.165V1432.9c-.11-4.252,2.972-7.8,6.884-7.915s7.172,3.231,7.282,7.482c0,.145,0,.289,0,.433Z" fill="#fff"/>
      </g>
    </g>
  </g>
</svg>
