<svg xmlns="http://www.w3.org/2000/svg" width="125" height="108" viewBox="0 0 125 108">
  <g id="Group_18299" data-name="Group 18299" transform="translate(-1339 -722)">
    <g id="Polygon_10" data-name="Polygon 10" transform="translate(1339 722)" fill="none">
      <path d="M87.983,0a10,10,0,0,1,8.655,4.991l25.463,44a10,10,0,0,1,0,10.018l-25.463,44A10,10,0,0,1,87.983,108H37.017a10,10,0,0,1-8.655-4.991L2.9,59.009a10,10,0,0,1,0-10.018l25.463-44A10,10,0,0,1,37.017,0Z" stroke="none"/>
      <path d="M 37.01674652099609 1.000007629394531 C 33.81539916992188 1.000007629394531 30.83056640625 2.721267700195312 29.22708129882812 5.492103576660156 L 3.764114379882812 49.49208831787109 C 2.154983520507812 52.27267074584961 2.154983520507812 55.72732162475586 3.764114379882812 58.50788879394531 L 29.22706604003906 102.5079040527344 C 30.83056640625 105.2787399291992 33.81538391113281 107 37.01673126220703 107 L 87.98324584960938 107 C 91.18460083007812 107 94.16941833496094 105.2787399291992 95.77291870117188 102.5079040527344 L 121.2358856201172 58.50791931152344 C 122.8450012207031 55.72732162475586 122.8450012207031 52.27267074584961 121.2358856201172 49.49210357666016 L 95.77291870117188 5.492103576660156 C 94.16943359375 2.721267700195312 91.18460083007812 1.000007629394531 87.98324584960938 1.000007629394531 L 37.01674652099609 1.000007629394531 M 37.01674652099609 7.62939453125e-06 L 87.98324584960938 7.62939453125e-06 C 91.55228424072266 7.62939453125e-06 94.85078430175781 1.902153015136719 96.63843536376953 4.991218566894531 L 122.1014022827148 48.9912223815918 C 123.8944854736328 52.08968734741211 123.8944854736328 55.91030502319336 122.1014022827148 59.00878524780273 L 96.63843536376953 103.0087890625 C 94.85078430175781 106.0978393554688 91.55228424072266 108 87.98324584960938 108 L 37.01673126220703 108 C 33.44770050048828 108 30.14920043945312 106.0978393554688 28.36154937744141 103.0087890625 L 2.898597717285156 59.00876998901367 C 1.105499267578125 55.91030502319336 1.105499267578125 52.08968734741211 2.898597717285156 48.99120330810547 L 28.36156463623047 4.991218566894531 C 30.14921569824219 1.902153015136719 33.44771575927734 7.62939453125e-06 37.01674652099609 7.62939453125e-06 Z" stroke="none" fill="#ff8500"/>
    </g>
    <path id="Polygon_11" data-name="Polygon 11" d="M80.465,0a10,10,0,0,1,8.669,5.015l23,40a10,10,0,0,1,0,9.969l-23,40A10,10,0,0,1,80.465,100H34.535a10,10,0,0,1-8.669-5.015l-23-40a10,10,0,0,1,0-9.969l23-40A10,10,0,0,1,34.535,0Z" transform="translate(1344 726)" fill="#ff8500"/>
    <g id="Group_18145" data-name="Group 18145" transform="translate(3133.625 -533.193)">
      <rect id="Rectangle_148976" data-name="Rectangle 148976" width="70" height="70" transform="translate(-1766.625 1272.194)" fill="none"/>
      <path id="Path_21586" data-name="Path 21586" d="M-1742.379,1285.371v-2.176l-.786-1.57-.371.278a5.782,5.782,0,0,1-6.937,0l-.371-.278-.785,1.57v2.176A4.624,4.624,0,0,0-1747,1290,4.625,4.625,0,0,0-1742.379,1285.371Z" transform="translate(15.38 9.471)" fill="none"/>
      <path id="Path_21587" data-name="Path 21587" d="M-1749.8,1296.494l1.734-2.081a2.889,2.889,0,0,1-1.744-2.014l-2.072.346Z" transform="translate(12.829 17.658)" fill="none"/>
      <path id="Path_21588" data-name="Path 21588" d="M-1745.27,1290.886a5.783,5.783,0,0,1-3.469,0v.845a1.734,1.734,0,0,0,1.735,1.734,1.734,1.734,0,0,0,1.734-1.734Z" transform="translate(15.379 15.679)" fill="none"/>
      <path id="Path_21589" data-name="Path 21589" d="M-1705.839,1303.871v-7.529c.008-.766-1.239-1.442-3.061-1.659l-8.6-1.041-5.714,4.153a2.189,2.189,0,0,1-1.117.295h-.136a2.661,2.661,0,0,1-1.1-.208l-4.628-2.242v4.184h-2.865v-4.184l-4.629,2.238a2.666,2.666,0,0,1-1.1.209h-.129a2.178,2.178,0,0,1-1.117-.3l-5.719-4.153-8.6,1.04c-1.824.217-3.073.9-3.06,1.663v7.529h8.593v-4.047h2.867v4.047h28.65v-4.047h2.865v4.047Z" transform="translate(0 22.639)" fill="none"/>
      <path id="Path_21590" data-name="Path 21590" d="M-1745.945,1294.414l1.735,2.082,2.081-3.75-2.07-.347A2.894,2.894,0,0,1-1745.945,1294.414Z" transform="translate(17.929 17.659)" fill="none"/>
      <path id="Path_21591" data-name="Path 21591" d="M-1755.664,1290l-3.139,1.056-.631,4.357v8.462h.867v-7.529a2.875,2.875,0,0,1,2.06-2.769l3.224-.968-.008-.015a.589.589,0,0,1-.065-.186.577.577,0,0,1,.475-.665l2.986-.5v-.871a10.78,10.78,0,0,1-2.108-2.108h-.005a.8.8,0,0,0,.127.155C-1751.6,1288.652-1755.664,1290-1755.664,1290Z" transform="translate(7.55 20.818)" fill="none"/>
      <path id="Path_21592" data-name="Path 21592" d="M-1700.589,1305.027h-62.073c-.612,0-1.108.259-1.108.578v1.157c0,.958,1.49,1.734,3.326,1.734h57.638c1.837,0,3.325-.776,3.325-1.734V1305.6C-1699.48,1305.286-1699.977,1305.027-1700.589,1305.027Z" transform="translate(0 30.759)" fill="none"/>
      <path id="Path_21593" data-name="Path 21593" d="M-1744.2,1292.4h0Z" transform="translate(17.557 15.833)" fill="#fff"/>
      <path id="Path_21594" data-name="Path 21594" d="M-1744.2,1292.4h0Z" transform="translate(17.557 15.833)" fill="none"/>
      <path id="Path_21595" data-name="Path 21595" d="M-1742.379,1285.371v-2.176l-.786-1.57-.371.278a5.782,5.782,0,0,1-6.937,0l-.371-.278-.785,1.57v2.176A4.624,4.624,0,0,0-1747,1290,4.625,4.625,0,0,0-1742.379,1285.371Z" transform="translate(15.38 9.471)" fill="none"/>
      <path id="Path_21596" data-name="Path 21596" d="M-1745.27,1290.886a5.783,5.783,0,0,1-3.469,0v.845a1.734,1.734,0,0,0,1.735,1.734,1.734,1.734,0,0,0,1.734-1.734Z" transform="translate(15.379 15.679)" fill="none"/>
      <path id="Path_21597" data-name="Path 21597" d="M-1745.945,1294.414l1.735,2.082,2.081-3.75-2.07-.347A2.894,2.894,0,0,1-1745.945,1294.414Z" transform="translate(17.929 17.659)" fill="none"/>
      <path id="Path_21598" data-name="Path 21598" d="M-1705.839,1303.871v-7.529c.008-.766-1.239-1.442-3.061-1.659l-8.6-1.041-5.714,4.153a2.189,2.189,0,0,1-1.117.295h-.136a2.661,2.661,0,0,1-1.1-.208l-4.628-2.242v4.184h-2.865v-4.184l-4.629,2.238a2.666,2.666,0,0,1-1.1.209h-.129a2.178,2.178,0,0,1-1.117-.3l-5.719-4.153-8.6,1.04c-1.824.217-3.073.9-3.06,1.663v7.529h8.593v-4.047h2.867v4.047h28.65v-4.047h2.865v4.047Z" transform="translate(0 22.639)" fill="none"/>
      <path id="Path_21599" data-name="Path 21599" d="M-1749.8,1296.494l1.734-2.081a2.889,2.889,0,0,1-1.744-2.014l-2.072.346Z" transform="translate(12.829 17.658)" fill="none"/>
      <path id="Path_21600" data-name="Path 21600" d="M-1700.589,1305.027h-62.073c-.612,0-1.108.259-1.108.578v1.157c0,.958,1.49,1.734,3.326,1.734h57.638c1.837,0,3.325-.776,3.325-1.734V1305.6C-1699.48,1305.286-1699.977,1305.027-1700.589,1305.027Z" transform="translate(0 30.759)" fill="none"/>
      <path id="Path_21601" data-name="Path 21601" d="M-1760.879,1303.871h2.312v-7.529a2.875,2.875,0,0,1,2.06-2.769l3.224-.968-.008-.015a.589.589,0,0,1-.065-.186.577.577,0,0,1,.475-.665l2.986-.5v-.871a10.78,10.78,0,0,1-2.108-2.108h-.005a6.63,6.63,0,0,1-.512-1.156,5.789,5.789,0,0,1-.15-.578h-.694a1.727,1.727,0,0,1-1.283-.578h-5.654a1.734,1.734,0,0,0-1.734,1.734v16.187h1.156Z" transform="translate(0 19.758)" fill="none"/>
      <path id="Path_21602" data-name="Path 21602" d="M-1738.551,1289.552l-3.56-1.116s.045-.067.11-.174h0a5.814,5.814,0,0,1-2.109,2.108v.871l2.985.5a.573.573,0,0,1,.185.064.58.58,0,0,1,.226.786l-.009.016,3.226.968a2.873,2.873,0,0,1,2.059,2.769v7.529h.647L-1735,1290Z" transform="translate(23.04 20.818)" fill="none"/>
      <path id="Path_21603" data-name="Path 21603" d="M-1713,1319.964v-23.489a4.18,4.18,0,0,0-4.158-4.194h-7.486a2.507,2.507,0,0,0-2.5-2.517h-.765l.816-1.906a6.8,6.8,0,0,0-3.385-8.85l-2.323-1.066a8.468,8.468,0,0,0-8.51.93l-1.31.994a5.216,5.216,0,0,0-3.147,2.365,5.244,5.244,0,0,0-.192,5.027l1.244,2.507h-.727a2.506,2.506,0,0,0-2.5,2.517h-7.487a4.181,4.181,0,0,0-4.158,4.194v23.489a2.506,2.506,0,0,0-2.5,2.515v1.678a4.181,4.181,0,0,0,4.16,4.194h43.253a4.18,4.18,0,0,0,4.158-4.194v-1.678A2.505,2.505,0,0,0-1713,1319.964Zm-14.972-28.522h.833a.836.836,0,0,1,.832.84.836.836,0,0,1-.832.838h-.833Zm.833,3.355a2.471,2.471,0,0,0,1.846-.838h8.136a2.506,2.506,0,0,1,2.5,2.517v23.489h-4.992v-10.927a4.162,4.162,0,0,0-2.962-4.016l-4.641-1.406.012-.022a.843.843,0,0,0-.325-1.14.808.808,0,0,0-.265-.093l-4.3-.723v-1.263a8.418,8.418,0,0,0,3.035-3.06h0a6.319,6.319,0,0,0,.76-1.677h-.024c.026-.081.046-.162.068-.241.057-.2.106-.4.147-.6Zm-.833,19.3v5.872h-16.635v-5.872h-1.665v5.872h-4.99v-10.927a2.5,2.5,0,0,1,1.777-2.411l4.991-1.509,3.32,6.025a.832.832,0,0,0,.648.428h.075a.827.827,0,0,0,.64-.3l2.687-3.248v6.072h1.665v-6.072l2.687,3.254a.832.832,0,0,0,.64.3h.079a.83.83,0,0,0,.648-.429l3.318-6.026,4.991,1.511a2.5,2.5,0,0,1,1.777,2.406v10.927h-4.991v-5.872Zm-1.3-10.271-2.994,5.441-2.5-3.021a4.188,4.188,0,0,0,2.511-2.924h0Zm-7.014,1.044a2.506,2.506,0,0,1-2.5-2.517v-1.227a8.244,8.244,0,0,0,4.991,0v1.227A2.507,2.507,0,0,1-1736.293,1304.864Zm0-5.034a6.682,6.682,0,0,1-6.654-6.711v-3.159l1.129-2.279.534.4a8.26,8.26,0,0,0,9.981,0l.533-.4,1.131,2.279v3.159A6.683,6.683,0,0,1-1736.293,1299.83Zm-1.527,6.409-2.494,3.021-3-5.441,2.98-.5A4.184,4.184,0,0,0-1737.82,1306.239Zm-6.519-23.142a3.534,3.534,0,0,1,3.017-1.722,3.875,3.875,0,0,1,3.238,1.748l.26.395,1.386-.93-.262-.4a5.54,5.54,0,0,0-3.137-2.286,6.791,6.791,0,0,1,6.349-.438l2.321,1.068a5.117,5.117,0,0,1,2.547,6.659l-.25.576-.853-1.739a.829.829,0,0,0-1.114-.38.75.75,0,0,0-.134.085l-1.331,1.006a6.606,6.606,0,0,1-7.985,0l-1.331-1.006a.827.827,0,0,0-1.167.16,1.079,1.079,0,0,0-.082.135l-.915,1.861-.686-1.385A3.557,3.557,0,0,1-1744.339,1283.1Zm-1.1,8.344h.831v1.678h-.831a.836.836,0,0,1-.833-.838A.837.837,0,0,1-1745.442,1291.441Zm-12.477,5.034a2.505,2.505,0,0,1,2.494-2.517h8.135a2.476,2.476,0,0,0,1.848.838h1c.058.285.13.564.215.84a9.617,9.617,0,0,0,.737,1.677h.007a15.6,15.6,0,0,0,3.032,3.06v1.263l-4.295.723a.837.837,0,0,0-.684.964.866.866,0,0,0,.092.269l.014.024-4.641,1.4a4.162,4.162,0,0,0-2.963,4.016v10.927h-4.99Zm45.749,27.682a2.507,2.507,0,0,1-2.5,2.517h-43.253a2.506,2.506,0,0,1-2.5-2.517v-1.678a.836.836,0,0,1,.831-.838H-1713a.836.836,0,0,1,.833.838Z" transform="translate(4.668 4.63)" fill="#fff"/>
    </g>
  </g>
</svg>
