<svg xmlns="http://www.w3.org/2000/svg" width="62" height="62" viewBox="0 0 62 62">
  <g id="Group_18208" data-name="Group 18208" transform="translate(1746.004 -1406.815)">
    <rect id="Rectangle_148976" data-name="Rectangle 148976" width="62" height="62" transform="translate(-1746.004 1406.815)" fill="none"/>
    <path id="Path_21625" data-name="Path 21625" d="M-1719.337,1445.068l2.688-3.226a4.481,4.481,0,0,1-2.7-3.122l-3.211.536Z" fill="none"/>
    <path id="Path_21626" data-name="Path 21626" d="M-1712.316,1436.375a8.951,8.951,0,0,1-5.377,0v1.309a2.688,2.688,0,0,0,2.689,2.688,2.688,2.688,0,0,0,2.688-2.688Z" fill="none"/>
    <path id="Path_21627" data-name="Path 21627" d="M-1698.875,1456.5v-11.671a2.669,2.669,0,0,0-1.914-2.571l-5.376-1.613-3.576,6.436a.894.894,0,0,1-.7.458h-.084a.9.9,0,0,1-.689-.323l-2.9-3.475v6.486h-1.792v-6.486l-2.9,3.47a.894.894,0,0,1-.689.323h-.081a.9.9,0,0,1-.7-.457l-3.577-6.438-5.377,1.613a2.67,2.67,0,0,0-1.915,2.577V1456.5h5.377v-6.273h1.792v6.273h17.922v-6.273h1.792v6.273Z" fill="none"/>
    <path id="Path_21628" data-name="Path 21628" d="M-1713.362,1441.844l2.688,3.226,3.226-5.812-3.209-.537A4.485,4.485,0,0,1-1713.362,1441.844Z" fill="none"/>
    <path id="Path_21629" data-name="Path 21629" d="M-1728.427,1435l-4.866,1.637-.977,6.752V1456.5h1.344v-11.671a4.453,4.453,0,0,1,3.192-4.291l5-1.5-.013-.024a.9.9,0,0,1-.1-.288.9.9,0,0,1,.737-1.031l4.628-.772v-1.349a16.746,16.746,0,0,1-3.268-3.268h-.007a1.158,1.158,0,0,0,.2.239C-1722.133,1432.913-1728.427,1435-1728.427,1435Z" fill="none"/>
    <path id="Path_21630" data-name="Path 21630" d="M-1689.914,1458.294h-50.18a.9.9,0,0,0-.9.9v1.792a2.688,2.688,0,0,0,2.689,2.688h46.6a2.688,2.688,0,0,0,2.688-2.688v-1.792A.9.9,0,0,0-1689.914,1458.294Z" fill="none"/>
    <path id="Path_21631" data-name="Path 21631" d="M-1710.66,1438.72h0Z" fill="#fff"/>
    <path id="Path_21632" data-name="Path 21632" d="M-1710.66,1438.72h0Z" fill="none"/>
    <path id="Path_21633" data-name="Path 21633" d="M-1712.316,1436.375a8.951,8.951,0,0,1-5.377,0v1.309a2.688,2.688,0,0,0,2.689,2.688,2.688,2.688,0,0,0,2.688-2.688Z" fill="none"/>
    <path id="Path_21634" data-name="Path 21634" d="M-1713.362,1441.844l2.688,3.226,3.226-5.812-3.209-.537A4.485,4.485,0,0,1-1713.362,1441.844Z" fill="none"/>
    <path id="Path_21635" data-name="Path 21635" d="M-1698.875,1456.5v-11.671a2.669,2.669,0,0,0-1.914-2.571l-5.376-1.613-3.576,6.436a.894.894,0,0,1-.7.458h-.084a.9.9,0,0,1-.689-.323l-2.9-3.475v6.486h-1.792v-6.486l-2.9,3.47a.894.894,0,0,1-.689.323h-.081a.9.9,0,0,1-.7-.457l-3.577-6.438-5.377,1.613a2.67,2.67,0,0,0-1.915,2.577V1456.5h5.377v-6.273h1.792v6.273h17.922v-6.273h1.792v6.273Z" fill="none"/>
    <path id="Path_21636" data-name="Path 21636" d="M-1719.337,1445.068l2.688-3.226a4.481,4.481,0,0,1-2.7-3.122l-3.211.536Z" fill="none"/>
    <path id="Path_21637" data-name="Path 21637" d="M-1689.914,1458.294h-50.18a.9.9,0,0,0-.9.9v1.792a2.688,2.688,0,0,0,2.689,2.688h46.6a2.688,2.688,0,0,0,2.688-2.688v-1.792A.9.9,0,0,0-1689.914,1458.294Z" fill="none"/>
    <path id="Path_21638" data-name="Path 21638" d="M-1736.51,1456.5h3.584v-11.671a4.453,4.453,0,0,1,3.192-4.291l5-1.5-.013-.024a.9.9,0,0,1-.1-.288.9.9,0,0,1,.737-1.031l4.628-.772v-1.349a16.746,16.746,0,0,1-3.268-3.268h-.007a10.264,10.264,0,0,1-.794-1.792,8.946,8.946,0,0,1-.232-.9h-1.075a2.672,2.672,0,0,1-1.989-.9h-8.764a2.688,2.688,0,0,0-2.688,2.689v25.09h1.792Z" fill="none"/>
    <path id="Path_21639" data-name="Path 21639" d="M-1701.9,1434.308l-5.517-1.731s.069-.1.17-.269h-.007a9.015,9.015,0,0,1-3.268,3.268v1.349l4.627.772a.884.884,0,0,1,.286.1.9.9,0,0,1,.35,1.218l-.014.024,5,1.5a4.453,4.453,0,0,1,3.192,4.291V1456.5h1L-1696.4,1435Z" fill="none"/>
    <path id="Path_21640" data-name="Path 21640" d="M-1693.9,1453.585v-21.1a3.773,3.773,0,0,0-3.769-3.768h-6.783a2.262,2.262,0,0,0-2.261-2.262h-.692l.738-1.711a6.09,6.09,0,0,0-3.067-7.953l-2.1-.958a7.727,7.727,0,0,0-7.71.837l-1.188.891a4.72,4.72,0,0,0-2.852,2.127,4.673,4.673,0,0,0-.174,4.515l1.127,2.252h-.659a2.261,2.261,0,0,0-2.261,2.262h-6.784a3.773,3.773,0,0,0-3.769,3.768v21.1a2.262,2.262,0,0,0-2.261,2.262v1.507a3.775,3.775,0,0,0,3.769,3.769h39.194a3.773,3.773,0,0,0,3.768-3.769v-1.507A2.262,2.262,0,0,0-1693.9,1453.585Zm-13.567-25.626h.754a.753.753,0,0,1,.753.754.753.753,0,0,1-.753.753h-.754Zm.754,3.015a2.248,2.248,0,0,0,1.673-.754h7.371a2.262,2.262,0,0,1,2.262,2.261v21.1h-4.523v-9.816a3.744,3.744,0,0,0-2.685-3.61l-4.2-1.262.011-.021a.753.753,0,0,0-.294-1.024.745.745,0,0,0-.241-.084l-3.892-.649v-1.135a7.586,7.586,0,0,0,2.749-2.749h.006a5.723,5.723,0,0,0,.688-1.508h-.022c.023-.071.042-.144.063-.217.05-.177.1-.356.133-.536Zm-.754,17.335v5.276h-15.075v-5.276h-1.507v5.276h-4.522v-9.816a2.244,2.244,0,0,1,1.61-2.168l4.523-1.357,3.009,5.415a.754.754,0,0,0,.588.385h.068a.757.757,0,0,0,.58-.272l2.435-2.918v5.455h1.507v-5.455l2.436,2.923a.752.752,0,0,0,.579.271h.071a.752.752,0,0,0,.588-.385l3.007-5.414,4.523,1.357a2.246,2.246,0,0,1,1.61,2.163v9.816h-4.523v-5.276Zm-1.181-9.228-2.714,4.888-2.261-2.713a3.772,3.772,0,0,0,2.276-2.627h0Zm-6.356.937a2.261,2.261,0,0,1-2.261-2.261v-1.1a7.534,7.534,0,0,0,4.522,0v1.1A2.261,2.261,0,0,1-1715,1440.018Zm0-4.522a6.03,6.03,0,0,1-6.03-6.03v-2.837l1.023-2.048.484.363a7.537,7.537,0,0,0,9.045,0l.483-.363,1.024,2.048v2.837A6.029,6.029,0,0,1-1715,1435.5Zm-1.383,5.758-2.262,2.714-2.713-4.889,2.7-.451A3.763,3.763,0,0,0-1716.387,1441.254Zm-5.908-20.792a3.207,3.207,0,0,1,2.734-1.548,3.521,3.521,0,0,1,2.934,1.571l.237.355,1.254-.837-.237-.355a5.018,5.018,0,0,0-2.842-2.053,6.2,6.2,0,0,1,5.753-.394l2.1.959a4.584,4.584,0,0,1,2.308,5.984l-.227.517-.773-1.561a.754.754,0,0,0-1.01-.341.782.782,0,0,0-.12.074l-1.206.905a6.03,6.03,0,0,1-7.236,0l-1.206-.905a.754.754,0,0,0-1.056.146.721.721,0,0,0-.075.121l-.829,1.671-.622-1.243A3.173,3.173,0,0,1-1722.3,1420.462Zm-1,7.5h.753v1.507h-.753a.753.753,0,0,1-.754-.753A.753.753,0,0,1-1723.3,1427.959Zm-11.306,4.522a2.261,2.261,0,0,1,2.261-2.261h7.371a2.25,2.25,0,0,0,1.674.754h.9a7.5,7.5,0,0,0,.195.753,8.6,8.6,0,0,0,.668,1.508h.006a14.076,14.076,0,0,0,2.749,2.749v1.135l-3.893.649a.753.753,0,0,0-.62.867.767.767,0,0,0,.085.242l.011.021-4.2,1.261a3.747,3.747,0,0,0-2.685,3.61v9.816h-4.522Zm41.455,24.873a2.261,2.261,0,0,1-2.261,2.261H-1734.6a2.261,2.261,0,0,1-2.261-2.261v-1.507a.753.753,0,0,1,.753-.754h42.209a.754.754,0,0,1,.754.754Z" fill="#fff"/>
  </g>
</svg>
