<svg xmlns="http://www.w3.org/2000/svg" width="125" height="108" viewBox="0 0 125 108">
  <g id="Group_18300" data-name="Group 18300" transform="translate(-1590 -722)">
    <g id="Polygon_12" data-name="Polygon 12" transform="translate(1590 722)" fill="none">
      <path d="M87.983,0a10,10,0,0,1,8.655,4.991l25.463,44a10,10,0,0,1,0,10.018l-25.463,44A10,10,0,0,1,87.983,108H37.017a10,10,0,0,1-8.655-4.991L2.9,59.009a10,10,0,0,1,0-10.018l25.463-44A10,10,0,0,1,37.017,0Z" stroke="none"/>
      <path d="M 37.01674652099609 1.000007629394531 C 33.81539916992188 1.000007629394531 30.83056640625 2.721267700195312 29.22708129882812 5.492103576660156 L 3.764114379882812 49.49208831787109 C 2.154983520507812 52.27267074584961 2.154983520507812 55.72732162475586 3.764114379882812 58.50788879394531 L 29.22706604003906 102.5079040527344 C 30.83056640625 105.2787399291992 33.81538391113281 107 37.01673126220703 107 L 87.98324584960938 107 C 91.18460083007812 107 94.16941833496094 105.2787399291992 95.77291870117188 102.5079040527344 L 121.2358856201172 58.50791931152344 C 122.8450012207031 55.72732162475586 122.8450012207031 52.27267074584961 121.2358856201172 49.49210357666016 L 95.77291870117188 5.492103576660156 C 94.16943359375 2.721267700195312 91.18460083007812 1.000007629394531 87.98324584960938 1.000007629394531 L 37.01674652099609 1.000007629394531 M 37.01674652099609 7.62939453125e-06 L 87.98324584960938 7.62939453125e-06 C 91.55228424072266 7.62939453125e-06 94.85078430175781 1.902153015136719 96.63843536376953 4.991218566894531 L 122.1014022827148 48.9912223815918 C 123.8944854736328 52.08968734741211 123.8944854736328 55.91030502319336 122.1014022827148 59.00878524780273 L 96.63843536376953 103.0087890625 C 94.85078430175781 106.0978393554688 91.55228424072266 108 87.98324584960938 108 L 37.01673126220703 108 C 33.44770050048828 108 30.14920043945312 106.0978393554688 28.36154937744141 103.0087890625 L 2.898597717285156 59.00876998901367 C 1.105499267578125 55.91030502319336 1.105499267578125 52.08968734741211 2.898597717285156 48.99120330810547 L 28.36156463623047 4.991218566894531 C 30.14921569824219 1.902153015136719 33.44771575927734 7.62939453125e-06 37.01674652099609 7.62939453125e-06 Z" stroke="none" fill="#ff8500"/>
    </g>
    <path id="Path_21793" data-name="Path 21793" d="M80.465,0a10,10,0,0,1,8.669,5.015l23,40a10,10,0,0,1,0,9.969l-23,40A10,10,0,0,1,80.465,100H34.535a10,10,0,0,1-8.669-5.015l-23-40a10,10,0,0,1,0-9.969l23-40A10,10,0,0,1,34.535,0Z" transform="translate(1595 726)" fill="#ff8500"/>
    <g id="Group_18147" data-name="Group 18147" transform="translate(3332.654 -535.145)">
      <rect id="Rectangle_148976" data-name="Rectangle 148976" width="70" height="70" transform="translate(-1714.654 1274.144)" fill="none"/>
      <g id="Group_18146" data-name="Group 18146" transform="translate(-1699.341 1282.534)">
        <path id="Path_21550" data-name="Path 21550" d="M-1666.785,1286.809a2.367,2.367,0,0,0-2.2-2.526,2.471,2.471,0,0,0-.345,0q-3.2,0-6.384,0h-.565c-.01-.158-.016-.228-.02-.3a2.526,2.526,0,0,0-2.312-2.723,2.527,2.527,0,0,0-.478.007h-1.553v-.691a1.6,1.6,0,0,0-1.375-1.8,1.687,1.687,0,0,0-.424,0q-4.056,0-8.112,0a1.583,1.583,0,0,0-1.728,1.423,1.523,1.523,0,0,0,0,.285c-.005.246,0,.492,0,.784-.657,0-1.25-.011-1.84,0a2.491,2.491,0,0,0-2.46,2.031,8.8,8.8,0,0,0-.077.988h-6.9a2.374,2.374,0,0,0-2.586,2.139,2.337,2.337,0,0,0,0,.449v42.508a2.387,2.387,0,0,0,2.163,2.592,2.363,2.363,0,0,0,.424,0h34.182a2.38,2.38,0,0,0,2.577-2.164,2.3,2.3,0,0,0,0-.385Q-1666.781,1308.119-1666.785,1286.809Zm-23.75-6.316h8.164v2.686h-8.164Zm-4.368,3.126a.653.653,0,0,1,.659-.645l.02,0c.624-.027,1.252-.005,1.943-.005,0,.363-.005.654,0,.94.016.679.328,1,.99,1.006q4.833.008,9.672,0a.884.884,0,0,0,.976-.782.844.844,0,0,0,0-.189c.011-.3,0-.609,0-.971.7,0,1.361-.032,2.014.013a.66.66,0,0,1,.624.694l0,.005c.014,1.259.005,2.517.005,3.8h-16.913c0-1.293-.016-2.583.011-3.87Zm25.479,46.654h-34.069c-.784,0-.942-.16-.942-.955q0-21.2,0-42.4c0-.787.158-.946.953-.949q3.161,0,6.325,0c.159,0,.318.02.533.03,0,.741-.005,1.457,0,2.173,0,.741.3,1.054,1.046,1.054q9.111.005,18.226,0c.746,0,1.051-.31,1.056-1.047V1286c.21-.014.369-.03.524-.03q3.166,0,6.329,0c.8,0,.956.164.956.944v42.4c0,.8-.157.964-.937.964Z" transform="translate(1706.153 -1278.759)" fill="#fff"/>
        <path id="Path_21551" data-name="Path 21551" d="M-1691.391,1302.613a8.409,8.409,0,0,0,8.39-8.43,8.411,8.411,0,0,0-8.433-8.388,8.409,8.409,0,0,0-8.388,8.411,8.415,8.415,0,0,0,8.425,8.407Zm-4.548-3.482a4.789,4.789,0,0,1,4.291-2.693,4.9,4.9,0,0,1,4.81,2.693A6.668,6.668,0,0,1-1695.939,1299.13Zm2.268-6.635a2.276,2.276,0,0,1,2.28-2.273,2.277,2.277,0,0,1,2.275,2.273,2.279,2.279,0,0,1-2.337,2.218A2.279,2.279,0,0,1-1693.672,1292.5Zm-2.353-3.183a6.726,6.726,0,0,1,9.131-.123,6.622,6.622,0,0,1,1.282,8.4l-2.846-2.435a3.916,3.916,0,0,0,.953-3.392,3.837,3.837,0,0,0-1.37-2.321,3.923,3.923,0,0,0-5.187.134c-1.612,1.471-1.674,3.493-.266,5.593l-2.85,2.4a6.587,6.587,0,0,1,1.152-8.256Z" transform="translate(1711.099 -1273.262)" fill="#fff"/>
        <path id="Path_21552" data-name="Path 21552" d="M-1680.1,1305a2.214,2.214,0,0,0-.483-.037h-19.46a2.153,2.153,0,0,0-.586.061.755.755,0,0,0-.589.8.8.8,0,0,0,.664.8,2.162,2.162,0,0,0,.538.02q4.839.005,9.676,0h9.674a3.13,3.13,0,0,0,.485-.011.8.8,0,0,0,.748-.791A.777.777,0,0,0-1680.1,1305Z" transform="translate(1710.009 -1258.291)" fill="#fff"/>
        <path id="Path_21553" data-name="Path 21553" d="M-1700.342,1299c.126.009.251,0,.379,0q9.649.005,19.293,0a1.244,1.244,0,0,0,.584-.037,1.325,1.325,0,0,0,.609-.584.88.88,0,0,0-.191-.761,1.308,1.308,0,0,0-.825-.26c-3.261-.016-6.523-.011-9.781-.011h-6.756c-1.1,0-2.2-.005-3.3.005a.811.811,0,0,0-.878.736.534.534,0,0,0,0,.077.824.824,0,0,0,.811.837C-1700.378,1299-1700.36,1299-1700.342,1299Z" transform="translate(1710.018 -1264.24)" fill="#fff"/>
        <path id="Path_21554" data-name="Path 21554" d="M-1680.06,1301.192a3.261,3.261,0,0,0-.647-.036q-9.619,0-19.236,0a3.287,3.287,0,0,0-.593.027.758.758,0,0,0-.681.825l0,.012a.76.76,0,0,0,.736.786h0a3.7,3.7,0,0,0,.484.011h19.346a3.005,3.005,0,0,0,.538-.016.768.768,0,0,0,.686-.786A.751.751,0,0,0-1680.06,1301.192Z" transform="translate(1710.007 -1261.262)" fill="#fff"/>
        <path id="Path_21555" data-name="Path 21555" d="M-1703.1,1304.047c.563.554.948.557,1.516-.005q1.245-1.237,2.479-2.481c.465-.467.519-.953.16-1.325-.379-.4-.846-.353-1.354.148-.675.67-1.347,1.347-2.13,2.13a5.512,5.512,0,0,0-.47-.625.838.838,0,0,0-1.176-.134.691.691,0,0,0-.066.059.822.822,0,0,0-.034,1.163.927.927,0,0,0,.086.078C-1703.767,1303.395-1703.432,1303.719-1703.1,1304.047Z" transform="translate(1707.524 -1262.19)" fill="#fff"/>
        <path id="Path_21556" data-name="Path 21556" d="M-1703.106,1300.218c.588.582.953.579,1.55-.016q1.227-1.218,2.444-2.444c.486-.488.533-.989.152-1.361s-.836-.324-1.318.16c-.673.673-1.341,1.354-2.1,2.123a7.318,7.318,0,0,0-.538-.633.836.836,0,0,0-1.177-.128.838.838,0,0,0-.126,1.177.942.942,0,0,0,.123.125C-1703.775,1299.564-1703.438,1299.89-1703.106,1300.218Z" transform="translate(1707.519 -1265.171)" fill="#fff"/>
        <path id="Path_21557" data-name="Path 21557" d="M-1698.98,1304.019a.788.788,0,0,0-1.115-.014l-.009.009a5.876,5.876,0,0,0-.428.413l-1.907,1.92a5.529,5.529,0,0,0-.518-.7.831.831,0,0,0-1.177-.027l-.027.027a.807.807,0,0,0,0,1.142l.021.022a17.24,17.24,0,0,0,1.225,1.216.772.772,0,0,0,1.092.043l.032-.032q1.456-1.408,2.861-2.864a.781.781,0,0,0,.007-1.106A.718.718,0,0,0-1698.98,1304.019Z" transform="translate(1707.523 -1259.21)" fill="#fff"/>
      </g>
    </g>
  </g>
</svg>
