<svg xmlns="http://www.w3.org/2000/svg" width="62" height="62" viewBox="0 0 62 62">
  <g id="Group_18206" data-name="Group 18206" transform="translate(1678.101 -1406.815)">
    <rect id="Rectangle_148976" data-name="Rectangle 148976" width="62" height="62" transform="translate(-1678.101 1406.815)" fill="none"/>
    <g id="Group_18205" data-name="Group 18205">
      <path id="Path_21550" data-name="Path 21550" d="M-1629.975,1421.664a2.058,2.058,0,0,0-1.912-2.2,1.985,1.985,0,0,0-.3,0q-2.781,0-5.555,0h-.492c-.009-.138-.014-.2-.017-.265a2.2,2.2,0,0,0-2.011-2.369,2.133,2.133,0,0,0-.415.005h-1.352v-.6a1.394,1.394,0,0,0-1.2-1.566,1.425,1.425,0,0,0-.369,0q-3.528,0-7.059,0a1.378,1.378,0,0,0-1.5,1.238,1.378,1.378,0,0,0,0,.249c0,.212,0,.427,0,.681-.572,0-1.087-.009-1.6,0a2.167,2.167,0,0,0-2.14,1.767,7.519,7.519,0,0,0-.067.861h-6a2.064,2.064,0,0,0-2.251,1.86,1.974,1.974,0,0,0,0,.391v36.989a2.076,2.076,0,0,0,1.881,2.256,2.081,2.081,0,0,0,.37,0h29.744a2.072,2.072,0,0,0,2.243-1.884,2.192,2.192,0,0,0,0-.335Q-1629.971,1440.208-1629.975,1421.664Zm-20.666-5.5h7.1v2.338h-7.1Zm-3.8,2.721a.567.567,0,0,1,.574-.561h.016c.544-.023,1.09,0,1.692,0,0,.317-.005.569,0,.819.014.59.285.872.861.875q4.207.008,8.417,0a.768.768,0,0,0,.849-.68.829.829,0,0,0,0-.165c.009-.265,0-.529,0-.845.606,0,1.183-.027,1.752.012a.573.573,0,0,1,.542.6v.006c.012,1.095.005,2.19.005,3.311h-14.719c0-1.125-.014-2.248.01-3.368Zm22.171,40.6h-29.646c-.681,0-.819-.14-.819-.831q0-18.447,0-36.894c0-.686.138-.824.829-.826q2.751,0,5.505,0c.137,0,.275.016.463.025,0,.645,0,1.268,0,1.891,0,.646.265.919.91.919q7.928,0,15.859,0c.649,0,.915-.271.92-.913v-1.9c.182-.012.32-.025.455-.025q2.754,0,5.507,0c.693,0,.833.142.833.821v36.893c0,.695-.137.837-.816.837Z" fill="#fff"/>
      <path id="Path_21551" data-name="Path 21551" d="M-1647.082,1440.2a7.318,7.318,0,0,0,7.3-7.337,7.317,7.317,0,0,0-7.336-7.3,7.318,7.318,0,0,0-7.3,7.318,7.325,7.325,0,0,0,7.332,7.318Zm-3.958-3.031a4.166,4.166,0,0,1,3.734-2.343,4.265,4.265,0,0,1,4.186,2.343A5.8,5.8,0,0,1-1651.04,1437.169Zm1.974-5.774a1.981,1.981,0,0,1,1.984-1.978,1.98,1.98,0,0,1,1.978,1.978,1.982,1.982,0,0,1-2.032,1.93A1.981,1.981,0,0,1-1649.066,1431.4Zm-2.049-2.77a5.854,5.854,0,0,1,7.946-.107,5.761,5.761,0,0,1,1.116,7.306l-2.476-2.119a3.4,3.4,0,0,0,.828-2.949,3.337,3.337,0,0,0-1.192-2.021,3.415,3.415,0,0,0-4.513.116c-1.4,1.282-1.457,3.041-.231,4.868l-2.48,2.091a5.73,5.73,0,0,1,1-7.185Z" fill="#fff"/>
      <path id="Path_21552" data-name="Path 21552" d="M-1638.2,1455.3a1.98,1.98,0,0,0-.42-.032h-16.933a1.834,1.834,0,0,0-.511.054.656.656,0,0,0-.513.695.7.7,0,0,0,.579.7,1.989,1.989,0,0,0,.468.016q4.212,0,8.42,0h8.417a2.722,2.722,0,0,0,.423-.009.7.7,0,0,0,.65-.689A.676.676,0,0,0-1638.2,1455.3Z" fill="#fff"/>
      <path id="Path_21553" data-name="Path 21553" d="M-1655.813,1444.9c.11.007.22,0,.332,0q8.394,0,16.787,0a1.1,1.1,0,0,0,.509-.033,1.156,1.156,0,0,0,.529-.508.763.763,0,0,0-.165-.662,1.139,1.139,0,0,0-.719-.227c-2.837-.014-5.675-.009-8.51-.009h-5.879c-.957,0-1.913-.005-2.868.005a.7.7,0,0,0-.764.64c0,.022,0,.044,0,.067a.717.717,0,0,0,.706.728Z" fill="#fff"/>
      <path id="Path_21554" data-name="Path 21554" d="M-1638.174,1449.405a2.776,2.776,0,0,0-.562-.031q-8.368,0-16.739,0a2.69,2.69,0,0,0-.515.023.657.657,0,0,0-.592.717v.012a.663.663,0,0,0,.64.684h0a3.31,3.31,0,0,0,.422.009h16.834a2.83,2.83,0,0,0,.469-.014.671.671,0,0,0,.6-.684A.653.653,0,0,0-1638.174,1449.405Z" fill="#fff"/>
      <path id="Path_21555" data-name="Path 21555" d="M-1660.381,1451.081c.49.483.823.485,1.318-.005q1.086-1.074,2.159-2.158c.4-.406.45-.829.139-1.153-.331-.35-.737-.308-1.178.128-.588.584-1.172,1.172-1.854,1.854a4.8,4.8,0,0,0-.409-.543.728.728,0,0,0-1.023-.117c-.02.016-.039.033-.058.051a.717.717,0,0,0-.029,1.012.682.682,0,0,0,.074.068C-1660.963,1450.514-1660.671,1450.8-1660.381,1451.081Z" fill="#fff"/>
      <path id="Path_21556" data-name="Path 21556" d="M-1660.391,1445.156c.512.507.829.5,1.349-.014q1.068-1.059,2.126-2.126c.423-.424.464-.861.133-1.185s-.729-.282-1.148.14c-.586.586-1.167,1.178-1.825,1.848a6.183,6.183,0,0,0-.469-.551.728.728,0,0,0-1.024-.111.728.728,0,0,0-.111,1.024.689.689,0,0,0,.108.108C-1660.974,1444.587-1660.68,1444.871-1660.391,1445.156Z" fill="#fff"/>
      <path id="Path_21557" data-name="Path 21557" d="M-1656.8,1453.65a.686.686,0,0,0-.97-.012l-.008.008a4.807,4.807,0,0,0-.371.359c-.516.518-1.034,1.038-1.662,1.671a4.682,4.682,0,0,0-.45-.607.725.725,0,0,0-1.024-.023l-.023.023a.7.7,0,0,0,0,.995l.018.018a15,15,0,0,0,1.067,1.059.672.672,0,0,0,.95.037l.028-.028q1.267-1.224,2.49-2.492a.682.682,0,0,0,.006-.963C-1656.765,1453.68-1656.781,1453.664-1656.8,1453.65Z" fill="#fff"/>
    </g>
  </g>
</svg>
