<svg xmlns="http://www.w3.org/2000/svg" width="62" height="62" viewBox="0 0 62 62"><path d="M47.792,232.734H6.458A6.353,6.353,0,0,1,0,226.508V191.643a6.353,6.353,0,0,1,6.458-6.226H24.542a1.246,1.246,0,1,1,0,2.49H6.458a3.812,3.812,0,0,0-3.875,3.736v34.865a3.812,3.812,0,0,0,3.875,3.736h40.8l12.16-11.722V191.643a3.812,3.812,0,0,0-3.875-3.736H37.458a1.246,1.246,0,1,1,0-2.49H55.542A6.353,6.353,0,0,1,62,191.643v27.394a1.231,1.231,0,0,1-.377.882L48.706,232.37A1.326,1.326,0,0,1,47.792,232.734Zm12.917-13.7h0Z" transform="translate(0 -170.734)" fill="#fff"/><path d="M668.968,685.12a1.469,1.469,0,0,1-1.468-1.468V668.968a1.469,1.469,0,0,1,1.468-1.468h14.683a1.468,1.468,0,1,1,0,2.937H670.437v13.215A1.469,1.469,0,0,1,668.968,685.12Z" transform="translate(-623.12 -623.12)" fill="#fff"/><path d="M427.927,128.87a1.469,1.469,0,0,1-1.468-1.468V112.718a1.468,1.468,0,1,1,2.937,0V127.4A1.469,1.469,0,0,1,427.927,128.87Z" transform="translate(-396.927 -102.44)" fill="#fff"/><path d="M376.707,11.746a5.873,5.873,0,1,1,5.873-5.873A5.879,5.879,0,0,1,376.707,11.746Zm0-8.81a2.937,2.937,0,1,0,2.937,2.937A2.94,2.94,0,0,0,376.707,2.937Z" transform="translate(-345.707)" fill="#fff"/><path d="M185.637,410.853h-36.1a1.5,1.5,0,0,1,0-2.937h36.1a1.5,1.5,0,0,1,0,2.937Z" transform="translate(-136.587 -379.669)" fill="#fff"/><path d="M185.637,559.187h-36.1a1.5,1.5,0,0,1,0-2.937h36.1a1.5,1.5,0,0,1,0,2.937Z" transform="translate(-136.587 -517.73)" fill="#fff"/><path d="M182.1,707.52H149.8a1.468,1.468,0,1,1,0-2.937h32.3a1.468,1.468,0,1,1,0,2.937Z" transform="translate(-139.413 -655.792)" fill="#fff"/></svg>