<svg xmlns="http://www.w3.org/2000/svg" width="62" height="62" viewBox="0 0 62 62"><g transform="translate(-2 -2)"><path d="M60.415,33.09a3.073,3.073,0,0,0-4.243,0L45.565,43.7a1,1,0,0,0-.268.482l-1.06,4.6a1,1,0,0,0,1.2,1.2l4.6-1.061a1,1,0,0,0,.483-.268l10.6-10.613a3,3,0,0,0,0-4.243ZM46.545,47.666l.561-2.429L48.974,47.1Zm3.97-1.848L48.393,43.7l7.07-7.07,2.121,2.121Zm9.192-9.193L59,37.334l-2.121-2.121.709-.709A1.023,1.023,0,0,1,59,34.5l.707.708a1,1,0,0,1,0,1.413Z" transform="translate(2 1.432)" fill="#fff"/><path d="M31.878,53.464l-1.414,1.414,2.829,2.829a1,1,0,0,0,1.414,0l6.364-6.364-1.414-1.414L34,55.586Z" transform="translate(1.153 2)" fill="#fff"/><path d="M43,44V34a4,4,0,0,0-4-4H37.969a5,5,0,1,0-5.938,0H31a4,4,0,0,0-4,4V44a1,1,0,0,0,1,1H42A1,1,0,0,0,43,44ZM32,26a3,3,0,1,1,3,3A3,3,0,0,1,32,26Zm9,17H29V34a2,2,0,0,1,2-2h8a2,2,0,0,1,2,2Z" transform="translate(1.136 1.055)" fill="#fff"/><path d="M4.888,22.81a14.618,14.618,0,0,0,.99,2.357.412.412,0,0,1-.084.48,1.046,1.046,0,0,0-.1.12,2.47,2.47,0,0,0,.1,3.385l2.168,2.156a2.5,2.5,0,0,0,3.393.1,1.047,1.047,0,0,0,.126-.11.417.417,0,0,1,.475-.088,14.948,14.948,0,0,0,2.4,1,.4.4,0,0,1,.272.4,2.48,2.48,0,0,0,2.483,2.47h.488v27.9A1.036,1.036,0,0,0,18.627,64H48.765a1.042,1.042,0,0,0,.735-.3l5.2-5.167A1.03,1.03,0,0,0,55,57.8V53.667H52.922v3.706l-4.587,4.561H19.667V19.567H52.922V34.033H55v-15.5A1.036,1.036,0,0,0,53.961,17.5H35.255v-.486a2.48,2.48,0,0,0-2.484-2.47.408.408,0,0,1-.4-.288,14.617,14.617,0,0,0-.99-2.357.412.412,0,0,1,.084-.481,1.047,1.047,0,0,0,.1-.12,2.47,2.47,0,0,0-.1-3.385L29.3,5.758a2.5,2.5,0,0,0-3.393-.1,1.047,1.047,0,0,0-.126.11.417.417,0,0,1-.475.088,14.948,14.948,0,0,0-2.4-1,.4.4,0,0,1-.272-.4A2.48,2.48,0,0,0,20.155,2H17.1a2.5,2.5,0,0,0-1.764.737A2.473,2.473,0,0,0,14.616,4.5a.364.364,0,0,1-.254.36,15.24,15.24,0,0,0-2.407,1,.417.417,0,0,1-.483-.084,1.049,1.049,0,0,0-.12-.1,2.5,2.5,0,0,0-3.4.1L5.78,7.92a2.47,2.47,0,0,0-.1,3.374,1.045,1.045,0,0,0,.11.125.412.412,0,0,1,.088.472,14.771,14.771,0,0,0-1,2.383.4.4,0,0,1-.4.271A2.48,2.48,0,0,0,2,17.014v3.038a2.48,2.48,0,0,0,2.484,2.47.408.408,0,0,1,.4.288Zm13.74-5.31a1.036,1.036,0,0,0-1.039,1.033v7.151A7.237,7.237,0,1,1,25.819,17.5ZM4.078,20.052V17.014a.4.4,0,0,1,.117-.286.4.4,0,0,1,.288-.117,2.464,2.464,0,0,0,2.381-1.716,12.628,12.628,0,0,1,.859-2.045,2.485,2.485,0,0,0-.374-2.8.931.931,0,0,0-.095-.109.4.4,0,0,1,0-.564L9.411,7.232a.406.406,0,0,1,.574-.006,1.082,1.082,0,0,0,.1.091,2.521,2.521,0,0,0,2.826.373,13.344,13.344,0,0,1,2.062-.856A2.448,2.448,0,0,0,16.695,4.47a.4.4,0,0,1,.117-.286.4.4,0,0,1,.288-.117h3.055a.4.4,0,0,1,.288.117.4.4,0,0,1,.117.286,2.452,2.452,0,0,0,1.726,2.367,12.78,12.78,0,0,1,2.057.855,2.519,2.519,0,0,0,2.818-.372.934.934,0,0,0,.109-.094.4.4,0,0,1,.567,0l2.155,2.143a.4.4,0,0,1,.006.57,1.08,1.08,0,0,0-.091.1,2.488,2.488,0,0,0-.373,2.815,12.476,12.476,0,0,1,.849,2.019,2.47,2.47,0,0,0,2.39,1.734.4.4,0,0,1,.288.117.4.4,0,0,1,.117.286V17.5H27.919A9.349,9.349,0,1,0,17.588,27.772V33H17.1a.4.4,0,0,1-.288-.117.4.4,0,0,1-.117-.286,2.452,2.452,0,0,0-1.726-2.367,12.78,12.78,0,0,1-2.057-.855,2.521,2.521,0,0,0-2.818.372.934.934,0,0,0-.109.094.406.406,0,0,1-.567,0L7.262,27.7a.4.4,0,0,1-.006-.57,1.08,1.08,0,0,0,.091-.1,2.488,2.488,0,0,0,.369-2.816,12.476,12.476,0,0,1-.849-2.019,2.47,2.47,0,0,0-2.39-1.734.4.4,0,0,1-.283-.119.4.4,0,0,1-.115-.284Z" fill="#fff"/></g></svg>