<svg id="_x35_8_x2C__Business_x2C__Corporate_x2C__Location_x2C__Place_x2C__Placeholder" xmlns="http://www.w3.org/2000/svg" width="62" height="62" viewBox="0 0 62 62">
  <g id="Group_16129" data-name="Group 16129" transform="translate(0 0)">
    <path id="Path_18425" data-name="Path 18425" d="M409.217,146.635a5.317,5.317,0,1,0-5.317-5.317A5.325,5.325,0,0,0,409.217,146.635Zm0-7.976a2.659,2.659,0,1,1-2.659,2.659A2.667,2.667,0,0,1,409.217,138.659Z" transform="translate(-352.535 -123.168)" fill="#8218d1"/>
    <path id="Path_18426" data-name="Path 18426" d="M9.417,276.635A5.317,5.317,0,1,0,4.1,271.317,5.316,5.316,0,0,0,9.417,276.635Zm0-7.976a2.659,2.659,0,1,1-2.659,2.659A2.667,2.667,0,0,1,9.417,268.659Z" transform="translate(-4.1 -236.471)" fill="#8218d1"/>
    <path id="Path_18427" data-name="Path 18427" d="M64.808,95.5H53.6c4.794-1.654,7.327-3.876,7.327-6.46,0-3.721-3.386-6.318-10.066-7.726a1.287,1.287,0,1,0-.53,2.519c3.657.762,8.012,2.287,8.012,5.194,0,1.1-1.654,2.791-6.28,4.25a55.9,55.9,0,0,1-14.8,2.183c3.734-7,15.946-30.761,15.92-40a19.377,19.377,0,1,0-38.753.026c.116,9.1,14.046,32.867,18.349,39.985a55.933,55.933,0,0,1-14.641-2.17c-4.639-1.46-6.28-3.152-6.28-4.25s1.783-2.92,6.823-4.418a1.288,1.288,0,1,0-.737-2.468c-5.673,1.68-8.671,4.07-8.671,6.886,0,2.584,2.533,4.806,7.327,6.46H5.392a1.292,1.292,0,1,0,0,2.584H64.808a1.3,1.3,0,0,0,0-2.6Zm-31-56.819a16.863,16.863,0,0,1,16.8,16.8c.039,8.514-11.9,31.769-15.571,38.719-4.3-7.131-17.91-30.451-18.026-38.745A16.7,16.7,0,0,1,33.808,38.684Z" transform="translate(-4.1 -36.1)" fill="#8218d1"/>
    <path id="Path_18428" data-name="Path 18428" d="M168.529,117.724v-9.133c.226.013.465.013.678.027a1.332,1.332,0,0,0,1.4-1.329v-5.211a1.333,1.333,0,0,0-1.329-1.329h-3.882V97.929a1.333,1.333,0,0,0-1.329-1.329H153.64a1.333,1.333,0,0,0-1.329,1.329v2.845h-3.882A1.333,1.333,0,0,0,147.1,102.1v5.211a1.333,1.333,0,0,0,1.329,1.329h.758v9.093a1.333,1.333,0,0,0,1.329,1.329h16.67A1.356,1.356,0,0,0,168.529,117.724ZM154.983,99.245h7.764v1.515h-7.764Zm10.994,7.5c-.173.4-.093-.213-.106,9.651H151.859v-7.764h10.13a1.329,1.329,0,0,0,0-2.659H149.772V103.42h18.186v2.5c-.944-.013-1.622.04-1.981.824Z" transform="translate(-128.932 -88.557)" fill="#8218d1"/>
    <path id="Path_18429" data-name="Path 18429" d="M221.116,206.3h-2.087a1.329,1.329,0,0,0,0,2.659h2.087a1.329,1.329,0,1,0,0-2.659Z" transform="translate(-190.162 -184.339)" fill="#8218d1"/>
  </g>
</svg>
