<svg xmlns="http://www.w3.org/2000/svg" width="62" height="62" viewBox="0 0 62 62">
  <g id="download_6_" data-name="download (6)" transform="translate(-22.435 0)">
    <g id="Group_16114" data-name="Group 16114" transform="translate(22.435 0)">
      <g id="Group_16113" data-name="Group 16113">
        <path id="Path_18413" data-name="Path 18413" d="M240.739,451.233a1.1,1.1,0,1,0,.706-1.247A1.109,1.109,0,0,0,240.739,451.233Z" transform="translate(-211.522 -394.736)" fill="#8218d1"/>
        <path id="Path_18414" data-name="Path 18414" d="M79.8,10.34H71.9V5.625A5.92,5.92,0,0,0,65.732,0h-26a5.92,5.92,0,0,0-6.165,5.625V34.413L28.229,40.94,23.8,46.347a6.024,6.024,0,0,0-1.343,3.233,5.848,5.848,0,0,0,.087,1.7,4.859,4.859,0,0,0,.712,1.841l5.953,8.326a1.42,1.42,0,0,0,1.837.353,1.159,1.159,0,0,0,.387-1.676l-5.913-8.27a3.662,3.662,0,0,1,.407-4.061L30.345,42.4l3.222-3.936V49.208a4.125,4.125,0,0,0,2.989,3.8,4.584,4.584,0,0,0,1.562.21,4.235,4.235,0,0,0,4.245-4.008V38.922a2.493,2.493,0,0,1,2.526-2.306,2.427,2.427,0,0,1,2.526,2.306V60.789A1.273,1.273,0,0,0,48.743,62H65.731A5.92,5.92,0,0,0,71.9,56.375V47.292a1.333,1.333,0,0,0-2.655,0v.132A2.364,2.364,0,0,1,66.78,49.67H50.07V38.922a4.8,4.8,0,0,0-3.278-4.4A5.61,5.61,0,0,0,44.8,34.2a5.251,5.251,0,0,0-4.787,3.125,4.3,4.3,0,0,0-.31,1.6V49.209a1.7,1.7,0,0,1-1.614,1.584,1.746,1.746,0,0,1-1.868-1.516V9.729a2.365,2.365,0,0,1,2.463-2.246H66.78a2.364,2.364,0,0,1,2.462,2.246v.611h-18.1a4.448,4.448,0,0,0-4.631,4.226V31.428a1.347,1.347,0,0,0,2.012,1.038L53.1,29.949h16.14v6.688a1.333,1.333,0,0,0,2.655,0V29.949H79.8a4.448,4.448,0,0,0,4.631-4.226V14.565A4.448,4.448,0,0,0,79.8,10.34ZM66.78,52.092a5.472,5.472,0,0,0,2.462-.577v4.861a3.371,3.371,0,0,1-3.511,3.2H50.07V52.092Zm0-47.032H38.689a5.474,5.474,0,0,0-2.463.578V5.625a3.371,3.371,0,0,1,3.511-3.2h26a3.371,3.371,0,0,1,3.511,3.2v.013A5.472,5.472,0,0,0,66.78,5.061Zm15,20.663a1.9,1.9,0,0,1-1.977,1.8H52.734a1.425,1.425,0,0,0-.684.173l-2.889,1.586V14.565a1.9,1.9,0,0,1,1.976-1.8H79.8a1.9,1.9,0,0,1,1.977,1.8Z" transform="translate(-22.435 0)" fill="#8218d1"/>
        <path id="Path_18415" data-name="Path 18415" d="M246.378,123.663h1.88a1.1,1.1,0,1,0,0-2.2h-1.88a2.662,2.662,0,0,0-2.659,2.659v.775a2.662,2.662,0,0,0,2.659,2.659h.319a.464.464,0,0,1,.463.463v.625a.464.464,0,0,1-.463.463h-1.88a1.1,1.1,0,0,0,0,2.2h1.88a2.662,2.662,0,0,0,2.659-2.659v-.625a2.662,2.662,0,0,0-2.659-2.659h-.319a.464.464,0,0,1-.463-.463v-.775A.464.464,0,0,1,246.378,123.663Z" transform="translate(-213.722 -106.467)" fill="#8218d1"/>
        <path id="Path_18416" data-name="Path 18416" d="M399.484,123.663h1.88a1.1,1.1,0,0,0,0-2.2h-1.88a2.662,2.662,0,0,0-2.659,2.659v.775a2.662,2.662,0,0,0,2.659,2.659h.319a.464.464,0,0,1,.463.463v.625a.464.464,0,0,1-.463.463h-1.88a1.1,1.1,0,0,0,0,2.2h1.88a2.662,2.662,0,0,0,2.659-2.659v-.625a2.662,2.662,0,0,0-2.659-2.659h-.319a.464.464,0,0,1-.463-.463v-.775A.464.464,0,0,1,399.484,123.663Z" transform="translate(-345.006 -106.467)" fill="#8218d1"/>
        <path id="Path_18417" data-name="Path 18417" d="M319.348,121.467h-1.417a2.662,2.662,0,0,0-2.659,2.659v4.522a2.662,2.662,0,0,0,2.659,2.659h1.417a2.662,2.662,0,0,0,2.659-2.659v-4.522A2.662,2.662,0,0,0,319.348,121.467Zm.463,7.181a.464.464,0,0,1-.463.463h-1.417a.464.464,0,0,1-.463-.463v-4.522a.464.464,0,0,1,.463-.463h1.417a.464.464,0,0,1,.463.463Z" transform="translate(-275.389 -106.467)" fill="#8218d1"/>
        <path id="Path_18418" data-name="Path 18418" d="M377.14,336.216a1.1,1.1,0,1,0-.3,1.522A1.109,1.109,0,0,0,377.14,336.216Z" transform="translate(-327.961 -294.923)" fill="#8218d1"/>
      </g>
    </g>
  </g>
</svg>
