<svg xmlns="http://www.w3.org/2000/svg" width="62" height="61.706" viewBox="0 0 62 61.706"><g transform="translate(-1 -1.294)"><path d="M12,.757h2V9.242H12Z" transform="translate(0.272 10.657) rotate(-45)" fill="#fff"/><path d="M6,14h9v2H6Z" fill="#fff"/><path d="M46.757,4h8.485V6H46.757Z" transform="translate(11.402 37.527) rotate(-45)" fill="#fff"/><path d="M49,14h9v2H49Z" fill="#fff"/><path d="M60,53V25a5.006,5.006,0,0,0-5-5H46a3,3,0,0,0-3-3h-.918l.98-2.271a8.079,8.079,0,0,0-4.07-10.551L36.2,2.907a10.252,10.252,0,0,0-10.23,1.11L24.394,5.2A6.266,6.266,0,0,0,20.61,8.021a6.2,6.2,0,0,0-.23,5.991L21.875,17H21a3,3,0,0,0-3,3H9a5.006,5.006,0,0,0-5,5V53a3,3,0,0,0-3,3v2a5.006,5.006,0,0,0,5,5H58a5.006,5.006,0,0,0,5-5V56a3,3,0,0,0-3-3ZM55,22a3,3,0,0,1,3,3V53H56V25a1,1,0,0,0-1-1H41.539a9.838,9.838,0,0,0,.259-1H43a2.985,2.985,0,0,0,2.22-1ZM42,46v7H22V46H20v7H14V39.976A2.979,2.979,0,0,1,16.137,37.1l6-1.8,3.992,7.184a1,1,0,0,0,.78.51H27a1,1,0,0,0,.769-.36L31,38.762V46h2V38.762l3.231,3.878A1,1,0,0,0,37,43h.094a1,1,0,0,0,.78-.511l3.99-7.183,6,1.8A2.981,2.981,0,0,1,50,39.976V53H44V46ZM27,29.647v1.506l-5.165.861a1,1,0,0,0-.71,1.472l.015.027-5.578,1.674A4.97,4.97,0,0,0,12,39.976V53H10V26H23.353A10.058,10.058,0,0,0,27,29.647ZM40,21a8,8,0,0,1-16,0V17.236l1.358-2.717L26,15a10,10,0,0,0,12,0l.641-.481L40,17.236ZM27.148,33.156a5,5,0,0,0,3.017,3.484l-3,3.6-3.6-6.486Zm9.7,0,3.585.6-3.6,6.486-3-3.6a5.006,5.006,0,0,0,3.019-3.486ZM35,32a3,3,0,1,1-6,0V30.539a9.992,9.992,0,0,0,6,0Zm13.438,3.187-5.58-1.675.015-.027a1,1,0,0,0-.71-1.471L37,31.153V29.647A10.058,10.058,0,0,0,40.647,26H54V53H52V39.976A4.97,4.97,0,0,0,48.438,35.187ZM44,20a1,1,0,0,1-1,1H42V19h1A1,1,0,0,1,44,20ZM22.327,9.053A4.254,4.254,0,0,1,25.954,7a4.668,4.668,0,0,1,3.893,2.084l.314.471,1.664-1.11-.314-.471A6.658,6.658,0,0,0,27.74,5.25a8.221,8.221,0,0,1,7.633-.523L38.164,6a6.08,6.08,0,0,1,3.062,7.939l-.3.686L39.9,12.553a1,1,0,0,0-1.5-.353l-1.6,1.2a8,8,0,0,1-9.6,0l-1.6-1.2a1,1,0,0,0-1.5.353L23,14.771l-.825-1.65a4.211,4.211,0,0,1,.152-4.068ZM21,19h1v2H21a1,1,0,0,1,0-2ZM6,25a3,3,0,0,1,3-3h9.78A2.985,2.985,0,0,0,21,23h1.2a9.84,9.84,0,0,0,.259,1H9a1,1,0,0,0-1,1V53H6ZM61,58a3,3,0,0,1-3,3H6a3,3,0,0,1-3-3V56a1,1,0,0,1,1-1H60a1,1,0,0,1,1,1Z" fill="#fff"/></g></svg>