<svg xmlns="http://www.w3.org/2000/svg" width="62" height="62" viewBox="0 0 62 62">
  <g id="download_5_" data-name="download (5)" transform="translate(0 0)">
    <g id="Group_16107" data-name="Group 16107" transform="translate(0 0)">
      <path id="Path_18406" data-name="Path 18406" d="M89.307,59.8a20.866,20.866,0,1,0,6.112,14.755A20.73,20.73,0,0,0,89.307,59.8ZM87.586,87.586a18.432,18.432,0,1,1,5.4-13.034A18.311,18.311,0,0,1,87.586,87.586Z" transform="translate(-47.154 -47.154)" fill="#8218d1"/>
      <path id="Path_18407" data-name="Path 18407" d="M134.173,103.952a13.079,13.079,0,0,1,18.5,0,1.217,1.217,0,0,0,1.721-1.721,15.512,15.512,0,0,0-21.938,0,1.217,1.217,0,0,0,1.721,1.721Z" transform="translate(-116.143 -85.865)" fill="#8218d1"/>
      <path id="Path_18408" data-name="Path 18408" d="M152.669,298.6a13.078,13.078,0,0,1-18.5,0,1.217,1.217,0,0,0-1.721,1.721,15.513,15.513,0,0,0,21.938,0,1.217,1.217,0,0,0-1.721-1.721Z" transform="translate(-116.144 -262.149)" fill="#8218d1"/>
      <path id="Path_18409" data-name="Path 18409" d="M60.629,54l-6.754-6.754.563-.563a1.211,1.211,0,0,0-1.713-1.713L49.7,47.99l-2.316-2.316A27.268,27.268,0,0,0,7.987,7.987a27.268,27.268,0,0,0,37.688,39.4L47.99,49.7l-3.022,3.022a1.211,1.211,0,1,0,1.713,1.713l.563-.563L54,60.629A4.69,4.69,0,1,0,60.629,54ZM27.268,52.114a24.846,24.846,0,1,1,17.569-7.277A24.683,24.683,0,0,1,27.268,52.114Zm31.648,6.8a2.27,2.27,0,0,1-3.207,0l-6.754-6.754,3.207-3.207,6.754,6.754A2.27,2.27,0,0,1,58.916,58.916Z" transform="translate(0 0)" fill="#8218d1"/>
      <path id="Path_18410" data-name="Path 18410" d="M126.644,193.5a2.766,2.766,0,0,0,1.413-2.423v-6.07a1.245,1.245,0,0,0-1.136-1.256,1.217,1.217,0,0,0-1.3,1.214v6.111a.336.336,0,0,1-.16.295c-.166.092-.465-.172-.468-.175l-.046-.043a1.2,1.2,0,1,0-1.571,1.816,3.151,3.151,0,0,0,2.009.863,2.557,2.557,0,0,0,1.256-.334Z" transform="translate(-108.049 -161.52)" fill="#8218d1"/>
      <path id="Path_18411" data-name="Path 18411" d="M275.1,188.148a2.975,2.975,0,0,0-2.615-4.4h-2.221a1.217,1.217,0,0,0-1.217,1.217v7.646a1.217,1.217,0,0,0,1.217,1.217h.005s2.041-.009,2.6-.009a3.274,3.274,0,0,0,2.227-5.674Zm-2.615-1.963a.543.543,0,1,1,0,1.085l-.81,0h-.194v-1.087h1Zm.388,5.2-1.392,0v-1.686h1.392a.841.841,0,1,1,0,1.683Z" transform="translate(-236.489 -161.52)" fill="#8218d1"/>
      <path id="Path_18412" data-name="Path 18412" d="M175.785,188.791a5.04,5.04,0,1,0,5.04-5.04A5.046,5.046,0,0,0,175.785,188.791Zm7.647,0a2.606,2.606,0,1,1-2.606-2.606A2.609,2.609,0,0,1,183.432,188.791Z" transform="translate(-154.518 -161.52)" fill="#8218d1"/>
    </g>
  </g>
</svg>
