<svg xmlns="http://www.w3.org/2000/svg" width="62" height="54.218" viewBox="0 0 62 54.218"><g transform="translate(0 -32.131)"><path d="M51.865,58.691a13.492,13.492,0,0,0-3.355-26.56H13.49a13.49,13.49,0,1,0,0,26.98H36.355V78.7a1.816,1.816,0,0,0,3.1,1.284l7.2-7.2,5.154,12.443a1.816,1.816,0,0,0,3.356-1.39L50.008,71.394H60.184a1.816,1.816,0,0,0,1.284-3.1ZM13.49,55.478a9.857,9.857,0,1,1,0-19.714H48.51a9.856,9.856,0,0,1,.139,19.711l-9.192-9.192a1.816,1.816,0,0,0-3.1,1.284v7.911H13.49Zm33.8,12.284a1.816,1.816,0,0,0-1.284.532l-6.017,6.017V51.952L55.8,67.762Z" transform="translate(0)" fill="#fff"/></g></svg>