<svg id="download_7_" data-name="download (7)" xmlns="http://www.w3.org/2000/svg" width="62" height="62" viewBox="0 0 62 62">
  <g id="Group_16117" data-name="Group 16117" transform="translate(0 33.652)">
    <g id="Group_16116" data-name="Group 16116">
      <path id="Path_18419" data-name="Path 18419" d="M14.174,272a14.174,14.174,0,1,0,14.174,14.174A14.19,14.19,0,0,0,14.174,272Zm0,24.8a10.63,10.63,0,1,1,10.63-10.63A10.643,10.643,0,0,1,14.174,296.8Z" transform="translate(0 -272)" fill="#8218d1"/>
    </g>
  </g>
  <g id="Group_16119" data-name="Group 16119" transform="translate(33.652 33.652)">
    <g id="Group_16118" data-name="Group 16118">
      <path id="Path_18420" data-name="Path 18420" d="M286.174,272a14.174,14.174,0,1,0,14.174,14.174A14.19,14.19,0,0,0,286.174,272Zm0,24.8a10.63,10.63,0,1,1,10.63-10.63A10.643,10.643,0,0,1,286.174,296.8Z" transform="translate(-272 -272)" fill="#8218d1"/>
    </g>
  </g>
  <g id="Group_16121" data-name="Group 16121" transform="translate(40.739 42.511)">
    <g id="Group_16120" data-name="Group 16120">
      <path id="Path_18421" data-name="Path 18421" d="M345.655,347.519a1.772,1.772,0,0,0-2.506,0l-5.834,5.834-2.291-2.291a1.772,1.772,0,0,0-2.506,2.506l3.544,3.544a1.772,1.772,0,0,0,2.505,0l7.087-7.087A1.772,1.772,0,0,0,345.655,347.519Z" transform="translate(-332 -347)" fill="#8218d1"/>
    </g>
  </g>
  <g id="Group_16123" data-name="Group 16123" transform="translate(8.859 42.511)">
    <g id="Group_16122" data-name="Group 16122">
      <path id="Path_18422" data-name="Path 18422" d="M85.111,354.606l-2.291-2.291,2.291-2.291a1.772,1.772,0,1,0-2.506-2.506l-2.291,2.291-2.291-2.291a1.772,1.772,0,0,0-2.506,2.506l2.291,2.291-2.291,2.291a1.772,1.772,0,1,0,2.506,2.506l2.291-2.291,2.291,2.291a1.772,1.772,0,1,0,2.506-2.506Z" transform="translate(-75 -347)" fill="#8218d1"/>
    </g>
  </g>
  <g id="Group_16125" data-name="Group 16125" transform="translate(35.424)">
    <g id="Group_16124" data-name="Group 16124">
      <path id="Path_18423" data-name="Path 18423" d="M304.659,11.835a7.087,7.087,0,1,0-10.513,0A12.759,12.759,0,0,0,287,23.269v3.543a1.772,1.772,0,0,0,1.772,1.772h21.261a1.772,1.772,0,0,0,1.772-1.772V23.269A12.76,12.76,0,0,0,304.659,11.835ZM299.4,3.543a3.543,3.543,0,1,1-3.543,3.543A3.548,3.548,0,0,1,299.4,3.543Zm8.859,21.5H290.543V23.269a8.862,8.862,0,1,1,17.717,0Z" transform="translate(-287)" fill="#8218d1"/>
    </g>
  </g>
  <g id="Group_16127" data-name="Group 16127" transform="translate(1.772)">
    <g id="Group_16126" data-name="Group 16126">
      <path id="Path_18424" data-name="Path 18424" d="M32.659,11.835a7.087,7.087,0,1,0-10.513,0A12.759,12.759,0,0,0,15,23.269v3.543a1.772,1.772,0,0,0,1.772,1.772H38.033A1.772,1.772,0,0,0,39.8,26.812V23.269A12.76,12.76,0,0,0,32.659,11.835ZM27.4,3.543a3.543,3.543,0,1,1-3.543,3.543A3.548,3.548,0,0,1,27.4,3.543Zm8.859,21.5H18.543V23.269A9.1,9.1,0,0,1,27.4,14.174a9.1,9.1,0,0,1,8.859,9.095Z" transform="translate(-15)" fill="#8218d1"/>
    </g>
  </g>
</svg>
