<svg id="Component_87_1" data-name="Component 87 – 1" xmlns="http://www.w3.org/2000/svg" width="125" height="108" viewBox="0 0 125 108">
  <g id="Polygon_12" data-name="Polygon 12" fill="none">
    <path d="M87.983,0a10,10,0,0,1,8.655,4.991l25.463,44a10,10,0,0,1,0,10.018l-25.463,44A10,10,0,0,1,87.983,108H37.017a10,10,0,0,1-8.655-4.991L2.9,59.009a10,10,0,0,1,0-10.018l25.463-44A10,10,0,0,1,37.017,0Z" stroke="none"/>
    <path d="M 37.01674652099609 1.000007629394531 C 33.81539916992188 1.000007629394531 30.83056640625 2.721267700195312 29.22708129882812 5.492103576660156 L 3.764114379882812 49.49208831787109 C 2.154983520507812 52.27267074584961 2.154983520507812 55.72732162475586 3.764114379882812 58.50788879394531 L 29.22706604003906 102.5079040527344 C 30.83056640625 105.2787399291992 33.81538391113281 107 37.01673126220703 107 L 87.98324584960938 107 C 91.18460083007812 107 94.16941833496094 105.2787399291992 95.77291870117188 102.5079040527344 L 121.2358856201172 58.50791931152344 C 122.8450012207031 55.72732162475586 122.8450012207031 52.27267074584961 121.2358856201172 49.49210357666016 L 95.77291870117188 5.492103576660156 C 94.16943359375 2.721267700195312 91.18460083007812 1.000007629394531 87.98324584960938 1.000007629394531 L 37.01674652099609 1.000007629394531 M 37.01674652099609 7.62939453125e-06 L 87.98324584960938 7.62939453125e-06 C 91.55228424072266 7.62939453125e-06 94.85078430175781 1.902153015136719 96.63843536376953 4.991218566894531 L 122.1014022827148 48.9912223815918 C 123.8944854736328 52.08968734741211 123.8944854736328 55.91030502319336 122.1014022827148 59.00878524780273 L 96.63843536376953 103.0087890625 C 94.85078430175781 106.0978393554688 91.55228424072266 108 87.98324584960938 108 L 37.01673126220703 108 C 33.44770050048828 108 30.14920043945312 106.0978393554688 28.36154937744141 103.0087890625 L 2.898597717285156 59.00876998901367 C 1.105499267578125 55.91030502319336 1.105499267578125 52.08968734741211 2.898597717285156 48.99120330810547 L 28.36156463623047 4.991218566894531 C 30.14921569824219 1.902153015136719 33.44771575927734 7.62939453125e-06 37.01674652099609 7.62939453125e-06 Z" stroke="none" fill="#ff8500"/>
  </g>
  <path id="Polygon_13" data-name="Polygon 13" d="M80.465,0a10,10,0,0,1,8.669,5.015l23,40a10,10,0,0,1,0,9.969l-23,40A10,10,0,0,1,80.465,100H34.535a10,10,0,0,1-8.669-5.015l-23-40a10,10,0,0,1,0-9.969l23-40A10,10,0,0,1,34.535,0Z" transform="translate(5 4)" fill="#ff8500"/>
  <path id="Union_108" data-name="Union 108" d="M0,36.488V35.476a3.949,3.949,0,0,0,.025-.727c.173-9.421,1.505-12.138,11-13.861a5.751,5.751,0,0,0,4.5,1.731,5.732,5.732,0,0,0,4.5-1.731c9.6,1.74,10.858,4.5,11.011,14.179a5.207,5.207,0,0,0,.02.668v.753s-2.292,4.64-15.532,4.64S0,36.488,0,36.488Zm42.547,2.255a3,3,0,0,1-2.981-2.97H35.739a1.282,1.282,0,0,1-1.278-1.287V21.853H32.334a1.286,1.286,0,0,1,0-2.572h2.127V6.642a1.28,1.28,0,0,1,1.278-1.286h3.827a2.992,2.992,0,0,1,2.981-2.975h11.06a2.991,2.991,0,0,1,2.978,3V7.955a2.991,2.991,0,0,1-2.978,3H42.547a2.992,2.992,0,0,1-2.981-3V7.924H37.012V19.28h2.554a2.993,2.993,0,0,1,2.981-3h11.06a2.993,2.993,0,0,1,2.978,3v2.572a2.991,2.991,0,0,1-2.978,2.994H42.547a2.991,2.991,0,0,1-2.981-2.994H37.012V33.2h2.554v-.031a2.992,2.992,0,0,1,2.981-3h11.06a2.992,2.992,0,0,1,2.978,3v2.573a2.991,2.991,0,0,1-2.978,3Zm1.9-5.165a.852.852,0,0,0-.239.61.865.865,0,0,0,.26.606l2.256,2.185a.814.814,0,0,0,.587.243.871.871,0,0,0,.6-.251l3.776-3.811a.831.831,0,0,0,.253-.6.85.85,0,0,0-.253-.609.83.83,0,0,0-.6-.249.843.843,0,0,0-.6.249L47.3,35.158l-1.648-1.6a.848.848,0,0,0-.59-.238A.832.832,0,0,0,44.447,33.578Zm5.106-10.314a.854.854,0,0,0,1.2-1.214l-1.479-1.487,1.479-1.492a.851.851,0,0,0,0-1.211.853.853,0,0,0-.6-.251.837.837,0,0,0-.6.251l-1.479,1.493L46.592,17.86a.846.846,0,0,0-.6-.251.856.856,0,0,0-.6,1.462l1.484,1.492L45.387,22.05a.88.88,0,0,0,0,1.214.858.858,0,0,0,.6.251.842.842,0,0,0,.6-.251l1.481-1.493ZM44.447,5.79a.829.829,0,0,0-.239.6.869.869,0,0,0,.26.608l2.256,2.183a.826.826,0,0,0,.587.24.845.845,0,0,0,.6-.249l3.776-3.8a.855.855,0,0,0,0-1.214.826.826,0,0,0-.6-.249.839.839,0,0,0-.6.249L47.3,7.369l-1.648-1.6a.847.847,0,0,0-1.2.025ZM7.3,10.061C7.3,4.508,8.513,0,15.528,0s8.224,4.508,8.224,10.061-3.683,10.057-8.224,10.057S7.3,15.611,7.3,10.061Z" transform="translate(33.707 36.871)" fill="#fff"/>
</svg>
