<svg id="Component_84_1" data-name="Component 84 – 1" xmlns="http://www.w3.org/2000/svg" width="125" height="108" viewBox="0 0 125 108">
  <g id="Polygon_6" data-name="Polygon 6" fill="none">
    <path d="M87.983,0a10,10,0,0,1,8.655,4.991l25.463,44a10,10,0,0,1,0,10.018l-25.463,44A10,10,0,0,1,87.983,108H37.017a10,10,0,0,1-8.655-4.991L2.9,59.009a10,10,0,0,1,0-10.018l25.463-44A10,10,0,0,1,37.017,0Z" stroke="none"/>
    <path d="M 37.01674652099609 1.000007629394531 C 33.81539916992188 1.000007629394531 30.83056640625 2.721267700195312 29.22708129882812 5.492103576660156 L 3.764114379882812 49.49208831787109 C 2.154983520507812 52.27267074584961 2.154983520507812 55.72732162475586 3.764114379882812 58.50788879394531 L 29.22706604003906 102.5079040527344 C 30.83056640625 105.2787399291992 33.81538391113281 107 37.01673126220703 107 L 87.98324584960938 107 C 91.18460083007812 107 94.16941833496094 105.2787399291992 95.77291870117188 102.5079040527344 L 121.2358856201172 58.50791931152344 C 122.8450012207031 55.72732162475586 122.8450012207031 52.27267074584961 121.2358856201172 49.49210357666016 L 95.77291870117188 5.492103576660156 C 94.16943359375 2.721267700195312 91.18460083007812 1.000007629394531 87.98324584960938 1.000007629394531 L 37.01674652099609 1.000007629394531 M 37.01674652099609 7.62939453125e-06 L 87.98324584960938 7.62939453125e-06 C 91.55228424072266 7.62939453125e-06 94.85078430175781 1.902153015136719 96.63843536376953 4.991218566894531 L 122.1014022827148 48.9912223815918 C 123.8944854736328 52.08968734741211 123.8944854736328 55.91030502319336 122.1014022827148 59.00878524780273 L 96.63843536376953 103.0087890625 C 94.85078430175781 106.0978393554688 91.55228424072266 108 87.98324584960938 108 L 37.01673126220703 108 C 33.44770050048828 108 30.14920043945312 106.0978393554688 28.36154937744141 103.0087890625 L 2.898597717285156 59.00876998901367 C 1.105499267578125 55.91030502319336 1.105499267578125 52.08968734741211 2.898597717285156 48.99120330810547 L 28.36156463623047 4.991218566894531 C 30.14921569824219 1.902153015136719 33.44771575927734 7.62939453125e-06 37.01674652099609 7.62939453125e-06 Z" stroke="none" fill="#8218d1"/>
  </g>
  <path id="Polygon_7" data-name="Polygon 7" d="M80.465,0a10,10,0,0,1,8.669,5.015l23,40a10,10,0,0,1,0,9.969l-23,40A10,10,0,0,1,80.465,100H34.535a10,10,0,0,1-8.669-5.015l-23-40a10,10,0,0,1,0-9.969l23-40A10,10,0,0,1,34.535,0Z" transform="translate(5 4)" fill="#8218d1"/>
  <path id="Union_88" data-name="Union 88" d="M6,48a6.007,6.007,0,0,1-6-6V12A6.007,6.007,0,0,1,6,6H7.5V6.75a4.5,4.5,0,0,0,4.5,4.5h.125a4.5,4.5,0,0,0,4.5-4.5V6H30.752V6.75a4.5,4.5,0,0,0,4.5,4.5h.125a4.5,4.5,0,0,0,4.5-4.5V6H42a6.006,6.006,0,0,1,6,6V42a6.007,6.007,0,0,1-6,6Zm23.513-5.811a1.838,1.838,0,1,0,1.836-1.836A1.84,1.84,0,0,0,29.514,42.188Zm-7.351,0A1.837,1.837,0,1,0,24,40.352,1.84,1.84,0,0,0,22.163,42.188Zm-7.352,0a1.838,1.838,0,1,0,1.838-1.836A1.841,1.841,0,0,0,14.81,42.188Zm-7.346,0A1.838,1.838,0,1,0,9.3,40.352,1.841,1.841,0,0,0,7.465,42.188Zm29.4-5.968A1.836,1.836,0,1,0,38.7,34.379,1.838,1.838,0,0,0,36.864,36.221Zm-7.35,0a1.838,1.838,0,1,0,1.836-1.841A1.837,1.837,0,0,0,29.514,36.221Zm-7.351,0A1.837,1.837,0,1,0,24,34.379,1.838,1.838,0,0,0,22.163,36.221Zm-7.352,0a1.838,1.838,0,1,0,1.838-1.841A1.838,1.838,0,0,0,14.81,36.221Zm-7.346,0A1.838,1.838,0,1,0,9.3,34.379,1.838,1.838,0,0,0,7.465,36.221Zm29.4-5.966a1.836,1.836,0,1,0,1.838-1.84A1.837,1.837,0,0,0,36.864,30.254Zm-7.35,0a1.838,1.838,0,1,0,1.836-1.84A1.836,1.836,0,0,0,29.514,30.254Zm-7.351,0A1.837,1.837,0,1,0,24,28.415,1.837,1.837,0,0,0,22.163,30.254Zm-7.352,0a1.838,1.838,0,1,0,1.838-1.84A1.837,1.837,0,0,0,14.81,30.254Zm-7.346,0A1.838,1.838,0,1,0,9.3,28.415,1.837,1.837,0,0,0,7.465,30.254Zm29.4-5.975A1.836,1.836,0,1,0,38.7,22.443,1.841,1.841,0,0,0,36.864,24.279Zm-7.35,0a1.838,1.838,0,1,0,1.836-1.836A1.84,1.84,0,0,0,29.514,24.279Zm-7.351,0A1.837,1.837,0,1,0,24,22.443,1.84,1.84,0,0,0,22.163,24.279ZM4.44,16.023v1.123a.455.455,0,0,0,.454.454H43.107a.455.455,0,0,0,.455-.454V16.023a.455.455,0,0,0-.455-.455H4.893A.454.454,0,0,0,4.44,16.023ZM35.251,9A2.25,2.25,0,0,1,33,6.75v-4.5A2.249,2.249,0,0,1,35.251,0h.125a2.25,2.25,0,0,1,2.25,2.249v4.5A2.251,2.251,0,0,1,35.376,9ZM12,9a2.251,2.251,0,0,1-2.25-2.25v-4.5A2.251,2.251,0,0,1,12,0h.125a2.249,2.249,0,0,1,2.25,2.249v4.5A2.25,2.25,0,0,1,12.126,9Z" transform="translate(38 30)" fill="#fff"/>
</svg>
