<svg id="Component_83_1" data-name="Component 83 – 1" xmlns="http://www.w3.org/2000/svg" width="125" height="108" viewBox="0 0 125 108">
  <g id="Polygon_4" data-name="Polygon 4" fill="none">
    <path d="M87.983,0a10,10,0,0,1,8.655,4.991l25.463,44a10,10,0,0,1,0,10.018l-25.463,44A10,10,0,0,1,87.983,108H37.017a10,10,0,0,1-8.655-4.991L2.9,59.009a10,10,0,0,1,0-10.018l25.463-44A10,10,0,0,1,37.017,0Z" stroke="none"/>
    <path d="M 37.01674652099609 1.000007629394531 C 33.81539916992188 1.000007629394531 30.83056640625 2.721267700195312 29.22708129882812 5.492103576660156 L 3.764114379882812 49.49208831787109 C 2.154983520507812 52.27267074584961 2.154983520507812 55.72732162475586 3.764114379882812 58.50788879394531 L 29.22706604003906 102.5079040527344 C 30.83056640625 105.2787399291992 33.81538391113281 107 37.01673126220703 107 L 87.98324584960938 107 C 91.18460083007812 107 94.16941833496094 105.2787399291992 95.77291870117188 102.5079040527344 L 121.2358856201172 58.50791931152344 C 122.8450012207031 55.72732162475586 122.8450012207031 52.27267074584961 121.2358856201172 49.49210357666016 L 95.77291870117188 5.492103576660156 C 94.16943359375 2.721267700195312 91.18460083007812 1.000007629394531 87.98324584960938 1.000007629394531 L 37.01674652099609 1.000007629394531 M 37.01674652099609 7.62939453125e-06 L 87.98324584960938 7.62939453125e-06 C 91.55228424072266 7.62939453125e-06 94.85078430175781 1.902153015136719 96.63843536376953 4.991218566894531 L 122.1014022827148 48.9912223815918 C 123.8944854736328 52.08968734741211 123.8944854736328 55.91030502319336 122.1014022827148 59.00878524780273 L 96.63843536376953 103.0087890625 C 94.85078430175781 106.0978393554688 91.55228424072266 108 87.98324584960938 108 L 37.01673126220703 108 C 33.44770050048828 108 30.14920043945312 106.0978393554688 28.36154937744141 103.0087890625 L 2.898597717285156 59.00876998901367 C 1.105499267578125 55.91030502319336 1.105499267578125 52.08968734741211 2.898597717285156 48.99120330810547 L 28.36156463623047 4.991218566894531 C 30.14921569824219 1.902153015136719 33.44771575927734 7.62939453125e-06 37.01674652099609 7.62939453125e-06 Z" stroke="none" fill="#8218d1"/>
  </g>
  <path id="Polygon_5" data-name="Polygon 5" d="M80.465,0a10,10,0,0,1,8.669,5.015l23,40a10,10,0,0,1,0,9.969l-23,40A10,10,0,0,1,80.465,100H34.535a10,10,0,0,1-8.669-5.015l-23-40a10,10,0,0,1,0-9.969l23-40A10,10,0,0,1,34.535,0Z" transform="translate(5 4)" fill="#8218d1"/>
  <path id="icon" d="M7327.577,7467.228l-8.406-16.807a1.407,1.407,0,0,1,.633-1.884l1.865-.922a2.8,2.8,0,0,1,3.75,1.256l7.137,14.315a2.8,2.8,0,0,1-1.263,3.76l-1.842.907a1.393,1.393,0,0,1-1.874-.626Zm10.269-4.828h-2.359l-7.957-15.965,2.025-1.779.04.031a10.242,10.242,0,0,1,4.3-2.147,9.751,9.751,0,0,1,8.7,2.127c.551.48.9.925,1.6.925h7.339a2.8,2.8,0,1,1,0,5.6h-5.6a1.4,1.4,0,0,0,0,2.8h6.532a3.4,3.4,0,0,0,2.07-.892l7.656-9.418a2.8,2.8,0,0,1,4.287,3.587l-8.215,11.769a8.44,8.44,0,0,1-6.727,3.36Zm-.509-22.545a1.4,1.4,0,0,1-1.4-1.4v-1.4a8.342,8.342,0,0,1,2.184-5.6,8.565,8.565,0,0,0,6.313,2.8,8.358,8.358,0,0,0,6.216-2.8,8.333,8.333,0,0,1,2.185,5.6v1.4a1.4,1.4,0,0,1-1.4,1.4Zm1.4-14.157a5.766,5.766,0,0,1,5.7-5.7,5.7,5.7,0,0,1,0,11.395A5.77,5.77,0,0,1,7338.739,7425.7Z" transform="translate(-7281.023 -7390.002)" fill="#fff"/>
</svg>
