<svg id="Component_85_4" data-name="Component 85 – 4" xmlns="http://www.w3.org/2000/svg" width="125" height="108" viewBox="0 0 125 108">
  <g id="Polygon_8" data-name="Polygon 8" fill="none">
    <path d="M87.983,0a10,10,0,0,1,8.655,4.991l25.463,44a10,10,0,0,1,0,10.018l-25.463,44A10,10,0,0,1,87.983,108H37.017a10,10,0,0,1-8.655-4.991L2.9,59.009a10,10,0,0,1,0-10.018l25.463-44A10,10,0,0,1,37.017,0Z" stroke="none"/>
    <path d="M 37.01674652099609 1.000007629394531 C 33.81539916992188 1.000007629394531 30.83056640625 2.721267700195312 29.22708129882812 5.492103576660156 L 3.764114379882812 49.49208831787109 C 2.154983520507812 52.27267074584961 2.154983520507812 55.72732162475586 3.764114379882812 58.50788879394531 L 29.22706604003906 102.5079040527344 C 30.83056640625 105.2787399291992 33.81538391113281 107 37.01673126220703 107 L 87.98324584960938 107 C 91.18460083007812 107 94.16941833496094 105.2787399291992 95.77291870117188 102.5079040527344 L 121.2358856201172 58.50791931152344 C 122.8450012207031 55.72732162475586 122.8450012207031 52.27267074584961 121.2358856201172 49.49210357666016 L 95.77291870117188 5.492103576660156 C 94.16943359375 2.721267700195312 91.18460083007812 1.000007629394531 87.98324584960938 1.000007629394531 L 37.01674652099609 1.000007629394531 M 37.01674652099609 7.62939453125e-06 L 87.98324584960938 7.62939453125e-06 C 91.55228424072266 7.62939453125e-06 94.85078430175781 1.902153015136719 96.63843536376953 4.991218566894531 L 122.1014022827148 48.9912223815918 C 123.8944854736328 52.08968734741211 123.8944854736328 55.91030502319336 122.1014022827148 59.00878524780273 L 96.63843536376953 103.0087890625 C 94.85078430175781 106.0978393554688 91.55228424072266 108 87.98324584960938 108 L 37.01673126220703 108 C 33.44770050048828 108 30.14920043945312 106.0978393554688 28.36154937744141 103.0087890625 L 2.898597717285156 59.00876998901367 C 1.105499267578125 55.91030502319336 1.105499267578125 52.08968734741211 2.898597717285156 48.99120330810547 L 28.36156463623047 4.991218566894531 C 30.14921569824219 1.902153015136719 33.44771575927734 7.62939453125e-06 37.01674652099609 7.62939453125e-06 Z" stroke="none" fill="#ff8500"/>
  </g>
  <path id="Polygon_9" data-name="Polygon 9" d="M80.465,0a10,10,0,0,1,8.669,5.015l23,40a10,10,0,0,1,0,9.969l-23,40A10,10,0,0,1,80.465,100H34.535a10,10,0,0,1-8.669-5.015l-23-40a10,10,0,0,1,0-9.969l23-40A10,10,0,0,1,34.535,0Z" transform="translate(5 4)" fill="#ff8500"/>
  <path id="Union_83" data-name="Union 83" d="M46.342,47.8,42.935,44.39a1.031,1.031,0,0,1-.212-1.154,6.588,6.588,0,1,1,.534-.534,1.037,1.037,0,0,1,1.156.216l3.407,3.4a1.048,1.048,0,0,1-.74,1.788A1.034,1.034,0,0,1,46.342,47.8Zm-12.2-9.472a4.21,4.21,0,1,0,4.212-4.212A4.212,4.212,0,0,0,34.138,38.329ZM8.528,36.268V35.254c0,.09.01.051.024-.716.177-9.364,1.509-12.067,11.019-13.784a5.769,5.769,0,0,0,4.506,1.721,5.78,5.78,0,0,0,4.512-1.721c7.494,1.354,9.9,3.335,10.677,8.691a8.59,8.59,0,0,0-.9-.09,8.987,8.987,0,0,0-8.976,8.974,8.867,8.867,0,0,0,.31,2.216,43.763,43.763,0,0,1-5.623.338C10.818,40.881,8.528,36.268,8.528,36.268ZM0,31.446v-.61a3.979,3.979,0,0,0,.014-.54c.126-7.812,1.146-10.039,8.954-11.449a4.687,4.687,0,0,0,3.662,1.4c.106,0,.208,0,.31-.008a10.243,10.243,0,0,0-4.2,3.254c-1.886,2.589-2.322,6.061-2.41,11.162C1.081,33.611,0,31.446,0,31.446Zm41.534-1.464a13.061,13.061,0,0,0-2.147-6.491,10.231,10.231,0,0,0-4.2-3.254c.1,0,.2.008.308.008a4.694,4.694,0,0,0,3.664-1.4c7.81,1.409,8.83,3.637,8.95,11.449a4.91,4.91,0,0,0,.016.54v.61a5.51,5.51,0,0,1-2.33,1.888A9.038,9.038,0,0,0,41.537,29.982Zm-25.7-20c0-5.523,1.211-10,8.232-10s8.236,4.477,8.236,10-3.69,10-8.236,10S15.835,15.506,15.835,9.981ZM32.46,17.32A13.736,13.736,0,0,0,34.513,10a16.4,16.4,0,0,0-1.5-7.735,9.574,9.574,0,0,1,2.5-.3c5.7,0,6.687,3.639,6.687,8.126s-3,8.122-6.687,8.122A5.727,5.727,0,0,1,32.46,17.32Zm-26.5-7.246c0-4.489.979-8.124,6.685-8.124a9.466,9.466,0,0,1,2.495.294,16.4,16.4,0,0,0-1.5,7.735A13.68,13.68,0,0,0,15.7,17.3a5.756,5.756,0,0,1-3.054.9C8.948,18.2,5.957,14.556,5.957,10.074Z" transform="translate(38.668 30.02)" fill="#fff"/>
</svg>
