<svg id="Component_86_1" data-name="Component 86 – 1" xmlns="http://www.w3.org/2000/svg" width="125" height="108" viewBox="0 0 125 108">
  <g id="Polygon_10" data-name="Polygon 10" fill="none">
    <path d="M87.983,0a10,10,0,0,1,8.655,4.991l25.463,44a10,10,0,0,1,0,10.018l-25.463,44A10,10,0,0,1,87.983,108H37.017a10,10,0,0,1-8.655-4.991L2.9,59.009a10,10,0,0,1,0-10.018l25.463-44A10,10,0,0,1,37.017,0Z" stroke="none"/>
    <path d="M 37.01674652099609 1.000007629394531 C 33.81539916992188 1.000007629394531 30.83056640625 2.721267700195312 29.22708129882812 5.492103576660156 L 3.764114379882812 49.49208831787109 C 2.154983520507812 52.27267074584961 2.154983520507812 55.72732162475586 3.764114379882812 58.50788879394531 L 29.22706604003906 102.5079040527344 C 30.83056640625 105.2787399291992 33.81538391113281 107 37.01673126220703 107 L 87.98324584960938 107 C 91.18460083007812 107 94.16941833496094 105.2787399291992 95.77291870117188 102.5079040527344 L 121.2358856201172 58.50791931152344 C 122.8450012207031 55.72732162475586 122.8450012207031 52.27267074584961 121.2358856201172 49.49210357666016 L 95.77291870117188 5.492103576660156 C 94.16943359375 2.721267700195312 91.18460083007812 1.000007629394531 87.98324584960938 1.000007629394531 L 37.01674652099609 1.000007629394531 M 37.01674652099609 7.62939453125e-06 L 87.98324584960938 7.62939453125e-06 C 91.55228424072266 7.62939453125e-06 94.85078430175781 1.902153015136719 96.63843536376953 4.991218566894531 L 122.1014022827148 48.9912223815918 C 123.8944854736328 52.08968734741211 123.8944854736328 55.91030502319336 122.1014022827148 59.00878524780273 L 96.63843536376953 103.0087890625 C 94.85078430175781 106.0978393554688 91.55228424072266 108 87.98324584960938 108 L 37.01673126220703 108 C 33.44770050048828 108 30.14920043945312 106.0978393554688 28.36154937744141 103.0087890625 L 2.898597717285156 59.00876998901367 C 1.105499267578125 55.91030502319336 1.105499267578125 52.08968734741211 2.898597717285156 48.99120330810547 L 28.36156463623047 4.991218566894531 C 30.14921569824219 1.902153015136719 33.44771575927734 7.62939453125e-06 37.01674652099609 7.62939453125e-06 Z" stroke="none" fill="#ff8500"/>
  </g>
  <path id="Polygon_11" data-name="Polygon 11" d="M80.465,0a10,10,0,0,1,8.669,5.015l23,40a10,10,0,0,1,0,9.969l-23,40A10,10,0,0,1,80.465,100H34.535a10,10,0,0,1-8.669-5.015l-23-40a10,10,0,0,1,0-9.969l23-40A10,10,0,0,1,34.535,0Z" transform="translate(5 4)" fill="#ff8500"/>
  <path id="hosodoanhnghiep" d="M30.688,48V18.552l14.217,3.034a3.4,3.4,0,0,1,2.671,3.337V44.595A3.382,3.382,0,0,1,44.218,48ZM35.7,39.948a1.465,1.465,0,0,0,1.455,1.474h3.951a1.475,1.475,0,0,0,0-2.949H37.157A1.465,1.465,0,0,0,35.7,39.948Zm0-6.024A1.465,1.465,0,0,0,37.157,35.4h3.951a1.474,1.474,0,0,0,0-2.949H37.157A1.464,1.464,0,0,0,35.7,33.924Zm0-6.024a1.465,1.465,0,0,0,1.455,1.474h3.951a1.474,1.474,0,0,0,0-2.949H37.157A1.465,1.465,0,0,0,35.7,27.9ZM20.281,48V37.406a3.433,3.433,0,0,0-3.41-3.456H11.8a3.433,3.433,0,0,0-3.41,3.456V48H1.88A1.893,1.893,0,0,1,0,46.094V3.485A3.453,3.453,0,0,1,3.964.042L25.692,3.459a3.645,3.645,0,0,1,3.057,3.616V48ZM16.263,21.876a1.465,1.465,0,0,0,1.454,1.474h3.951a1.475,1.475,0,0,0,0-2.949H17.717A1.465,1.465,0,0,0,16.263,21.876Zm-10.637,0A1.465,1.465,0,0,0,7.08,23.351h3.951a1.475,1.475,0,0,0,0-2.949H7.08A1.465,1.465,0,0,0,5.626,21.876Zm10.637-6.024a1.465,1.465,0,0,0,1.454,1.474h3.951a1.474,1.474,0,0,0,0-2.949H17.717A1.464,1.464,0,0,0,16.263,15.853Zm-10.637,0A1.465,1.465,0,0,0,7.08,17.327h3.951a1.474,1.474,0,0,0,0-2.949H7.08A1.464,1.464,0,0,0,5.626,15.853ZM16.263,9.829A1.464,1.464,0,0,0,17.717,11.3h3.951a1.474,1.474,0,0,0,0-2.949H17.717A1.464,1.464,0,0,0,16.263,9.829Zm-10.637,0A1.464,1.464,0,0,0,7.08,11.3h3.951a1.474,1.474,0,0,0,0-2.949H7.08A1.464,1.464,0,0,0,5.626,9.829Z" transform="translate(39.176 30)" fill="#fff" stroke="rgba(0,0,0,0)" stroke-miterlimit="10" stroke-width="1"/>
</svg>
