<svg xmlns="http://www.w3.org/2000/svg" width="15.053" height="22.379" viewBox="0 0 15.053 22.379">
  <g id="Group_13157" data-name="Group 13157" transform="translate(0.232 0.2)">
    <path id="Path_15998" data-name="Path 15998" d="M752.575,417.979c-.425-.043-.85-.077-1.273-.131a9.877,9.877,0,0,1-3.733-1.082,4,4,0,0,1-.989-.8,1.457,1.457,0,0,1-.018-1.978,3.934,3.934,0,0,1,1.621-1.118,11.278,11.278,0,0,1,2.656-.708c-.065-.089-.115-.16-.167-.23-.951-1.259-1.927-2.5-2.847-3.782a8.632,8.632,0,0,1-1.525-3.506,7.345,7.345,0,0,1,5.736-8.5c.292-.059.588-.1.882-.143h1.071c.469.086.946.141,1.4.263a7.3,7.3,0,0,1,5.333,6.376,8.022,8.022,0,0,1-1.313,5.07c-.84,1.342-1.846,2.56-2.81,3.811-.156.2-.314.4-.489.631.357.071.69.13,1.019.2a7.418,7.418,0,0,1,2.315.86,4.133,4.133,0,0,1,.877.709,1.494,1.494,0,0,1,0,2.113,3.864,3.864,0,0,1-1.376.96,11.2,11.2,0,0,1-3.3.852c-.423.052-.849.088-1.274.131Zm.9-3.754c.044-.055.071-.087.1-.12,1.014-1.329,2.039-2.65,3.037-3.992.754-1.014,1.52-2.024,2.2-3.089a6.732,6.732,0,0,0,1.018-4.736,6.442,6.442,0,1,0-12.415,3.218,10.976,10.976,0,0,0,1.712,3c1.107,1.465,2.239,2.911,3.356,4.368C752.808,413.314,753.129,413.76,753.473,414.225Zm-.31,2.9a14.793,14.793,0,0,0,4.761-.649,4.193,4.193,0,0,0,1.663-.9.723.723,0,0,0-.006-1.2,3.611,3.611,0,0,0-.733-.513,9.457,9.457,0,0,0-3.216-.9.319.319,0,0,0-.235.126c-.5.668-1,1.343-1.49,2.017-.29.4-.574.394-.863,0-.493-.676-.991-1.347-1.481-2.024a.25.25,0,0,0-.287-.119c-.662.142-1.331.253-1.984.428a4.438,4.438,0,0,0-1.879.938c-.491.444-.5.884.017,1.3a4.75,4.75,0,0,0,1.138.666A13.05,13.05,0,0,0,753.163,417.122Z" transform="translate(-746.181 -396)" fill="#ff8500" stroke="#ff8500" stroke-width="0.4"/>
    <path id="Path_15999" data-name="Path 15999" d="M827.228,474.007a3,3,0,1,1-2.994-3A3.008,3.008,0,0,1,827.228,474.007Zm-.857-.006a2.141,2.141,0,1,0-2.129,2.153A2.15,2.15,0,0,0,826.371,474Z" transform="translate(-816.936 -466.71)" fill="#ff8500" stroke="#ff8500" stroke-width="0.4"/>
  </g>
</svg>
