<svg xmlns="http://www.w3.org/2000/svg" width="14.981" height="22.379" viewBox="0 0 14.981 22.379"><g transform="translate(0.199 0.2)"><path d="M752.575,417.979c-.425-.043-.85-.077-1.273-.131a9.877,9.877,0,0,1-3.733-1.082,4,4,0,0,1-.989-.8,1.457,1.457,0,0,1-.018-1.978,3.934,3.934,0,0,1,1.621-1.118,11.278,11.278,0,0,1,2.656-.708c-.065-.089-.115-.16-.167-.23-.951-1.259-1.927-2.5-2.847-3.782a8.632,8.632,0,0,1-1.525-3.506,7.345,7.345,0,0,1,5.736-8.5c.292-.059.588-.1.882-.143h1.071c.469.086.946.141,1.4.263a7.3,7.3,0,0,1,5.333,6.376,8.022,8.022,0,0,1-1.313,5.07c-.84,1.342-1.846,2.56-2.81,3.811-.156.2-.314.4-.489.631.357.071.69.13,1.019.2a7.418,7.418,0,0,1,2.315.86,4.133,4.133,0,0,1,.877.709,1.494,1.494,0,0,1,0,2.113,3.864,3.864,0,0,1-1.376.96,11.2,11.2,0,0,1-3.3.852c-.423.052-.849.088-1.274.131Zm.9-3.754c.044-.055.071-.087.1-.12,1.014-1.329,2.039-2.65,3.037-3.992.754-1.014,1.52-2.024,2.2-3.089a6.732,6.732,0,0,0,1.018-4.736,6.442,6.442,0,1,0-12.415,3.218,10.976,10.976,0,0,0,1.712,3c1.107,1.465,2.239,2.911,3.356,4.368C752.808,413.314,753.129,413.76,753.473,414.225Zm-.31,2.9a14.793,14.793,0,0,0,4.761-.649,4.193,4.193,0,0,0,1.663-.9.723.723,0,0,0-.006-1.2,3.611,3.611,0,0,0-.733-.513,9.457,9.457,0,0,0-3.216-.9.319.319,0,0,0-.235.126c-.5.668-1,1.343-1.49,2.017-.29.4-.574.394-.863,0-.493-.676-.991-1.347-1.481-2.024a.25.25,0,0,0-.287-.119c-.662.142-1.331.253-1.984.428a4.438,4.438,0,0,0-1.879.938c-.491.444-.5.884.017,1.3a4.75,4.75,0,0,0,1.138.666A13.05,13.05,0,0,0,753.163,417.122Z" transform="translate(-746.181 -396)" fill="#8218d1"/><path d="M754.385,418.179h-1.83l-.4-.038c-.289-.027-.588-.055-.882-.093a10.186,10.186,0,0,1-3.807-1.107,4.189,4.189,0,0,1-1.039-.843,1.655,1.655,0,0,1-.025-2.235,4.135,4.135,0,0,1,1.7-1.178,10.734,10.734,0,0,1,2.382-.667c-.281-.372-.568-.748-.847-1.111-.657-.859-1.336-1.747-1.977-2.641a8.868,8.868,0,0,1-1.56-3.587,7.555,7.555,0,0,1,5.893-8.73c.2-.041.411-.072.612-.1l.278-.043.016,0h1.105l.018,0c.146.027.3.051.44.074.322.052.656.106.98.192a7.341,7.341,0,0,1,3.762,2.417,7.439,7.439,0,0,1,1.719,4.134,8.175,8.175,0,0,1-1.343,5.194,36.5,36.5,0,0,1-2.229,3.065q-.3.38-.592.761l-.29.375.014,0c.239.046.464.089.692.141a7.62,7.62,0,0,1,2.376.885,4.308,4.308,0,0,1,.919.744,1.692,1.692,0,0,1,0,2.378,3.981,3.981,0,0,1-1.445,1.012,11.317,11.317,0,0,1-3.359.868c-.293.036-.591.065-.879.092l-.4.039Zm-1.8-.4h1.779l.391-.038c.285-.027.58-.056.868-.091a10.935,10.935,0,0,0,3.242-.835,3.608,3.608,0,0,0,1.308-.909,1.3,1.3,0,0,0,0-1.847,3.912,3.912,0,0,0-.834-.673,7.254,7.254,0,0,0-2.254-.835c-.222-.05-.444-.093-.68-.138l-.335-.065-.317-.063.372-.48.315-.406q.3-.383.594-.764a36.2,36.2,0,0,0,2.2-3.031,7.79,7.79,0,0,0,1.283-4.947,7.145,7.145,0,0,0-5.185-6.2c-.3-.081-.628-.133-.941-.184-.141-.023-.287-.046-.431-.073h-1.037l-.267.041c-.2.029-.4.059-.591.1a7.153,7.153,0,0,0-5.579,8.266,8.473,8.473,0,0,0,1.491,3.426c.638.889,1.315,1.775,1.97,2.631.287.375.584.764.874,1.147.035.046.068.093.106.145l.064.088.192.263-.322.052a10.958,10.958,0,0,0-2.609.695,3.772,3.772,0,0,0-1.543,1.058,1.26,1.26,0,0,0,.011,1.721,3.785,3.785,0,0,0,.939.761,9.675,9.675,0,0,0,3.659,1.057c.287.037.583.065.869.092Zm.67-.457h-.1a13.438,13.438,0,0,1-4.666-.842,4.96,4.96,0,0,1-1.186-.694,1.049,1.049,0,0,1-.463-.771,1.1,1.1,0,0,1,.436-.831,4.585,4.585,0,0,1,1.961-.983c.444-.119.9-.21,1.342-.3.214-.042.435-.086.651-.133a.443.443,0,0,1,.491.2c.286.4.58.8.864,1.182q.309.42.617.841c.1.139.2.215.27.215s.169-.076.27-.214c.431-.589.968-1.322,1.492-2.019a.528.528,0,0,1,.381-.207l.041,0a9.736,9.736,0,0,1,3.283.921,3.831,3.831,0,0,1,.774.541,1.018,1.018,0,0,1,.388.73,1.05,1.05,0,0,1-.377.762,4.393,4.393,0,0,1-1.74.941A14.764,14.764,0,0,1,753.256,417.322Zm-.089-.4h.089a14.381,14.381,0,0,0,4.605-.639,4.04,4.04,0,0,0,1.587-.849.679.679,0,0,0,.255-.467.646.646,0,0,0-.256-.44,3.425,3.425,0,0,0-.692-.484,9.344,9.344,0,0,0-3.134-.877.186.186,0,0,0-.065.046c-.522.694-1.058,1.426-1.489,2.015a.654.654,0,0,1-1.186,0q-.307-.421-.616-.84c-.285-.387-.579-.788-.866-1.185-.032-.045-.043-.045-.051-.045a.156.156,0,0,0-.032,0c-.219.047-.442.091-.658.134-.435.086-.885.176-1.316.291a4.206,4.206,0,0,0-1.8.893.735.735,0,0,0-.3.522.682.682,0,0,0,.312.471,4.553,4.553,0,0,0,1.089.637A13.063,13.063,0,0,0,753.167,416.922Zm.3-2.369-.154-.208-.32-.435c-.231-.315-.449-.612-.677-.909-.416-.542-.841-1.092-1.251-1.624-.693-.9-1.41-1.825-2.106-2.746a11.322,11.322,0,0,1-1.742-3.059,6.7,6.7,0,0,1,4.225-8.594,6.376,6.376,0,0,1,2.016-.327,6.687,6.687,0,0,1,4.276,1.571,6.529,6.529,0,0,1,2.285,4.036,6.935,6.935,0,0,1-1.047,4.873c-.614.966-1.309,1.9-1.981,2.8l-.224.3c-.7.945-1.432,1.9-2.136,2.815q-.452.589-.9,1.179l-.058.073Zm-.009-17.5a5.977,5.977,0,0,0-1.89.306,6.3,6.3,0,0,0-3.973,8.083,10.947,10.947,0,0,0,1.683,2.948c.695.919,1.411,1.846,2.1,2.742.411.532.836,1.082,1.252,1.625.23.3.45.6.682.916l.163.222q.417-.546.835-1.091c.7-.918,1.431-1.867,2.133-2.81l.224-.3c.668-.9,1.358-1.822,1.964-2.775a6.545,6.545,0,0,0,.989-4.6A6.251,6.251,0,0,0,753.458,397.052Z" transform="translate(-746.181 -396)" fill="#8218d1"/><path d="M827.228,474.007a3,3,0,1,1-2.994-3A3.008,3.008,0,0,1,827.228,474.007Zm-.857-.006a2.141,2.141,0,1,0-2.129,2.153A2.15,2.15,0,0,0,826.371,474Z" transform="translate(-816.935 -466.71)" fill="#8218d1"/><path d="M824.232,470.8h0a3.2,3.2,0,0,1,0,6.409h-.006a3.207,3.207,0,0,1-3.2-3.216A3.207,3.207,0,0,1,824.232,470.8Zm0,6.009h.005a2.8,2.8,0,0,0,0-5.609l0-.2v.2a2.8,2.8,0,0,0-1.98,4.787A2.775,2.775,0,0,0,824.229,476.813Zm0-5.151a2.346,2.346,0,0,1,.015,4.692h-.012a2.345,2.345,0,0,1-1.658-4A2.32,2.32,0,0,1,824.228,471.662Zm0,4.292h.01a1.946,1.946,0,0,0-.011-3.892,1.949,1.949,0,0,0-1.941,1.962A1.948,1.948,0,0,0,824.23,475.954Z" transform="translate(-816.935 -466.71)" fill="#8218d1"/><path d="M900.566,436.487c0,.082,0,.139,0,.2a.44.44,0,0,1-.423.471c-.24,0-.4-.193-.438-.46a8.184,8.184,0,0,0-.241-1.473,4.571,4.571,0,0,0-2.807-2.953c-.256-.1-.381-.261-.36-.469a.433.433,0,0,1,.621-.348,5.42,5.42,0,0,1,2.283,1.577A5.565,5.565,0,0,1,900.566,436.487Z" transform="translate(-887.703 -429.389)" fill="#8218d1"/><path d="M900.137,437.355a.659.659,0,0,1-.63-.635c-.015-.114-.027-.229-.04-.344a5.613,5.613,0,0,0-.193-1.092,4.383,4.383,0,0,0-2.69-2.828.64.64,0,0,1-.486-.675.611.611,0,0,1,.624-.564.771.771,0,0,1,.265.048,5.637,5.637,0,0,1,2.366,1.634,5.767,5.767,0,0,1,1.413,3.579v.087c0,.046,0,.085,0,.123a.64.64,0,0,1-.62.667Zm-3.415-5.738a.214.214,0,0,0-.226.2c0,.045-.016.163.235.263a4.766,4.766,0,0,1,2.924,3.077,5.9,5.9,0,0,1,.21,1.171c.013.113.025.226.039.337.018.138.088.286.233.286h0c.162,0,.223-.15.226-.276,0-.035,0-.07,0-.112v-.075a5.375,5.375,0,0,0-1.317-3.332,5.241,5.241,0,0,0-2.2-1.519A.373.373,0,0,0,896.722,431.616Z" transform="translate(-887.703 -429.389)" fill="#8218d1"/><path d="M867.73,426.459a.436.436,0,0,1-.447.419.428.428,0,0,1,.038-.855A.436.436,0,0,1,867.73,426.459Z" transform="translate(-859.969 -424.304)" fill="#8218d1"/><path d="M867.3,427.078h-.028a.628.628,0,0,1,.056-1.255.639.639,0,0,1,.6.64A.633.633,0,0,1,867.3,427.078Zm0-.856a.228.228,0,0,0-.009.456h.009a.228.228,0,0,0,.01-.456Z" transform="translate(-859.969 -424.304)" fill="#8218d1"/></g></svg>