<svg xmlns="http://www.w3.org/2000/svg" width="103.538" height="100.001" viewBox="0 0 103.538 100.001">
    <defs>
        <style>
            .cls-1{fill:#8218d1}
        </style>
    </defs>
    <g id="icon_reset-password" transform="translate(.001 -9.431)">
        <path id="pass" class="cls-1" d="M9516.013 9389.447v-4.275l-3.7 2.149a1.478 1.478 0 1 1-1.489-2.553l3.722-2.169-3.722-2.17a1.478 1.478 0 0 1 1.489-2.553l3.7 2.148v-4.272a1.468 1.468 0 1 1 2.936 0v4.272l3.7-2.148a1.489 1.489 0 0 1 2.022.532 1.473 1.473 0 0 1-.531 2.021l-3.724 2.17 3.724 2.169a1.478 1.478 0 1 1-1.491 2.553l-3.7-2.149v4.275a1.468 1.468 0 1 1-2.936 0zm83.885-.021v-4.275l-3.7 2.149a1.486 1.486 0 0 1-2.021-.53 1.462 1.462 0 0 1 .532-2.021l3.722-2.171-3.722-2.17a1.477 1.477 0 0 1 1.488-2.553l3.7 2.148v-4.275a1.468 1.468 0 0 1 2.936 0V9380l3.7-2.148a1.477 1.477 0 1 1 1.487 2.553l-3.721 2.17 3.721 2.171a1.476 1.476 0 1 1-1.487 2.551l-3.7-2.149v4.275a1.468 1.468 0 1 1-2.936 0zm-27.969 0v-4.275l-3.7 2.149a1.476 1.476 0 1 1-1.487-2.551l3.722-2.171-3.722-2.17a1.477 1.477 0 0 1 1.487-2.553l3.7 2.148v-4.275a1.468 1.468 0 0 1 2.936 0V9380l3.7-2.148a1.478 1.478 0 0 1 1.49 2.553l-3.724 2.17 3.724 2.171a1.477 1.477 0 1 1-1.49 2.551l-3.7-2.149v4.275a1.468 1.468 0 1 1-2.936 0zm-27.949 0v-4.275l-3.7 2.149a1.477 1.477 0 1 1-1.488-2.551l3.721-2.151-3.721-2.168a1.477 1.477 0 0 1 1.488-2.553l3.7 2.127v-4.275a1.469 1.469 0 0 1 2.938 0V9380l3.7-2.148a1.477 1.477 0 1 1 1.487 2.553l-3.721 2.17 3.721 2.171a1.476 1.476 0 1 1-1.487 2.551l-3.7-2.149v4.275a1.469 1.469 0 0 1-2.937 0z" transform="translate(-9507.653 -9292.201)"/>
        <path id="Path_14021" data-name="Path 14021" class="cls-1" d="M9595.086 9379.11a1.135 1.135 0 0 1-1.129-1.125v-2.6a1.136 1.136 0 0 1 1.129-1.128h17.414a1.135 1.135 0 0 1 1.127 1.128v2.6a1.133 1.133 0 0 1-1.127 1.125zm-27.949 0a1.134 1.134 0 0 1-1.125-1.125v-2.6a1.135 1.135 0 0 1 1.125-1.128h17.421a1.133 1.133 0 0 1 1.125 1.128v2.6a1.132 1.132 0 0 1-1.125 1.125zm-27.948 0a1.134 1.134 0 0 1-1.128-1.125v-2.6a1.122 1.122 0 0 1 1.128-1.128h17.42a1.133 1.133 0 0 1 1.126 1.128v2.6a1.132 1.132 0 0 1-1.126 1.125zm-27.968 0a1.134 1.134 0 0 1-1.128-1.125v-2.6a1.135 1.135 0 0 1 1.128-1.128h17.418a1.134 1.134 0 0 1 1.128 1.128v2.6a1.133 1.133 0 0 1-1.128 1.125z" transform="translate(-9510.094 -9269.679)"/>
        <path id="icon-lock" class="cls-1" d="M171.454 67.112a3.62 3.62 0 0 1 1.979-3.222A3.629 3.629 0 0 1 172 59.845a12.329 12.329 0 0 1 11.24-8.767V37.265a5.574 5.574 0 0 0-5.567-5.567h-1.856v-7.422a14.845 14.845 0 1 0-29.689 0V31.7h-1.856a5.574 5.574 0 0 0-5.567 5.567v25.976a5.574 5.574 0 0 0 5.567 5.567h27.178zm-8-16.309v5.636a2.474 2.474 0 0 1-4.948 0V50.8a4.948 4.948 0 1 1 4.948 0zM151.08 31.7v-7.424a9.9 9.9 0 1 1 19.793 0V31.7z" transform="translate(-109.208)"/>
        <path id="reset" class="cls-1" d="M9449.107 9339.034v.382a1.554 1.554 0 0 1-3.108 0v-4.144a1.557 1.557 0 0 1 1.555-1.557h4.143a1.556 1.556 0 1 1 0 3.111h-.395a7.233 7.233 0 0 0 11.986-3.055 1.553 1.553 0 0 1 2.965.923 10.346 10.346 0 0 1-17.146 4.339zm-1.61-8.491a1.555 1.555 0 0 1-1.037-1.938 10.35 10.35 0 0 1 17.152-4.349v-.381a1.554 1.554 0 1 1 3.107 0v4.146a1.554 1.554 0 0 1-1.554 1.555h-4.143a1.554 1.554 0 1 1 0-3.108h.4a7.235 7.235 0 0 0-11.984 3.041 1.556 1.556 0 0 1-1.937 1.035z" transform="translate(-9381.688 -9268.159)"/>
    </g>
</svg>
