<svg xmlns="http://www.w3.org/2000/svg" width="20.5" height="20.5" viewBox="0 0 20.5 20.5"><g transform="translate(0)"><path d="M10.249,20.5A10.252,10.252,0,0,0,20.094,7.393a.854.854,0,0,0-1.64.48,8.531,8.531,0,1,1-3.442-4.717.854.854,0,0,0,.955-1.416A10.251,10.251,0,1,0,10.249,20.5Zm0,0" fill="#8218d1"/><path d="M125.065,32.253l-8.792,8.791-2.813-2.812a.854.854,0,0,0-1.208,1.208l3.417,3.417a.854.854,0,0,0,1.208,0l9.4-9.4a.854.854,0,0,0-1.208-1.208Zm0,0" transform="translate(-106.024 -30.295)" fill="#8218d1"/></g></svg>