<svg xmlns="http://www.w3.org/2000/svg" width="98.611" height="52.26" viewBox="0 0 98.611 52.26">
  <g id="Group_14390" data-name="Group 14390" transform="translate(16211 2307.76)">
    <g id="Logo" transform="translate(-16211 -2306)">
      <path id="Path_13819" data-name="Path 13819" d="M488.512,444.2a1.4,1.4,0,0,1-.526.537,1.792,1.792,0,0,1-.974.243,1.66,1.66,0,0,1-1.257-.5,1.972,1.972,0,0,1-.476-1.42v-1.543a1.971,1.971,0,0,1,.45-1.393,1.8,1.8,0,0,1,2.338-.1,1.457,1.457,0,0,1,.421,1.067l-.007.021h-.4a1.193,1.193,0,0,0-.306-.819,1.138,1.138,0,0,0-.844-.289,1.113,1.113,0,0,0-.9.386,1.67,1.67,0,0,0-.327,1.114v1.555a1.681,1.681,0,0,0,.354,1.155,1.2,1.2,0,0,0,.951.4,1.347,1.347,0,0,0,.7-.158.87.87,0,0,0,.366-.382v-1.357H487v-.366h1.509V444.2Zm2.306.78a1.276,1.276,0,0,1-1.02-.469,1.791,1.791,0,0,1-.395-1.195v-.641a1.853,1.853,0,0,1,.4-1.213,1.2,1.2,0,0,1,.958-.483,1.125,1.125,0,0,1,.942.431,1.848,1.848,0,0,1,.334,1.161v.423h-2.208v.318a1.552,1.552,0,0,0,.269.931.848.848,0,0,0,.723.371,1.237,1.237,0,0,0,.548-.11,1.125,1.125,0,0,0,.393-.316l.176.3a1.253,1.253,0,0,1-.452.357,1.519,1.519,0,0,1-.665.133Zm-.061-3.635a.778.778,0,0,0-.661.37,1.615,1.615,0,0,0-.27.913H491.6v-.165a1.358,1.358,0,0,0-.224-.8.718.718,0,0,0-.624-.318Zm2.656-1.276v.984h.67v.364h-.67v2.5a.976.976,0,0,0,.107.53.325.325,0,0,0,.281.156,1.251,1.251,0,0,0,.167-.011c.057-.007.117-.017.187-.032l.057.326a.841.841,0,0,1-.224.07,1.511,1.511,0,0,1-.276.027.638.638,0,0,1-.537-.257,1.358,1.358,0,0,1-.192-.81v-2.5h-.537v-.364h.537v-.984Zm3.524.984v4.17a1.5,1.5,0,0,1-.242.917.794.794,0,0,1-.674.322.66.66,0,0,1-.16-.018c-.05-.012-.1-.028-.165-.05l.039-.376a.5.5,0,0,0,.128.038.6.6,0,0,0,.13.019.429.429,0,0,0,.379-.216,1.2,1.2,0,0,0,.139-.638v-4.168Zm0-1.094h-.427v-.606h.427v.606Zm.864,2.738a1.911,1.911,0,0,1,.384-1.232,1.349,1.349,0,0,1,2.069,0,1.911,1.911,0,0,1,.388,1.234v.567a1.923,1.923,0,0,1-.384,1.237,1.359,1.359,0,0,1-2.073,0,1.9,1.9,0,0,1-.384-1.237V442.7Zm.43.565a1.73,1.73,0,0,0,.256.967.885.885,0,0,0,1.463,0,1.708,1.708,0,0,0,.26-.966v-.569a1.7,1.7,0,0,0-.26-.959.884.884,0,0,0-1.463,0,1.725,1.725,0,0,0-.256.959v.569Zm5.829.056a2.035,2.035,0,0,1-.327,1.211,1.047,1.047,0,0,1-.9.453,1.094,1.094,0,0,1-.587-.154,1.166,1.166,0,0,1-.405-.438l-.043.518h-.368v-5.561h.428v2.229a1.211,1.211,0,0,1,.4-.441,1.1,1.1,0,0,1,1.472.325,2.21,2.21,0,0,1,.329,1.273v.585Zm-.432-.583a1.89,1.89,0,0,0-.228-.988.731.731,0,0,0-.67-.38.755.755,0,0,0-.544.2,1.37,1.37,0,0,0-.327.528v1.831a1.154,1.154,0,0,0,.336.491.818.818,0,0,0,.542.181.742.742,0,0,0,.668-.348,1.728,1.728,0,0,0,.222-.934v-.584Zm3.113,1.252a.664.664,0,0,0-.172-.456,2.043,2.043,0,0,0-.633-.4,2.885,2.885,0,0,1-.862-.492.854.854,0,0,1-.272-.658.913.913,0,0,1,.325-.7,1.2,1.2,0,0,1,.839-.292,1.176,1.176,0,0,1,.871.323,1.045,1.045,0,0,1,.306.8l-.007.021h-.4a.8.8,0,0,0-.206-.549.707.707,0,0,0-.56-.233.769.769,0,0,0-.549.181.58.58,0,0,0-.188.428.566.566,0,0,0,.151.414,2.422,2.422,0,0,0,.64.393,2.7,2.7,0,0,1,.862.5.915.915,0,0,1,.286.69.929.929,0,0,1-.331.742,1.294,1.294,0,0,1-.871.282,1.259,1.259,0,0,1-.931-.336,1.029,1.029,0,0,1-.318-.8l.007-.022h.4a.766.766,0,0,0,.267.6.922.922,0,0,0,.576.187.829.829,0,0,0,.567-.181.573.573,0,0,0,.208-.447Zm3.248.921h-.43v-3.854h.43v3.854Zm0-4.948h-.43v-.606h.43v.606Zm1.4,1.094.036.635a1.287,1.287,0,0,1,.409-.525,1,1,0,0,1,.6-.184.915.915,0,0,1,.793.383,2.05,2.05,0,0,1,.277,1.193v2.351h-.432v-2.348a1.651,1.651,0,0,0-.192-.925.647.647,0,0,0-.56-.268.762.762,0,0,0-.549.215,1.34,1.34,0,0,0-.331.576v2.749H511v-3.854Zm4.985,0,.035.6a1.216,1.216,0,0,1,.409-.5,1.009,1.009,0,0,1,.594-.175.88.88,0,0,1,.588.2,1.2,1.2,0,0,1,.349.623,1.427,1.427,0,0,1,.405-.605.949.949,0,0,1,.633-.221.9.9,0,0,1,.786.411,2.278,2.278,0,0,1,.281,1.265v2.251h-.432v-2.26a1.88,1.88,0,0,0-.194-1,.62.62,0,0,0-.547-.288.66.66,0,0,0-.585.322,1.74,1.74,0,0,0-.256.8v2.421h-.428V442.65a1.845,1.845,0,0,0-.2-.992.624.624,0,0,0-.549-.3.735.735,0,0,0-.544.2,1.2,1.2,0,0,0-.293.562v2.778h-.428v-3.854Zm5.507,3.854h-.43v-3.854h.43v3.854Zm0-4.948h-.43v-.606h.43v.606Zm1.394,1.094.036.635a1.3,1.3,0,0,1,.409-.525,1,1,0,0,1,.6-.184.917.917,0,0,1,.793.383,2.051,2.051,0,0,1,.276,1.193v2.351h-.43v-2.348a1.665,1.665,0,0,0-.192-.925.65.65,0,0,0-.56-.268.756.756,0,0,0-.549.215,1.344,1.344,0,0,0-.332.576v2.749h-.428v-3.854Zm5.148,3.251a1.227,1.227,0,0,1-.407.5,1.011,1.011,0,0,1-.592.176.921.921,0,0,1-.8-.412,2.244,2.244,0,0,1-.288-1.28v-2.236h.427V443.3a2.024,2.024,0,0,0,.183,1,.59.59,0,0,0,.533.3.884.884,0,0,0,.6-.2,1.111,1.111,0,0,0,.331-.543v-2.807h.427v3.854h-.384l-.028-.6Zm2.009-4.235v.984h.672v.364h-.672v2.5a.973.973,0,0,0,.108.53.323.323,0,0,0,.281.156,1.251,1.251,0,0,0,.167-.011c.055-.007.117-.017.185-.032l.059.326a.869.869,0,0,1-.222.07,1.546,1.546,0,0,1-.277.027.638.638,0,0,1-.537-.257,1.358,1.358,0,0,1-.194-.81v-2.5h-.535v-.364H530v-.984Zm2.723,4.912a1.27,1.27,0,0,1-1.019-.469,1.782,1.782,0,0,1-.4-1.195v-.641a1.853,1.853,0,0,1,.4-1.213,1.2,1.2,0,0,1,.958-.483,1.125,1.125,0,0,1,.942.431,1.849,1.849,0,0,1,.334,1.161v.423h-2.208v.318a1.552,1.552,0,0,0,.268.931.849.849,0,0,0,.724.371,1.236,1.236,0,0,0,.547-.11,1.126,1.126,0,0,0,.393-.316l.176.3a1.254,1.254,0,0,1-.452.357,1.513,1.513,0,0,1-.665.133Zm-.061-3.635a.78.78,0,0,0-.661.37,1.63,1.63,0,0,0-.27.913h1.78v-.165a1.358,1.358,0,0,0-.224-.8.718.718,0,0,0-.624-.318Zm3.879,2.641a.664.664,0,0,0-.173-.456,2.023,2.023,0,0,0-.633-.4,2.913,2.913,0,0,1-.862-.492.854.854,0,0,1-.272-.658.913.913,0,0,1,.325-.7,1.205,1.205,0,0,1,.841-.292,1.169,1.169,0,0,1,.869.323,1.045,1.045,0,0,1,.306.8l-.007.021h-.4a.8.8,0,0,0-.208-.549.706.706,0,0,0-.558-.233.764.764,0,0,0-.549.181.581.581,0,0,0-.188.428.572.572,0,0,0,.149.414,2.453,2.453,0,0,0,.64.393,2.708,2.708,0,0,1,.864.5.913.913,0,0,1,.284.69.933.933,0,0,1-.329.742,1.3,1.3,0,0,1-.871.282,1.263,1.263,0,0,1-.933-.336,1.029,1.029,0,0,1-.318-.8l.007-.022h.4a.767.767,0,0,0,.267.6.925.925,0,0,0,.578.187.828.828,0,0,0,.565-.181A.573.573,0,0,0,536.969,443.986Z" transform="translate(-439.285 -396.461)" fill="#fff" fill-rule="evenodd"/>
      <path id="Path_13845" data-name="Path 13845" d="M10683.145,14340.435l3.355-5.432a4.938,4.938,0,1,0,9.875,0v-16l4.941-8v24a9.938,9.938,0,0,1-9.88,10A9.839,9.839,0,0,1,10683.145,14340.435Zm46.823-17.435v-20l2.468-4,2.474-4v18.255a11.7,11.7,0,0,1,6.917-2.254,12,12,0,1,1-11.858,12Zm4.941,0v0a6.916,6.916,0,1,0,6.917-7A6.958,6.958,0,0,0,10734.909,14323Zm-31.123,0a11.856,11.856,0,1,1,11.857,12A11.927,11.927,0,0,1,10703.786,14323Zm4.939,0a6.916,6.916,0,1,0,6.918-7A6.958,6.958,0,0,0,10708.726,14323Z" transform="translate(-10655.57 -14294.999)" fill="#fff"/>
      <path id="Path_13845_-_Outline" data-name="Path 13845 - Outline" d="M10691.437,14345.5a10.319,10.319,0,0,1-8.713-4.795l-.17-.265.165-.268,4.28-6.928V14335a4.438,4.438,0,1,0,8.875,0v-16.139l.074-.121,5.867-9.5V14335a10.493,10.493,0,0,1-3.037,7.424A10.252,10.252,0,0,1,10691.437,14345.5Zm-7.7-5.074a9.305,9.305,0,0,0,14.33,1.294,9.5,9.5,0,0,0,2.748-6.721v-22.237l-3.941,6.382V14335a5.432,5.432,0,0,1-10.683,1.454Zm58.088-4.927a12.209,12.209,0,0,1-8.741-3.662,12.487,12.487,0,0,1-3.617-8.836v-20.14l.074-.121,2.468-4,3.4-5.5v19.077a12.251,12.251,0,0,1,15.155,1.846,12.6,12.6,0,0,1,0,17.674A12.206,12.206,0,0,1,10741.826,14335.5Zm-11.358-32.354V14323a11.493,11.493,0,0,0,3.328,8.135,11.259,11.259,0,0,0,16.057,0,11.6,11.6,0,0,0,0-16.268,11.247,11.247,0,0,0-14.648-1.207l-.795.579v-17.479l-1.548,2.5Zm-14.824,32.354a12.207,12.207,0,0,1-8.74-3.662,12.6,12.6,0,0,1,0-17.674,12.258,12.258,0,0,1,17.478,0,12.605,12.605,0,0,1,0,17.674A12.2,12.2,0,0,1,10715.644,14335.5Zm0-24a11.215,11.215,0,0,0-8.029,3.365,11.6,11.6,0,0,0,0,16.268,11.257,11.257,0,0,0,16.055,0,11.6,11.6,0,0,0,0-16.268A11.207,11.207,0,0,0,10715.644,14311.5Zm26.183,19a7.5,7.5,0,1,1,7.414-7.5A7.467,7.467,0,0,1,10741.826,14330.5Zm0-14a6.5,6.5,0,1,0,6.414,6.5A6.466,6.466,0,0,0,10741.826,14316.5Zm-26.183,14a7.5,7.5,0,1,1,7.413-7.5A7.469,7.469,0,0,1,10715.644,14330.5Zm0-14a6.5,6.5,0,1,0,6.413,6.5A6.466,6.466,0,0,0,10715.644,14316.5Z" transform="translate(-10655.57 -14294.999)" fill="rgba(0,0,0,0)"/>
      <path id="Path_13820" data-name="Path 13820" d="M0,8.257,5.161,0H36.121l5.161,8.257H10.321l5.159,8.256H36.121l-5.161,8.256H20.641L25.8,33.026l-5.161,8.256Z" transform="translate(0 0.001)" fill="#fff" fill-rule="evenodd"/>
    </g>
  </g>
</svg>
