<svg xmlns="http://www.w3.org/2000/svg" width="24" height="24" viewBox="0 0 24 24"><path d="M533.868-319.069h-9.7a7.158,7.158,0,0,0-7.15,7.15v9.7a7.158,7.158,0,0,0,7.15,7.15h9.7a7.158,7.158,0,0,0,7.15-7.15v-9.7A7.158,7.158,0,0,0,533.868-319.069Zm4.735,16.85a4.735,4.735,0,0,1-4.735,4.735h-9.7a4.735,4.735,0,0,1-4.735-4.735v-9.7a4.735,4.735,0,0,1,4.735-4.735h9.7a4.735,4.735,0,0,1,4.735,4.735Z" transform="translate(-517.018 319.069)" fill="#858585"/><path d="M715.145-125.7a4.764,4.764,0,0,0-4.759,4.759,4.764,4.764,0,0,0,4.759,4.758,4.764,4.764,0,0,0,4.758-4.758A4.764,4.764,0,0,0,715.145-125.7Zm0,7.666a2.907,2.907,0,0,1-2.908-2.908,2.908,2.908,0,0,1,2.908-2.908,2.907,2.907,0,0,1,2.907,2.908A2.907,2.907,0,0,1,715.145-118.035Z" transform="translate(-703.145 132.942)" fill="#858585"/><path d="M1077.408-173.792a1.86,1.86,0,0,0-1.859,1.859,1.86,1.86,0,0,0,1.859,1.859,1.859,1.859,0,0,0,1.859-1.859A1.859,1.859,0,0,0,1077.408-173.792Z" transform="translate(-1059.41 177.991)" fill="#858585"/></svg>