<svg xmlns="http://www.w3.org/2000/svg" width="150.5" height="78.686" viewBox="0 0 150.5 78.686"><g transform="translate(-360 -4233.258)"><g transform="translate(360 4235)"><path d="M490.068,446.537a2.077,2.077,0,0,1-.78.8,2.655,2.655,0,0,1-1.443.361,2.46,2.46,0,0,1-1.862-.735,2.921,2.921,0,0,1-.706-2.1v-2.286a2.919,2.919,0,0,1,.666-2.063,2.662,2.662,0,0,1,3.463-.149,2.159,2.159,0,0,1,.624,1.58l-.011.032h-.593a1.767,1.767,0,0,0-.453-1.213,1.686,1.686,0,0,0-1.251-.428,1.649,1.649,0,0,0-1.328.571,2.475,2.475,0,0,0-.484,1.65v2.3a2.49,2.49,0,0,0,.524,1.712,1.782,1.782,0,0,0,1.409.587,2,2,0,0,0,1.04-.234,1.289,1.289,0,0,0,.542-.566v-2.01h-1.6V443.8h2.236v2.739Zm3.416,1.156a1.89,1.89,0,0,1-1.512-.7,2.653,2.653,0,0,1-.585-1.77v-.949a2.745,2.745,0,0,1,.587-1.8,1.778,1.778,0,0,1,1.419-.715,1.666,1.666,0,0,1,1.4.639,2.738,2.738,0,0,1,.5,1.72v.627h-3.271v.471a2.3,2.3,0,0,0,.4,1.379,1.256,1.256,0,0,0,1.072.549,1.834,1.834,0,0,0,.811-.163,1.668,1.668,0,0,0,.582-.469l.261.448a1.857,1.857,0,0,1-.669.529,2.25,2.25,0,0,1-.985.2Zm-.09-5.385a1.152,1.152,0,0,0-.98.549,2.392,2.392,0,0,0-.4,1.353h2.636v-.245a2.011,2.011,0,0,0-.332-1.185,1.064,1.064,0,0,0-.925-.471Zm3.934-1.891v1.458h.993v.54h-.993v3.7a1.445,1.445,0,0,0,.158.785.482.482,0,0,0,.416.232,1.868,1.868,0,0,0,.248-.016c.084-.011.174-.025.276-.047l.084.483a1.241,1.241,0,0,1-.332.1,2.232,2.232,0,0,1-.408.039.945.945,0,0,1-.8-.381,2.013,2.013,0,0,1-.285-1.2v-3.7h-.8v-.54h.8v-1.458Zm5.22,1.458v6.177a2.224,2.224,0,0,1-.358,1.359,1.176,1.176,0,0,1-1,.477.981.981,0,0,1-.237-.026c-.074-.018-.155-.042-.245-.074l.058-.557a.74.74,0,0,0,.189.057.881.881,0,0,0,.192.028.636.636,0,0,0,.561-.32,1.781,1.781,0,0,0,.205-.945v-6.174Zm0-1.621h-.632v-.9h.632v.9Zm1.28,4.056a2.831,2.831,0,0,1,.569-1.825,2,2,0,0,1,3.066,0,2.831,2.831,0,0,1,.574,1.828v.84a2.849,2.849,0,0,1-.569,1.833,2.014,2.014,0,0,1-3.071,0,2.819,2.819,0,0,1-.569-1.833v-.84Zm.637.836a2.563,2.563,0,0,0,.379,1.432,1.311,1.311,0,0,0,2.167,0,2.53,2.53,0,0,0,.385-1.431V444.3a2.513,2.513,0,0,0-.385-1.421,1.31,1.31,0,0,0-2.167,0,2.555,2.555,0,0,0-.379,1.421v.843Zm8.635.083a3.016,3.016,0,0,1-.484,1.794,1.551,1.551,0,0,1-1.333.671,1.619,1.619,0,0,1-.869-.228,1.727,1.727,0,0,1-.6-.649l-.063.768h-.545v-8.239h.634v3.3a1.794,1.794,0,0,1,.593-.653,1.634,1.634,0,0,1,2.18.482,3.274,3.274,0,0,1,.487,1.885v.866Zm-.64-.864a2.8,2.8,0,0,0-.337-1.463,1.083,1.083,0,0,0-.993-.562,1.119,1.119,0,0,0-.806.3,2.028,2.028,0,0,0-.485.782v2.713a1.708,1.708,0,0,0,.5.727,1.213,1.213,0,0,0,.8.268,1.1,1.1,0,0,0,.99-.516,2.559,2.559,0,0,0,.329-1.384v-.865Zm4.611,1.855a.983.983,0,0,0-.255-.676,3.027,3.027,0,0,0-.938-.6,4.277,4.277,0,0,1-1.277-.73,1.265,1.265,0,0,1-.4-.974,1.352,1.352,0,0,1,.482-1.044,1.783,1.783,0,0,1,1.243-.432,1.742,1.742,0,0,1,1.29.478,1.547,1.547,0,0,1,.453,1.19l-.01.032h-.6a1.193,1.193,0,0,0-.306-.814,1.047,1.047,0,0,0-.829-.345,1.139,1.139,0,0,0-.814.269.86.86,0,0,0-.279.635.839.839,0,0,0,.224.614,3.587,3.587,0,0,0,.948.582,4,4,0,0,1,1.277.748,1.356,1.356,0,0,1,.424,1.022,1.376,1.376,0,0,1-.49,1.1,1.917,1.917,0,0,1-1.29.417,1.865,1.865,0,0,1-1.38-.5,1.525,1.525,0,0,1-.472-1.182l.01-.033h.593a1.134,1.134,0,0,0,.4.894,1.367,1.367,0,0,0,.853.277,1.229,1.229,0,0,0,.84-.269.849.849,0,0,0,.308-.662Zm4.812,1.364h-.637v-5.709h.637v5.709Zm0-7.331h-.637v-.9h.637v.9Zm2.067,1.621.053.941a1.906,1.906,0,0,1,.606-.777,1.473,1.473,0,0,1,.882-.272,1.355,1.355,0,0,1,1.174.568,3.037,3.037,0,0,1,.411,1.767v3.483h-.64v-3.478a2.447,2.447,0,0,0-.284-1.371.96.96,0,0,0-.83-.4,1.129,1.129,0,0,0-.814.319,1.986,1.986,0,0,0-.49.853v4.073h-.635v-5.709Zm7.384,0,.052.885a1.8,1.8,0,0,1,.606-.733,1.5,1.5,0,0,1,.88-.259,1.3,1.3,0,0,1,.872.3,1.773,1.773,0,0,1,.516.923,2.115,2.115,0,0,1,.6-.9,1.406,1.406,0,0,1,.938-.328,1.331,1.331,0,0,1,1.164.608,3.376,3.376,0,0,1,.416,1.874v3.335h-.64v-3.348a2.787,2.787,0,0,0-.287-1.48.918.918,0,0,0-.811-.427.978.978,0,0,0-.867.477A2.577,2.577,0,0,0,534.4,444v3.587h-.635v-3.343a2.733,2.733,0,0,0-.295-1.469.925.925,0,0,0-.814-.437,1.089,1.089,0,0,0-.806.3,1.775,1.775,0,0,0-.435.832v4.115h-.635v-5.709Zm8.159,5.709h-.637v-5.709h.637v5.709Zm0-7.331h-.637v-.9h.637v.9Zm2.065,1.621.053.941a1.93,1.93,0,0,1,.606-.777,1.481,1.481,0,0,1,.885-.272,1.358,1.358,0,0,1,1.174.568,3.04,3.04,0,0,1,.408,1.767v3.483h-.637v-3.478a2.466,2.466,0,0,0-.284-1.371.962.962,0,0,0-.829-.4,1.12,1.12,0,0,0-.814.319,1.991,1.991,0,0,0-.492.853v4.073h-.635v-5.709Zm7.627,4.817a1.817,1.817,0,0,1-.6.741,1.5,1.5,0,0,1-.877.261,1.364,1.364,0,0,1-1.182-.61,3.324,3.324,0,0,1-.427-1.9v-3.313h.632V445.2a3,3,0,0,0,.271,1.487.874.874,0,0,0,.79.445,1.309,1.309,0,0,0,.885-.292,1.647,1.647,0,0,0,.49-.8v-4.158h.632v5.709h-.569l-.042-.893Zm2.976-6.274v1.458h1v.54h-1v3.7a1.441,1.441,0,0,0,.161.785.479.479,0,0,0,.416.232,1.865,1.865,0,0,0,.248-.016c.082-.011.174-.025.274-.047l.087.483a1.283,1.283,0,0,1-.329.1,2.285,2.285,0,0,1-.411.039.945.945,0,0,1-.8-.381,2.011,2.011,0,0,1-.287-1.2v-3.7h-.793v-.54h.793v-1.458Zm4.035,7.276a1.881,1.881,0,0,1-1.509-.7,2.641,2.641,0,0,1-.587-1.77v-.949a2.744,2.744,0,0,1,.587-1.8,1.782,1.782,0,0,1,1.419-.715,1.667,1.667,0,0,1,1.4.639,2.74,2.74,0,0,1,.5,1.72v.627h-3.271v.471a2.3,2.3,0,0,0,.4,1.379,1.257,1.257,0,0,0,1.072.549,1.834,1.834,0,0,0,.811-.163,1.67,1.67,0,0,0,.582-.469l.261.448a1.857,1.857,0,0,1-.669.529,2.243,2.243,0,0,1-.985.2Zm-.09-5.385a1.156,1.156,0,0,0-.98.549,2.414,2.414,0,0,0-.4,1.353h2.636v-.245a2.011,2.011,0,0,0-.332-1.185,1.063,1.063,0,0,0-.924-.471Zm5.747,3.912a.983.983,0,0,0-.256-.676,3,3,0,0,0-.938-.6,4.321,4.321,0,0,1-1.278-.73,1.266,1.266,0,0,1-.4-.974,1.353,1.353,0,0,1,.482-1.044,1.785,1.785,0,0,1,1.245-.432,1.732,1.732,0,0,1,1.288.478,1.547,1.547,0,0,1,.453,1.19l-.01.032h-.6a1.184,1.184,0,0,0-.308-.814,1.046,1.046,0,0,0-.827-.345,1.131,1.131,0,0,0-.814.269.859.859,0,0,0-.279.635.848.848,0,0,0,.221.614,3.631,3.631,0,0,0,.948.582,4.012,4.012,0,0,1,1.28.748,1.353,1.353,0,0,1,.421,1.022,1.382,1.382,0,0,1-.487,1.1,1.923,1.923,0,0,1-1.291.417,1.872,1.872,0,0,1-1.382-.5,1.523,1.523,0,0,1-.472-1.182l.01-.033h.593a1.136,1.136,0,0,0,.395.894,1.37,1.37,0,0,0,.856.277,1.226,1.226,0,0,0,.838-.269A.849.849,0,0,0,561.854,446.22Z" transform="translate(-412.487 -373.443)" fill-rule="evenodd"/><path d="M10683.145,14364.464l5.191-8.307a7.642,7.642,0,0,0,15.283,0v-24.459l7.645-12.234v36.693a15.288,15.288,0,0,1-28.119,8.311Zm72.454-26.656v-30.576l3.818-6.117,3.825-6.117v27.91a18.346,18.346,0,1,1-7.644,14.9Zm7.644,0v0a10.7,10.7,0,1,0,10.706-10.7A10.7,10.7,0,0,0,10763.242,14337.808Zm-48.157,0a18.345,18.345,0,1,1,18.349,18.348A18.345,18.345,0,0,1,10715.085,14337.806Zm7.646,0a10.7,10.7,0,1,0,10.7-10.7A10.7,10.7,0,0,0,10722.73,14337.806Z" transform="translate(-10642.295 -14294.997)" fill="#8218d1"/><path d="M10695.977,14371.94a15.732,15.732,0,0,1-13.252-7.205l-.173-.267.169-.27,6.114-9.784v1.742a7.142,7.142,0,0,0,14.283,0v-24.6l.076-.121,8.568-13.714v38.438a15.786,15.786,0,0,1-15.787,15.787Zm-12.237-7.484a14.788,14.788,0,0,0,27.024-8.3V14321.2l-6.645,10.634v24.315a8.143,8.143,0,0,1-16.143,1.521Zm90.209-7.8a18.831,18.831,0,0,1-18.85-18.846v-30.72l.076-.121,3.818-6.117,4.749-7.595v28.706a18.85,18.85,0,1,1,10.206,34.692Zm-17.85-49.278v30.431a17.849,17.849,0,1,0,7.436-14.493l-.792.571v-27.145l-2.9,4.64Zm-22.665,49.278a18.779,18.779,0,1,1,7.336-1.481A18.727,18.727,0,0,1,10733.434,14356.653Zm0-36.693a17.847,17.847,0,1,0,17.842,17.846A17.868,17.868,0,0,0,10733.434,14319.96Zm40.515,29.049a11.2,11.2,0,1,1,7.92-3.279A11.134,11.134,0,0,1,10773.948,14349.009Zm0-21.4a10.2,10.2,0,1,0,10.2,10.2A10.214,10.214,0,0,0,10773.948,14327.606Zm-40.515,21.4a11.193,11.193,0,1,1,7.918-3.279A11.133,11.133,0,0,1,10733.434,14349.009Zm0-21.4a10.2,10.2,0,1,0,10.2,10.2A10.213,10.213,0,0,0,10733.434,14327.606Z" transform="translate(-10642.295 -14294.997)" fill="rgba(0,0,0,0)"/><path d="M0,12.232,7.645,0H53.511l7.645,12.232H15.29l7.643,12.231H53.511L45.866,36.694H30.578l7.645,12.232-7.645,12.23Z" transform="translate(0 0.001)" fill="#ff8500" fill-rule="evenodd"/></g></g></svg>