<svg id="maila" xmlns="http://www.w3.org/2000/svg" width="20.318" height="14.288" viewBox="0 0 20.318 14.288">
  <path id="Path_15997" data-name="Path 15997" d="M732.09,396.168a4.79,4.79,0,0,1-.357.845,1.7,1.7,0,0,1-1.419.741c-.04,0-.079,0-.119,0H713.672a1.823,1.823,0,0,1-1.536-.718,1.772,1.772,0,0,1-.363-1.109q0-5.316,0-10.632a1.784,1.784,0,0,1,1.876-1.827q3.422,0,6.843,0h9.7a1.772,1.772,0,0,1,1.715,1.026,3.835,3.835,0,0,1,.181.561Zm-18.256-11.5c.033.042.044.059.058.073q3.375,3.358,6.755,6.711a1.955,1.955,0,0,0,.676.432,1.733,1.733,0,0,0,1.939-.469q3.327-3.308,6.652-6.618c.035-.034.067-.072.119-.129Zm5.107,6.755-5.031,5.128h16.033l-5-5.166c-.237.25-.4.427-.565.594a7.044,7.044,0,0,1-.638.594,2.957,2.957,0,0,1-3.951-.28C719.515,392.021,719.249,391.738,718.941,391.422Zm-.963-.777-5-5.08V395.74Zm12.914-5.09-.043-.028-5.05,5.131,5.094,5.062Z" transform="translate(-711.771 -383.468)" fill="#ff8500"/>
</svg>
