<svg xmlns="http://www.w3.org/2000/svg" width="19.6" height="19.619" viewBox="0 0 19.6 19.619"><g transform="translate(0.175 0.174)"><g transform="translate(0 0.001)"><path d="M722,345.732c.028-.223.044-.448.087-.667a2.786,2.786,0,0,1,.744-1.431c.517-.529,1.016-1.08,1.573-1.565a1.764,1.764,0,0,1,2.584.031c.869.814,1.7,1.669,2.513,2.54a1.714,1.714,0,0,1,.013,2.305c-.434.494-.912.949-1.378,1.414a.19.19,0,0,0-.051.267,10.586,10.586,0,0,0,1.838,2.509,12.679,12.679,0,0,0,2.438,2.056c.257.164.533.3.82.46.31-.314.61-.624.917-.927.205-.2.411-.405.633-.589a1.719,1.719,0,0,1,2.261.033c.9.857,1.776,1.735,2.628,2.638a1.742,1.742,0,0,1,.03,2.37A23.5,23.5,0,0,1,737.863,359a2.973,2.973,0,0,1-2.352.677,11.207,11.207,0,0,1-4.484-1.578,18.541,18.541,0,0,1-4.6-3.6,18.175,18.175,0,0,1-3.851-5.984,7.652,7.652,0,0,1-.55-2.388A.712.712,0,0,0,722,346Zm1.108.158c.02.218.037.437.062.655a2.775,2.775,0,0,0,.057.295,12.1,12.1,0,0,0,1.563,3.7,18.433,18.433,0,0,0,7.646,7.059,8.884,8.884,0,0,0,3.154.987,2.083,2.083,0,0,0,1.784-.6c.423-.437.853-.867,1.276-1.3a.822.822,0,0,0,0-1.337c-.311-.319-.629-.631-.944-.945-.439-.439-.874-.882-1.319-1.315a.721.721,0,0,0-1.073-.025c-.062.053-.119.111-.177.168-.431.43-.859.862-1.292,1.289a.806.806,0,0,1-1,.193,11.879,11.879,0,0,1-1.086-.6,14.137,14.137,0,0,1-3.083-2.71,10.077,10.077,0,0,1-1.612-2.37c-.319-.692-.274-.908.275-1.439.433-.418.864-.839,1.276-1.277a.7.7,0,0,0,.013-1.03c-.036-.044-.073-.086-.113-.126q-1.116-1.119-2.234-2.235a1.129,1.129,0,0,0-.271-.2.779.779,0,0,0-.966.23c-.421.413-.827.84-1.253,1.247A2.129,2.129,0,0,0,723.108,345.89Z" transform="translate(-722 -340.425)" fill="#8218d1"/><path d="M725.693,341.346a2.059,2.059,0,0,1,1.415.626c.788.739,1.59,1.548,2.521,2.548a1.888,1.888,0,0,1,.017,2.54c-.343.39-.717.76-1.079,1.118l-.307.3a.349.349,0,0,0-.031.034.235.235,0,0,0,.013.031,10.446,10.446,0,0,0,1.809,2.467,12.412,12.412,0,0,0,2.4,2.028c.17.108.348.2.537.306l.157.085.191-.194c.207-.211.422-.43.635-.64s.417-.411.643-.6a1.949,1.949,0,0,1,1.245-.448,1.8,1.8,0,0,1,1.249.489c.934.892,1.821,1.781,2.634,2.644a1.922,1.922,0,0,1,.034,2.606,23.545,23.545,0,0,1-1.8,1.839,2.991,2.991,0,0,1-2.079.74c-.13,0-.267-.006-.4-.018a11.5,11.5,0,0,1-4.554-1.6,18.786,18.786,0,0,1-4.643-3.638,18.282,18.282,0,0,1-3.886-6.042,7.889,7.889,0,0,1-.561-2.443.308.308,0,0,0-.011-.049c0-.016-.008-.031-.012-.047l0-.019v-.3c.009-.069.016-.138.024-.206.017-.155.034-.315.066-.473a2.961,2.961,0,0,1,.79-1.519c.126-.129.251-.259.376-.389.384-.4.781-.814,1.207-1.185A2.137,2.137,0,0,1,725.693,341.346Zm7.52,12.522-.116-.065c-.091-.051-.181-.1-.269-.146-.2-.1-.379-.2-.56-.319a12.759,12.759,0,0,1-2.472-2.084,10.768,10.768,0,0,1-1.867-2.551.361.361,0,0,1,.084-.468l.308-.306c.357-.353.727-.719,1.062-1.1a1.539,1.539,0,0,0-.01-2.07c-.926-.994-1.722-1.8-2.5-2.531a1.723,1.723,0,0,0-1.175-.531,1.8,1.8,0,0,0-1.174.505c-.415.361-.806.769-1.184,1.163q-.189.2-.378.392a2.617,2.617,0,0,0-.7,1.342c-.028.143-.044.289-.061.442-.007.067-.015.135-.023.2v.231l0,.014a.547.547,0,0,1,.023.128,7.37,7.37,0,0,0,.539,2.333,17.941,17.941,0,0,0,3.815,5.927,18.435,18.435,0,0,0,4.557,3.57,11.181,11.181,0,0,0,4.414,1.557,2.775,2.775,0,0,0,2.22-.633,23.2,23.2,0,0,0,1.774-1.812,1.573,1.573,0,0,0-.027-2.134c-.809-.858-1.691-1.743-2.621-2.631a1.448,1.448,0,0,0-1.008-.392,1.6,1.6,0,0,0-1.021.367c-.215.179-.422.382-.621.579s-.416.417-.632.637l-.285.289Zm-7.526-11.4h0a.886.886,0,0,1,.41.106,1.3,1.3,0,0,1,.314.23c.63.627,1.268,1.267,1.885,1.885l.35.351c.04.04.08.085.124.139a.874.874,0,0,1-.021,1.261c-.418.444-.863.877-1.282,1.283-.5.481-.524.62-.238,1.239a9.751,9.751,0,0,0,1.585,2.328,13.891,13.891,0,0,0,3.044,2.677,11.847,11.847,0,0,0,1.07.589.678.678,0,0,0,.3.078.713.713,0,0,0,.494-.239c.287-.283.576-.573.857-.853l.435-.435.014-.014c.055-.054.111-.11.172-.163a.988.988,0,0,1,.646-.269.945.945,0,0,1,.663.3c.317.309.634.628.941.936l.38.381.279.278c.219.218.446.443.666.669a.992.992,0,0,1,0,1.581c-.208.215-.422.432-.628.642s-.433.44-.647.662a2.24,2.24,0,0,1-1.925.658,9.145,9.145,0,0,1-3.216-1,18.691,18.691,0,0,1-7.718-7.124,12.208,12.208,0,0,1-1.585-3.758l-.008-.037a2.492,2.492,0,0,1-.052-.276c-.018-.155-.032-.312-.045-.463q-.009-.1-.018-.194V345.9a2.317,2.317,0,0,1,.744-1.819c.247-.236.493-.484.73-.723.17-.172.346-.349.522-.522A1.1,1.1,0,0,1,725.687,342.465Zm7.542,12.514a1.023,1.023,0,0,1-.456-.114,12.175,12.175,0,0,1-1.1-.607,14.234,14.234,0,0,1-3.121-2.743,10.081,10.081,0,0,1-1.639-2.411,1.135,1.135,0,0,1,.313-1.638c.416-.4.857-.832,1.271-1.271a.528.528,0,0,0,.005-.8c-.037-.045-.07-.082-.1-.114l-.35-.35c-.617-.618-1.254-1.258-1.884-1.884a.949.949,0,0,0-.228-.168.532.532,0,0,0-.249-.066.768.768,0,0,0-.513.265c-.174.171-.349.348-.518.519-.239.241-.486.491-.737.73a1.954,1.954,0,0,0-.635,1.549q.009.1.017.191c.013.15.027.3.044.455a2.195,2.195,0,0,0,.045.238l.009.038a11.865,11.865,0,0,0,1.542,3.65,18.346,18.346,0,0,0,7.574,6.994,8.819,8.819,0,0,0,3.092.97,1.906,1.906,0,0,0,1.643-.552c.215-.223.436-.447.649-.664s.419-.426.626-.64a.655.655,0,0,0,0-1.093c-.218-.224-.444-.448-.662-.665l-.28-.279-.38-.381c-.306-.307-.622-.625-.937-.932a.551.551,0,0,0-.836-.018c-.052.045-.1.094-.154.146l-.014.014-.434.434c-.281.281-.571.572-.859.855A1.047,1.047,0,0,1,733.229,354.979Z" transform="translate(-722 -340.425)" fill="#8218d1"/><path d="M921.4,320c.435.113.874.21,1.3.341a10.063,10.063,0,0,1,3.738,2.1,10.374,10.374,0,0,1,2.689,3.67,10.2,10.2,0,0,1,.71,2.387.54.54,0,0,1-1.047.253c-.115-.4-.189-.817-.31-1.218a9.309,9.309,0,0,0-7.162-6.412c-.422-.079-.61-.275-.6-.6a.588.588,0,0,1,.415-.525Z" transform="translate(-910.598 -320)" fill="#8218d1"/><path d="M921.1,319.825h.323l.022.006c.136.035.273.069.409.1.3.073.6.149.9.24a10.275,10.275,0,0,1,3.8,2.137,10.592,10.592,0,0,1,2.733,3.731,10.415,10.415,0,0,1,.722,2.428.693.693,0,0,1-.525.813.758.758,0,0,1-.188.024.7.7,0,0,1-.675-.507c-.055-.192-.1-.387-.145-.577-.05-.212-.1-.43-.164-.639a9.135,9.135,0,0,0-7.027-6.291c-.631-.119-.751-.487-.741-.774a.776.776,0,0,1,.518-.679Zm.279.35h-.2c-.195.094-.274.2-.279.357s.045.341.456.418a9.484,9.484,0,0,1,7.3,6.534c.066.219.119.443.17.66.044.185.089.377.141.561a.344.344,0,0,0,.339.253.407.407,0,0,0,.1-.013.346.346,0,0,0,.267-.415,10.068,10.068,0,0,0-.7-2.347,10.244,10.244,0,0,0-2.644-3.608,9.928,9.928,0,0,0-3.673-2.065c-.289-.089-.591-.163-.883-.235Z" transform="translate(-910.598 -320)" fill="#8218d1"/><path d="M917.674,389.188a.542.542,0,0,1,.666-.532,6.231,6.231,0,0,1,4.756,3.872,8.465,8.465,0,0,1,.358,1.223.545.545,0,0,1-.4.682.56.56,0,0,1-.661-.414,9.929,9.929,0,0,0-.383-1.234,5.141,5.141,0,0,0-3.828-3.043A.544.544,0,0,1,917.674,389.188Z" transform="translate(-907.708 -385.147)" fill="#8218d1"/><path d="M918.218,388.469a.789.789,0,0,1,.157.016,6.415,6.415,0,0,1,4.882,3.975,6.759,6.759,0,0,1,.311,1.026c.018.074.036.148.055.222a.738.738,0,0,1-.077.566.722.722,0,0,1-.452.329.7.7,0,0,1-.167.02.749.749,0,0,1-.7-.554c-.041-.135-.078-.272-.113-.405a5.07,5.07,0,0,0-.262-.807,4.987,4.987,0,0,0-3.7-2.945.724.724,0,0,1,.073-1.444Zm4.709,5.8a.35.35,0,0,0,.083-.01.374.374,0,0,0,.235-.169.391.391,0,0,0,.038-.3c-.019-.075-.037-.149-.056-.224a6.5,6.5,0,0,0-.293-.973,6.082,6.082,0,0,0-4.63-3.769.437.437,0,0,0-.087-.009.364.364,0,0,0-.369.371c0,.13.035.311.367.38a5.321,5.321,0,0,1,3.951,3.142,5.414,5.414,0,0,1,.282.862c.034.13.07.264.109.393A.4.4,0,0,0,922.928,394.273Z" transform="translate(-907.708 -385.147)" fill="#8218d1"/></g></g></svg>