<svg xmlns="http://www.w3.org/2000/svg" width="20.521" height="20.516" viewBox="0 0 20.521 20.516">
  <g id="Phonea" transform="translate(0.1 0.1)">
    <g id="Group_13156" data-name="Group 13156">
      <path id="Path_15994" data-name="Path 15994" d="M722,345.96c.03-.235.046-.472.092-.7a2.935,2.935,0,0,1,.785-1.508c.546-.558,1.072-1.139,1.66-1.65a1.863,1.863,0,0,1,2.727.032c.917.858,1.8,1.759,2.652,2.678a1.805,1.805,0,0,1,.014,2.43c-.458.521-.963,1-1.454,1.491a.2.2,0,0,0-.054.281,11.163,11.163,0,0,0,1.94,2.645,13.378,13.378,0,0,0,2.573,2.168c.272.173.562.316.865.485.327-.331.644-.658.968-.978.217-.213.434-.427.668-.621a1.816,1.816,0,0,1,2.386.034c.947.9,1.875,1.829,2.773,2.781a1.835,1.835,0,0,1,.032,2.5,24.784,24.784,0,0,1-1.886,1.925,3.14,3.14,0,0,1-2.482.714A11.835,11.835,0,0,1,731.528,359a19.566,19.566,0,0,1-4.855-3.8,19.16,19.16,0,0,1-4.064-6.31,8.065,8.065,0,0,1-.58-2.518.751.751,0,0,0-.028-.134Zm1.169.166c.021.23.039.461.066.69a2.933,2.933,0,0,0,.06.311,12.751,12.751,0,0,0,1.65,3.905,19.447,19.447,0,0,0,8.07,7.442,9.383,9.383,0,0,0,3.329,1.041,2.2,2.2,0,0,0,1.883-.638c.446-.461.9-.915,1.346-1.375a.867.867,0,0,0,0-1.41c-.328-.336-.664-.665-1-1-.463-.463-.923-.929-1.392-1.386a.761.761,0,0,0-1.132-.026c-.065.056-.126.117-.187.178-.454.453-.906.909-1.363,1.359a.852.852,0,0,1-1.051.2,12.548,12.548,0,0,1-1.146-.63,14.916,14.916,0,0,1-3.254-2.857,10.625,10.625,0,0,1-1.7-2.5c-.337-.729-.289-.957.291-1.517.456-.441.912-.884,1.347-1.346a.736.736,0,0,0,.014-1.085c-.038-.046-.077-.091-.119-.133q-1.178-1.179-2.358-2.357a1.193,1.193,0,0,0-.286-.21.823.823,0,0,0-1.019.242c-.444.435-.873.886-1.323,1.315A2.244,2.244,0,0,0,723.169,346.127Z" transform="translate(-722 -340.365)" fill="#ff8500" stroke="#ff8500" stroke-width="0.2"/>
      <path id="Path_15995" data-name="Path 15995" d="M921.437,320c.459.119.923.221,1.375.36a10.624,10.624,0,0,1,3.945,2.215,10.939,10.939,0,0,1,2.838,3.869,10.746,10.746,0,0,1,.749,2.517.549.549,0,0,1-.418.647.555.555,0,0,1-.688-.381c-.121-.425-.2-.862-.327-1.284a9.822,9.822,0,0,0-7.559-6.761c-.446-.084-.644-.29-.632-.629a.62.62,0,0,1,.438-.554Z" transform="translate(-910.037 -320)" fill="#ff8500" stroke="#ff8500" stroke-width="0.2"/>
      <path id="Path_15996" data-name="Path 15996" d="M917.674,389.218a.572.572,0,0,1,.7-.561,6.575,6.575,0,0,1,5.02,4.082,8.907,8.907,0,0,1,.377,1.289.574.574,0,0,1-.423.719.591.591,0,0,1-.7-.437,10.447,10.447,0,0,0-.4-1.3,5.425,5.425,0,0,0-4.04-3.209A.574.574,0,0,1,917.674,389.218Z" transform="translate(-907.155 -384.957)" fill="#ff8500" stroke="#ff8500" stroke-width="0.2"/>
    </g>
  </g>
</svg>
