<svg xmlns="http://www.w3.org/2000/svg" width="15.723" height="19.2" viewBox="0 0 15.723 19.2">
    <path d="M991.344 229.952v-5.833a11.6 11.6 0 0 1-7.86-2.758 11.6 11.6 0 0 1-7.86 2.758v5.833s-.3 7.385 7.86 10.609c8.165-3.224 7.86-10.609 7.86-10.609z" transform="translate(-975.623 -221.361)" style="fill:#06983c"/>
    <path d="M982.241 233.742a.834.834 0 0 1-.576-.23l-3.234-3.076a.836.836 0 1 1 1.153-1.212l2.617 2.489 4.778-5.209a.836.836 0 1 1 1.232 1.13l-5.354 5.837a.834.834 0 0 1-.588.271z" transform="translate(-975.113 -220.387)" style="fill:#fff"/>
</svg>
