<svg xmlns="http://www.w3.org/2000/svg" width="21.086" height="24" viewBox="0 0 21.086 24">
  <path id="tiktok" d="M52.5,6.4a6.047,6.047,0,0,1-3.654-1.221A6.048,6.048,0,0,1,46.428.39H42.509V11.1l0,5.865A3.552,3.552,0,1,1,40.068,13.6V9.618a7.711,7.711,0,0,0-1.13-.084,7.514,7.514,0,0,0-5.646,2.525,7.364,7.364,0,0,0,.332,10.154,7.644,7.644,0,0,0,.708.618,7.515,7.515,0,0,0,4.606,1.557,7.71,7.71,0,0,0,1.13-.083,7.489,7.489,0,0,0,4.184-2.092,7.336,7.336,0,0,0,2.2-5.221l-.02-8.759A9.93,9.93,0,0,0,52.509,10.3V6.4S52.5,6.4,52.5,6.4Z" transform="translate(-31.423 -0.39)" fill="#858585"/>
</svg>
