<svg id="Group_22428" data-name="Group 22428" xmlns="http://www.w3.org/2000/svg" width="150" height="76.444" viewBox="0 0 150 76.444">
  <path id="Path_35334" data-name="Path 35334" d="M0,12.232,7.645,0H53.511l7.645,12.232H15.29l7.643,12.231H53.511L45.866,36.694H30.578l7.645,12.232-7.645,12.23Z" fill="#ff8500" fill-rule="evenodd"/>
  <g id="Group_22425" data-name="Group 22425" transform="translate(40.85)">
    <path id="Path_35335" data-name="Path 35335" d="M503.626,163.088a18.346,18.346,0,1,1-18.348,18.346,18.346,18.346,0,0,1,18.348-18.346Zm0,7.643a10.7,10.7,0,1,0,10.7,10.7A10.7,10.7,0,0,0,503.626,170.731Z" transform="translate(-453.336 -138.625)" fill="#6e00c2" fill-rule="evenodd"/>
    <path id="Path_35336" data-name="Path 35336" d="M773.725,24.463A18.346,18.346,0,1,1,755.377,42.81h0V12.232L759.2,6.116,763.022,0V27.907a18.261,18.261,0,0,1,10.7-3.444Zm0,7.643a10.7,10.7,0,0,0-10.7,10.7h0a10.7,10.7,0,1,0,10.7-10.7Z" transform="translate(-682.92)" fill="#6e00c2" fill-rule="evenodd"/>
    <path id="Path_35337" data-name="Path 35337" d="M300.453,163.088l-7.645,12.235v24.458a7.643,7.643,0,0,1-15.285,0l-5.19,8.307a15.288,15.288,0,0,0,28.121-8.31V163.088Z" transform="translate(-272.332 -138.625)" fill="#6e00c2"/>
  </g>
  <g id="Group_22426" data-name="Group 22426" transform="translate(72.792 67.161)">
    <path id="Path_35338" data-name="Path 35338" d="M489.06,457.486l.013.027a2.018,2.018,0,0,1-.5,1.45,1.8,1.8,0,0,1-1.35.5,1.751,1.751,0,0,1-1.421-.633,2.751,2.751,0,0,1-.526-1.8v-1.795a2.757,2.757,0,0,1,.528-1.8,1.745,1.745,0,0,1,1.419-.639,1.82,1.82,0,0,1,1.354.49,2.021,2.021,0,0,1,.495,1.461l-.013.027h-.494a1.729,1.729,0,0,0-.357-1.138,1.263,1.263,0,0,0-.984-.367,1.224,1.224,0,0,0-1.042.5,2.412,2.412,0,0,0-.374,1.454v1.811a2.447,2.447,0,0,0,.374,1.472,1.224,1.224,0,0,0,1.042.5,1.276,1.276,0,0,0,.984-.361,1.753,1.753,0,0,0,.357-1.163Z" transform="translate(-485.278 -452.034)" fill="#323232"/>
    <path id="Path_35339" data-name="Path 35339" d="M516.1,456a2.4,2.4,0,0,1,.481-1.541,1.685,1.685,0,0,1,2.586,0,2.393,2.393,0,0,1,.483,1.544v.708a2.4,2.4,0,0,1-.481,1.548,1.7,1.7,0,0,1-2.588,0,2.394,2.394,0,0,1-.481-1.548Zm.539.713a2.13,2.13,0,0,0,.321,1.205,1.1,1.1,0,0,0,1.826,0,2.109,2.109,0,0,0,.325-1.2v-.71a2.094,2.094,0,0,0-.325-1.194,1.1,1.1,0,0,0-1.826,0,2.116,2.116,0,0,0-.321,1.194Zm1.737-4.638h.655l.009.022-.984,1.163-.459,0Z" transform="translate(-511.478 -451.428)" fill="#323232"/>
    <path id="Path_35340" data-name="Path 35340" d="M558.173,468.123l.107.468h.027l.116-.468,1.034-3.6H560l-1.5,4.819h-.419l-1.51-4.819h.552Z" transform="translate(-545.88 -462.003)" fill="#323232"/>
    <path id="Path_35341" data-name="Path 35341" d="M585.56,451.083h-.539v-.757h.539Zm0,6.191h-.539v-4.819h.539Z" transform="translate(-570.06 -449.939)" fill="#323232"/>
    <path id="Path_35342" data-name="Path 35342" d="M597.39,458.3a1.591,1.591,0,0,1-1.274-.586,2.237,2.237,0,0,1-.495-1.495v-.8a2.307,2.307,0,0,1,.5-1.517,1.5,1.5,0,0,1,1.2-.6,1.4,1.4,0,0,1,1.176.539,2.3,2.3,0,0,1,.419,1.449v.528h-2.757v.4a1.948,1.948,0,0,0,.334,1.166,1.056,1.056,0,0,0,.9.465,1.556,1.556,0,0,0,.684-.139,1.416,1.416,0,0,0,.492-.4l.218.377a1.56,1.56,0,0,1-.563.446A1.9,1.9,0,0,1,597.39,458.3Zm-.076-4.53a.974.974,0,0,0-.826.459,1.989,1.989,0,0,0-.336,1.131h2.223v-.2a1.667,1.667,0,0,0-.281-.991A.9.9,0,0,0,597.315,453.772Zm1.091-1.35v.085h-.477l-.592-.74-.588.74h-.463v-.094l.859-.989h.388Zm-.722,7.189h-.637v-.757h.637Z" transform="translate(-579.07 -450.873)" fill="#323232"/>
    <path id="Path_35343" data-name="Path 35343" d="M624.135,468.474a1.03,1.03,0,0,0,.735-.3,1.1,1.1,0,0,0,.316-.837h.472l.013.027a1.452,1.452,0,0,1-.45,1.118,1.611,1.611,0,0,1-2.368-.145,2.476,2.476,0,0,1-.448-1.53v-.748a2.488,2.488,0,0,1,.448-1.53,1.5,1.5,0,0,1,1.281-.6,1.455,1.455,0,0,1,1.111.47,1.692,1.692,0,0,1,.425,1.236l-.009.022h-.477a1.335,1.335,0,0,0-.3-.915.96.96,0,0,0-.75-.341.983.983,0,0,0-.909.471,2.264,2.264,0,0,0-.285,1.19v.75a2.271,2.271,0,0,0,.285,1.2A.984.984,0,0,0,624.135,468.474Z" transform="translate(-601.838 -461.499)" fill="#323232"/>
    <path id="Path_35344" data-name="Path 35344" d="M661.919,456.324v1.229h.837v.454h-.837v3.123a1.225,1.225,0,0,0,.134.663.408.408,0,0,0,.352.2,1.653,1.653,0,0,0,.209-.013q.1-.014.231-.04l.071.41a1.1,1.1,0,0,1-.279.087,1.819,1.819,0,0,1-.345.033.794.794,0,0,1-.67-.32,1.688,1.688,0,0,1-.243-1.015v-3.124h-.668v-.454h.668v-1.229Z" transform="translate(-634.397 -455.037)" fill="#323232"/>
    <path id="Path_35345" data-name="Path 35345" d="M682.948,464.5l-.352-.027a.827.827,0,0,0-.619.252,1.529,1.529,0,0,0-.361.693v3.421h-.534v-4.819h.472l.062.8a1.633,1.633,0,0,1,.448-.653.984.984,0,0,1,.653-.234.934.934,0,0,1,.169.016.867.867,0,0,1,.134.033Z" transform="translate(-651.711 -461.499)" fill="#323232"/>
    <path id="Path_35346" data-name="Path 35346" d="M696.85,466.073a2.4,2.4,0,0,1,.481-1.541,1.685,1.685,0,0,1,2.586,0,2.393,2.393,0,0,1,.483,1.544v.708a2.4,2.4,0,0,1-.481,1.548,1.7,1.7,0,0,1-2.588,0,2.4,2.4,0,0,1-.481-1.548Zm.539.713a2.132,2.132,0,0,0,.321,1.205,1.1,1.1,0,0,0,1.826,0,2.109,2.109,0,0,0,.325-1.2v-.71a2.094,2.094,0,0,0-.325-1.194,1.1,1.1,0,0,0-1.826,0,2.118,2.118,0,0,0-.321,1.194Z" transform="translate(-665.114 -461.499)" fill="#323232"/>
    <path id="Path_35347" data-name="Path 35347" d="M727.586,464.015l.044.8a1.606,1.606,0,0,1,.51-.655,1.235,1.235,0,0,1,.746-.232,1.147,1.147,0,0,1,.991.479,2.568,2.568,0,0,1,.345,1.49v2.94h-.539V465.9a2.061,2.061,0,0,0-.241-1.158.807.807,0,0,0-.7-.334.944.944,0,0,0-.686.269,1.667,1.667,0,0,0-.414.719v3.439h-.535v-4.819Z" transform="translate(-690.834 -461.499)" fill="#323232"/>
    <path id="Path_35348" data-name="Path 35348" d="M754.724,466.189a2.912,2.912,0,0,1,.414-1.644,1.306,1.306,0,0,1,1.145-.619,1.275,1.275,0,0,1,.71.2,1.536,1.536,0,0,1,.506.563l.053-.673h.454v4.824a2.151,2.151,0,0,1-.432,1.434,1.52,1.52,0,0,1-1.225.508,2.4,2.4,0,0,1-.612-.087,2.485,2.485,0,0,1-.581-.229L755.3,470a1.906,1.906,0,0,0,.486.216,1.961,1.961,0,0,0,.552.078.992.992,0,0,0,.851-.37,1.791,1.791,0,0,0,.276-1.082v-.583a1.47,1.47,0,0,1-.5.5,1.348,1.348,0,0,1-.691.174,1.329,1.329,0,0,1-1.138-.568,2.521,2.521,0,0,1-.412-1.512Zm.539.659a2.132,2.132,0,0,0,.281,1.167.938.938,0,0,0,.846.437,1.022,1.022,0,0,0,.655-.212,1.43,1.43,0,0,0,.423-.586v-2.387a1.644,1.644,0,0,0-.412-.621.936.936,0,0,0-.657-.238.922.922,0,0,0-.851.494,2.558,2.558,0,0,0-.285,1.287Z" transform="translate(-714.307 -461.499)" fill="#323232"/>
    <path id="Path_35349" data-name="Path 35349" d="M800.822,466.848a2.539,2.539,0,0,1-.408,1.515,1.31,1.31,0,0,1-1.124.566,1.426,1.426,0,0,1-.708-.169,1.391,1.391,0,0,1-.5-.49v2.419h-.534v-6.672h.45l.058.664a1.516,1.516,0,0,1,.508-.557,1.373,1.373,0,0,1,1.853.421,2.934,2.934,0,0,1,.41,1.646Zm-.544-.655a2.541,2.541,0,0,0-.289-1.288.928.928,0,0,0-.851-.5.94.94,0,0,0-.657.237,1.552,1.552,0,0,0-.4.616v2.433a1.356,1.356,0,0,0,.41.574,1.024,1.024,0,0,0,.655.207.945.945,0,0,0,.849-.444,2.138,2.138,0,0,0,.287-1.176Z" transform="translate(-750.703 -461.499)" fill="#323232"/>
    <path id="Path_35350" data-name="Path 35350" d="M826.852,453.217a1.609,1.609,0,0,1,.523-.628,1.267,1.267,0,0,1,.737-.223,1.14,1.14,0,0,1,.98.47,2.5,2.5,0,0,1,.343,1.463v2.975H828.9V454.29a1.963,1.963,0,0,0-.238-1.109.789.789,0,0,0-.684-.334.991.991,0,0,0-.686.256,1.628,1.628,0,0,0-.436.684v3.487h-.535v-6.948h.535Z" transform="translate(-775.161 -449.939)" fill="#323232"/>
    <path id="Path_35351" data-name="Path 35351" d="M857.607,458.541a1.549,1.549,0,0,1-.508.626,1.26,1.26,0,0,1-.739.22,1.151,1.151,0,0,1-1-.514,2.835,2.835,0,0,1-.359-1.6v-2.8h.535v2.806a2.533,2.533,0,0,0,.229,1.254.734.734,0,0,0,.666.377,1.1,1.1,0,0,0,.746-.247,1.373,1.373,0,0,0,.412-.679v-3.51h.534v4.819h-.481Zm-.543-5.839h.655l.009.022-.984,1.162-.459,0Z" transform="translate(-799.543 -451.958)" fill="#323232"/>
    <path id="Path_35352" data-name="Path 35352" d="M882.28,456.324v1.229h.837v.454h-.837v3.123a1.223,1.223,0,0,0,.134.663.408.408,0,0,0,.352.2,1.654,1.654,0,0,0,.209-.013c.068-.009.145-.022.231-.04l.071.41a1.1,1.1,0,0,1-.279.087,1.819,1.819,0,0,1-.345.033.794.794,0,0,1-.67-.32,1.689,1.689,0,0,1-.243-1.015v-3.124h-.668v-.454h.668v-1.229Z" transform="translate(-821.704 -455.037)" fill="#323232"/>
    <path id="Path_35353" data-name="Path 35353" d="M914.714,464.015l.045.748a1.536,1.536,0,0,1,.508-.619,1.278,1.278,0,0,1,.744-.218,1.09,1.09,0,0,1,.735.256,1.5,1.5,0,0,1,.437.777,1.768,1.768,0,0,1,.505-.757,1.186,1.186,0,0,1,.791-.276,1.12,1.12,0,0,1,.982.514,2.843,2.843,0,0,1,.35,1.579v2.815h-.539v-2.824a2.365,2.365,0,0,0-.24-1.247.776.776,0,0,0-.686-.361.827.827,0,0,0-.73.4,2.193,2.193,0,0,0-.321,1.007v3.024h-.535v-2.819a2.321,2.321,0,0,0-.247-1.238.783.783,0,0,0-.688-.37.919.919,0,0,0-.679.256,1.474,1.474,0,0,0-.368.7v3.47h-.534v-4.819Z" transform="translate(-849.897 -461.499)" fill="#323232"/>
    <path id="Path_35354" data-name="Path 35354" d="M957.833,452.317a2.4,2.4,0,0,1,.481-1.541,1.685,1.685,0,0,1,2.586,0,2.392,2.392,0,0,1,.483,1.544v.708a2.4,2.4,0,0,1-.481,1.548,1.7,1.7,0,0,1-2.588,0,2.4,2.4,0,0,1-.481-1.548Zm3.024-2.9-.013.027h-.566l-.664-.762-.668.762h-.561l-.013-.027,1-1.056h.481Zm-2.485,3.609a2.132,2.132,0,0,0,.321,1.205,1.1,1.1,0,0,0,1.826,0,2.11,2.11,0,0,0,.325-1.2v-.71a2.1,2.1,0,0,0-.325-1.194,1.1,1.1,0,0,0-1.826,0,2.118,2.118,0,0,0-.321,1.194Zm2.793-5.288h.6l-.7,1.033h-.432Z" transform="translate(-886.95 -447.743)" fill="#323232"/>
    <path id="Path_35355" data-name="Path 35355" d="M986.508,456.324v1.229h.837v.454h-.837v3.123a1.223,1.223,0,0,0,.134.663.408.408,0,0,0,.352.2,1.65,1.65,0,0,0,.209-.013c.068-.009.145-.022.232-.04l.071.41a1.1,1.1,0,0,1-.279.087,1.817,1.817,0,0,1-.345.033.794.794,0,0,1-.67-.32,1.689,1.689,0,0,1-.243-1.015v-3.124H985.3v-.454h.668v-1.229Z" transform="translate(-910.298 -455.037)" fill="#323232"/>
  </g>
</svg>
