<svg xmlns="http://www.w3.org/2000/svg" width="24" height="24" viewBox="0 0 24 24">
  <g id="thongtintaikhoan" transform="translate(6464 7571)">
    <g id="Group_14274" data-name="Group 14274" transform="translate(-6464 -7571)">
      <rect id="Rectangle_148680" data-name="Rectangle 148680" width="24" height="24" fill="#fff" opacity="0"/>
      <path id="Path_18281" data-name="Path 18281" d="M1013.885-983.76a4.514,4.514,0,0,1,4.514,4.513,4.514,4.514,0,0,1-4.514,4.514,4.514,4.514,0,0,1-4.513-4.514,4.513,4.513,0,0,1,4.513-4.513Zm-.046,11.554a7.074,7.074,0,0,1-4-1.352c-1.589-.117-2.8.725-3.547,2.507a9.208,9.208,0,0,0-.6,2.745,14.644,14.644,0,0,0-.071,1.531c0,1.886,1.057,2.843,2.927,3.015h10.663c1.871-.172,2.923-1.129,2.928-3.015a14.813,14.813,0,0,0-.071-1.531,9.235,9.235,0,0,0-.6-2.745c-.748-1.782-1.958-2.624-3.547-2.507A7.346,7.346,0,0,1,1013.84-972.206Z" transform="translate(-1002.126 986.26)" fill="none" stroke="#858585" stroke-linecap="round" stroke-linejoin="round" stroke-width="1.2" fill-rule="evenodd"/>
    </g>
  </g>
</svg>
