<svg xmlns="http://www.w3.org/2000/svg" width="19.542" height="24.001" viewBox="0 0 19.542 24.001">
  <path id="apple" d="M4380.672,1184.8a5.3,5.3,0,0,0,3.221,4.856,13.142,13.142,0,0,1-1.661,3.415c-1,1.461-2.039,2.918-3.674,2.948-1.608.03-2.125-.953-3.961-.953s-2.41.923-3.933.983c-1.579.06-2.781-1.581-3.79-3.037-2.06-2.98-3.636-8.421-1.521-12.093a5.875,5.875,0,0,1,4.967-3.007c1.55-.03,3.013,1.042,3.961,1.042s2.725-1.29,4.594-1.1a5.606,5.606,0,0,1,4.389,2.382,5.424,5.424,0,0,0-2.593,4.566m-3.021-8.918a5.289,5.289,0,0,0,1.249-3.833,5.381,5.381,0,0,0-3.536,1.819,5.019,5.019,0,0,0-1.273,3.712,4.451,4.451,0,0,0,3.56-1.7" transform="translate(-4364.35 -1172.046)"/>
</svg>
