<svg xmlns="http://www.w3.org/2000/svg" width="16" height="16" viewBox="0 0 16 16">
  <path id="default/cart" d="M8.937-16.9h1.587V-19.19H12.9v-1.524H10.524V-23H8.937v2.286H6.556v1.524H8.937ZM5.762-10.048A1.554,1.554,0,0,0,4.183-8.524,1.554,1.554,0,0,0,5.762-7,1.561,1.561,0,0,0,7.349-8.524,1.561,1.561,0,0,0,5.762-10.048Zm7.937,0a1.554,1.554,0,0,0-1.579,1.524A1.554,1.554,0,0,0,13.7-7a1.561,1.561,0,0,0,1.587-1.524A1.561,1.561,0,0,0,13.7-10.048Zm-7.063-3.81h5.913a1.591,1.591,0,0,0,1.389-.785L17-19.983l-1.389-.731-3.063,5.333H6.976L3.6-22.238H1v1.524H2.587l2.857,5.783L4.373-13.072A1.528,1.528,0,0,0,5.762-10.81h9.524v-1.524H5.762Z" transform="translate(-1 23)" fill="#fff"/>
</svg>
