<svg xmlns="http://www.w3.org/2000/svg" width="24" height="24" viewBox="0 0 24 24">
  <g id="thaydoimatkhau" transform="translate(6388 7476)">
    <rect id="Rectangle_148694" data-name="Rectangle 148694" width="24" height="24" transform="translate(-6388 -7476)" fill="#fff" opacity="0"/>
    <g id="Group_14257" data-name="Group 14257" transform="translate(-6383.082 -7473.978)">
      <rect id="Rectangle_148678" data-name="Rectangle 148678" width="14.164" height="11.636" rx="2" transform="translate(0 7.564)" fill="none" stroke="#858585" stroke-linecap="round" stroke-linejoin="round" stroke-width="1.2"/>
      <path id="Path_18265" data-name="Path 18265" d="M1171.469-544.2h8.868v-3.13a4.447,4.447,0,0,0-4.434-4.434h0a4.447,4.447,0,0,0-4.434,4.434Z" transform="translate(-1168.821 551.759)" fill="none" stroke="#858585" stroke-linecap="round" stroke-linejoin="round" stroke-width="1.2" fill-rule="evenodd"/>
      <path id="Path_18266" data-name="Path 18266" d="M1193.073-480.843a1.166,1.166,0,0,0,1.164-1.164,1.166,1.166,0,0,0-1.164-1.164,1.166,1.166,0,0,0-1.164,1.164A1.166,1.166,0,0,0,1193.073-480.843Z" transform="translate(-1185.99 494.144)" fill="none" stroke="#858585" stroke-linecap="round" stroke-linejoin="round" stroke-width="1.2" fill-rule="evenodd"/>
      <line id="Line_608" data-name="Line 608" y2="2.668" transform="translate(7.082 13.302)" fill="none" stroke="#858585" stroke-linecap="round" stroke-linejoin="round" stroke-width="1.2"/>
    </g>
  </g>
</svg>
