<svg xmlns="http://www.w3.org/2000/svg" width="22.943" height="22.943" viewBox="0 0 22.943 22.943">
  <g id="Group_15" data-name="Group 15" transform="translate(-3.565 -4.072)">
    <path id="facebook-square" d="M22.943,34.458V52.485a2.459,2.459,0,0,1-2.458,2.458H16.116V45.868h3.1l.446-3.462H16.116V40.194c0-1,.277-1.685,1.716-1.685h1.833V35.416a24.651,24.651,0,0,0-2.673-.138c-2.643,0-4.455,1.613-4.455,4.578v2.555H9.423v3.462h3.119v9.07H2.458A2.459,2.459,0,0,1,0,52.485V34.458A2.459,2.459,0,0,1,2.458,32H20.485A2.459,2.459,0,0,1,22.943,34.458Z" transform="translate(3.565 -27.928)" fill="#2680eb"/>
  </g>
</svg>
