<svg id="google" xmlns="http://www.w3.org/2000/svg" width="24" height="24" viewBox="0 0 24 24">
  <path id="Path_13831" data-name="Path 13831" d="M1336.361,327.666a10.077,10.077,0,0,0-.258-2.454h-11.5v4.454h6.749a5.852,5.852,0,0,1-2.5,3.893l-.023.149,3.635,2.76.252.025a11.618,11.618,0,0,0,3.646-8.826" transform="translate(-1312.361 -315.398)" fill="#4285f4"/>
  <path id="Path_13832" data-name="Path 13832" d="M1326.4,338.726a11.809,11.809,0,0,0,8.11-2.906l-3.865-2.933a7.573,7.573,0,0,1-11.211-3.786l-.144.012-3.78,2.867-.049.135a12.262,12.262,0,0,0,10.938,6.613" transform="translate(-1314.16 -314.726)" fill="#34a853"/>
  <path id="Path_13833" data-name="Path 13833" d="M1319.654,330.253a7.258,7.258,0,0,1-.408-2.374,7.6,7.6,0,0,1,.4-2.373l-.007-.16-3.827-2.912-.125.059a11.753,11.753,0,0,0,0,10.773l3.972-3.013" transform="translate(-1314.375 -315.879)" fill="#fbbc05"/>
  <path id="Path_13834" data-name="Path 13834" d="M1326.4,321.485a6.858,6.858,0,0,1,4.735,1.786l3.456-3.306a11.9,11.9,0,0,0-8.191-3.12,12.26,12.26,0,0,0-10.938,6.614l3.959,3.013a7.388,7.388,0,0,1,6.979-4.987" transform="translate(-1314.16 -316.845)" fill="#eb4335"/>
</svg>
