<svg xmlns="http://www.w3.org/2000/svg" width="6.79" height="12" viewBox="0 0 6.79 12">
  <path id="Icon_metro-money" data-name="Icon metro-money" d="M14.344,11.693c-1.513-.393-2-.8-2-1.43,0-.727.67-1.237,1.8-1.237,1.187,0,1.627.567,1.667,1.4h1.473a2.654,2.654,0,0,0-2.14-2.54V6.427h-2v1.44a2.6,2.6,0,0,0-2.333,2.407c0,1.54,1.277,2.307,3.133,2.753,1.67.4,2,.983,2,1.61,0,.457-.323,1.19-1.8,1.19-1.373,0-1.917-.617-1.987-1.4h-1.47a2.8,2.8,0,0,0,2.457,2.553v1.447h2V16.993c1.3-.25,2.333-1,2.333-2.37,0-1.887-1.62-2.533-3.133-2.93Z" transform="translate(-10.688 -6.427)" fill="#838383"/>
</svg>
