<svg xmlns="http://www.w3.org/2000/svg" width="16.52" height="16.199" viewBox="0 0 16.52 16.199">
  <path id="icon-verification-profiles" d="M-17946.107,20175.334a3.14,3.14,0,0,1-3.131-3.137v-9.732a3.13,3.13,0,0,1,3.131-3.131h6.371a3.135,3.135,0,0,1,3.139,3.131v1.5c-.139-.012-.277-.02-.42-.02s-.275.008-.414.02v-1.5a2.3,2.3,0,0,0-2.3-2.3h-6.371a2.3,2.3,0,0,0-2.3,2.3v9.732a2.305,2.305,0,0,0,2.3,2.3h6.371a2.317,2.317,0,0,0,1.871-.955,4.318,4.318,0,0,0,.848.078h.076a3.147,3.147,0,0,1-2.795,1.711Zm4.992-6.547a4.1,4.1,0,0,1,4.1-4.1,4.1,4.1,0,0,1,4.1,4.1,4.1,4.1,0,0,1-4.1,4.094A4.1,4.1,0,0,1-17941.115,20168.787Zm.83,0a3.266,3.266,0,0,0,3.268,3.266,3.273,3.273,0,0,0,3.27-3.266,3.277,3.277,0,0,0-3.27-3.273A3.27,3.27,0,0,0-17940.285,20168.787Zm-6.26,3.563a.413.413,0,0,1-.412-.418.415.415,0,0,1,.412-.418h5.531a4.928,4.928,0,0,0,.729.836Zm8.576-1.984-1.379-1.7a.409.409,0,0,1,.053-.586.418.418,0,0,1,.586.061l1.135,1.393,2.58-1.891a.411.411,0,0,1,.576.094.4.4,0,0,1-.086.578l-2.9,2.123a.474.474,0,0,1-.246.082A.422.422,0,0,1-17937.969,20170.365Zm-8.576-1.078a.414.414,0,0,1-.412-.416.408.408,0,0,1,.412-.412h4.7c-.01.1-.018.219-.018.328,0,.164.014.336.027.5Zm0-3.062a.414.414,0,0,1-.412-.416.408.408,0,0,1,.412-.412h6.076a4.858,4.858,0,0,0-.656.828Zm0-3.068a.41.41,0,0,1-.412-.412.416.416,0,0,1,.412-.418h7.246a.423.423,0,0,1,.416.418.417.417,0,0,1-.416.412Z" transform="translate(17949.338 -20159.234)" fill="#838383" stroke="#838383" stroke-width="0.2"/>
</svg>
