<svg xmlns="http://www.w3.org/2000/svg" width="20.367" height="15" viewBox="0 0 20.367 15">
  <path id="icon-views" d="M9.624,14a8.394,8.394,0,0,1-4.087-1.094A12.367,12.367,0,0,1,2.515,10.5,16.827,16.827,0,0,1,0,7,16.737,16.737,0,0,1,2.515,3.5,12.415,12.415,0,0,1,5.536,1.093,8.4,8.4,0,0,1,9.624,0a8.4,8.4,0,0,1,4.088,1.094A12.416,12.416,0,0,1,16.734,3.5,16.816,16.816,0,0,1,19.249,7a16.754,16.754,0,0,1-2.515,3.5,12.368,12.368,0,0,1-3.022,2.406A8.4,8.4,0,0,1,9.624,14Zm0-9.624A2.625,2.625,0,1,0,12.25,7,2.626,2.626,0,0,0,9.624,4.376Z" transform="translate(0.559 0.5)" fill="none" stroke="#838383" stroke-linecap="round" stroke-width="1"/>
</svg>
