<svg xmlns="http://www.w3.org/2000/svg" width="60" height="54" viewBox="0 0 60 54">
  <g id="Group_23700" data-name="Group 23700" transform="translate(0 -20.882)">
    <g id="Group_23700-2" data-name="Group 23700" transform="translate(0 20.882)">
      <path id="Path_52060" data-name="Path 52060" d="M221.126,333.382a2.9,2.9,0,1,0,0,5.8,2.9,2.9,0,0,0,0-5.8Z" transform="translate(-191.129 -295.221)" fill="#fff"/>
      <path id="Path_52061" data-name="Path 52061" d="M58.539,69.588A10.228,10.228,0,0,0,58.564,59.1L39.249,26.164a10.726,10.726,0,0,0-18.476-.012L1.433,59.12A10.31,10.31,0,0,0,1.47,69.673a10.588,10.588,0,0,0,9.213,5.209H49.264A10.653,10.653,0,0,0,58.539,69.588Zm-4.194-2.38a5.846,5.846,0,0,1-5.094,2.9H10.672a5.766,5.766,0,0,1-5.032-2.841,5.669,5.669,0,0,1-.012-5.792L24.967,28.52a5.854,5.854,0,0,1,10.089.012L54.383,61.488A5.594,5.594,0,0,1,54.346,67.208Z" transform="translate(0 -20.882)" fill="#fff"/>
      <path id="Path_52062" data-name="Path 52062" d="M219.964,157.258a3.154,3.154,0,0,0-2.239,3.167c.07.917.128,1.845.2,2.761.2,3.492.394,6.915.592,10.407a2.125,2.125,0,0,0,2.17,2.042,2.169,2.169,0,0,0,2.17-2.112c0-.719,0-1.381.07-2.112.128-2.239.267-4.478.394-6.718.07-1.45.2-2.9.267-4.351a3.582,3.582,0,0,0-.267-1.45A2.908,2.908,0,0,0,219.964,157.258Z" transform="translate(-190.686 -140.215)" fill="#fff"/>
    </g>
  </g>
</svg>
