<svg xmlns="http://www.w3.org/2000/svg" width="16" height="16" viewBox="0 0 16 16">
    <g>
        <g>
            <path fill="#4b4c50" d="M0 8a7.951 7.951 0 0 1 1.1-4.034l.575-.133-.575.458.453.3h.9l1.33-.241.84 1.367v1.276l1.146 1.555h.2V8l.441.923 1.331.3.6.6.534.159-.538 1.118.582 1.08s.367 1.243.368 1.293-.368 1.488-.368 1.488l.081.968A8.271 8.271 0 0 1 8 16a8 8 0 0 1-8-8zm10.024 7.24l1.373-.916.36-.982.95-.441.9-1.718-1.389-.816-.721-.818-.427-.049-.851-.228-.733-.115-.641.18-.394-.441-.391-.119.033-.587-.474.01-.271.312-.154-.655.62-.294.638.294H8.8l.124-.507.955-1.146 1.321-.665.769.1.069-.375-.951-.964-.36-.719H10.2l-.327-.192-.7-.1-.147.835-.852-.163-.065-.531.654-.148.215-.937.648.267-.017.4.5.207.33.1.401-.219-.361-.424-.736-.719.017-.345.752.147.638.572.2.508.147.475 1.015.914.262.083.359-.575 1.275-.113.239-.077a7.988 7.988 0 0 1-4.769 12.221zM1.83 2.909A7.972 7.972 0 0 1 11.4.769l-.287.042-.78-.117-.555.37-.394.436-1.429.134-.588-.1-.4.634-1.178.065-.737-.212-.654.359-1.422.2-1.139.328zm3.563-1.622l.524.307 1.089-.287L6.75.861l-.473.15-.36-.15c-.011.095-.524.426-.524.426zM8.337.8l-.47.292.326.212.726-.073.76-.578-.525-.3z" transform="translate(-0.004 0) translate(0.004 0)"/>
        </g>
    </g>
</svg>
