<svg id="zalo" xmlns="http://www.w3.org/2000/svg" width="26.807" height="24" viewBox="0 0 26.807 24">
  <path id="Path_13835" data-name="Path 13835" d="M4374.12,1173.507c-7.4,0-13.4,5.373-13.4,12a11.349,11.349,0,0,0,3.8,8.37h0a.862.862,0,0,1,.139,1.027,5.212,5.212,0,0,1-2.321,2.277s-.186.118.1.2c0,0,1.485.472,5.656-.73a2.075,2.075,0,0,1,.97-.034,14.735,14.735,0,0,0,5.063.885c7.4,0,13.4-5.373,13.4-12S4381.522,1173.507,4374.12,1173.507Z" transform="translate(-4360.716 -1173.507)" fill="#0180c7"/>
  <path id="Path_13844" data-name="Path 13844" d="M15000.677,14910.958a2.48,2.48,0,1,1,2.7,2.4,2.3,2.3,0,0,1-.281.016A2.362,2.362,0,0,1,15000.677,14910.958Zm1.463-.141a1.281,1.281,0,0,0,.252.814.949.949,0,0,0,1.34.176,1.209,1.209,0,0,0,.168-.164,1.446,1.446,0,0,0,0-1.631.88.88,0,0,0-.693-.365l-.068,0A1.041,1.041,0,0,0,15002.14,14910.817Zm-7.434,2.439a2.3,2.3,0,0,1-1.576-2.131,2.417,2.417,0,0,1,1.188-2.533,1.849,1.849,0,0,1,2.326.2.886.886,0,0,1,.525-.395.715.715,0,0,1,.895.67c.02,1.162.012,2.332,0,3.494a.691.691,0,0,1-.482.658.709.709,0,0,1-.814-.227c-.1-.123-.143-.148-.279-.037a1.723,1.723,0,0,1-1.115.41A2.158,2.158,0,0,1,14994.706,14913.257Zm-.125-2.332a1.275,1.275,0,0,0,.246.7.963.963,0,0,0,1.338.191.9.9,0,0,0,.193-.191,1.463,1.463,0,0,0,0-1.615.875.875,0,0,0-.693-.365l-.076,0C14994.989,14909.646,14994.575,14910.132,14994.581,14910.925Zm4.635,2.324a.749.749,0,0,1-.514-.75v-4.629c0-.271,0-.539,0-.816a.731.731,0,1,1,1.461.014c.008.908,0,1.82,0,2.73s.008,1.807,0,2.709a.747.747,0,0,1-.729.766A.834.834,0,0,1,14999.216,14913.249Zm-10.4-.049a.8.8,0,0,1-.662-1.385c.9-1.145,1.8-2.293,2.7-3.432.055-.07.109-.139.162-.2a.129.129,0,0,0-.156-.062c-.02,0-.041,0-.055,0-.627-.008-1.264,0-1.895-.008a2.064,2.064,0,0,1-.428-.045.609.609,0,0,1-.012-1.187,1.65,1.65,0,0,1,.43-.053q1.556-.012,3.117,0a1.9,1.9,0,0,1,.545.061.638.638,0,0,1,.408.889,4,4,0,0,1-.582.9c-.764.973-1.527,1.936-2.289,2.9-.064.074-.121.15-.217.279.881,0,1.707-.008,2.529,0,.459,0,.713.2.758.563a.657.657,0,0,1-.719.777c-.941.012-1.879,0-2.826,0-.162,0-.324,0-.486,0C14989.034,14913.208,14988.925,14913.206,14988.819,14913.2Z" transform="translate(-14983.363 -14898.414)" fill="#fff" stroke="rgba(0,0,0,0)" stroke-width="1"/>
</svg>
