<svg xmlns="http://www.w3.org/2000/svg" width="28.882" height="22" viewBox="0 0 28.882 22">
  <g id="icon-job-fast" transform="translate(0 -61)">
    <path id="Path_14069" data-name="Path 14069" d="M17.882,61a10.771,10.771,0,0,0-4.475.954L4,66.15a.846.846,0,0,0-.033,1.53l1.871.935L.468,71.243a.846.846,0,0,0,0,1.514l5.368,2.628-1.871.935A.846.846,0,0,0,4,77.85l9.405,4.2A10.772,10.772,0,0,0,17.882,83a11,11,0,1,0,0-22Z" transform="translate(0 0)" fill="#e6161a"/>
    <path id="Path_14070" data-name="Path 14070" d="M189.615,121a7.615,7.615,0,1,0,7.615,7.615A7.627,7.627,0,0,0,189.615,121ZM193,129.462h-3.385a.838.838,0,0,1-.846-.846v-3.385a.846.846,0,0,1,1.692,0v2.538H193a.846.846,0,0,1,0,1.692Z" transform="translate(-171.733 -56.616)" fill="#feae10"/>
  </g>
</svg>
