<svg xmlns="http://www.w3.org/2000/svg" xmlns:xlink="http://www.w3.org/1999/xlink" width="75.316" height="53.518" viewBox="0 0 75.316 53.518">
  <defs>
    <linearGradient id="linear-gradient" x1="-0.214" y1="1.04" x2="1.055" y2="0.043" gradientUnits="objectBoundingBox">
      <stop offset="0" stop-color="#f9c412"/>
      <stop offset="1" stop-color="#e6161a"/>
    </linearGradient>
  </defs>
  <path id="dangtinsieutoc" d="M-17796.105,20547.773h-18.393l1.119-4.191,11.064-8.271a12.569,12.569,0,0,0,2.281-2.08,4.887,4.887,0,0,0,.9-1.738,1.784,1.784,0,0,0-.295-1.791,2.805,2.805,0,0,0-2.09-.641,5.954,5.954,0,0,0-2.574.594,6.773,6.773,0,0,0-1.428.906l.674,1.844-5.732-3.818a14.37,14.37,0,0,1,4.85-3.611,14.79,14.79,0,0,1,6.266-1.316,10.586,10.586,0,0,1,4.547.877,5.053,5.053,0,0,1,2.564,2.518,4.662,4.662,0,0,1,.354,1.25c6.307-10.8,18.219-18.666,29.561-18.666,12.051,0,19.486,8.865,18.428,20.7,1.725-1.311,3.025-2.316,3.025-2.316a33.189,33.189,0,0,1-11.529,14.459,75.481,75.481,0,0,0-3.932-13.969,15.612,15.612,0,0,1,2.332,1.656c.123-8.4-5.49-14.521-14.283-14.521-10.693,0-22.041,9.061-25.354,20.248s2.688,20.256,13.381,20.256c10.521,0,21.674-8.773,25.182-19.7.666,2.58,1.357,5.5,1.895,8.33a39.477,39.477,0,0,0,7.105-5.775c-5.32,13.041-18.912,23.154-31.771,23.154C-17787.736,20562.154-17794.482,20556.309-17796.105,20547.773Zm-2.127-9.424-5.559,4.119h7.336a28.07,28.07,0,0,1,1.133-6.523A28.667,28.667,0,0,1-17798.232,20538.35Zm30.838-23.465.129.006.512.025,1.031.053.965.123.48.063.48.107q.486.108.959.217c.314.1.619.2.93.3l.465.156.438.2c.289.129.588.248.877.383a13.39,13.39,0,0,1,1.605.965,13.546,13.546,0,0,1,2.643,2.389q.255.34.51.666c.088.113.166.221.248.33l.217.346c.145.227.283.449.424.676s.236.459.355.676.217.449.326.666c.086.227.174.443.258.66s.164.424.242.625.129.418.191.609c.1.4.236.768.3,1.119s.139.682.2.975c.113.59.145,1.059.191,1.379s.063.49.063.49,0-.17.01-.49c0-.166.01-.361.016-.6a6.06,6.06,0,0,0-.016-.809c-.025-.3-.051-.641-.078-1.012s-.117-.754-.186-1.172c-.041-.207-.072-.428-.123-.65s-.129-.443-.191-.676-.135-.471-.211-.707c-.094-.238-.191-.48-.289-.723a13.774,13.774,0,0,0-1.668-3,13.149,13.149,0,0,0-2.734-2.725,15.611,15.611,0,0,0-1.719-1.115c-.314-.154-.629-.3-.943-.453l-.48-.223-.5-.17c-.336-.109-.672-.227-1.012-.342-.342-.076-.687-.158-1.037-.242-.17-.041-.346-.088-.521-.123l-.537-.072-1.078-.15-1.037-.041-.512-.016-.129,0-.062-.006-.035.006h-.062l-.268.01c-.707.01-1.408.078-2.105.145a24.535,24.535,0,0,0-3.979.887,25.668,25.668,0,0,0-3.52,1.414,26.988,26.988,0,0,0-2.941,1.678c-.443.279-.842.578-1.238.852-.377.279-.729.563-1.064.82-.654.537-1.207,1.021-1.641,1.445-.459.408-.768.764-1,1l-.34.35c.031-.02.166-.129.387-.3.258-.2.629-.5,1.115-.846.48-.361,1.084-.764,1.775-1.234.7-.453,1.5-.943,2.4-1.434.449-.232.914-.49,1.414-.717.49-.248,1.006-.475,1.539-.7a29.985,29.985,0,0,1,3.441-1.191,25.672,25.672,0,0,1,3.8-.732c.656-.057,1.316-.119,1.977-.119l.248-.006Zm-12.369,38.322.443-1.637a.854.854,0,0,1,.779-.613.457.457,0,0,1,.449.613l-.443,1.637a.86.86,0,0,1-.779.619A.461.461,0,0,1-17779.764,20553.207Zm-1.92-5.439,1.213-4.525h-12.494l1.166-4.35,14.559-14.766h6.926l-13.324,13.82h4.793l1.074-4.02h6.316l-1.074,4.02h7.639l-.187.691h-3.209l-.223.842h3.211l-.186.7h-5.229l-.221.836h5.221l-.186.7h-1.961l-.221.836h1.961l-.186.7h-7.648l-1.207,4.525Zm23.289-11.73a.455.455,0,0,1-.449-.613.86.86,0,0,1,.779-.619h1.637a.458.458,0,0,1,.449.619.866.866,0,0,1-.779.613Zm-33.939,0a.458.458,0,0,1-.449-.613.862.862,0,0,1,.779-.619h1.641a.461.461,0,0,1,.449.619.866.866,0,0,1-.779.613Zm28.355-1.062,1.09-4.076c.293-1.084,0-1.625-.867-1.625a1.907,1.907,0,0,0-1.27.469,2.69,2.69,0,0,0-.811,1.4l-1.021,3.828h-2.781l2.91-10.848h2.775l-.98,3.654a4.183,4.183,0,0,1,1.24-.641,4.351,4.351,0,0,1,1.377-.221,2.507,2.507,0,0,1,2.137.877,3.027,3.027,0,0,1,.191,2.646l-1.213,4.531Zm-6.687-15.7.439-1.635a.852.852,0,0,1,.779-.615.455.455,0,0,1,.447.615l-.437,1.635a.864.864,0,0,1-.779.619A.457.457,0,0,1-17770.666,20519.271Z" transform="translate(17815.148 -20509.137)" stroke="rgba(0,0,0,0)" stroke-width="1" fill="url(#linear-gradient)"/>
</svg>
