<svg xmlns="http://www.w3.org/2000/svg" xmlns:xlink="http://www.w3.org/1999/xlink" width="53.707" height="53.52" viewBox="0 0 53.707 53.52">
  <defs>
    <linearGradient id="linear-gradient" x1="0.025" y1="0.976" x2="0.999" y2="0.001" gradientUnits="objectBoundingBox">
      <stop offset="0" stop-color="#9e30f1"/>
      <stop offset="1" stop-color="#580092"/>
    </linearGradient>
  </defs>
  <path id="dangtintuyendung" d="M-17907.748,20538.26a36.414,36.414,0,0,1,7.16-13.031l1.113,1.65a28.49,28.49,0,0,0-6.709,11.381c-3.309,11.189,2.684,20.252,13.377,20.252s22.043-9.062,25.352-20.252-2.684-20.252-13.377-20.252a25.171,25.171,0,0,0-14.936,5.533l-1.461-1.838c6.354-5.924,14.492-9.7,22.352-9.7,13.873,0,21.635,11.758,17.352,26.26s-19.008,26.26-32.875,26.26S-17912.031,20552.762-17907.748,20538.26Zm28.2-20.764c.51.012.98.072,1.475.125a15.19,15.19,0,0,1,5.879,2,12.811,12.811,0,0,1,4.543,4.713,15.078,15.078,0,0,1,1.842,6.549,20.906,20.906,0,0,1-.785,6.859,28.75,28.75,0,0,1-2.605,6.25,30.867,30.867,0,0,1-3.664,5.191c-.32.4-.672.754-1.012,1.109s-.666.723-1.021,1.043-.691.656-1.027.971c-.352.3-.7.588-1.043.871-.17.145-.34.289-.506.424s-.346.258-.521.387c-.34.254-.676.5-1.006.744-.682.438-1.3.893-1.936,1.248a28.76,28.76,0,0,1-3.35,1.713c-.484.2-.914.383-1.291.533s-.711.242-.975.33c-.471.16-.748.252-.811.273.063-.012.346-.082.826-.2.273-.072.613-.145,1.006-.254s.842-.273,1.342-.437a28.2,28.2,0,0,0,3.494-1.518c.66-.326,1.326-.744,2.055-1.152.34-.227.7-.459,1.059-.707.18-.117.365-.242.551-.365s.352-.273.537-.408a31.012,31.012,0,0,0,4.371-3.937,29.243,29.243,0,0,0,3.943-5.27,28.344,28.344,0,0,0,2.828-6.482,22.166,22.166,0,0,0,.873-7.3,16.284,16.284,0,0,0-2.055-7.1,13.75,13.75,0,0,0-5.059-5.09,15.733,15.733,0,0,0-6.367-1.98c-.533-.037-1.074-.084-1.564-.078-.258,0-.48-.01-.764,0-.248.01-.5.025-.748.031a23.285,23.285,0,0,0-2.834.387,24.118,24.118,0,0,0-4.738,1.486,27.944,27.944,0,0,0-3.4,1.734c-.9.541-1.58,1.021-2.033,1.352-.336.242-.559.408-.646.48.094-.057.326-.2.688-.424.48-.293,1.191-.7,2.121-1.182a26.772,26.772,0,0,1,8.145-2.693,21.874,21.874,0,0,1,2.74-.248h.717c.035,0,.072,0,.109,0C-17879.975,20517.475-17879.75,20517.492-17879.547,20517.5Zm-12.625,38.074.439-1.637a.864.864,0,0,1,.779-.613.454.454,0,0,1,.449.613l-.439,1.637a.857.857,0,0,1-.773.619A.462.462,0,0,1-17892.172,20555.57Zm-.9-3.686c-.217-.031-.449-.062-.707-.1a5.613,5.613,0,0,1-.826-.145c-.295-.078-.6-.16-.93-.242-.314-.125-.645-.258-.99-.393s-.67-.361-1.027-.547c-.35-.2-.67-.475-1.021-.723-.32-.289-.645-.594-.955-.924-.145-.176-.289-.352-.434-.537a4.032,4.032,0,0,1-.406-.568c-.125-.2-.248-.406-.373-.613a5.25,5.25,0,0,1-.314-.65c-.1-.223-.217-.443-.295-.676s-.148-.471-.227-.707l-.107-.361c-.031-.119-.053-.242-.078-.367l-.145-.742c-.078-.5-.094-1-.139-1.508.016-.506.01-1.016.045-1.518.068-.5.1-1,.2-1.49.113-.486.2-.967.33-1.451.119-.449.268-.918.434-1.367a20.2,20.2,0,0,1,2.385-4.594,22.051,22.051,0,0,1,2-2.488l-5.979-8.9-1.156,1.332.037-4.93,4.572,1.307-1.549.795,13.641,17.336a2.39,2.39,0,0,1,.471-.047,1.788,1.788,0,0,1,.855.207l11.168-7.6-.918-.732,4.531-.93-2.42,4.188-.32-1.178-11.23,8.9a3.7,3.7,0,0,1-3.174,2.766c-1.229,0-1.967-1.053-1.76-2.426l-3.4-5.057c-.193.2-.406.424-.629.686a11.437,11.437,0,0,0-1.332,1.914,9.939,9.939,0,0,0-.572,1.188,9.806,9.806,0,0,0-.424,1.307,7.612,7.612,0,0,0-.232,1.346c-.025.227-.016.449-.031.672.016.221.012.443.041.66a6.236,6.236,0,0,0,.248,1.219c.053.2.135.371.2.547s.154.334.236.49a5.724,5.724,0,0,0,.531.8,5.725,5.725,0,0,0,.506.543c.145.145.285.236.367.309l.135.109-.145-.094a4.67,4.67,0,0,1-.393-.283,4.854,4.854,0,0,1-.562-.506,5.827,5.827,0,0,1-.619-.77c-.1-.148-.191-.314-.289-.484-.082-.182-.186-.357-.258-.553a6.333,6.333,0,0,1-.373-1.27c-.051-.223-.066-.455-.1-.691-.012-.232-.037-.475-.031-.717a8.8,8.8,0,0,1,.113-1.461,11.483,11.483,0,0,1,.33-1.426,11.1,11.1,0,0,1,.506-1.342,12.6,12.6,0,0,1,1.26-2.2c.293-.41.576-.758.82-1.041l-.559-.83a17.1,17.1,0,0,0-2.131,2.676,16.293,16.293,0,0,0-1.207,2.281c-.094.217-.166.428-.258.645s-.166.471-.229.682c-.061.232-.123.465-.186.707l-.1.355-.066.367-.125.744c-.02.252-.035.5-.057.758,0,.129-.02.258-.025.387l.016.387a6.406,6.406,0,0,0,.047.775,7.922,7.922,0,0,0,.912,3,7.061,7.061,0,0,0,2.055,2.369,8.286,8.286,0,0,0,2.809,1.254,8.96,8.96,0,0,0,1.48.217,9.065,9.065,0,0,0,1.436.016,12.223,12.223,0,0,0,2.605-.449,15.336,15.336,0,0,0,3.654-1.568c.412-.244.732-.455.943-.6l.332-.227s-.115.082-.32.242-.518.371-.93.635a15.474,15.474,0,0,1-3.623,1.719,12.721,12.721,0,0,1-2.637.557,8.9,8.9,0,0,1-1.482.037,9.226,9.226,0,0,1-1.547-.16,8.689,8.689,0,0,1-3.029-1.229,7.6,7.6,0,0,1-2.328-2.482,8.751,8.751,0,0,1-1.121-3.225,7.657,7.657,0,0,1-.076-.842l-.031-.418c-.006-.141.006-.279.01-.418.006-.273.016-.553.025-.826.037-.268.072-.537.109-.8l.051-.4.088-.381c.063-.258.119-.512.176-.764.072-.27.135-.48.217-.729s.16-.484.248-.713a17.422,17.422,0,0,1,1.2-2.486,18.257,18.257,0,0,1,2.365-3.168l-.437-.65a21.416,21.416,0,0,0-1.738,1.959,18.921,18.921,0,0,0-2.471,4.15c-.166.4-.326.811-.48,1.27-.135.418-.248.877-.377,1.322-.113.453-.176.918-.264,1.377-.061.465-.082.939-.129,1.408.021.471.006.945.057,1.414l.094.7c.016.119.025.232.051.346l.084.342c.057.227.113.449.17.67s.164.434.236.645a6.485,6.485,0,0,0,.264.631c.109.2.211.4.314.594a3.254,3.254,0,0,0,.357.557c.123.176.252.352.375.531.279.32.568.631.857.92.32.252.609.535.934.748s.635.428.961.582.645.3.943.439c.316.1.615.2.9.289a6.648,6.648,0,0,0,.8.191c.252.045.484.092.7.133.852.072,1.336.109,1.336.109S-17892.217,20551.906-17893.074,20551.885Zm3.85-13.119c-.273,1.037.227,1.879,1.125,1.879a2.48,2.48,0,0,0,2.137-1.879c.279-1.043-.227-1.885-1.125-1.885A2.483,2.483,0,0,0-17889.225,20538.766Zm18.42-.367a.455.455,0,0,1-.449-.613.856.856,0,0,1,.779-.615h1.637a.455.455,0,0,1,.449.615.854.854,0,0,1-.779.613Zm-33.939,0a.458.458,0,0,1-.449-.613.862.862,0,0,1,.779-.615h1.643a.455.455,0,0,1,.449.615.86.86,0,0,1-.779.613Zm21.666-16.762.439-1.637a.868.868,0,0,1,.779-.619.458.458,0,0,1,.449.619l-.439,1.637a.852.852,0,0,1-.779.613A.457.457,0,0,1-17883.078,20521.637Z" transform="translate(17909.492 -20511.5)" stroke="rgba(0,0,0,0)" stroke-width="1" fill="url(#linear-gradient)"/>
</svg>
