<svg xmlns="http://www.w3.org/2000/svg" width="48" height="48" viewBox="0 0 48 48">
    <defs>
        <clipPath id="clip-path">
            <path id="Rectangle_2175" fill="#492b7c" stroke="#707070" d="M0 0H48V48H0z" transform="translate(33 473)"/>
        </clipPath>
        <style>
            .cls-3{fill:#492b7c}
        </style>
    </defs>
    <g id="Mask_Group_64" clip-path="url(#clip-path)" transform="translate(-33 -473)">
        <g id="balloons" transform="translate(35.972 473)">
            <path id="Path_13423" d="M28 19.208a3.168 3.168 0 0 1-3.235 3.235A3.168 3.168 0 0 1 28 25.678a3.168 3.168 0 0 1 3.235-3.235A3.168 3.168 0 0 1 28 19.208z" class="cls-3" transform="translate(10.817 9.099)"/>
            <path id="Path_13424" d="M8.8 25.274a3.168 3.168 0 0 1-3.24 3.235 3.168 3.168 0 0 1 3.24 3.235 3.168 3.168 0 0 1 3.235-3.235A3.168 3.168 0 0 1 8.8 25.274z" class="cls-3" transform="translate(-.708 12.738)"/>
            <path id="Path_13425" d="M9 4.751a3.168 3.168 0 0 1-3.238-3.235 3.168 3.168 0 0 1-3.235 3.235 3.168 3.168 0 0 1 3.235 3.236A3.168 3.168 0 0 1 9 4.751z" class="cls-3" transform="translate(-2.527 -1.516)"/>
            <path id="Path_13426" d="M16 14.13l-.249 1.655h1.354l-.249-1.655c-.143.011-.283.037-.428.037s-.285-.026-.428-.037z" class="cls-3" transform="translate(5.407 6.052)"/>
            <path id="Path_13427" d="M9.46 8.505a7.3 7.3 0 0 0-4.353 9.333c1.592 4.35 6.83 8.7 10.439 7.384 2.754-1.005 4.02-5.056 3.9-8.677a14.222 14.222 0 0 1-4.9-7.99 7.209 7.209 0 0 0-5.09-.05z" class="cls-3" transform="translate(-1.241 2.413)"/>
            <path id="Path_13428" d="M26.184 9.3a7.279 7.279 0 1 0-14.558 0c0 4.634 3.427 10.514 7.279 10.514s7.279-5.879 7.279-10.514z" class="cls-3" transform="translate(2.932 -1.213)"/>
            <path id="Path_13429" d="M13.157 21.093l-.8-1.463c-.13.059-.256.124-.391.173s-.274.091-.412.129l.328 1.623z" class="cls-3" transform="translate(2.89 9.352)"/>
            <path id="Path_13430" d="M33.246 15.811a7.265 7.265 0 0 0-9.892-9.082c0 .053.008.1.008.157a15.176 15.176 0 0 1-4.337 10.1c.366 2.543 1.526 5.4 3.779 6.216 3.62 1.314 8.849-3.039 10.442-7.391z" class="cls-3" transform="translate(7.371 1.202)"/>
            <path id="Path_13431" d="M21.9 17.906q-.207-.057-.412-.129c-.136-.049-.266-.106-.4-.162l-.788 1.456 1.273.463z" class="cls-3" transform="translate(8.136 8.143)"/>
            <path id="Path_13432" d="M26.1 21.958l-6.68 18.755-.76-.275-.76.283-5.865-15.528 1.52-.55 4.295 11.363V16.175h1.618v19.588l5.119-14.356z" class="cls-3" transform="translate(3.177 7.279)"/>
        </g>
    </g>
</svg>
