<svg xmlns="http://www.w3.org/2000/svg" width="48" height="48" viewBox="0 0 48 48">
    <defs>
        <clipPath id="clip-path">
            <path id="Rectangle_2179" fill="#fff" stroke="#707070" d="M0 0H48V48H0z" transform="translate(177 1024)"/>
        </clipPath>
        <style>
            .cls-3{fill:#fff}
        </style>
    </defs>
    <g id="Mask_Group_67" clip-path="url(#clip-path)" transform="translate(-177 -1024)">
        <g id="ramen1" transform="translate(177 1024.015)">
            <path id="Path_13449" d="M1.88 26.978A4.713 4.713 0 0 1 9.887 24.2a4.531 4.531 0 0 1 .928 1.33 4.4 4.4 0 0 1 .412 1.457h1.078a7.6 7.6 0 0 0-1.227-2.637 7.361 7.361 0 0 0-.886-1.058A8.2 8.2 0 0 0 8.2 21.823c-2.454-1.285-5.184-1.061-6.8.555a5.205 5.205 0 0 0-1.3 4.6zm0 0" class="cls-3" transform="translate(0 -3.004)"/>
            <path id="Path_13450" d="M7.63 25.158a2.972 2.972 0 0 0-3.406 2.41h5.885a2.8 2.8 0 0 0-.239-.719A2.831 2.831 0 0 0 9.279 26a2.95 2.95 0 0 0-1.65-.84zm0 0" class="cls-3" transform="translate(-.603 -3.593)"/>
            <path id="Path_13451" d="M16.008 53.971h20.567v1.714H16.008zm0 0" class="cls-3" transform="translate(-2.287 -7.715)"/>
            <path id="Path_13452" d="M.074 33.975A17.213 17.213 0 0 0 12.982 49.4h22.067a17.212 17.212 0 0 0 12.907-15.425zm1.994 1.941l1.677-.353a14.064 14.064 0 0 0 .478 1.714l-1.618.565a15.5 15.5 0 0 1-.538-1.927zM9.86 46.352a15.421 15.421 0 0 1-6.513-6.759l1.536-.76a13.713 13.713 0 0 0 5.8 6.012zm0 0" class="cls-3" transform="translate(-.01 -4.858)"/>
            <path id="Path_13453" d="M22.577 14.533a6.992 6.992 0 0 0-.39-2.485 8.8 8.8 0 0 1-.467-2.993 9.362 9.362 0 0 1 .171-1.909l-1.659-.038a6.975 6.975 0 0 0-.226 1.947 6.992 6.992 0 0 0 .39 2.485 8.8 8.8 0 0 1 .467 3 8.8 8.8 0 0 1-.467 3 6.994 6.994 0 0 0-.39 2.485 7.028 7.028 0 0 0 .39 2.49A8.624 8.624 0 0 1 20.853 25h1.714a6.882 6.882 0 0 0-.377-1.979 8.8 8.8 0 0 1-.467-3 8.8 8.8 0 0 1 .467-3 7.019 7.019 0 0 0 .387-2.489zm0 0" class="cls-3" transform="translate(-2.858 -1.02)"/>
            <path id="Path_13454" d="M16.008 4.858l5.789.135a5.973 5.973 0 0 0 .174-1.013h-5.963zm0 0" class="cls-3" transform="translate(-2.287 -.573)"/>
            <path id="Path_13455" d="M12.548 20.326a4.554 4.554 0 0 0-.842.463 10.317 10.317 0 0 1 1.371 1.135 9.288 9.288 0 0 1 .646.717 4.691 4.691 0 0 1 3.421.075c-.02-.257-.033-.541-.033-.857 0-.4.018-.739.047-1.048a5.127 5.127 0 0 0-4.611-.485zm0 0" class="cls-3" transform="translate(-1.672 -2.86)"/>
            <path id="Path_13456" d="M18.454 27.514a6.454 6.454 0 0 0-.272-1.635 3 3 0 0 0-2.955-1.079 9 9 0 0 1 .991 2.712zm0 0" class="cls-3" transform="translate(-2.175 -3.539)"/>
            <path id="Path_13457" d="M32 19.57a7.026 7.026 0 0 0 .39 2.489 8.629 8.629 0 0 1 .457 2.486h1.714v-.058q-.015-.28-.044-.514a.154.154 0 0 0-.006-.053c-.021-.162-.047-.308-.076-.448l-.017-.081c-.03-.133-.062-.257-.1-.383l-.022-.077c-.036-.122-.073-.241-.112-.365a8.8 8.8 0 0 1-.467-3 8.793 8.793 0 0 1 .467-3 7.014 7.014 0 0 0 .39-2.485 7 7 0 0 0-.39-2.486 8.8 8.8 0 0 1-.473-2.988 8.783 8.783 0 0 1 .467-3c.033-.106.065-.21.1-.315l.023-.08c.031-.105.06-.212.085-.323l.007-.025c.026-.114.051-.235.072-.362l.017-.1c.017-.114.033-.235.045-.364 0-.02 0-.037.006-.056h-1.709a8.693 8.693 0 0 1-.435 2.142A7 7 0 0 0 32 8.608a6.992 6.992 0 0 0 .39 2.485 8.8 8.8 0 0 1 .467 3 8.8 8.8 0 0 1-.467 3A6.99 6.99 0 0 0 32 19.57zm0 0" class="cls-3" transform="translate(-4.572 -.573)"/>
            <path id="Path_13458" d="M51.894 26.866l1.878-2.195-5.211-4.464-5.7 6.659zm0 0" class="cls-3" transform="translate(-6.123 -2.891)"/>
            <path id="Path_13459" d="M36.01 22.262a6.732 6.732 0 0 0 .326 2.034 4.655 4.655 0 0 1 6.22-.745l1.122-1.311a6.393 6.393 0 0 0-7.668.021zm0 0" class="cls-3" transform="translate(-5.144 -3.001)"/>
            <path id="Path_13460" d="M37.054 27.548h2.724l1.807-2.112a2.938 2.938 0 0 0-1.575-.459 2.994 2.994 0 0 0-2.956 2.571zm0 0" class="cls-3" transform="translate(-5.293 -3.573)"/>
            <path id="Path_13461" d="M20.573 29.976H.011v1.714H48v-1.714zm0 0" class="cls-3" transform="translate(-.001 -4.287)"/>
            <path id="Path_13462" d="M36.736 5.284l16.512.391V3.981H36.933a8.164 8.164 0 0 1-.2 1.3zm0 0" class="cls-3" transform="translate(-5.248 -.573)"/>
            <path id="Path_13463" d="M16.008 1.7h34.279V.005L16.008.822zm0 0" class="cls-3" transform="translate(-2.287 -.005)"/>
            <path id="Path_13464" d="M24.006 19.57a7.026 7.026 0 0 0 .39 2.489c.042.136.085.279.128.428.007.025.015.049.021.074q.063.224.119.481l.021.1c.036.171.069.364.1.572a.9.9 0 0 0 .012.105c.026.222.047.458.058.725v.008h1.714a6.879 6.879 0 0 0-.377-1.979 8.8 8.8 0 0 1-.467-3 8.783 8.783 0 0 1 .467-3 7.024 7.024 0 0 0 .39-2.485 6.992 6.992 0 0 0-.39-2.485 8.794 8.794 0 0 1-.469-2.992 8.783 8.783 0 0 1 .467-3 7 7 0 0 0 .354-1.628h-1.711a.17.17 0 0 1-.006.054q-.026.311-.064.577c-.006.038-.013.073-.018.11q-.038.232-.086.434l-.017.079c-.034.148-.071.286-.109.418l-.034.118c-.035.121-.071.238-.106.351a7 7 0 0 0-.386 2.487 6.992 6.992 0 0 0 .39 2.485 8.8 8.8 0 0 1 .467 3 8.8 8.8 0 0 1-.467 3 6.99 6.99 0 0 0-.39 2.478zm0 0" class="cls-3" transform="translate(-3.429 -.573)"/>
            <path id="Path_13465" d="M28 19.57a7.026 7.026 0 0 0 .39 2.489 8.63 8.63 0 0 1 .457 2.486h1.714a6.879 6.879 0 0 0-.377-1.979 8.8 8.8 0 0 1-.467-3 8.793 8.793 0 0 1 .467-3 7.024 7.024 0 0 0 .39-2.485 7 7 0 0 0-.39-2.486 8.8 8.8 0 0 1-.469-2.988 8.783 8.783 0 0 1 .467-3 7 7 0 0 0 .354-1.628h-1.71a8.693 8.693 0 0 1-.435 2.142A7 7 0 0 0 28 8.608a6.992 6.992 0 0 0 .39 2.485 8.8 8.8 0 0 1 .467 3 8.8 8.8 0 0 1-.467 3A6.99 6.99 0 0 0 28 19.57zm0 0" class="cls-3" transform="translate(-4 -.573)"/>
        </g>
    </g>
</svg>
