<svg xmlns="http://www.w3.org/2000/svg" width="48" height="48" viewBox="0 0 48 48">
    <defs>
        <clipPath id="clip-path">
            <path id="Rectangle_2177" fill="#492b7c" stroke="#707070" d="M0 0H48V48H0z" transform="translate(129 476)"/>
        </clipPath>
        <style>
            .cls-3{fill:#492b7c}
        </style>
    </defs>
    <g id="Mask_Group_65" clip-path="url(#clip-path)" transform="translate(-129 -476)">
        <g id="drinking_1_" transform="translate(129 478.571)">
            <path id="Path_13433" d="M9.429 8.246a5.965 5.965 0 0 1-2.254 4.68l-.42.343a4.245 4.245 0 0 0-1.611 3.343v3.283a9.045 9.045 0 0 1 1.629.274 7.619 7.619 0 0 0 2.083.249 7.57 7.57 0 0 0 2.083-.249 9.067 9.067 0 0 1 2.494-.3 9.044 9.044 0 0 1 2.486.3 7.458 7.458 0 0 0 1.226.214v-3.772a4.245 4.245 0 0 0-1.611-3.343l-.42-.343a5.965 5.965 0 0 1-2.254-4.68V6.429H9.429z" class="cls-3" transform="translate(1.714 -1.286)"/>
            <path id="Path_13434" d="M7.286 3.857h3.429v3.429H7.286z" class="cls-3" transform="translate(3.857 -3.857)"/>
            <path id="Path_13435" d="M49.714 23.571h-48v.857A2.579 2.579 0 0 0 4.286 27h42.857a2.579 2.579 0 0 0 2.571-2.571z" class="cls-3" transform="translate(-1.714 15.857)"/>
            <path id="Path_13436" d="M16.286 14.794a8.579 8.579 0 0 1 1.346.231 7.629 7.629 0 0 0 3.591 0 8.1 8.1 0 0 1 2.2-.266 8 8 0 0 1 2.2.266 7.812 7.812 0 0 0 .943.171v-2.767h-10.28z" class="cls-3" transform="translate(12.857 4.714)"/>
            <path id="Path_13437" d="M16.286 16.611a7.7 7.7 0 0 0 1.914 5.083l.463.531a7.7 7.7 0 0 1 1.911 5.083v3.669h1.714v-3.686a7.756 7.756 0 0 1 1.92-5.1l.446-.5a7.714 7.714 0 0 0 1.92-5.091v-1.7a8.579 8.579 0 0 1-1.346-.231 7.667 7.667 0 0 0-3.6 0 9.229 9.229 0 0 1-4.4 0 7.811 7.811 0 0 0-.943-.171z" class="cls-3" transform="translate(12.857 6.737)"/>
            <path id="Path_13438" d="M5.143 31.424h12V14.529a9.045 9.045 0 0 1-1.629-.274 7.668 7.668 0 0 0-2.083-.249 7.692 7.692 0 0 0-2.091.249 9.044 9.044 0 0 1-2.486.3 9.044 9.044 0 0 1-2.486-.3 7.457 7.457 0 0 0-1.226-.214z" class="cls-3" transform="translate(1.714 6.291)"/>
        </g>
    </g>
</svg>
