<svg xmlns="http://www.w3.org/2000/svg" width="48" height="48" viewBox="0 0 48 48">
    <defs>
        <clipPath id="iqmrgq35pa">
            <path fill="#492b7c" stroke="#707070" d="M0 0H48V48H0z" transform="translate(219 473)"/>
        </clipPath>
    </defs>
    <g clip-path="url(#iqmrgq35pa)" transform="translate(-219 -473)">
        <path fill="#492b7c" d="M25.562 34.041a.484.484 0 0 1-.347-.141.456.456 0 0 1-.147-.337v-1.919a.456.456 0 0 1 .147-.337.478.478 0 0 1 .347-.143h11.865a.478.478 0 0 1 .347.143.456.456 0 0 1 .147.337v1.919a.456.456 0 0 1-.147.337.484.484 0 0 1-.347.141zm.494-3.356a.486.486 0 0 1-.347-.143.456.456 0 0 1-.147-.337v-7.2a.454.454 0 0 1 .147-.337.478.478 0 0 1 .347-.143h10.88a.478.478 0 0 1 .347.143.454.454 0 0 1 .147.337v7.2a.456.456 0 0 1-.147.337.486.486 0 0 1-.347.143zm4.1-2.256a.46.46 0 0 0 0 .674.478.478 0 0 0 .347.143h1.977a.478.478 0 0 0 .347-.143.46.46 0 0 0 0-.674.478.478 0 0 0-.347-.143h-1.968a.478.478 0 0 0-.353.141zm-13.7-2.686l-2.956.477s-.492-1.935 0-2.5l1.514-.48c-2.521-3.5-7.648-9.449-7.648-9.449C4.354 14.469 2.007 12.67 0 9.495c3.661 1.1 7.2 2.419 10.089-.725s.028-3.67 20.748-3.67c0 0-2.347.2.141 2.61h3.368a4.527 4.527 0 0 1-1.058-2.889 4.818 4.818 0 1 1 9.635 0 4.535 4.535 0 0 1-1.053 2.885h2.541c5.5 0-3.667 10.669-3.667 10.669H24.261s10.077-10.669 0-10.669h-1.807S7.512 8.943 16.6 23.163l1.466 1.437h2.676v.889a10.354 10.354 0 0 1-3.1.733 1.3 1.3 0 0 1-1.182-.478zm19.58-20.925a2.074 2.074 0 0 0 4.145 0 2.074 2.074 0 0 0-4.145 0zM24.289 21.93v-2.667H40.32l-1.606 2.666zm22.338-11.183V8.242H48v2.505zM.444 4.818A4.747 4.747 0 0 1 5.263.139a4.749 4.749 0 0 1 4.818 4.677 4.749 4.749 0 0 1-4.818 4.679A4.751 4.751 0 0 1 .444 4.818zm2.748 0a2.041 2.041 0 0 0 2.067 2.007 2.043 2.043 0 0 0 2.074-2.007A2.046 2.046 0 0 0 5.259 2.81a2.041 2.041 0 0 0-2.067 2.008z" transform="rotate(180 133.5 257.01)"/>
    </g>
</svg>
