<svg xmlns="http://www.w3.org/2000/svg" width="48" height="48" viewBox="0 0 48 48">
    <defs>
        <clipPath id="lsgxohzgla">
            <path fill="#492b7c" stroke="#707070" d="M0 0H48V48H0z" transform="translate(312 473)"/>
        </clipPath>
    </defs>
    <g clip-path="url(#lsgxohzgla)" transform="translate(-312 -473)">
        <path fill="#492b7c" d="M40.572 49.375H5.986l-1.47-.432-1-.724a4.712 4.712 0 0 1-1.742-3.644 4.8 4.8 0 0 1 3.09-4.44A4.856 4.856 0 0 1 0 35.347a4.724 4.724 0 0 1 1.834-3.7l6.482-9.964H33.45l7.122 8.5v2.864H37.74l2.7 4.926v1.81h1.77v2.13h-1.638v5.326h1.638v2.144zm-36.614-4.8a2.7 2.7 0 0 0 2.728 2.662h31.7v-5.324h-31.7a2.7 2.7 0 0 0-2.728 2.662zm-1.774-9.23a2.7 2.7 0 0 0 2.728 2.664h31.2v-4.97H3.578a2.646 2.646 0 0 0-1.394 2.308zm37.964-10.386l-1.826 1.1.162-3 1.326.068.454-8.444-4.094 1.88.1-1.81A31.444 31.444 0 0 0 24 10.891a29.538 29.538 0 0 0-12.434 2.684l-.054 1.036-7.04-3.56L24.14 1.375l14.108 8.6a.648.648 0 0 1 .33-.268c3.6-1.424 2.826 1.612 2.826 1.612l-.03.564 2.138 1.292-2.266 1.042-.48 8.958 1.432.074-.162 3zm-1.13-11.878a.932.932 0 1 0 .982-.86h-.048a.922.922 0 0 0-.936.862zm.294-2.462l1.13.688c.014-.294.026-.494.03-.566.016-.3-.114-.418-.3-.426h-.032a2.018 2.018 0 0 0-.83.306zm-15.62 7.726a34.942 34.942 0 0 0-11.2 1.818L12.8 14.2a26.4 26.4 0 0 1 11.156-2.422 28.2 28.2 0 0 1 11 3.46l-.326 6.054a34.8 34.8 0 0 0-10.94-2.942z" transform="translate(314.244 471.625)"/>
    </g>
</svg>
