<svg id="Group_22427" data-name="Group 22427" xmlns="http://www.w3.org/2000/svg" width="98.111" height="50" viewBox="0 0 98.111 50">
  <path id="Path_35334" data-name="Path 35334" d="M0,8,5,0H35l5,8H10l5,8H35l-5,8H20l5,8-5,8Z" fill="#ff8500" fill-rule="evenodd"/>
  <g id="Group_22425" data-name="Group 22425" transform="translate(26.719)">
    <path id="Path_35335" data-name="Path 35335" d="M497.279,163.088a12,12,0,1,1-12,12,12,12,0,0,1,12-12Zm0,5a7,7,0,1,0,7,7A7,7,0,0,0,497.279,168.087Z" transform="translate(-464.386 -147.087)" fill="#fff" fill-rule="evenodd"/>
    <path id="Path_35336" data-name="Path 35336" d="M767.378,16a12,12,0,1,1-12,12h0V8l2.5-4,2.5-4V18.253a11.944,11.944,0,0,1,7-2.253Zm0,5a7,7,0,0,0-7,7h0a7,7,0,1,0,7-7Z" transform="translate(-707.985)" fill="#fff" fill-rule="evenodd"/>
    <path id="Path_35337" data-name="Path 35337" d="M290.725,163.088l-5,8v16a5,5,0,0,1-10,0l-3.395,5.433a10,10,0,0,0,18.393-5.435v-24Z" transform="translate(-272.332 -147.087)" fill="#fff"/>
  </g>
  <g id="Group_22426" data-name="Group 22426" transform="translate(47.611 43.929)">
    <path id="Path_35338" data-name="Path 35338" d="M487.751,455.862l.009.017a1.32,1.32,0,0,1-.326.948,1.178,1.178,0,0,1-.883.328,1.145,1.145,0,0,1-.929-.414,1.8,1.8,0,0,1-.344-1.18v-1.174a1.8,1.8,0,0,1,.345-1.179,1.141,1.141,0,0,1,.928-.418,1.19,1.19,0,0,1,.886.32,1.322,1.322,0,0,1,.323.956l-.009.017h-.323a1.131,1.131,0,0,0-.233-.744.826.826,0,0,0-.644-.24.8.8,0,0,0-.682.33,1.577,1.577,0,0,0-.245.951v1.185a1.6,1.6,0,0,0,.245.963.8.8,0,0,0,.682.33.835.835,0,0,0,.644-.236,1.146,1.146,0,0,0,.233-.761Z" transform="translate(-485.278 -452.296)" fill="#fff"/>
    <path id="Path_35339" data-name="Path 35339" d="M516.1,454.645a1.57,1.57,0,0,1,.315-1.008,1.1,1.1,0,0,1,1.691,0,1.565,1.565,0,0,1,.316,1.01v.463a1.567,1.567,0,0,1-.315,1.012,1.11,1.11,0,0,1-1.693,0,1.566,1.566,0,0,1-.315-1.012Zm.352.467a1.394,1.394,0,0,0,.21.788.722.722,0,0,0,1.194,0,1.38,1.38,0,0,0,.213-.787v-.464a1.37,1.37,0,0,0-.213-.781.721.721,0,0,0-1.194,0,1.385,1.385,0,0,0-.21.781Zm1.136-3.033h.428l.006.015-.644.76h-.3Z" transform="translate(-513.077 -451.653)" fill="#fff"/>
    <path id="Path_35340" data-name="Path 35340" d="M557.62,466.877l.07.306h.017l.076-.306.676-2.357h.358l-.982,3.152h-.274l-.988-3.152h.361Z" transform="translate(-549.579 -462.874)" fill="#fff"/>
    <path id="Path_35341" data-name="Path 35341" d="M585.374,450.821h-.353v-.5h.353Zm0,4.05h-.353v-3.152h.353Z" transform="translate(-575.235 -450.073)" fill="#fff"/>
    <path id="Path_35342" data-name="Path 35342" d="M596.779,455.923a1.04,1.04,0,0,1-.833-.383,1.463,1.463,0,0,1-.323-.978v-.524a1.509,1.509,0,0,1,.325-.992.982.982,0,0,1,.782-.395.918.918,0,0,1,.769.353,1.505,1.505,0,0,1,.274.948v.345h-1.8v.262a1.274,1.274,0,0,0,.219.763.691.691,0,0,0,.591.3,1.017,1.017,0,0,0,.447-.091.926.926,0,0,0,.322-.259l.143.247a1.021,1.021,0,0,1-.369.292A1.243,1.243,0,0,1,596.779,455.923Zm-.05-2.963a.637.637,0,0,0-.54.3,1.3,1.3,0,0,0-.22.74h1.454v-.134a1.091,1.091,0,0,0-.183-.648A.591.591,0,0,0,596.729,452.96Zm.714-.883v.055h-.312l-.387-.484-.385.484h-.3v-.061l.562-.647h.253Zm-.472,4.7h-.416v-.5h.416Z" transform="translate(-584.796 -451.064)" fill="#fff"/>
    <path id="Path_35343" data-name="Path 35343" d="M623.537,466.9a.674.674,0,0,0,.481-.2.723.723,0,0,0,.207-.548h.309l.009.017a.95.95,0,0,1-.294.731,1.054,1.054,0,0,1-1.549-.095,1.619,1.619,0,0,1-.293-1v-.489a1.627,1.627,0,0,1,.293-1,.983.983,0,0,1,.838-.392.952.952,0,0,1,.727.307,1.107,1.107,0,0,1,.278.808l-.006.015h-.312a.873.873,0,0,0-.2-.6.628.628,0,0,0-.491-.223.643.643,0,0,0-.594.308,1.481,1.481,0,0,0-.187.778v.491a1.486,1.486,0,0,0,.187.783A.644.644,0,0,0,623.537,466.9Z" transform="translate(-608.953 -462.338)" fill="#fff"/>
    <path id="Path_35344" data-name="Path 35344" d="M661.5,456.324v.8h.548v.3H661.5v2.043a.8.8,0,0,0,.087.434.267.267,0,0,0,.23.128,1.082,1.082,0,0,0,.137-.009q.067-.009.151-.026l.047.268a.722.722,0,0,1-.182.057,1.187,1.187,0,0,1-.226.022.519.519,0,0,1-.438-.21,1.1,1.1,0,0,1-.159-.664v-2.043h-.437v-.3h.437v-.8Z" transform="translate(-643.5 -455.482)" fill="#fff"/>
    <path id="Path_35345" data-name="Path 35345" d="M682.3,464.3l-.23-.017a.541.541,0,0,0-.4.165,1,1,0,0,0-.236.453v2.237h-.349v-3.152h.309l.041.521a1.068,1.068,0,0,1,.293-.427.643.643,0,0,1,.427-.153.612.612,0,0,1,.111.01.564.564,0,0,1,.087.022Z" transform="translate(-661.871 -462.338)" fill="#fff"/>
    <path id="Path_35346" data-name="Path 35346" d="M696.85,465.33a1.571,1.571,0,0,1,.315-1.008,1.1,1.1,0,0,1,1.691,0,1.565,1.565,0,0,1,.316,1.01v.463a1.567,1.567,0,0,1-.315,1.012,1.11,1.11,0,0,1-1.693,0,1.567,1.567,0,0,1-.315-1.012Zm.353.467a1.394,1.394,0,0,0,.21.788.722.722,0,0,0,1.194,0,1.38,1.38,0,0,0,.213-.787v-.464a1.37,1.37,0,0,0-.213-.781.721.721,0,0,0-1.194,0,1.385,1.385,0,0,0-.21.781Z" transform="translate(-676.092 -462.338)" fill="#fff"/>
    <path id="Path_35347" data-name="Path 35347" d="M727.421,463.984l.029.521a1.051,1.051,0,0,1,.334-.428.808.808,0,0,1,.488-.151.751.751,0,0,1,.648.313,1.68,1.68,0,0,1,.226.974v1.923h-.352v-1.92a1.348,1.348,0,0,0-.157-.758.528.528,0,0,0-.457-.218.617.617,0,0,0-.449.176,1.09,1.09,0,0,0-.271.471v2.249h-.35v-3.152Z" transform="translate(-703.383 -462.338)" fill="#fff"/>
    <path id="Path_35348" data-name="Path 35348" d="M754.724,465.406a1.9,1.9,0,0,1,.271-1.075.854.854,0,0,1,.749-.4.834.834,0,0,1,.465.13,1,1,0,0,1,.331.369l.035-.44h.3v3.155a1.407,1.407,0,0,1-.283.938.994.994,0,0,1-.8.332,1.571,1.571,0,0,1-.4-.057,1.626,1.626,0,0,1-.38-.15l.1-.306a1.246,1.246,0,0,0,.318.141,1.282,1.282,0,0,0,.361.051.649.649,0,0,0,.556-.242,1.171,1.171,0,0,0,.181-.708v-.382a.961.961,0,0,1-.329.326.881.881,0,0,1-.452.114.869.869,0,0,1-.744-.371,1.649,1.649,0,0,1-.269-.989Zm.353.431a1.4,1.4,0,0,0,.184.763.614.614,0,0,0,.554.286.668.668,0,0,0,.428-.138.935.935,0,0,0,.277-.383V464.8a1.075,1.075,0,0,0-.27-.406.612.612,0,0,0-.43-.156.6.6,0,0,0-.556.323,1.673,1.673,0,0,0-.187.842Z" transform="translate(-728.288 -462.338)" fill="#fff"/>
    <path id="Path_35349" data-name="Path 35349" d="M799.687,465.837a1.661,1.661,0,0,1-.267.991.857.857,0,0,1-.735.37.933.933,0,0,1-.463-.111.911.911,0,0,1-.329-.32v1.582h-.35v-4.364h.294l.038.434a.991.991,0,0,1,.332-.364.9.9,0,0,1,1.212.275,1.919,1.919,0,0,1,.268,1.077Zm-.356-.429a1.662,1.662,0,0,0-.189-.842.607.607,0,0,0-.556-.326.615.615,0,0,0-.43.155,1.015,1.015,0,0,0-.264.4v1.591a.887.887,0,0,0,.268.375.67.67,0,0,0,.428.136.618.618,0,0,0,.555-.29,1.4,1.4,0,0,0,.188-.769Z" transform="translate(-766.906 -462.338)" fill="#fff"/>
    <path id="Path_35350" data-name="Path 35350" d="M826.667,452.217a1.052,1.052,0,0,1,.342-.411.829.829,0,0,1,.482-.146.746.746,0,0,1,.641.307,1.635,1.635,0,0,1,.224.957v1.946H828v-1.952a1.284,1.284,0,0,0-.156-.725.516.516,0,0,0-.447-.218.649.649,0,0,0-.449.167,1.065,1.065,0,0,0-.285.447v2.281h-.35v-4.545h.35Z" transform="translate(-792.857 -450.073)" fill="#fff"/>
    <path id="Path_35351" data-name="Path 35351" d="M856.705,456.521a1.012,1.012,0,0,1-.332.409.824.824,0,0,1-.484.144.753.753,0,0,1-.654-.336,1.854,1.854,0,0,1-.235-1.047v-1.83h.35V455.7a1.657,1.657,0,0,0,.15.82.48.48,0,0,0,.435.246.722.722,0,0,0,.488-.162.9.9,0,0,0,.27-.444v-2.3h.35v3.152h-.315Zm-.355-3.819h.428l.006.015-.644.76h-.3Z" transform="translate(-818.727 -452.215)" fill="#fff"/>
    <path id="Path_35352" data-name="Path 35352" d="M881.863,456.324v.8h.548v.3h-.548v2.043a.8.8,0,0,0,.088.434.267.267,0,0,0,.23.128,1.081,1.081,0,0,0,.137-.009c.045-.006.095-.015.151-.026l.047.268a.723.723,0,0,1-.182.057,1.189,1.189,0,0,1-.226.022.519.519,0,0,1-.438-.21,1.105,1.105,0,0,1-.159-.664v-2.043h-.437v-.3h.437v-.8Z" transform="translate(-842.241 -455.482)" fill="#fff"/>
    <path id="Path_35353" data-name="Path 35353" d="M914.551,463.984l.029.489a1,1,0,0,1,.332-.4.836.836,0,0,1,.487-.143.713.713,0,0,1,.481.168.98.98,0,0,1,.286.508,1.157,1.157,0,0,1,.331-.5.776.776,0,0,1,.517-.181.733.733,0,0,1,.642.336,1.86,1.86,0,0,1,.229,1.033v1.841h-.352v-1.847a1.548,1.548,0,0,0-.157-.816.508.508,0,0,0-.449-.236.541.541,0,0,0-.478.262,1.435,1.435,0,0,0-.21.658v1.978h-.35v-1.844a1.518,1.518,0,0,0-.162-.81.512.512,0,0,0-.45-.242.6.6,0,0,0-.444.167.964.964,0,0,0-.24.459v2.27h-.35v-3.152Z" transform="translate(-872.156 -462.338)" fill="#fff"/>
    <path id="Path_35354" data-name="Path 35354" d="M957.833,450.735a1.571,1.571,0,0,1,.315-1.008,1.1,1.1,0,0,1,1.691,0,1.564,1.564,0,0,1,.316,1.01v.463a1.567,1.567,0,0,1-.315,1.012,1.11,1.11,0,0,1-1.693,0,1.567,1.567,0,0,1-.315-1.012Zm1.978-1.894-.009.017h-.37l-.434-.5-.437.5h-.367l-.009-.017.656-.69h.315Zm-1.626,2.36a1.394,1.394,0,0,0,.21.788.722.722,0,0,0,1.195,0,1.38,1.38,0,0,0,.213-.787v-.464a1.37,1.37,0,0,0-.213-.781.721.721,0,0,0-1.195,0,1.385,1.385,0,0,0-.21.781Zm1.827-3.459h.39l-.457.676h-.283Z" transform="translate(-911.47 -447.743)" fill="#fff"/>
    <path id="Path_35355" data-name="Path 35355" d="M986.091,456.324v.8h.548v.3h-.548v2.043a.8.8,0,0,0,.087.434.267.267,0,0,0,.23.128,1.08,1.08,0,0,0,.137-.009q.067-.009.151-.026l.047.268a.721.721,0,0,1-.182.057,1.188,1.188,0,0,1-.226.022.519.519,0,0,1-.438-.21,1.1,1.1,0,0,1-.159-.664v-2.043H985.3v-.3h.437v-.8Z" transform="translate(-936.243 -455.482)" fill="#fff"/>
  </g>
</svg>
