<svg id="Group_22427" data-name="Group 22427" xmlns="http://www.w3.org/2000/svg" width="90.293" height="46.015" viewBox="0 0 90.293 46.015">
  <path id="Path_35334" data-name="Path 35334" d="M0,7.363,4.6,0H32.211l4.6,7.363H9.2l4.6,7.362H32.211l-4.6,7.362h-9.2l4.6,7.363-4.6,7.362Z" fill="#ff8500" fill-rule="evenodd"/>
  <g id="Group_22425" data-name="Group 22425" transform="translate(24.59)">
    <path id="Path_35335" data-name="Path 35335" d="M496.323,163.088a11.044,11.044,0,1,1-11.045,11.044,11.043,11.043,0,0,1,11.045-11.044Zm0,4.6a6.442,6.442,0,1,0,6.441,6.443A6.442,6.442,0,0,0,496.323,167.689Z" transform="translate(-466.051 -148.362)" fill="#6e00c2" fill-rule="evenodd"/>
    <path id="Path_35336" data-name="Path 35336" d="M766.422,14.726A11.044,11.044,0,1,1,755.377,25.77h0V7.363l2.3-3.682L759.979,0V16.8a10.992,10.992,0,0,1,6.443-2.073Zm0,4.6a6.442,6.442,0,0,0-6.443,6.443h0a6.442,6.442,0,1,0,6.443-6.443Z" transform="translate(-711.762)" fill="#6e00c2" fill-rule="evenodd"/>
    <path id="Path_35337" data-name="Path 35337" d="M289.259,163.088l-4.6,7.365v14.722a4.6,4.6,0,0,1-9.2,0l-3.124,5a9.2,9.2,0,0,0,16.927-5V163.088Z" transform="translate(-272.332 -148.362)" fill="#6e00c2"/>
  </g>
  <g id="Group_22426" data-name="Group 22426" transform="translate(43.817 40.428)">
    <path id="Path_35338" data-name="Path 35338" d="M487.554,455.617l.008.016a1.214,1.214,0,0,1-.3.873,1.084,1.084,0,0,1-.812.3,1.054,1.054,0,0,1-.855-.381,1.656,1.656,0,0,1-.316-1.086v-1.08a1.659,1.659,0,0,1,.318-1.085,1.05,1.05,0,0,1,.854-.385,1.1,1.1,0,0,1,.815.295,1.216,1.216,0,0,1,.3.88l-.008.016h-.3a1.041,1.041,0,0,0-.215-.685.76.76,0,0,0-.592-.221.737.737,0,0,0-.627.3,1.452,1.452,0,0,0-.225.875v1.09a1.473,1.473,0,0,0,.225.886.737.737,0,0,0,.627.3.768.768,0,0,0,.592-.217,1.055,1.055,0,0,0,.215-.7Z" transform="translate(-485.278 -452.335)" fill="#323232"/>
    <path id="Path_35339" data-name="Path 35339" d="M516.1,454.44a1.446,1.446,0,0,1,.29-.928,1.014,1.014,0,0,1,1.556,0,1.44,1.44,0,0,1,.291.929v.426a1.443,1.443,0,0,1-.29.932,1.021,1.021,0,0,1-1.558,0,1.442,1.442,0,0,1-.29-.932Zm.324.429a1.282,1.282,0,0,0,.193.726.665.665,0,0,0,1.1,0,1.27,1.27,0,0,0,.2-.724v-.427a1.261,1.261,0,0,0-.2-.719.664.664,0,0,0-1.1,0,1.274,1.274,0,0,0-.193.719Zm1.046-2.792h.394l.005.013-.593.7H517Z" transform="translate(-513.318 -451.687)" fill="#323232"/>
    <path id="Path_35340" data-name="Path 35340" d="M557.536,466.689l.064.282h.016l.07-.282.622-2.169h.33l-.9,2.9h-.252l-.909-2.9h.332Z" transform="translate(-550.136 -463.005)" fill="#323232"/>
    <path id="Path_35341" data-name="Path 35341" d="M585.345,450.782h-.324v-.456h.324Zm0,3.727h-.324v-2.9h.324Z" transform="translate(-576.015 -450.093)" fill="#323232"/>
    <path id="Path_35342" data-name="Path 35342" d="M596.686,455.565a.958.958,0,0,1-.767-.353,1.347,1.347,0,0,1-.3-.9v-.483a1.389,1.389,0,0,1,.3-.913.9.9,0,0,1,.72-.363.845.845,0,0,1,.708.325,1.386,1.386,0,0,1,.252.872v.318h-1.66v.241a1.172,1.172,0,0,0,.2.7.636.636,0,0,0,.544.28.937.937,0,0,0,.412-.084.854.854,0,0,0,.3-.238l.131.227a.94.94,0,0,1-.339.268A1.144,1.144,0,0,1,596.686,455.565Zm-.046-2.727a.586.586,0,0,0-.5.276,1.2,1.2,0,0,0-.2.681h1.338v-.123a1,1,0,0,0-.169-.6A.544.544,0,0,0,596.641,452.838Zm.657-.812v.051h-.287l-.357-.445-.354.445h-.279v-.056l.517-.6h.233Zm-.435,4.327h-.383V455.9h.383Z" transform="translate(-585.659 -451.092)" fill="#323232"/>
    <path id="Path_35343" data-name="Path 35343" d="M623.447,466.663a.62.62,0,0,0,.442-.182.665.665,0,0,0,.19-.5h.284l.008.016a.874.874,0,0,1-.271.673.97.97,0,0,1-1.425-.087,1.49,1.49,0,0,1-.269-.921v-.45a1.5,1.5,0,0,1,.269-.921.9.9,0,0,1,.771-.361.875.875,0,0,1,.669.283,1.018,1.018,0,0,1,.256.744l-.005.013h-.287a.8.8,0,0,0-.181-.551.578.578,0,0,0-.452-.205.591.591,0,0,0-.547.284,1.362,1.362,0,0,0-.172.716v.452a1.367,1.367,0,0,0,.172.72A.592.592,0,0,0,623.447,466.663Z" transform="translate(-610.025 -462.465)" fill="#323232"/>
    <path id="Path_35344" data-name="Path 35344" d="M661.439,456.324v.74h.5v.273h-.5v1.88a.738.738,0,0,0,.08.4.246.246,0,0,0,.212.118,1,1,0,0,0,.126-.008c.041-.005.088-.013.139-.024l.043.247a.664.664,0,0,1-.168.052,1.088,1.088,0,0,1-.208.02.478.478,0,0,1-.4-.193,1.016,1.016,0,0,1-.146-.611v-1.88h-.4v-.273h.4v-.74Z" transform="translate(-644.872 -455.549)" fill="#323232"/>
    <path id="Path_35345" data-name="Path 35345" d="M682.205,464.269l-.212-.016a.5.5,0,0,0-.373.152.92.92,0,0,0-.217.417v2.059h-.322v-2.9h.284l.038.48a.982.982,0,0,1,.27-.393.591.591,0,0,1,.393-.141.568.568,0,0,1,.1.009.519.519,0,0,1,.081.02Z" transform="translate(-663.402 -462.465)" fill="#323232"/>
    <path id="Path_35346" data-name="Path 35346" d="M696.85,465.218a1.446,1.446,0,0,1,.29-.928,1.014,1.014,0,0,1,1.556,0,1.439,1.439,0,0,1,.291.929v.426a1.443,1.443,0,0,1-.289.932,1.022,1.022,0,0,1-1.558,0,1.442,1.442,0,0,1-.29-.932Zm.324.429a1.283,1.283,0,0,0,.193.725.665.665,0,0,0,1.1,0,1.27,1.27,0,0,0,.2-.724v-.427a1.261,1.261,0,0,0-.2-.719.664.664,0,0,0-1.1,0,1.275,1.275,0,0,0-.193.719Z" transform="translate(-677.747 -462.465)" fill="#323232"/>
    <path id="Path_35347" data-name="Path 35347" d="M727.4,463.98l.027.48a.97.97,0,0,1,.307-.394.743.743,0,0,1,.449-.139.691.691,0,0,1,.6.288,1.546,1.546,0,0,1,.208.9v1.77h-.324v-1.767a1.241,1.241,0,0,0-.145-.7.486.486,0,0,0-.421-.2.567.567,0,0,0-.413.162,1,1,0,0,0-.249.433v2.07h-.322v-2.9Z" transform="translate(-705.273 -462.465)" fill="#323232"/>
    <path id="Path_35348" data-name="Path 35348" d="M754.724,465.288a1.752,1.752,0,0,1,.249-.989.786.786,0,0,1,.689-.373.767.767,0,0,1,.428.119.924.924,0,0,1,.3.339l.032-.4h.274v2.9a1.294,1.294,0,0,1-.26.863.914.914,0,0,1-.737.306,1.446,1.446,0,0,1-.369-.052,1.5,1.5,0,0,1-.35-.138l.089-.281a1.147,1.147,0,0,0,.292.13,1.183,1.183,0,0,0,.333.047.6.6,0,0,0,.512-.222,1.078,1.078,0,0,0,.166-.652v-.351a.888.888,0,0,1-.3.3.812.812,0,0,1-.416.1.8.8,0,0,1-.685-.342,1.516,1.516,0,0,1-.248-.91Zm.324.4a1.282,1.282,0,0,0,.169.7.564.564,0,0,0,.509.263.615.615,0,0,0,.394-.127.863.863,0,0,0,.255-.353v-1.437a.993.993,0,0,0-.248-.374.563.563,0,0,0-.4-.143.555.555,0,0,0-.512.3,1.54,1.54,0,0,0-.172.775Z" transform="translate(-730.395 -462.465)" fill="#323232"/>
    <path id="Path_35349" data-name="Path 35349" d="M799.516,465.685a1.529,1.529,0,0,1-.245.912.789.789,0,0,1-.677.34.86.86,0,0,1-.426-.1.838.838,0,0,1-.3-.295V468h-.322V463.98h.271l.035.4a.912.912,0,0,1,.306-.335.826.826,0,0,1,1.115.253,1.767,1.767,0,0,1,.247.991Zm-.327-.394a1.53,1.53,0,0,0-.174-.775.559.559,0,0,0-.512-.3.566.566,0,0,0-.4.142.936.936,0,0,0-.243.371v1.464a.817.817,0,0,0,.247.345.617.617,0,0,0,.394.125.569.569,0,0,0,.511-.267,1.287,1.287,0,0,0,.173-.708Z" transform="translate(-769.348 -462.465)" fill="#323232"/>
    <path id="Path_35350" data-name="Path 35350" d="M826.639,452.066a.968.968,0,0,1,.315-.378.762.762,0,0,1,.444-.134.687.687,0,0,1,.59.283,1.505,1.505,0,0,1,.206.881v1.791h-.325v-1.8a1.182,1.182,0,0,0-.143-.668.474.474,0,0,0-.411-.2.6.6,0,0,0-.413.154.982.982,0,0,0-.263.412v2.1h-.322v-4.183h.322Z" transform="translate(-795.524 -450.093)" fill="#323232"/>
    <path id="Path_35351" data-name="Path 35351" d="M856.569,456.217a.931.931,0,0,1-.306.377.758.758,0,0,1-.445.133.693.693,0,0,1-.6-.31,1.707,1.707,0,0,1-.216-.964v-1.684h.322v1.689a1.525,1.525,0,0,0,.138.755.442.442,0,0,0,.4.227.664.664,0,0,0,.449-.149.825.825,0,0,0,.248-.409v-2.113h.322v2.9h-.29Zm-.327-3.515h.394l.005.013-.592.7h-.276Z" transform="translate(-821.618 -452.254)" fill="#323232"/>
    <path id="Path_35352" data-name="Path 35352" d="M881.8,456.324v.74h.5v.273h-.5v1.88a.735.735,0,0,0,.081.4.246.246,0,0,0,.212.118,1,1,0,0,0,.126-.008c.041-.005.088-.013.139-.024l.043.247a.668.668,0,0,1-.168.052,1.088,1.088,0,0,1-.208.02.479.479,0,0,1-.4-.193,1.018,1.018,0,0,1-.146-.611v-1.88h-.4v-.273h.4v-.74Z" transform="translate(-845.336 -455.549)" fill="#323232"/>
    <path id="Path_35353" data-name="Path 35353" d="M914.526,463.98l.027.45a.926.926,0,0,1,.306-.373.77.77,0,0,1,.448-.131.656.656,0,0,1,.442.154.9.9,0,0,1,.263.468,1.064,1.064,0,0,1,.3-.456.714.714,0,0,1,.476-.166.675.675,0,0,1,.591.31,1.712,1.712,0,0,1,.21.951v1.695h-.324v-1.7a1.424,1.424,0,0,0-.145-.751.467.467,0,0,0-.413-.217.5.5,0,0,0-.44.241,1.321,1.321,0,0,0-.193.606v1.82h-.322v-1.7a1.4,1.4,0,0,0-.149-.745.471.471,0,0,0-.414-.222.553.553,0,0,0-.409.154.887.887,0,0,0-.221.422v2.089h-.322v-2.9Z" transform="translate(-875.51 -462.465)" fill="#323232"/>
    <path id="Path_35354" data-name="Path 35354" d="M957.833,450.5a1.446,1.446,0,0,1,.289-.928,1.014,1.014,0,0,1,1.556,0,1.439,1.439,0,0,1,.291.929v.426a1.441,1.441,0,0,1-.29.932,1.021,1.021,0,0,1-1.558,0,1.442,1.442,0,0,1-.289-.932Zm1.82-1.743-.008.016h-.34l-.4-.458-.4.458h-.338l-.008-.016.6-.635h.29Zm-1.5,2.172a1.283,1.283,0,0,0,.193.725.665.665,0,0,0,1.1,0,1.27,1.27,0,0,0,.2-.724V450.5a1.261,1.261,0,0,0-.2-.719.664.664,0,0,0-1.1,0,1.274,1.274,0,0,0-.193.719Zm1.681-3.183h.359l-.421.622h-.26Z" transform="translate(-915.165 -447.743)" fill="#323232"/>
    <path id="Path_35355" data-name="Path 35355" d="M986.028,456.324v.74h.5v.273h-.5v1.88a.736.736,0,0,0,.08.4.246.246,0,0,0,.212.118,1,1,0,0,0,.126-.008q.062-.008.139-.024l.043.247a.666.666,0,0,1-.168.052,1.087,1.087,0,0,1-.208.02.479.479,0,0,1-.4-.193,1.018,1.018,0,0,1-.146-.611v-1.88h-.4v-.273h.4v-.74Z" transform="translate(-940.153 -455.549)" fill="#323232"/>
  </g>
</svg>
