<svg xmlns="http://www.w3.org/2000/svg" width="70" height="70" viewBox="0 0 70 70">
  <g id="Group_28701" data-name="Group 28701" transform="translate(223 -9897)">
    <circle id="Ellipse_7849" data-name="Ellipse 7849" cx="35" cy="35" r="35" transform="translate(-223 9897)" fill="#fff"/>
    <g id="Group_28669" data-name="Group 28669" transform="translate(1031.829 -74.41)">
      <g id="Group_28319" data-name="Group 28319" transform="translate(-1241.829 9988.41)">
        <path id="Path_35334" data-name="Path 35334" d="M0,3.629,2.268,0H15.875l2.268,3.629H4.536L6.8,7.257h9.071l-2.268,3.628H9.071l2.268,3.629L9.071,18.142Z" fill="#838383" fill-rule="evenodd"/>
        <g id="Group_22425" data-name="Group 22425" transform="translate(12.118)">
          <path id="Path_35335" data-name="Path 35335" d="M490.721,163.088a5.443,5.443,0,1,1-5.443,5.443,5.442,5.442,0,0,1,5.443-5.443Zm0,2.267a3.175,3.175,0,1,0,3.174,3.175A3.175,3.175,0,0,0,490.721,165.355Z" transform="translate(-475.802 -155.831)" fill="#b5b5b5" fill-rule="evenodd"/>
          <path id="Path_35336" data-name="Path 35336" d="M760.82,7.257a5.443,5.443,0,1,1-5.443,5.443h0V3.629l1.134-1.814L757.645,0V8.279a5.417,5.417,0,0,1,3.175-1.022Zm0,2.267a3.175,3.175,0,0,0-3.175,3.175h0a3.175,3.175,0,1,0,3.175-3.175Z" transform="translate(-733.882)" fill="#b5b5b5" fill-rule="evenodd"/>
          <path id="Path_35337" data-name="Path 35337" d="M280.674,163.088l-2.268,3.63v7.256a2.267,2.267,0,0,1-4.534,0l-1.54,2.464a4.535,4.535,0,0,0,8.342-2.465V163.088Z" transform="translate(-272.332 -155.831)" fill="#b5b5b5"/>
        </g>
        <g id="Group_22426" data-name="Group 22426" transform="translate(21.594 19.924)">
          <path id="Path_35338" data-name="Path 35338" d="M486.4,454.184l0,.008a.6.6,0,0,1-.148.43.534.534,0,0,1-.4.149.519.519,0,0,1-.421-.188.816.816,0,0,1-.156-.535v-.533a.818.818,0,0,1,.157-.535.518.518,0,0,1,.421-.19.54.54,0,0,1,.4.145.6.6,0,0,1,.147.433l0,.008h-.147a.513.513,0,0,0-.106-.338.375.375,0,0,0-.292-.109.363.363,0,0,0-.309.15.715.715,0,0,0-.111.431v.537a.726.726,0,0,0,.111.437.363.363,0,0,0,.309.15.379.379,0,0,0,.292-.107.52.52,0,0,0,.106-.345Z" transform="translate(-485.278 -452.566)" fill="#fff"/>
          <path id="Path_35339" data-name="Path 35339" d="M516.1,453.242a.712.712,0,0,1,.143-.457.5.5,0,0,1,.767,0,.71.71,0,0,1,.143.458v.21a.711.711,0,0,1-.143.459.5.5,0,0,1-.768,0,.71.71,0,0,1-.143-.459Zm.16.212a.632.632,0,0,0,.1.358.328.328,0,0,0,.542,0,.626.626,0,0,0,.1-.357v-.211a.621.621,0,0,0-.1-.354.327.327,0,0,0-.542,0,.628.628,0,0,0-.1.354Zm.515-1.376h.194l0,.007-.292.345h-.136Z" transform="translate(-514.729 -451.885)" fill="#fff"/>
          <path id="Path_35340" data-name="Path 35340" d="M557.048,465.589l.032.139h.008l.034-.139.307-1.069h.163l-.445,1.43h-.124l-.448-1.43h.164Z" transform="translate(-553.401 -463.773)" fill="#fff"/>
          <path id="Path_35341" data-name="Path 35341" d="M585.181,450.551h-.16v-.225h.16Zm0,1.837h-.16v-1.43h.16Z" transform="translate(-580.583 -450.211)" fill="#fff"/>
          <path id="Path_35342" data-name="Path 35342" d="M596.147,453.465a.472.472,0,0,1-.378-.174.663.663,0,0,1-.147-.443v-.238a.685.685,0,0,1,.147-.45.445.445,0,0,1,.355-.179.416.416,0,0,1,.349.16.683.683,0,0,1,.124.43v.157h-.818v.119a.577.577,0,0,0,.1.346.313.313,0,0,0,.268.138.462.462,0,0,0,.2-.041.42.42,0,0,0,.146-.117l.065.112a.462.462,0,0,1-.167.132A.563.563,0,0,1,596.147,453.465Zm-.022-1.344a.289.289,0,0,0-.245.136.589.589,0,0,0-.1.336h.659v-.061a.494.494,0,0,0-.083-.294A.268.268,0,0,0,596.124,452.121Zm.324-.4v.025h-.141l-.176-.219-.174.219h-.137v-.028l.255-.293h.115Zm-.214,2.133h-.189v-.225h.189Z" transform="translate(-590.712 -451.261)" fill="#fff"/>
          <path id="Path_35343" data-name="Path 35343" d="M622.92,465.275a.306.306,0,0,0,.218-.09.328.328,0,0,0,.094-.248h.14l0,.008a.431.431,0,0,1-.133.332.478.478,0,0,1-.7-.043.734.734,0,0,1-.133-.454v-.222a.738.738,0,0,1,.133-.454.446.446,0,0,1,.38-.178.431.431,0,0,1,.33.139.5.5,0,0,1,.126.367l0,.007h-.141a.4.4,0,0,0-.089-.272.285.285,0,0,0-.223-.1.292.292,0,0,0-.27.14.672.672,0,0,0-.085.353v.223a.674.674,0,0,0,.085.355A.292.292,0,0,0,622.92,465.275Z" transform="translate(-616.305 -463.206)" fill="#fff"/>
          <path id="Path_35344" data-name="Path 35344" d="M661.07,456.324v.365h.248v.135h-.248v.927a.363.363,0,0,0,.04.2.121.121,0,0,0,.1.058.49.49,0,0,0,.062,0l.069-.012.021.122a.327.327,0,0,1-.083.026.537.537,0,0,1-.1.01.236.236,0,0,1-.2-.1.5.5,0,0,1-.072-.3v-.927h-.2v-.135h.2v-.365Z" transform="translate(-652.905 -455.942)" fill="#fff"/>
          <path id="Path_35345" data-name="Path 35345" d="M681.636,464.1l-.1-.008a.245.245,0,0,0-.184.075.453.453,0,0,0-.107.205v1.015h-.159v-1.43h.14l.019.237a.484.484,0,0,1,.133-.194.291.291,0,0,1,.194-.069.275.275,0,0,1,.05,0,.26.26,0,0,1,.04.01Z" transform="translate(-672.369 -463.206)" fill="#fff"/>
          <path id="Path_35346" data-name="Path 35346" d="M696.85,464.563a.712.712,0,0,1,.143-.457.5.5,0,0,1,.767,0,.709.709,0,0,1,.143.458v.21a.711.711,0,0,1-.143.459.5.5,0,0,1-.768,0,.71.71,0,0,1-.143-.459Zm.16.212a.632.632,0,0,0,.1.358.328.328,0,0,0,.542,0,.626.626,0,0,0,.1-.357v-.211a.621.621,0,0,0-.1-.354.327.327,0,0,0-.542,0,.628.628,0,0,0-.1.354Z" transform="translate(-687.435 -463.206)" fill="#fff"/>
          <path id="Path_35347" data-name="Path 35347" d="M727.25,463.952l.013.237a.477.477,0,0,1,.151-.194.367.367,0,0,1,.221-.069.34.34,0,0,1,.294.142.761.761,0,0,1,.1.442v.872h-.16v-.871a.611.611,0,0,0-.071-.344.24.24,0,0,0-.207-.1.28.28,0,0,0-.2.08.494.494,0,0,0-.123.213v1.02h-.159v-1.43Z" transform="translate(-716.348 -463.206)" fill="#fff"/>
          <path id="Path_35348" data-name="Path 35348" d="M754.724,464.6a.864.864,0,0,1,.123-.488.387.387,0,0,1,.34-.184.378.378,0,0,1,.211.059.455.455,0,0,1,.15.167l.016-.2h.135v1.431a.638.638,0,0,1-.128.425.451.451,0,0,1-.363.151.711.711,0,0,1-.182-.026.737.737,0,0,1-.172-.068l.044-.139a.566.566,0,0,0,.144.064.58.58,0,0,0,.164.023.294.294,0,0,0,.252-.11.531.531,0,0,0,.082-.321v-.173a.435.435,0,0,1-.149.148.4.4,0,0,1-.2.052.394.394,0,0,1-.338-.168.748.748,0,0,1-.122-.449Zm.16.2a.633.633,0,0,0,.083.346.278.278,0,0,0,.251.13.3.3,0,0,0,.194-.063.424.424,0,0,0,.125-.174v-.708a.488.488,0,0,0-.122-.184.278.278,0,0,0-.195-.071.274.274,0,0,0-.252.147.758.758,0,0,0-.085.382Z" transform="translate(-742.734 -463.206)" fill="#fff"/>
          <path id="Path_35349" data-name="Path 35349" d="M798.516,464.793a.753.753,0,0,1-.121.449.389.389,0,0,1-.334.168.423.423,0,0,1-.21-.05.413.413,0,0,1-.149-.145v.717h-.159v-1.979h.133l.017.2a.449.449,0,0,1,.151-.165.407.407,0,0,1,.55.125.87.87,0,0,1,.122.488Zm-.161-.194a.754.754,0,0,0-.086-.382.275.275,0,0,0-.252-.148.279.279,0,0,0-.195.07.46.46,0,0,0-.12.183v.722a.4.4,0,0,0,.122.17.3.3,0,0,0,.194.062.28.28,0,0,0,.252-.132.634.634,0,0,0,.085-.349Z" transform="translate(-783.648 -463.206)" fill="#fff"/>
          <path id="Path_35350" data-name="Path 35350" d="M826.476,451.184a.477.477,0,0,1,.155-.186.376.376,0,0,1,.219-.066.338.338,0,0,1,.291.139.742.742,0,0,1,.1.434v.883h-.16V451.5a.583.583,0,0,0-.071-.329.234.234,0,0,0-.2-.1.294.294,0,0,0-.2.076.482.482,0,0,0-.129.2v1.035h-.159v-2.061h.159Z" transform="translate(-811.141 -450.211)" fill="#fff"/>
          <path id="Path_35351" data-name="Path 35351" d="M855.774,454.434a.459.459,0,0,1-.151.186.374.374,0,0,1-.219.065.341.341,0,0,1-.3-.153.841.841,0,0,1-.106-.475v-.83h.159v.832a.752.752,0,0,0,.068.372.218.218,0,0,0,.2.112.328.328,0,0,0,.221-.073.407.407,0,0,0,.122-.2v-1.041h.159v1.43h-.143Zm-.161-1.732h.194l0,.007-.292.345h-.136Z" transform="translate(-838.549 -452.481)" fill="#fff"/>
          <path id="Path_35352" data-name="Path 35352" d="M881.431,456.324v.365h.248v.135h-.248v.927a.363.363,0,0,0,.04.2.121.121,0,0,0,.1.058.49.49,0,0,0,.062,0l.069-.012.021.122a.328.328,0,0,1-.083.026.538.538,0,0,1-.1.01.235.235,0,0,1-.2-.1.5.5,0,0,1-.072-.3v-.927h-.2v-.135h.2v-.365Z" transform="translate(-863.461 -455.942)" fill="#fff"/>
          <path id="Path_35353" data-name="Path 35353" d="M914.382,463.952l.013.222a.457.457,0,0,1,.151-.184.38.38,0,0,1,.221-.065.323.323,0,0,1,.218.076.445.445,0,0,1,.13.231.524.524,0,0,1,.15-.225.352.352,0,0,1,.235-.082.332.332,0,0,1,.291.153.843.843,0,0,1,.1.468v.835h-.16v-.838a.7.7,0,0,0-.071-.37.23.23,0,0,0-.2-.107.245.245,0,0,0-.217.119.65.65,0,0,0-.1.3v.9h-.159v-.836a.689.689,0,0,0-.073-.367.233.233,0,0,0-.2-.11.272.272,0,0,0-.2.076.437.437,0,0,0-.109.208v1.029h-.159v-1.43Z" transform="translate(-895.154 -463.206)" fill="#fff"/>
          <path id="Path_35354" data-name="Path 35354" d="M957.833,449.1a.712.712,0,0,1,.143-.457.5.5,0,0,1,.767,0,.709.709,0,0,1,.143.458v.21a.71.71,0,0,1-.143.459.5.5,0,0,1-.768,0,.71.71,0,0,1-.143-.459Zm.9-.859,0,.008h-.168l-.2-.226-.2.226H958l0-.008.3-.313h.143Zm-.737,1.071a.632.632,0,0,0,.1.358.328.328,0,0,0,.542,0,.626.626,0,0,0,.1-.357V449.1a.621.621,0,0,0-.1-.354.327.327,0,0,0-.542,0,.628.628,0,0,0-.1.354Zm.828-1.569H959l-.207.307h-.128Z" transform="translate(-936.805 -447.743)" fill="#fff"/>
          <path id="Path_35355" data-name="Path 35355" d="M985.659,456.324v.365h.248v.135h-.248v.927a.363.363,0,0,0,.04.2.121.121,0,0,0,.1.058.489.489,0,0,0,.062,0l.069-.012.021.122a.327.327,0,0,1-.083.026.538.538,0,0,1-.1.01.236.236,0,0,1-.2-.1.5.5,0,0,1-.072-.3v-.927h-.2v-.135h.2v-.365Z" transform="translate(-963.051 -455.942)" fill="#fff"/>
        </g>
      </g>
      <text id="KHÁCH_HÀNG_FJOB" data-name="KHÁCH HÀNG FJOB" transform="translate(-1219.829 10023.41)" fill="#838383" font-size="6" font-family="Roboto-Medium, Roboto" font-weight="500"><tspan x="-26.875" y="0">KHÁCH HÀNG FJOB</tspan></text>
    </g>
  </g>
</svg>
