<svg xmlns="http://www.w3.org/2000/svg" width="9.023" height="14" viewBox="0 0 9.023 14">
  <path id="color/achievements" d="M255.207,181.436a.41.41,0,0,0-.41-.41h-8.2a.41.41,0,0,0,0,.821H247v4.539a.411.411,0,0,0,.227.367l2.915,1.457-.575,1.15-1.692-.1a.41.41,0,0,0-.367.635l.934,1.414-.934,1.415a.41.41,0,0,0,.367.635l1.691-.1.759,1.542a.411.411,0,0,0,.736,0l.759-1.542,1.69.1a.41.41,0,0,0,.367-.635l-.934-1.415.934-1.414a.41.41,0,0,0-.367-.635l-1.692.1-.574-1.15,2.914-1.457a.412.412,0,0,0,.228-.367v-4.539h.41a.41.41,0,0,0,.41-.41Zm-5.742.41h2.46v3.272l-1.23.615-1.23-.615Zm2.134,8.347,1.144-.068-.632.956a.412.412,0,0,0,0,.452l.632.956-1.144-.068a.41.41,0,0,0-.393.228l-.511,1.038-.511-1.038a.41.41,0,0,0-.393-.228l-1.144.068.631-.956a.409.409,0,0,0,0-.452l-.631-.956,1.144.068a.41.41,0,0,0,.391-.226l.513-1.025.512,1.025A.411.411,0,0,0,251.6,190.194Zm1.967-4.062-2.871,1.435-2.871-1.435v-4.286h.82v3.525a.41.41,0,0,0,.227.367l1.641.821a.415.415,0,0,0,.368,0l1.641-.821a.411.411,0,0,0,.227-.367v-3.525h.82Z" transform="translate(-246.184 -181.026)" fill="#ff8500"/>
</svg>
