<!-- Generated by IcoMoon.io -->
<svg version="1.1" xmlns="http://www.w3.org/2000/svg" width="1163" height="1024" viewBox="0 0 1163 1024">
<title></title>
<g id="icomoon-ignore">
</g>
<path fill="#6e00c2" stroke="#6e00c2" stroke-linejoin="miter" stroke-linecap="butt" stroke-miterlimit="4" stroke-width="24.9787" d="M188.464 1011.573c-2.145 0.092-4.661 0.145-7.19 0.145-46.275 0-88.439-17.606-120.157-46.484l0.143 0.129c-30.232-30.277-48.929-72.080-48.929-118.25 0-2.556 0.057-5.099 0.171-7.627l-0.013 0.359c0-20.358 0.749-40.153 1.686-59.012 1.832-24.028 4.689-45.633 8.641-66.853l-0.585 3.782c4.284-24.566 9.787-45.906 16.776-66.56l-0.915 3.115c7.295-22.777 16.1-42.427 26.767-60.865l-0.789 1.478c10.916-19.668 23.888-36.561 38.984-51.288l0.045-0.044c15.952-14.783 34.772-26.743 55.496-34.925l1.206-0.42c20.678-8.348 44.657-13.192 69.767-13.192 0.851 0 1.701 0.006 2.55 0.017l-0.129-0.001c14.993 1.747 28.345 7.682 39.158 16.589l-0.129-0.103c12.052 7.806 25.728 16.923 40.965 26.352 15.152 9.331 32.626 17.255 51.105 22.874l1.6 0.418c19.134 6.572 41.181 10.367 64.115 10.367 0.138 0 0.276 0 0.414 0h-0.021c0.038 0 0.083 0 0.128 0 22.982 0 45.077-3.794 65.694-10.79l-1.439 0.424c20.090-6.098 37.559-14.017 53.722-23.869l-1.017 0.576 27.914-17.922c-6.53 22.649-10.733 48.819-11.662 75.82l-0.015 0.552c-14.221 7.296-31.133 14.243-48.657 19.817l-2.424 0.666c-24.525 8.354-52.777 13.176-82.156 13.176-0.009 0-0.017 0-0.026 0h0.001c-0.013 0-0.029 0-0.045 0-29.544 0-57.962-4.822-84.51-13.721l1.875 0.545c-25.251-7.588-47.244-17.682-67.472-30.335l1.153 0.673c-14.987-9.742-28.913-18.734-40.965-26.352-6.245-3.997-9.742-6.245-11.365-6.932-16.66 0.008-32.585 3.146-47.221 8.859l0.885-0.304c-14.61 5.843-27.169 13.75-38.019 23.518l0.114-0.101c-10.828 11.099-20.324 23.578-28.18 37.127l-0.483 0.903c-8.187 13.778-15.35 29.699-20.659 46.445l-0.448 1.639c-4.961 14.87-9.823 33.649-13.555 52.831l-0.496 3.059c-3.013 15.889-5.519 35.456-6.955 55.32l-0.102 1.756c-1.311 17.548-1.936 36.094-1.936 55.015-0.149 2.119-0.234 4.592-0.234 7.085 0 29.627 12.023 56.445 31.456 75.842l0.002 0.002c20.987 18.818 48.868 30.323 79.437 30.323 2.569 0 5.119-0.081 7.647-0.241l-0.345 0.018h481.401c2.056 0.125 4.46 0.197 6.881 0.197 30.699 0 58.714-11.489 79.98-30.403l-0.122 0.107c5.189-5.082 9.855-10.66 13.933-16.669l0.243-0.379c16.68 6.411 36.314 11.675 56.63 14.891l1.695 0.221c-8.213 17.36-19.084 32.124-32.265 44.448l-0.082 0.076c-31.309 28.75-73.237 46.372-119.282 46.372-2.655 0-5.295-0.059-7.921-0.174l0.374 0.013zM611.228 606.981c0.141-148.895 120.664-269.593 269.479-270.019h0.041c148.913 0.284 269.52 121.067 269.52 270.019 0 0 0 0 0 0v0c-0.142 148.757-120.748 269.297-269.517 269.332h-0.003c-148.741-0.142-269.298-120.611-269.582-269.305v-0.027zM665.868 606.981c0.107 118.631 96.247 214.772 214.869 214.879h0.010c118.66-0.035 214.843-96.219 214.879-214.875v-0.004c0-0.056 0-0.122 0-0.188 0-118.737-96.167-215.013-214.862-215.191h-0.017c-118.755 0.213-214.941 96.532-214.941 215.316 0 0.022 0 0.044 0 0.066v-0.003zM853.208 726.13v-91.859h-98.915c-14.987-0.208-27.081-12.302-27.289-27.269v-0.020c0.071-15.065 12.282-27.254 27.348-27.289h98.918v-106.721c0.175-15.044 12.36-27.185 27.404-27.289h0.010c0.019 0 0.041 0 0.063 0 15.071 0 27.289 12.218 27.289 27.289 0 0.022 0 0.044 0 0.066v-0.003 106.721h99.29c0.019 0 0.041 0 0.063 0 15.071 0 27.289 12.218 27.289 27.289 0 0.022 0 0.044 0 0.066v-0.003c-0.105 15.042-12.253 27.211-27.276 27.352h-99.303v91.859c-0.105 15.042-12.253 27.211-27.276 27.352h-0.013c-15.139-0.174-27.365-12.4-27.539-27.522v-0.017zM252.659 423.014c-43.59-42.083-70.657-101.035-70.657-166.309 0-1.313 0.011-2.623 0.033-3.93l-0.003 0.197c-0.018-1.067-0.028-2.326-0.028-3.588 0-65.397 27.060-124.474 70.594-166.645l0.061-0.059c42.16-43.444 101.097-70.405 166.33-70.405 1.261 0 2.521 0.010 3.777 0.030l-0.19-0.002c1.1-0.019 2.397-0.029 3.696-0.029 65.317 0 124.338 26.957 166.544 70.353l0.052 0.054c43.524 42.346 70.527 101.481 70.527 166.923 0 1.185-0.009 2.367-0.026 3.547l0.002-0.179c0.016 1.022 0.025 2.227 0.025 3.435 0 65.343-27.008 124.378-70.47 166.551l-0.058 0.056c-42.21 43.522-101.23 70.532-166.559 70.532-1.313 0-2.623-0.011-3.93-0.033l0.197 0.003c-0.909 0.013-1.983 0.020-3.058 0.020-65.355 0-124.396-27.032-166.552-70.525l-0.058-0.060zM293.749 124.456c-32.915 31.681-53.36 76.115-53.36 125.324 0 1.144 0.011 2.286 0.033 3.424l-0.003-0.171c-0.017 0.917-0.027 1.998-0.027 3.082 0 49.341 20.437 93.908 53.308 125.699l0.049 0.047c31.843 32.956 76.434 53.418 125.805 53.418 1.063 0 2.123-0.009 3.182-0.028l-0.159 0.002c1 0.021 2.18 0.032 3.362 0.032 49.266 0 93.75-20.47 125.413-53.369l0.053-0.056c33.027-31.784 53.543-76.366 53.543-125.739 0-1.064-0.010-2.125-0.028-3.185l0.002 0.159c0.021-1.009 0.033-2.199 0.033-3.391 0-49.202-20.527-93.609-53.485-125.125l-0.065-0.062c-31.627-33.098-76.116-53.674-125.412-53.674-1.179 0-2.355 0.012-3.529 0.035l0.176-0.003c-0.922-0.018-2.010-0.028-3.1-0.028-49.393 0-93.982 20.569-125.669 53.608l-0.058 0.061z"></path>
</svg>
