<svg xmlns="http://www.w3.org/2000/svg" width="12.012" height="12.012" viewBox="0 0 12.012 12.012">
  <path id="thoigianhuy" d="M-17425.123,20886.012a1.871,1.871,0,0,1-1.877-1.877v-7.318a1.884,1.884,0,0,1,1.877-1.879h.582v-.477a.462.462,0,0,1,.469-.461.464.464,0,0,1,.471.461v.477h2.1v-.477a.473.473,0,0,1,.488-.461.459.459,0,0,1,.449.461v.477h2.148v-.477a.468.468,0,0,1,.461-.461.472.472,0,0,1,.479.461v.477h.609a1.884,1.884,0,0,1,1.877,1.879v4.98a.462.462,0,0,1-.461.461.464.464,0,0,1-.477-.461v-4.98a.935.935,0,0,0-.939-.939h-.609v.459a.476.476,0,0,1-.479.48.473.473,0,0,1-.461-.48v-.459h-2.148v.459a.464.464,0,0,1-.449.48.477.477,0,0,1-.488-.48v-.459h-2.1v.459a.468.468,0,0,1-.471.48.467.467,0,0,1-.469-.48v-.459h-.582a.93.93,0,0,0-.939.939v7.318a.936.936,0,0,0,.939.939h8.258a.941.941,0,0,0,.939-.939.457.457,0,0,1,.477-.459.454.454,0,0,1,.461.459,1.871,1.871,0,0,1-1.877,1.877Zm5.611-2.543a.93.93,0,0,1-.937-.92v-1.115a.941.941,0,0,1,.938-.939h1.1a.954.954,0,0,1,.939.939v1.115a.944.944,0,0,1-.939.92Zm0-.92h1.1v-1.115h-1.1Zm-2.984.459a.455.455,0,0,1,.461-.459.458.458,0,0,1,.477.459.469.469,0,0,1-.477.461A.467.467,0,0,1-17422.5,20883.008Zm-2.045,0a.456.456,0,0,1,.469-.459.457.457,0,0,1,.471.459.469.469,0,0,1-.471.461A.467.467,0,0,1-17424.541,20883.008Zm2.045-2.045a.47.47,0,0,1,.461-.469.472.472,0,0,1,.477.469.472.472,0,0,1-.477.471A.47.47,0,0,1-17422.5,20880.963Zm-2.045,0a.47.47,0,0,1,.469-.469.472.472,0,0,1,.471.469.472.472,0,0,1-.471.471A.471.471,0,0,1-17424.541,20880.963Zm6.127-2.045a.474.474,0,0,1,.461-.461.477.477,0,0,1,.479.461.48.48,0,0,1-.479.477A.477.477,0,0,1-17418.414,20878.918Zm-2.035,0a.465.465,0,0,1,.449-.461.478.478,0,0,1,.488.461.481.481,0,0,1-.488.477A.468.468,0,0,1-17420.449,20878.918Zm-2.047,0a.467.467,0,0,1,.461-.461.469.469,0,0,1,.477.461.472.472,0,0,1-.477.477A.47.47,0,0,1-17422.5,20878.918Zm-2.045,0a.467.467,0,0,1,.469-.461.469.469,0,0,1,.471.461.472.472,0,0,1-.471.477A.471.471,0,0,1-17424.541,20878.918Z" transform="translate(17427 -20874)" fill="#ff8500"/>
</svg>
