<svg xmlns="http://www.w3.org/2000/svg" width="19.182" height="16" viewBox="0 0 19.182 16">
  <path id="icon_edu" d="M18.808,46.746a.562.562,0,0,0,0-1.059L9.778,42.5a.562.562,0,0,0-.374,0L.375,45.687a.562.562,0,0,0,0,1.059L3.95,48.018v3.666c0,.605.631,1.117,1.876,1.521a12.565,12.565,0,0,0,3.765.546,12.565,12.565,0,0,0,3.765-.546c1.245-.4,1.876-.916,1.876-1.521V48.018l1.477-.525v5.08a1.69,1.69,0,0,0,0,3.188v2.146a.562.562,0,0,0,1.124,0V55.761a1.69,1.69,0,0,0,0-3.188V47.093ZM17.27,54.733a.567.567,0,1,1,.567-.567A.567.567,0,0,1,17.27,54.733ZM9.591,43.627l7.346,2.592L9.591,48.83,2.245,46.219ZM14.108,51.6a3.471,3.471,0,0,1-1.364.617,11.849,11.849,0,0,1-3.153.411,11.849,11.849,0,0,1-3.153-.411A3.47,3.47,0,0,1,5.074,51.6V48.417L9.4,49.956a.562.562,0,0,0,.376,0l4.328-1.539V51.6Z" transform="translate(0 -42.469)" fill="#ff8500"/>
</svg>
