<svg xmlns="http://www.w3.org/2000/svg" width="16.354" height="14.668" viewBox="0 0 16.354 14.668">
  <g id="Group_13458" data-name="Group 13458" transform="translate(0.179 -26.837)">
    <path id="Path_14440" data-name="Path 14440" d="M431.683,194.088l0,.008a.312.312,0,0,0,.607-.147l0-.01a.312.312,0,1,0-.607.15Z" transform="translate(-418.184 -161.473)" fill="#ff8500" stroke="#ff8500" stroke-width="0.35"/>
    <path id="Path_14441" data-name="Path 14441" d="M127.552,216.647a.313.313,0,0,0-.4.2,3.191,3.191,0,0,0,1.377,3.748.312.312,0,0,0,.323-.535,2.566,2.566,0,0,1-1.107-3.014A.312.312,0,0,0,127.552,216.647Z" transform="translate(-123.022 -183.687)" fill="#ff8500" stroke="#ff8500" stroke-width="0.35"/>
    <path id="Path_14442" data-name="Path 14442" d="M187.348,154.789a2.566,2.566,0,0,1,2.649.537.312.312,0,1,0,.428-.455,3.191,3.191,0,0,0-3.295-.667.312.312,0,0,0,.218.586Z" transform="translate(-181.085 -123.018)" fill="#ff8500" stroke="#ff8500" stroke-width="0.35"/>
    <path id="Path_14443" data-name="Path 14443" d="M15.688,34.268H13.337v-.646a.571.571,0,0,0-.57-.57h-.419a5.312,5.312,0,0,0-6.145-4.1.312.312,0,1,0,.112.615,4.688,4.688,0,0,1,5.392,3.489H10a.571.571,0,0,0-.57.57v.646H7.08a.313.313,0,0,0-.312.312V36.5a1.109,1.109,0,0,0,.3.759v1.6a4.688,4.688,0,0,1-4.5-5.626.312.312,0,1,0-.612-.125,5.312,5.312,0,0,0,5.117,6.375v1.132a.712.712,0,0,0,.005.087A6.532,6.532,0,0,1,1.449,31L2.5,32.055a.312.312,0,0,0,.221.092H4.69l1.927,1.927a.312.312,0,0,0,.442-.442L5.132,31.705V29.74a.312.312,0,0,0-.092-.221L3.983,28.464a6.535,6.535,0,0,1,9.1,2.966.312.312,0,0,0,.567-.263A7.159,7.159,0,0,0,3.524,28.007l-.9-.9a.312.312,0,0,0-.533.221V29.1H.316a.312.312,0,0,0-.221.533l.9.9A7.156,7.156,0,0,0,7.156,41.329h7.831a.714.714,0,0,0,.713-.713v-3.36a1.105,1.105,0,0,0,.3-.76V34.58A.312.312,0,0,0,15.688,34.268ZM2.717,28.084l1.79,1.786v1.209l-1.79-1.794Zm-.442,1.643,1.79,1.8H2.855l-1.787-1.8Zm7.781,3.95h2.656v.591H10.056Zm5.019,6.94a.088.088,0,0,1-.088.088H7.777a.088.088,0,0,1-.085-.088V37.594a1.116,1.116,0,0,0,.188.016h2.577a.933.933,0,0,0,1.852,0l2.576,0h0a1.126,1.126,0,0,0,.188-.016V39.2H13.024a.312.312,0,0,0,0,.625h2.051Zm-4-3.118v-.549h.616V37.5a.308.308,0,0,1-.616,0Zm4.156-.657a.485.485,0,0,1-.345.143h0l-2.57,0V36.7a.373.373,0,0,0-.373-.373H10.823a.373.373,0,0,0-.373.373v.288H7.881a.489.489,0,0,1-.488-.488v-1.6h7.983v1.6h0A.485.485,0,0,1,15.232,36.842Z" transform="translate(0 0)" fill="#ff8500" stroke="#ff8500" stroke-width="0.35"/>
    <path id="Path_14444" data-name="Path 14444" d="M358.1,416.982a.313.313,0,1,0,.221.092A.315.315,0,0,0,358.1,416.982Z" transform="translate(-346.605 -377.778)" fill="#ff8500" stroke="#ff8500" stroke-width="0.35"/>
  </g>
</svg>
