<svg xmlns="http://www.w3.org/2000/svg" width="15.999" height="13.339" viewBox="0 0 15.999 13.339">
  <g id="Group_14398" data-name="Group 14398" transform="translate(-33.196 -387.035)">
    <path id="Path_18351" data-name="Path 18351" d="M33.2,389.941a4.055,4.055,0,0,1,.239-.636,1.792,1.792,0,0,1,1.65-.939q1.617,0,3.233,0h.2c.007-.1.013-.176.019-.257a1.154,1.154,0,0,1,1.152-1.072q1.484,0,2.968,0a1.158,1.158,0,0,1,1.208,1.145c0,.052.005.1.009.176.062,0,.122.008.182.008,1.082,0,2.166,0,3.248,0a1.821,1.821,0,0,1,1.788,1.23,1.9,1.9,0,0,1,.1.595q.01,4.179,0,8.356a1.838,1.838,0,0,1-1.785,1.825c-.047,0-.094,0-.141,0H35.117a1.843,1.843,0,0,1-1.892-1.507.226.226,0,0,0-.029-.052Zm5.31-.567H35.087a.833.833,0,0,0-.891.9v8.184a.835.835,0,0,0,.891.9q6.108,0,12.215,0a.834.834,0,0,0,.893-.9q0-4.093,0-8.185a.834.834,0,0,0-.9-.9H44.042c-.055,0-.11,0-.17.007l-.008.154a1.163,1.163,0,0,1-1.206,1.167c-.427.006-.854,0-1.282,0-.593,0-1.187.009-1.779-.013a1.114,1.114,0,0,1-1.023-.846A4.086,4.086,0,0,1,38.506,389.375Zm2.673.321h1.453c.181,0,.224-.042.224-.219q0-.608,0-1.217c0-.17-.053-.224-.224-.224H39.759c-.171,0-.224.054-.224.224q0,.609,0,1.218c0,.178.042.218.223.219Z" fill="#ff8500"/>
    <path id="Path_18352" data-name="Path 18352" d="M45.086,395.5c.6,0,1.2,0,1.795,0a.512.512,0,0,1,.511.38.486.486,0,0,1-.23.548.664.664,0,0,1-.3.075c-1.2,0-9.736.005-10.933,0a.5.5,0,0,1-.539-.5.51.51,0,0,1,.554-.505C36.546,395.5,44.488,395.5,45.086,395.5Z" transform="translate(-0.209 -0.804)" fill="#ff8500"/>
    <path id="Path_18353" data-name="Path 18353" d="M45.06,399.458c-.6,0-8.54,0-9.138,0a.5.5,0,0,1-.455-.766.463.463,0,0,1,.351-.231,1.047,1.047,0,0,1,.14-.01c1.181,0,9.7,0,10.886,0a.7.7,0,0,1,.313.072.487.487,0,0,1,.235.547.51.51,0,0,1-.507.385C46.278,399.46,45.669,399.458,45.06,399.458Z" transform="translate(-0.208 -1.084)" fill="#ff8500"/>
    <path id="Path_18354" data-name="Path 18354" d="M45.077,392.56h1.795a.5.5,0,1,1,0,1H35.926a.5.5,0,0,1-.532-.507.494.494,0,0,1,.529-.491C36.527,392.559,44.474,392.56,45.077,392.56Z" transform="translate(-0.209 -0.525)" fill="#ff8500"/>
  </g>
</svg>
