<svg xmlns="http://www.w3.org/2000/svg" width="14.076" height="15.217" viewBox="0 0 14.076 15.217">
  <g id="Group_14254" data-name="Group 14254" transform="translate(0.6 0.6)">
    <path id="Path_18260" data-name="Path 18260" d="M1195.853-983.759h3.4a1.272,1.272,0,0,1,1.269,1.269v12.748h-5.934V-982.49A1.272,1.272,0,0,1,1195.853-983.759Z" transform="translate(-1188.683 983.759)" fill="none" stroke="#ff8500" stroke-linecap="round" stroke-linejoin="round" stroke-width="1.2" fill-rule="evenodd"/>
    <path id="Path_18261" data-name="Path 18261" d="M1157.581-947.036l-4.513,2.591c-.181.1-.381.171-.381.381v6.755h4.894Z" transform="translate(-1151.68 951.326)" fill="none" stroke="#ff8500" stroke-linecap="round" stroke-linejoin="round" stroke-width="1.2" fill-rule="evenodd"/>
    <line id="Line_597" data-name="Line 597" x2="1.484" transform="translate(2.712 9.163)" fill="none" stroke="#ff8500" stroke-linecap="round" stroke-linejoin="round" stroke-width="1.2"/>
    <line id="Line_598" data-name="Line 598" x2="1.484" transform="translate(2.712 11.332)" fill="none" stroke="#ff8500" stroke-linecap="round" stroke-linejoin="round" stroke-width="1.2"/>
    <line id="Line_599" data-name="Line 599" x2="1.994" transform="translate(7.871 9.163)" fill="none" stroke="#ff8500" stroke-linecap="round" stroke-linejoin="round" stroke-width="1.2"/>
    <line id="Line_600" data-name="Line 600" x2="1.994" transform="translate(7.871 11.332)" fill="none" stroke="#ff8500" stroke-linecap="round" stroke-linejoin="round" stroke-width="1.2"/>
    <line id="Line_601" data-name="Line 601" x2="1.994" transform="translate(7.871 4.853)" fill="none" stroke="#ff8500" stroke-linecap="round" stroke-linejoin="round" stroke-width="1.2"/>
    <line id="Line_602" data-name="Line 602" x2="1.994" transform="translate(7.871 7.022)" fill="none" stroke="#ff8500" stroke-linecap="round" stroke-linejoin="round" stroke-width="1.2"/>
    <line id="Line_603" data-name="Line 603" x2="1.994" transform="translate(7.871 2.712)" fill="none" stroke="#ff8500" stroke-linecap="round" stroke-linejoin="round" stroke-width="1.2"/>
    <line id="Line_604" data-name="Line 604" x2="12.876" transform="translate(0 14.017)" fill="none" stroke="#ff8500" stroke-linecap="round" stroke-linejoin="round" stroke-width="1.2"/>
  </g>
</svg>
