<svg xmlns="http://www.w3.org/2000/svg" width="22" height="28" viewBox="0 0 22 28">
  <g id="Group_20762" data-name="Group 20762" transform="translate(-310.489 -421)">
    <path id="Path_34704" data-name="Path 34704" d="M324.622,421s-3.021,3.933,1,9.43c0,0,3.3,3.654,2.78,6.536,0,0,2.128-1.676,1.991-6.3,0,0,6.2,11.187-2.712,16.693,0,0-6.479,3.7-11.4,0,0,0-10.881-8.38-2.815-17.7,0,0-.206,2.782,1.579,4.123C315.045,433.782,312.951,424.877,324.622,421Z" transform="translate(0 0)" fill="#ff3d12"/>
    <path id="Path_34705" data-name="Path 34705" d="M327.345,455.65a5.542,5.542,0,0,0-1.2-4.455c-2.705-3.432-2.091-6.205-2.091-6.205-4.16,2.478-2.137,8.32-2.137,8.32-1.091-.3-1.3-2.569-1.3-2.569-2.39,3.241-.383,6.169,1.275,7.8a7.437,7.437,0,0,0,2.563.605A7.833,7.833,0,0,0,327,458.1a5.056,5.056,0,0,0,1.432-6.683C328.8,455.4,327.345,455.65,327.345,455.65Z" transform="translate(-3.73 -10.158)" fill="#feae10"/>
  </g>
</svg>
