<svg xmlns="http://www.w3.org/2000/svg" width="18.305" height="13.423" viewBox="0 0 18.305 13.423">
  <g id="icon-job-fast" transform="translate(0 -61)">
    <path id="Path_14069" data-name="Path 14069" d="M11.333,61a7.051,7.051,0,0,0-2.836.582L2.534,64.143a.508.508,0,0,0-.021.933l1.186.571L.3,67.25a.508.508,0,0,0,0,.924l3.4,1.6-1.186.571a.508.508,0,0,0,.021.933l5.961,2.56a7.052,7.052,0,0,0,2.838.583,6.717,6.717,0,1,0,0-13.423Z" transform="translate(0 0)" fill="#e6161a"/>
    <path id="Path_14070" data-name="Path 14070" d="M186.826,121a4.65,4.65,0,1,0,4.826,4.647A4.746,4.746,0,0,0,186.826,121Zm2.145,5.163h-2.145a.521.521,0,0,1-.536-.516v-2.065a.537.537,0,0,1,1.073,0v1.549h1.609a.517.517,0,1,1,0,1.033Z" transform="translate(-175.493 -57.935)" fill="#feae10"/>
  </g>
</svg>
