<svg xmlns="http://www.w3.org/2000/svg" width="10.38" height="13.21" viewBox="0 0 10.38 13.21">
  <g id="Group_27332" data-name="Group 27332" transform="translate(-723 -1520.001)">
    <g id="Group_27331" data-name="Group 27331" transform="translate(723 1520.001)">
      <path id="Path_34704" data-name="Path 34704" d="M317.157,421s-1.425,1.856.47,4.449c0,0,1.555,1.724,1.312,3.084a3.616,3.616,0,0,0,.939-2.973s2.927,5.278-1.279,7.876c0,0-3.057,1.744-5.377,0,0,0-5.134-3.954-1.328-8.35a2.444,2.444,0,0,0,.745,1.945S311.65,422.829,317.157,421Z" transform="translate(-310.489 -421)" fill="#ff3d12"/>
      <path id="Path_34705" data-name="Path 34705" d="M323.21,450.019a2.615,2.615,0,0,0-.568-2.1,3.775,3.775,0,0,1-.987-2.928c-1.963,1.169-1.008,3.925-1.008,3.925-.515-.139-.611-1.212-.611-1.212-1.128,1.529-.18,2.91.6,3.678a3.509,3.509,0,0,0,1.209.285,3.7,3.7,0,0,0,1.2-.488,2.385,2.385,0,0,0,.676-3.153C323.9,449.9,323.21,450.019,323.21,450.019Z" transform="translate(-317.017 -438.464)" fill="#feae10"/>
    </g>
  </g>
</svg>
