<svg xmlns="http://www.w3.org/2000/svg" width="16.006" height="16" viewBox="0 0 16.006 16">
  <path id="Subtraction_21" data-name="Subtraction 21" d="M-6536.2,4345a1.6,1.6,0,0,1-1.592-1.6,1.6,1.6,0,0,1,1.592-1.6,1.6,1.6,0,0,1,1.6,1.6A1.6,1.6,0,0,1-6536.2,4345Zm-8,0a1.6,1.6,0,0,1-1.592-1.6,1.6,1.6,0,0,1,1.592-1.6,1.6,1.6,0,0,1,1.6,1.6A1.6,1.6,0,0,1-6544.2,4345Zm9.6-4h-9.6a1.58,1.58,0,0,1-1.373-.781,1.6,1.6,0,0,1-.027-1.6l1.08-1.951-2.881-6.072h-1.6V4329h2.617l.75,1.6h11.84a.8.8,0,0,1,.689.395.791.791,0,0,1,.008.789l-2.865,5.193a1.588,1.588,0,0,1-1.4.822h-5.961l-.879,1.6h9.6v1.6Zm-10.4-8.8h0l1.918,4h5.6l2.24-4Z" transform="translate(6549 -4329)" fill="#e6161a"/>
</svg>
