<svg xmlns="http://www.w3.org/2000/svg" width="15" height="15" viewBox="0 0 15 15">
  <g id="Group_13008" data-name="Group 13008" transform="translate(-156.463 -177.607)">
    <path id="Path_14035" data-name="Path 14035" d="M168.562,187.512a1.167,1.167,0,0,0-1.166-1.138h-.833v-.5a1.169,1.169,0,0,0-1.167-1.167h-1.667a1.168,1.168,0,0,0-1.166,1.167v.5h-.834a1.167,1.167,0,0,0-1.166,1.167v3a1.167,1.167,0,0,0,1.166,1.166H167.4a1.168,1.168,0,0,0,1.167-1.166v-3.029Zm-1.312-.138-2.687,1.279-2.688-1.279Zm-3.687-1.5a.166.166,0,0,1,.166-.167H165.4a.167.167,0,0,1,.167.167v.5h-2Zm3.833,4.833h-5.667a.166.166,0,0,1-.166-.166v-2.209l2.785,1.327a.5.5,0,0,0,.215.048.493.493,0,0,0,.215-.049l2.785-1.326v2.209A.166.166,0,0,1,167.4,190.707Z" transform="translate(-0.6 -1.2)" fill="#ff8500"/>
    <path id="Path_14036" data-name="Path 14036" d="M169.672,178.841h-1.3v-.679a.556.556,0,0,0-1.112,0v.679h-6.6v-.679a.556.556,0,1,0-1.111,0v.679h-1.3a1.792,1.792,0,0,0-1.79,1.791v10.185a1.792,1.792,0,0,0,1.79,1.79h11.419a1.792,1.792,0,0,0,1.791-1.79V180.632A1.793,1.793,0,0,0,169.672,178.841Zm-12.1,4.816h12.778v7.16a.68.68,0,0,1-.68.679H158.253a.68.68,0,0,1-.679-.679ZM160.1,181.5a.556.556,0,0,0,.556-.556v-.987h6.6v.987a.556.556,0,0,0,1.112,0v-.987h1.3a.68.68,0,0,1,.68.679v1.913H157.574v-1.913a.68.68,0,0,1,.679-.679h1.3v.987A.556.556,0,0,0,160.1,181.5Z" transform="translate(0 0)" fill="#ff8500"/>
  </g>
</svg>
