<svg xmlns="http://www.w3.org/2000/svg" width="14" height="14" viewBox="0 0 14 14">
  <path id="color/location" d="M-11127-3710.664c0-1.174,1.32-2.039,3.364-2.524a.584.584,0,0,1,.7.434.584.584,0,0,1-.435.7c-1.561.37-2.466.963-2.466,1.387,0,.806,2.595,1.75,5.833,1.75s5.834-.944,5.834-1.75c0-.425-.905-1.018-2.47-1.387a.584.584,0,0,1-.431-.7.582.582,0,0,1,.7-.434c2.047.486,3.366,1.35,3.366,2.524,0,1.772-3.146,2.917-7,2.917S-11127-3708.892-11127-3710.664Zm6.478.262-.238-.477a28.011,28.011,0,0,0-2.53-4.37,4.066,4.066,0,0,1-.751-3,4.1,4.1,0,0,1,3.565-3.474,4.082,4.082,0,0,1,4.56,4.055,4.048,4.048,0,0,1-.63,2.176c-.092.143-.168.266-.327.519l-.03.043a37.154,37.154,0,0,0-2.072,3.518l-.5,1.008a.577.577,0,0,1-.522.321A.58.58,0,0,1-11120.522-3710.4Zm.177-10.16a2.937,2.937,0,0,0-2.542,2.478,2.9,2.9,0,0,0,.538,2.142,26.688,26.688,0,0,1,2.35,3.975,37.7,37.7,0,0,1,2.112-3.587l.027-.043c.161-.251.238-.373.33-.516a2.913,2.913,0,0,0,.449-1.552,2.919,2.919,0,0,0-2.923-2.916A3.009,3.009,0,0,0-11120.346-3720.561Zm-1.4,2.9a1.748,1.748,0,0,1,1.75-1.748,1.747,1.747,0,0,1,1.748,1.748,1.747,1.747,0,0,1-1.748,1.75A1.748,1.748,0,0,1-11121.75-3717.665Zm1.167,0a.582.582,0,0,0,.583.583.584.584,0,0,0,.584-.583.586.586,0,0,0-.584-.584A.584.584,0,0,0-11120.583-3717.665Z" transform="translate(11127 3721.746)" fill="#ff8500"/>
</svg>
