<svg xmlns="http://www.w3.org/2000/svg" width="113" height="113" viewBox="0 0 113 113">
  <g id="Group_27699" data-name="Group 27699" transform="translate(-871.202 -175.202)">
    <g id="Group_27698" data-name="Group 27698" transform="translate(897.609 198.441)">
      <path id="Path_52132" data-name="Path 52132" d="M56.972,10.8A11.629,11.629,0,0,1,49.8,3.58,5.272,5.272,0,0,0,44.806,0H15.729a5.272,5.272,0,0,0-4.99,3.58A11.629,11.629,0,0,1,3.563,10.8,5.288,5.288,0,0,0,0,15.8v7.356A46.91,46.91,0,0,0,28.16,66.216a5.317,5.317,0,0,0,4.214,0A46.616,46.616,0,0,0,52.216,49.885a46.858,46.858,0,0,0,8.318-26.728V15.8a5.288,5.288,0,0,0-3.562-5Zm-.343,12.36A42.969,42.969,0,0,1,49,47.667a42.715,42.715,0,0,1-18.18,14.966,1.4,1.4,0,0,1-1.108,0A43,43,0,0,1,3.906,23.157V15.8a1.382,1.382,0,0,1,.926-1.311,15.561,15.561,0,0,0,9.6-9.653,1.368,1.368,0,0,1,1.293-.932H44.806a1.369,1.369,0,0,1,1.293.932,15.561,15.561,0,0,0,9.6,9.653,1.382,1.382,0,0,1,.926,1.311Zm0,0" transform="translate(-0.001 0)" fill="#6e00c2"/>
      <path id="Path_52133" data-name="Path 52133" d="M153.937,102.772H153.8V97.211a8.165,8.165,0,0,0-16.329,0v5.561h-.133a4.708,4.708,0,0,0-4.7,4.7v11.238a8.768,8.768,0,0,0,8.757,8.758h8.485a8.768,8.768,0,0,0,8.757-8.758V107.475a4.708,4.708,0,0,0-4.7-4.7Zm-12.557-5.561a4.259,4.259,0,1,1,8.519,0v5.562h-8.519Zm13.354,21.5a4.857,4.857,0,0,1-4.852,4.852H141.4a4.857,4.857,0,0,1-4.852-4.852V107.475a.8.8,0,0,1,.8-.8h16.595a.8.8,0,0,1,.8.8Zm0,0" transform="translate(-115.373 -77.454)" fill="#6e00c2"/>
      <path id="Path_52134" data-name="Path 52134" d="M219.453,260.18a1.953,1.953,0,0,0-1.953,1.953v3.689a1.953,1.953,0,1,0,3.905,0v-3.689A1.953,1.953,0,0,0,219.453,260.18Zm0,0" transform="translate(-189.186 -226.31)" fill="#6e00c2"/>
    </g>
    <g id="Ellipse_2" data-name="Ellipse 2" transform="translate(871.202 175.202)" fill="none" stroke="#6e00c2" stroke-width="4">
      <circle cx="56.5" cy="56.5" r="56.5" stroke="none"/>
      <circle cx="56.5" cy="56.5" r="54.5" fill="none"/>
    </g>
  </g>
</svg>
