<svg xmlns="http://www.w3.org/2000/svg" width="10.928" height="18" viewBox="0 0 10.928 18">
  <path id="icon-ID" d="M13038.748,9322.851a2.275,2.275,0,0,1-2.272-2.271v-13.455a2.275,2.275,0,0,1,2.272-2.273h6.383a2.276,2.276,0,0,1,2.272,2.273v13.455a2.276,2.276,0,0,1-2.272,2.271Zm-1.12-2.271a1.121,1.121,0,0,0,1.12,1.117h6.383a1.119,1.119,0,0,0,1.117-1.117V9319.3h-8.62Zm0-13.455v11.023h8.62v-11.023a1.12,1.12,0,0,0-1.117-1.12h-6.383A1.121,1.121,0,0,0,13037.628,9307.124Zm3.344,13.872a.577.577,0,0,1,0-1.153h1.934a.577.577,0,0,1,0,1.153Z" transform="translate(-13036.476 -9304.851)" fill="#8218d1"/>
</svg>
