<svg xmlns="http://www.w3.org/2000/svg" width="14" height="17.528" viewBox="0 0 14 17.528">
  <path id="icon-password" d="M13040.888,9262.319a2.488,2.488,0,0,1-2.486-2.486v-5.4a2.49,2.49,0,0,1,2.486-2.488h7.541V9249a3.028,3.028,0,0,0-6.056,0v.126a.59.59,0,1,1-1.18,0V9249a4.208,4.208,0,0,1,8.416,0v2.943h.3a2.492,2.492,0,0,1,2.488,2.488v5.4a2.49,2.49,0,0,1-2.488,2.486Zm-1.307-7.889v5.4a1.311,1.311,0,0,0,1.307,1.308h9.025a1.31,1.31,0,0,0,1.308-1.308v-5.4a1.309,1.309,0,0,0-1.308-1.308h-9.025A1.309,1.309,0,0,0,13039.581,9254.431Zm4.219,2.7a1.6,1.6,0,1,1,1.6,1.6A1.6,1.6,0,0,1,13043.8,9257.131Z" transform="translate(-13038.401 -9244.791)" fill="#8218d1"/>
</svg>
