<svg xmlns="http://www.w3.org/2000/svg" width="14" height="14" viewBox="0 0 14 14">
  <g id="Group_13009" data-name="Group 13009" transform="translate(-135.929 -178.665)">
    <path id="Path_14037" data-name="Path 14037" d="M147.873,180.721a6.973,6.973,0,1,0,2.056,4.944A6.949,6.949,0,0,0,147.873,180.721Zm-4.944,10.961a6.017,6.017,0,1,1,6.017-6.017A6.024,6.024,0,0,1,142.929,191.682Z" fill="#ff8500"/>
    <path id="Path_14038" data-name="Path 14038" d="M143.188,180.571a5.353,5.353,0,1,0,5.353,5.353A5.359,5.359,0,0,0,143.188,180.571Zm0,9.722a4.369,4.369,0,1,1,4.369-4.369A4.374,4.374,0,0,1,143.188,190.293Z" transform="translate(-0.259 -0.259)" fill="#ff8500"/>
    <path id="Path_14039" data-name="Path 14039" d="M144.826,184.958a.492.492,0,0,0,.983,0,1.578,1.578,0,0,0-.671-1.252,2.286,2.286,0,0,0-.949-.408v-.366a.492.492,0,1,0-.983,0v.366a2.286,2.286,0,0,0-.949.408,1.5,1.5,0,0,0,0,2.505,2.3,2.3,0,0,0,.949.408v1.417c-.379-.124-.637-.379-.637-.647a.492.492,0,0,0-.983,0,1.582,1.582,0,0,0,.671,1.252,2.292,2.292,0,0,0,.949.408v.369a.492.492,0,1,0,.983,0v-.369a2.292,2.292,0,0,0,.949-.408,1.5,1.5,0,0,0,0-2.505,2.3,2.3,0,0,0-.949-.408v-1.417C144.569,184.435,144.826,184.691,144.826,184.958Zm-.637,3.078v-1.3c.38.124.637.38.637.648S144.569,187.913,144.189,188.037Zm-.983-3.726v1.3c-.379-.124-.637-.38-.637-.648S142.826,184.435,143.205,184.311Z" transform="translate(-0.768 -0.513)" fill="#ff8500"/>
  </g>
</svg>
