<svg xmlns="http://www.w3.org/2000/svg" width="12.012" height="10.582" viewBox="0 0 12.012 10.582">
  <path id="vitrituyen" d="M348.732,182.362a.439.439,0,0,0-.45-.45h-3.031v-.242a1.143,1.143,0,0,0-1.142-1.141h-2.767a1.143,1.143,0,0,0-1.141,1.141v.242h-3.031a.45.45,0,0,0-.45.45v7.608a1.142,1.142,0,0,0,1.141,1.141h9.729a1.142,1.142,0,0,0,1.142-1.141Zm-7.389-.934h2.767a.242.242,0,0,1,.242.242v.242H341.1v-.242A.242.242,0,0,1,341.343,181.428Zm2.317,4.842v.484h-1.867v-.484Zm2.971-.373a.242.242,0,0,1-.23.165H344.56v-.242a.451.451,0,0,0-.45-.45h-2.767a.45.45,0,0,0-.45.45v.242h-1.841a.241.241,0,0,1-.23-.165l-1.029-3.085h9.866Zm-9.011-.764.349,1.049a1.141,1.141,0,0,0,1.083.78h1.841v.242a.45.45,0,0,0,.45.45h2.767a.45.45,0,0,0,.45-.45v-.242H346.4a1.139,1.139,0,0,0,1.082-.78l.349-1.049v4.837a.242.242,0,0,1-.242.242h-9.729a.242.242,0,0,1-.242-.242Z" transform="translate(-336.721 -180.529)" fill="#ff8500"/>
</svg>
