<svg xmlns="http://www.w3.org/2000/svg" width="20.5" height="14.938" viewBox="0 0 20.5 14.938">
  <path id="color/people_group" d="M-17473.211,19979.6a2.2,2.2,0,0,1-1.576-.576,2.066,2.066,0,0,1-.611-1.553c0-.254.01-.5.021-.738s.053-.5.1-.773a6.246,6.246,0,0,1,.2-.791,3.859,3.859,0,0,1,.326-.736,2.743,2.743,0,0,1,.488-.633,2.183,2.183,0,0,1,.7-.439,2.434,2.434,0,0,1,.9-.164.94.94,0,0,1,.48.209c.145.1.318.207.506.322a2.677,2.677,0,0,0,.652.291,2.657,2.657,0,0,0,.8.127,2.654,2.654,0,0,0,.8-.127,2.86,2.86,0,0,0,.656-.291c.186-.115.359-.227.5-.322a.962.962,0,0,1,.484-.209,2.445,2.445,0,0,1,.9.164,2.218,2.218,0,0,1,.7.439,2.9,2.9,0,0,1,.484.633,4.779,4.779,0,0,1,.328.736,7.466,7.466,0,0,1,.189.791,6.366,6.366,0,0,1,.1.773c.016.242.027.484.027.738a2.057,2.057,0,0,1-.609,1.553,2.2,2.2,0,0,1-1.578.576Zm-.094-5.562a1.49,1.49,0,0,0-.459.285,1.976,1.976,0,0,0-.359.471,3.215,3.215,0,0,0-.266.6,4.5,4.5,0,0,0-.166.7,5.312,5.312,0,0,0-.092.7c-.016.223-.025.453-.025.684a1.328,1.328,0,0,0,.389,1.031,1.479,1.479,0,0,0,1.072.371h5.959a1.482,1.482,0,0,0,1.072-.371,1.35,1.35,0,0,0,.391-1.031c0-.23-.008-.461-.023-.684s-.051-.449-.092-.7a4.973,4.973,0,0,0-.174-.7,3.612,3.612,0,0,0-.258-.6,2.268,2.268,0,0,0-.359-.471,1.5,1.5,0,0,0-.469-.285,1.536,1.536,0,0,0-.568-.115,1.272,1.272,0,0,0-.146.1c-.15.092-.316.2-.51.318a3.306,3.306,0,0,1-.818.367,3.293,3.293,0,0,1-1.023.168,3.235,3.235,0,0,1-1.021-.168,3.407,3.407,0,0,1-.822-.367c-.189-.117-.369-.227-.51-.318-.07-.053-.123-.08-.146-.1A1.576,1.576,0,0,0-17473.3,19974.039Zm8.961,3.512a.351.351,0,0,0,.006-.078c0-.227-.012-.441-.021-.648h1.951a1.489,1.489,0,0,0,1.074-.375,1.333,1.333,0,0,0,.381-1.029c0-.23-.008-.461-.02-.676a6.307,6.307,0,0,0-.092-.705,5.69,5.69,0,0,0-.172-.7,2.7,2.7,0,0,0-.264-.592,2.068,2.068,0,0,0-.352-.473,1.663,1.663,0,0,0-.469-.289,1.986,1.986,0,0,0-.572-.117,1.211,1.211,0,0,0-.148.09c-.145.1-.316.205-.51.332a3.222,3.222,0,0,1-.82.365,3.2,3.2,0,0,1-1.023.168,3.216,3.216,0,0,1-1.021-.168,3.222,3.222,0,0,1-.82-.365h-.012a3.008,3.008,0,0,0,.357-.637.425.425,0,0,1,.049.027,2.731,2.731,0,0,0,.648.281,2.594,2.594,0,0,0,.8.133,2.575,2.575,0,0,0,.8-.133,2.648,2.648,0,0,0,.654-.281c.188-.119.361-.236.506-.328a.928.928,0,0,1,.488-.209,2.408,2.408,0,0,1,.891.164,2.165,2.165,0,0,1,.7.439,2.482,2.482,0,0,1,.488.641,3.543,3.543,0,0,1,.326.727,6.962,6.962,0,0,1,.2.795c.047.27.076.537.1.777s.021.484.021.73a2.033,2.033,0,0,1-.611,1.557,2.208,2.208,0,0,1-1.57.574Zm-13.7,0a2.2,2.2,0,0,1-1.578-.574,2.039,2.039,0,0,1-.609-1.557c0-.246,0-.492.027-.73a7.007,7.007,0,0,1,.1-.777,6.6,6.6,0,0,1,.189-.795,4.141,4.141,0,0,1,.322-.727,2.632,2.632,0,0,1,.492-.641,2.189,2.189,0,0,1,.7-.439,2.449,2.449,0,0,1,.893-.164.932.932,0,0,1,.49.209c.145.1.316.209.5.328a2.6,2.6,0,0,0,.656.281,2.582,2.582,0,0,0,.8.133,2.584,2.584,0,0,0,.8-.133,3.578,3.578,0,0,0,.572-.23,3.1,3.1,0,0,0,.361.621,3.268,3.268,0,0,1-.711.3,3.216,3.216,0,0,1-1.021.168,3.26,3.26,0,0,1-1.027-.168,3.205,3.205,0,0,1-.814-.365c-.2-.115-.367-.232-.51-.332-.082-.049-.123-.076-.145-.09a1.946,1.946,0,0,0-.574.117,1.62,1.62,0,0,0-.471.289,2.075,2.075,0,0,0-.354.469,3.168,3.168,0,0,0-.268.6,6.127,6.127,0,0,0-.162.7,5.354,5.354,0,0,0-.094.705c-.012.215-.021.445-.021.676a1.326,1.326,0,0,0,.381,1.029,1.485,1.485,0,0,0,1.08.375h1.936c-.006.217-.014.432-.014.648v.078Zm5.621-5.238a2.873,2.873,0,0,1-.873-2.107,2.883,2.883,0,0,1,.873-2.113,2.886,2.886,0,0,1,2.107-.869,2.892,2.892,0,0,1,2.111.869,2.894,2.894,0,0,1,.877,2.113,2.884,2.884,0,0,1-.877,2.107,2.915,2.915,0,0,1-2.111.869A2.909,2.909,0,0,1-17472.418,19972.313Zm.512-3.707a2.168,2.168,0,0,0-.662,1.6,2.143,2.143,0,0,0,.662,1.59,2.177,2.177,0,0,0,1.6.664,2.169,2.169,0,0,0,1.6-.664,2.136,2.136,0,0,0,.662-1.59,2.16,2.16,0,0,0-.662-1.6,2.164,2.164,0,0,0-1.6-.658A2.172,2.172,0,0,0-17471.906,19968.605Zm5.244,2.291a3.374,3.374,0,0,0,.059-.691v-.1a2.172,2.172,0,0,0,1.137.3,2.172,2.172,0,0,0,1.6-.664,2.179,2.179,0,0,0,.656-1.6,2.173,2.173,0,0,0-.656-1.6,2.167,2.167,0,0,0-1.6-.666,2.161,2.161,0,0,0-1.6.666,2.153,2.153,0,0,0-.6,1.049c-.006-.014-.021-.014-.027-.021a3.5,3.5,0,0,0-.576-.48,2.9,2.9,0,0,1,.691-1.059,2.861,2.861,0,0,1,2.107-.879,2.881,2.881,0,0,1,2.109.879,2.893,2.893,0,0,1,.869,2.109,2.889,2.889,0,0,1-.869,2.107,2.887,2.887,0,0,1-2.109.877A3.044,3.044,0,0,1-17466.662,19970.9Zm-10.592-.637a2.892,2.892,0,0,1-.873-2.107,2.9,2.9,0,0,1,.873-2.109,2.888,2.888,0,0,1,2.115-.879,2.881,2.881,0,0,1,2.109.879,2.977,2.977,0,0,1,.682,1.053,3.615,3.615,0,0,0-.58.486c-.008,0-.016.008-.023.014a2.1,2.1,0,0,0-.6-1.041,2.146,2.146,0,0,0-1.59-.666,2.15,2.15,0,0,0-1.6.666,2.156,2.156,0,0,0-.662,1.6,2.162,2.162,0,0,0,.662,1.6,2.156,2.156,0,0,0,1.6.664,2.2,2.2,0,0,0,1.123-.3v.088a4.462,4.462,0,0,0,.059.691,3,3,0,0,1-1.182.24A2.894,2.894,0,0,1-17477.254,19970.26Z" transform="translate(17480.477 -19964.914)" fill="#ff8500" stroke="#ff8500" stroke-width="0.5"/>
</svg>
