<svg xmlns="http://www.w3.org/2000/svg" width="14.429" height="14.817" viewBox="0 0 14.429 14.817">
  <path id="accept-call" d="M8527.356,12917.082h-.071a1.473,1.473,0,0,0-.151-.053,3.363,3.363,0,0,1-.588-.161,19.342,19.342,0,0,1-6.021-4.007,17.728,17.728,0,0,1-3.972-6.037,2.786,2.786,0,0,1-.044-2.244,3,3,0,0,1,1.809-1.5,1.636,1.636,0,0,1,1.015,0,7.362,7.362,0,0,1,2.618,3.562,1.529,1.529,0,0,1-.811,1.317c-.534.338-.615.783-.329,1.46a6.206,6.206,0,0,0,3.215,3.116,1.164,1.164,0,0,0,.508.125.739.739,0,0,0,.632-.374,1.674,1.674,0,0,1,1.39-.89,2.282,2.282,0,0,1,1.291.5c.071.036.143.106.214.143.382.267.756.517,1.1.8a.825.825,0,0,0,.214.16c.526.411,1.176.909.811,1.924A3.426,3.426,0,0,1,8527.356,12917.082Zm2.761-7.3c-.561-.019-.579-.554-.579-.8a.669.669,0,0,0-.018-.2c-.4-3.277-1.906-4.809-5.146-5.324a.505.505,0,0,0-.16-.019c-.251-.018-.758-.053-.722-.569a.579.579,0,0,1,.631-.606.616.616,0,0,1,.188.018h.188a6.6,6.6,0,0,1,6.216,6.482c0,.071.009.107.009.161a.917.917,0,0,1-.16.676.5.5,0,0,1-.419.18Zm-2.521-1.105c0-.053-.009-.106-.009-.143-.338-1.976-1-2.671-2.982-3.116-.045-.018-.107-.018-.16-.035a.891.891,0,0,1-.643-.25.652.652,0,0,1-.079-.463.581.581,0,0,1,.605-.516,2.33,2.33,0,0,1,.348.035.347.347,0,0,0,.133.018,4.5,4.5,0,0,1,3.981,4.274c0,.018-.019.018-.019.035v.16a.6.6,0,0,1-.463.73h-.143C8527.642,12909.406,8527.614,12908.926,8527.6,12908.676Zm-1.861-.089a1.294,1.294,0,0,0-1.193-1.3.636.636,0,0,1-.543-.284.553.553,0,0,1-.036-.481.7.7,0,0,1,.731-.409,2.113,2.113,0,0,1,1.5.712,2.2,2.2,0,0,1,.721,1.549c.018.481-.16.766-.534.8h-.062A.618.618,0,0,1,8525.735,12908.587Z" transform="translate(-8516.295 -12902.265)" fill="#06983c"/>
</svg>
