<svg xmlns="http://www.w3.org/2000/svg" width="10.65" height="18.301" viewBox="0 0 10.65 18.301">
  <path id="Union_110" data-name="Union 110" d="M-16238.105-8694a1.894,1.894,0,0,1-1.895-1.895V-8710.1a1.894,1.894,0,0,1,1.895-1.895h6.561a1.894,1.894,0,0,1,1.895,1.895v14.211a1.894,1.894,0,0,1-1.895,1.895Zm-1-1.872a.979.979,0,0,0,.986.972h6.591a.978.978,0,0,0,.974-.983v-1.446h-8.551Zm0-2.358h8.551v-10.484h-8.551Zm0-11.864v.479h8.551v-.479a1,1,0,0,0-.985-1.006h-6.579A1,1,0,0,0-16239.1-8710.093Zm3.395,14.43a.449.449,0,0,1-.449-.45.449.449,0,0,1,.449-.45h1.762a.45.45,0,0,1,.45.45.45.45,0,0,1-.45.45Z" transform="translate(16240.15 8712.148)" fill="#ff8500" stroke="#ff8500" stroke-miterlimit="10" stroke-width="0.3"/>
</svg>
