<svg xmlns="http://www.w3.org/2000/svg" width="18.624" height="16.403" viewBox="0 0 18.624 16.403">
  <g id="Group_25342" data-name="Group 25342" transform="translate(-5385.277 -3225.925)">
    <path id="Path_37498" data-name="Path 37498" d="M5389.247,3232.9a3.932,3.932,0,0,0,2.752,1.132h.1a4.053,4.053,0,0,0,2.814-6.917,4.055,4.055,0,0,0-5.73-.005,4.047,4.047,0,0,0,0,5.737Zm.083-2.923a2.594,2.594,0,0,1,.736-1.855l.064-.062a2.7,2.7,0,0,1,3.84.006,2.716,2.716,0,1,1-4.64,1.911Z" fill="#e50019"/>
    <rect id="Rectangle_150256" data-name="Rectangle 150256" width="4.924" height="1.271" rx="0.635" transform="translate(5396.922 3234.988)" fill="#e50019"/>
    <path id="Path_37499" data-name="Path 37499" d="M5397.695,3240.242l-.148-.055-.087.132a1.686,1.686,0,0,1-.193.235,1.748,1.748,0,0,1-1.256.431h-7.721a1.726,1.726,0,0,1-1.235-.425,1.524,1.524,0,0,1-.441-1.186c0-.308.01-.6.03-.867a8.011,8.011,0,0,1,.111-.891,7.685,7.685,0,0,1,.218-.871,3.609,3.609,0,0,1,.321-.731,2.856,2.856,0,0,1,.419-.56,1.8,1.8,0,0,1,.545-.336,1.846,1.846,0,0,1,.621-.123l.126.08c.192.12.414.264.657.422a4.628,4.628,0,0,0,1.1.495,4.473,4.473,0,0,0,2.763,0,5.87,5.87,0,0,0,.847-.34l.107-.053,0-.12a5,5,0,0,1,.18-1.175l.142-.506-.884.568a3.514,3.514,0,0,1-.8.354,3.1,3.1,0,0,1-1.945,0,3.352,3.352,0,0,1-.795-.351c-.175-.108-.336-.213-.485-.31l-.149-.1a1.4,1.4,0,0,0-.75-.31,3.165,3.165,0,0,0-1.231.225,3.018,3.018,0,0,0-.976.61,3.713,3.713,0,0,0-.659.866,5.171,5.171,0,0,0-.432.988,7.261,7.261,0,0,0-.261,1.042,10.286,10.286,0,0,0-.132,1.035c-.015.307-.027.626-.027.947a2.886,2.886,0,0,0,.847,2.167,3.08,3.08,0,0,0,2.175.792h7.7l.13,0a3.015,3.015,0,0,0,2.046-.8,2.506,2.506,0,0,0,.562-.775l.112-.241-.263-.041A4.645,4.645,0,0,1,5397.695,3240.242Z" fill="#e50019"/>
    <path id="Path_37500" data-name="Path 37500" d="M5399.384,3231.122a4.536,4.536,0,0,0-4.517,4.524h0a4.517,4.517,0,1,0,4.517-4.525Zm3.241,4.524a3.248,3.248,0,1,1-.948-2.295A3.245,3.245,0,0,1,5402.625,3235.646Z" fill="#e50019"/>
  </g>
</svg>
