<svg xmlns="http://www.w3.org/2000/svg" width="13" height="13" viewBox="0 0 13 13">
  <path id="color/sex" d="M-18072.125,20149.092a3.2,3.2,0,0,1,.826-2.15,3.221,3.221,0,0,1,1.932-1.033v-2.6l-.6.594a.452.452,0,0,1-.322.135.466.466,0,0,1-.328-.135.463.463,0,0,1,0-.65l1.383-1.379a.444.444,0,0,1,.322-.135.453.453,0,0,1,.326.135l1.379,1.379a.46.46,0,0,1,0,.65.46.46,0,0,1-.324.135.465.465,0,0,1-.326-.135l-.594-.594v2.6a3.248,3.248,0,0,1,1.947,1.031,3.2,3.2,0,0,1,.834,2.152,3.214,3.214,0,0,1-.953,2.289,3.217,3.217,0,0,1-2.289.953A3.233,3.233,0,0,1-18072.125,20149.092Zm.918,0a2.316,2.316,0,0,0,2.3,2.324,2.327,2.327,0,0,0,2.324-2.324,2.316,2.316,0,0,0-2.324-2.3A2.3,2.3,0,0,0-18071.207,20149.092Zm-3.678,1.381v-.92h-.92a.46.46,0,0,1-.459-.461.461.461,0,0,1,.459-.459h.92v-1.873a3.232,3.232,0,0,1-1.945-1.031,3.189,3.189,0,0,1-.836-2.152,3.217,3.217,0,0,1,.953-2.289,3.216,3.216,0,0,1,2.287-.953,3.234,3.234,0,0,1,3.219,3.242,3.216,3.216,0,0,1-.826,2.152,3.208,3.208,0,0,1-1.932,1.031v1.873h.92a.461.461,0,0,1,.459.459.46.46,0,0,1-.459.461h-.92v.92a.459.459,0,0,1-.461.459A.458.458,0,0,1-18074.885,20150.473Zm-1.863-6.9a2.314,2.314,0,0,0,2.322,2.3,2.3,2.3,0,0,0,2.3-2.3,2.315,2.315,0,0,0-2.3-2.324A2.327,2.327,0,0,0-18076.748,20143.576Z" transform="translate(18078.166 -20139.834)" fill="#ff8500" stroke="rgba(0,0,0,0)" stroke-width="1"/>
</svg>
