<svg xmlns="http://www.w3.org/2000/svg" width="14.002" height="13.998" viewBox="0 0 14.002 13.998">
  <path id="icon_time-out" d="M-17790.395,20228.68a6.877,6.877,0,0,1-2.793-1.174,6.947,6.947,0,0,1-.895-.758s0,0,0,0-.008,0-.008-.006a7.01,7.01,0,0,1-1.961-3.793c-.025-.143-.045-.287-.061-.432,0-.01,0-.018,0-.025-.016-.141-.025-.287-.035-.426v-.018a7.017,7.017,0,0,1,1.113-4.121c0-.01.008-.02.012-.027.051-.074.1-.148.15-.225.029-.043.063-.086.1-.131l.023-.027a6.974,6.974,0,0,1,3.85-2.6l.02,0h.006a5.012,5.012,0,0,1,.531-.113,6.906,6.906,0,0,1,5.094,1.09l.441-.645c.123-.178.268-.152.326.059l.514,1.861a.319.319,0,0,1-.287.412l-1.91.174c-.215.02-.289-.109-.166-.287l.439-.641a5.842,5.842,0,0,0-6.594.051c-.008.008-.016.012-.02.016a5.848,5.848,0,0,0-1.445,1.447,5.948,5.948,0,0,0,1.42,8.244c.182.127.367.242.561.352.105.059.211.111.322.162l.014.008a5.562,5.562,0,0,0,1.443.463.567.567,0,0,1,.457.66.567.567,0,0,1-.555.467A.434.434,0,0,1-17790.395,20228.68Zm2.084-.1a.578.578,0,0,1-.23-.361.562.562,0,0,1,.449-.66c.121-.021.234-.051.352-.076a.559.559,0,0,1,.68.41.564.564,0,0,1-.408.688c-.137.035-.279.068-.416.09a.69.69,0,0,1-.109.01A.544.544,0,0,1-17788.311,20228.584Zm2.051-.766a.489.489,0,0,1-.162-.182.563.563,0,0,1,.207-.77c.1-.062.2-.127.3-.191a.564.564,0,0,1,.783.158.572.572,0,0,1-.16.785c-.121.08-.242.156-.365.227a.545.545,0,0,1-.279.078A.565.565,0,0,1-17786.26,20227.818Zm1.684-1.408a.374.374,0,0,1-.041-.031.572.572,0,0,1-.064-.8c.076-.092.152-.186.221-.279a.562.562,0,0,1,.789-.117.57.57,0,0,1,.115.795c-.086.117-.176.227-.268.34a.566.566,0,0,1-.43.2A.558.558,0,0,1-17784.576,20226.41Zm1.234-1.834a.617.617,0,0,1-.123-.064.571.571,0,0,1-.2-.666c.045-.111.082-.227.119-.338a.559.559,0,0,1,.705-.373.564.564,0,0,1,.367.709c-.041.139-.088.273-.139.408a.567.567,0,0,1-.525.363A.529.529,0,0,1-17783.342,20224.576Zm-2.465-.227-4.148-2.16v-4.57a.457.457,0,0,1,.455-.457.458.458,0,0,1,.455.457v4.012l3.658,1.9a.467.467,0,0,1,.2.621.454.454,0,0,1-.4.248A.433.433,0,0,1-17785.807,20224.35Zm3.076-1.9a.564.564,0,0,1-.312-.1.564.564,0,0,1-.238-.477c0-.119,0-.238,0-.359a.567.567,0,0,1,.539-.59.564.564,0,0,1,.584.547c.006.139.006.285,0,.43a.562.562,0,0,1-.557.553Zm-.641-2.283a.588.588,0,0,1-.207-.283c-.039-.115-.078-.229-.121-.34a.557.557,0,0,1,.311-.734.556.556,0,0,1,.73.313c.055.133.1.268.148.4a.571.571,0,0,1-.357.721.547.547,0,0,1-.176.025A.578.578,0,0,1-17783.371,20220.17Z" transform="translate(17796.158 -20214.693)" fill="#ff8500"/>
</svg>
