<svg xmlns="http://www.w3.org/2000/svg" width="30" height="22" viewBox="0 0 30 22">
  <g id="icon-job-fast" transform="translate(0 -61)">
    <path id="Path_14069" data-name="Path 14069" d="M18.574,61a11.556,11.556,0,0,0-4.649.954l-9.773,4.2a.833.833,0,0,0-.034,1.53l1.943.935L.486,71.243a.833.833,0,0,0,0,1.514l5.576,2.628-1.943.935a.833.833,0,0,0,.034,1.529l9.769,4.2A11.557,11.557,0,0,0,18.574,83a11.008,11.008,0,1,0,0-22Z" transform="translate(0 0)" fill="#e6161a"/>
    <path id="Path_14070" data-name="Path 14070" d="M189.91,121a7.621,7.621,0,1,0,7.91,7.615A7.779,7.779,0,0,0,189.91,121Zm3.516,8.462H189.91a.855.855,0,0,1-.879-.846v-3.385a.88.88,0,0,1,1.758,0v2.538h2.637a.847.847,0,1,1,0,1.692Z" transform="translate(-171.335 -56.616)" fill="#feae10"/>
  </g>
</svg>
