<svg xmlns="http://www.w3.org/2000/svg" width="113" height="113" viewBox="0 0 113 113">
  <g id="Group_27699" data-name="Group 27699" transform="translate(-871.202 -175.202)">
    <g id="Ellipse_2" data-name="Ellipse 2" transform="translate(871.202 175.202)" fill="none" stroke="#6e00c2" stroke-width="4">
      <circle cx="56.5" cy="56.5" r="56.5" stroke="none"/>
      <circle cx="56.5" cy="56.5" r="54.5" fill="none"/>
    </g>
    <g id="Group_27712" data-name="Group 27712" transform="translate(880.244 195.203)">
      <g id="Layer_2_18_" transform="translate(12.959 -0.001)">
        <g id="Group_27711" data-name="Group 27711" transform="translate(0 0)">
          <path id="Path_52135" data-name="Path 52135" d="M152.408,136.258a4.773,4.773,0,0,0,3.5-3.3l1.773-5.215.713.242a.629.629,0,0,0,.8-.392l.951-2.8a.628.628,0,0,0-.392-.8l-22.988-7.817a.629.629,0,0,0-.8.392l-.951,2.8a.629.629,0,0,0,.392.8l.713.243-1.805,5.31c-.852,2.507-.288,3.353.781,4.634l4.652,5.57-.519,1.525c-1.78.386-6.431,1.4-7.057,1.581a4.773,4.773,0,0,0-3.5,3.3l-1.527,4.49-.713-.242a.629.629,0,0,0-.8.392l-.951,2.8a.629.629,0,0,0,.392.8l22.988,7.817a.629.629,0,0,0,.8-.392l.951-2.8a.629.629,0,0,0-.392-.8l-.713-.243,1.558-4.585c.852-2.506.289-3.353-.781-4.634l-4.652-5.571.518-1.525C147.13,137.453,151.781,136.44,152.408,136.258Zm-9.715,4.066,5.058,6.057a2.925,2.925,0,0,1,.649.951,3.235,3.235,0,0,1-.273,1.509l-1.559,4.585-17.288-5.878,1.526-4.49A2.556,2.556,0,0,1,132.8,141.2c.5-.144,4.778-1.082,7.532-1.678a1.129,1.129,0,0,0,.83-.74l.928-2.73a1.129,1.129,0,0,0-.2-1.086l-5.043-6.039-.015-.019a2.918,2.918,0,0,1-.649-.951,3.235,3.235,0,0,1,.273-1.509l1.805-5.31,17.288,5.878-1.773,5.215a2.555,2.555,0,0,1-1.993,1.855c-.5.144-4.778,1.083-7.532,1.678a1.13,1.13,0,0,0-.83.74l-.928,2.729A1.129,1.129,0,0,0,142.693,140.324Z" transform="translate(-108.051 -98.892)" fill="#6e00c2"/>
          <path id="Path_52136" data-name="Path 52136" d="M61.259,62.955c-.5.286-1.025.56-1.546.814q-.126.062-.244.135a2.657,2.657,0,0,0-.249.1,28.325,28.325,0,0,1-7.044,2.226c-.031,0-.062.006-.093.012-.572.1-1.155.185-1.731.251l-.019,0a29.253,29.253,0,0,1-3.209.176,28.714,28.714,0,0,1-27.032-19.13c-.059-.17-.119-.339-.175-.509a28.681,28.681,0,0,1,.006-18.068c.021-.062.041-.124.062-.186q.085-.248.175-.5.042-.116.084-.231a28.782,28.782,0,0,1,20-17.871l.018,0c.137-.034.274-.067.412-.1l.045-.013a28.654,28.654,0,0,1,6.261-.721L47,12.294c.008.915.585,1.179,1.283.588L54.509,7.6a1.339,1.339,0,0,0-.018-2.13L48.178.3C47.47-.276,46.9,0,46.9.913l.025,2.941a33.93,33.93,0,0,0-23.959,10q-.947.947-1.808,1.953l-.011.011-.062.075a33.875,33.875,0,0,0-8.108,21.114c-.005.061-.012.121-.014.183-.006.261-.009.526-.009.789,0,.43.009.866.025,1.3,0,.05.008.1.013.149a33.856,33.856,0,0,0,7.078,19.449c.015.019.026.04.041.059.422.545.869,1.085,1.326,1.6.029.033.062.062.092.094q.694.782,1.437,1.529a33.906,33.906,0,0,0,18.389,9.522l.063.012.047.006a34.6,34.6,0,0,0,5.654.465,33.874,33.874,0,0,0,14.417-3.184,2.718,2.718,0,0,0,.28-.153,2.645,2.645,0,0,0,.3-.124c.622-.3,1.243-.63,1.845-.97a2.747,2.747,0,1,0-2.706-4.781Z" transform="translate(-12.959 0.001)" fill="#6e00c2"/>
          <path id="Path_52137" data-name="Path 52137" d="M393.9,114.749a2.747,2.747,0,1,0,4.559-3.064c-.386-.574-.794-1.144-1.215-1.693a2.746,2.746,0,1,0-4.362,3.338C393.237,113.791,393.58,114.268,393.9,114.749Z" transform="translate(-335.937 -92.726)" fill="#6e00c2"/>
          <path id="Path_52138" data-name="Path 52138" d="M425.692,176.17c.177.552.339,1.117.483,1.681a2.747,2.747,0,0,0,5.323-1.357c-.171-.671-.364-1.344-.575-2a2.747,2.747,0,1,0-5.231,1.675Z" transform="translate(-364.237 -146.934)" fill="#6e00c2"/>
          <path id="Path_52139" data-name="Path 52139" d="M381.225,376.308a2.747,2.747,0,0,0-3.874.281c-.38.439-.778.872-1.183,1.287a2.747,2.747,0,1,0,3.929,3.839c.482-.494.957-1.009,1.409-1.533A2.748,2.748,0,0,0,381.225,376.308Z" transform="translate(-321.52 -319.809)" fill="#6e00c2"/>
          <path id="Path_52140" data-name="Path 52140" d="M437.8,243.729a2.745,2.745,0,0,0-2.827,2.663c-.017.581-.053,1.168-.106,1.746a2.747,2.747,0,0,0,2.484,2.986q.128.012.254.012a2.747,2.747,0,0,0,2.732-2.5c.063-.689.106-1.39.127-2.084A2.747,2.747,0,0,0,437.8,243.729Z" transform="translate(-372.153 -207.503)" fill="#6e00c2"/>
          <path id="Path_52141" data-name="Path 52141" d="M420.669,314.313a2.746,2.746,0,0,0-3.559,1.556c-.211.54-.443,1.082-.687,1.609a2.747,2.747,0,1,0,4.985,2.309c.291-.628.566-1.272.818-1.916A2.747,2.747,0,0,0,420.669,314.313Z" transform="translate(-356.241 -267.436)" fill="#6e00c2"/>
          <path id="Path_52142" data-name="Path 52142" d="M346.126,65.58a2.747,2.747,0,0,0-.573-3.842c-.555-.411-1.131-.811-1.711-1.188a2.747,2.747,0,0,0-2.995,4.605c.487.317.97.652,1.437,1a2.746,2.746,0,0,0,3.842-.573Z" transform="translate(-291.051 -51.172)" fill="#6e00c2"/>
        </g>
      </g>
    </g>
  </g>
</svg>
