<svg xmlns="http://www.w3.org/2000/svg" width="12.012" height="12" viewBox="0 0 12.012 12">
  <path id="color/year" d="M11.543,11.312h-.469V10.232a.469.469,0,0,0-.938,0v1.079H1.877v-.774H8.469a.469.469,0,1,0,0-.938H1.877V8.925a2.088,2.088,0,0,0,1.1-.635.339.339,0,0,1,.28-.122h0a.351.351,0,0,1,.284.125,1.432,1.432,0,0,0,1.078.6h.017a1.453,1.453,0,0,0,1.09-.605.341.341,0,0,1,.289-.122.353.353,0,0,1,.277.126,1.432,1.432,0,0,0,1.078.6h.017a1.453,1.453,0,0,0,1.09-.605.347.347,0,0,1,.276-.122h.007a.348.348,0,0,1,.283.126,1.742,1.742,0,0,0,1.205.606h.024A1.5,1.5,0,0,0,11.8,7.5a2.487,2.487,0,0,0-.781-1.823,2.668,2.668,0,0,0-1.846-.722h-2.7V3.876a1.41,1.41,0,0,0,.938-1.327A2.76,2.76,0,0,0,6.878,1.2C6.636.794,6.4.46,6.387.446a.469.469,0,0,0-.763,0c-.01.014-.249.348-.49.753A2.76,2.76,0,0,0,4.6,2.549a1.41,1.41,0,0,0,.938,1.327V4.954h-2.7A2.548,2.548,0,0,0,.235,7.5a1.347,1.347,0,0,0,.7,1.251v2.561H.469a.469.469,0,0,0,0,.938H11.543a.469.469,0,1,0,0-.938Zm-5.6-9.635.064-.106.061.1a2.465,2.465,0,0,1,.408.878.469.469,0,0,1-.938,0A2.439,2.439,0,0,1,5.942,1.677ZM1.672,8A.758.758,0,0,1,1.4,7.932.413.413,0,0,1,1.173,7.5,1.6,1.6,0,0,1,2.839,5.892H9.173A1.632,1.632,0,0,1,10.862,7.5a.363.363,0,0,1-.2.329.9.9,0,0,1-.4.133h-.013a.847.847,0,0,1-.487-.272,1.323,1.323,0,0,0-2-.006c-.171.2-.306.274-.374.274H7.373c-.062,0-.194-.07-.36-.268a1.293,1.293,0,0,0-.972-.459,1.279,1.279,0,0,0-1.028.453c-.171.2-.306.274-.374.274H4.621c-.062,0-.194-.07-.36-.268a1.289,1.289,0,0,0-1-.46H3.257a1.282,1.282,0,0,0-1,.454A1.135,1.135,0,0,1,1.689,8Z" transform="translate(0 -0.25)" fill="#ff8500"/>
</svg>
