<svg xmlns="http://www.w3.org/2000/svg" xmlns:xlink="http://www.w3.org/1999/xlink" width="80" height="80" viewBox="0 0 80 80">
  <defs>
    <clipPath id="clip-path">
      <rect id="Rectangle_148959" data-name="Rectangle 148959" width="79.037" height="79.037" fill="none"/>
    </clipPath>
  </defs>
  <g id="phucvu" transform="translate(0.265 -0.242)">
    <rect id="Rectangle_148958" data-name="Rectangle 148958" width="80" height="80" transform="translate(-0.265 0.242)" fill="none"/>
    <g id="Group_18027" data-name="Group 18027" transform="translate(0.447 0.549)">
      <g id="Group_18026" data-name="Group 18026" clip-path="url(#clip-path)">
        <g id="Mask_Group_11" data-name="Mask Group 11" transform="translate(0 4.233)">
          <g id="drinking">
            <path id="Path_971" data-name="Path 971" d="M348.433,198.567a9.823,9.823,0,0,1-3.712,7.707l-.69.556a6.987,6.987,0,0,0-2.653,5.5v5.406a14.93,14.93,0,0,1,2.682.45,14.54,14.54,0,0,0,6.85,0,17.273,17.273,0,0,1,8.2,0,12.21,12.21,0,0,0,2.018.353v-6.2a6.987,6.987,0,0,0-2.645-5.514l-.69-.564a9.825,9.825,0,0,1-3.715-7.7v-2.989h-5.646Z" transform="translate(-330.087 -187.107)" fill="#ffa008"/>
            <path id="Path_972" data-name="Path 972" d="M348.433,187.111h5.646v5.647h-5.646Z" transform="translate(-330.083 -187.111)" fill="#ffa008"/>
            <path id="Path_973" data-name="Path 973" d="M409.129,252H330.092v1.412a4.246,4.246,0,0,0,4.233,4.234H404.9a4.247,4.247,0,0,0,4.234-4.234Z" transform="translate(-330.092 -187.08)" fill="#ffa008"/>
            <path id="Path_974" data-name="Path 974" d="M378.058,219.222a14.181,14.181,0,0,1,2.215.381,12.55,12.55,0,0,0,5.915,0,13.366,13.366,0,0,1,3.628-.437,13.2,13.2,0,0,1,3.628.437,12.75,12.75,0,0,0,1.553.282v-4.557H378.058Z" transform="translate(-330.069 -187.098)" fill="#ffa008"/>
            <path id="Path_975" data-name="Path 975" d="M378.058,225.536a12.678,12.678,0,0,0,3.148,8.37l.761.875a12.691,12.691,0,0,1,3.148,8.37v6.044h2.821v-6.06a12.773,12.773,0,0,1,3.161-8.4l.735-.819A12.705,12.705,0,0,0,395,225.534v-2.816a14.2,14.2,0,0,1-2.216-.382,12.631,12.631,0,0,0-5.928,0,15.2,15.2,0,0,1-7.24,0,12.706,12.706,0,0,0-1.552-.282Z" transform="translate(-330.069 -187.094)" fill="#ffa008"/>
            <path id="Path_976" data-name="Path 976" d="M341.378,249.2h19.759V221.379a14.949,14.949,0,0,1-2.682-.45,14.614,14.614,0,0,0-6.868,0,17.22,17.22,0,0,1-8.188,0,12.224,12.224,0,0,0-2.018-.353Z" transform="translate(-330.087 -187.095)" fill="#ffa008"/>
          </g>
        </g>
      </g>
    </g>
  </g>
</svg>
