<svg xmlns="http://www.w3.org/2000/svg" xmlns:xlink="http://www.w3.org/1999/xlink" width="64" height="64" viewBox="0 0 64 64">
  <defs>
    <clipPath id="clip-path">
      <rect id="Rectangle_109" data-name="Rectangle 109" width="64" height="64" transform="translate(-0.326 -0.405)" fill="#8ac111" stroke="#d6d6d6" stroke-width="1"/>
    </clipPath>
  </defs>
  <g id="Mask_Group_12" data-name="Mask Group 12" transform="translate(0.326 0.405)" clip-path="url(#clip-path)">
    <path id="Union_4" data-name="Union 4" d="M33.537,44.661a.635.635,0,0,1-.456-.184.6.6,0,0,1-.192-.442V41.516a.6.6,0,0,1,.192-.442.627.627,0,0,1,.456-.187H49.1a.627.627,0,0,1,.456.187.6.6,0,0,1,.192.442v2.518a.6.6,0,0,1-.192.442.635.635,0,0,1-.456.184Zm.648-4.4a.637.637,0,0,1-.456-.187.6.6,0,0,1-.192-.442V30.184a.6.6,0,0,1,.192-.442.627.627,0,0,1,.456-.187H48.459a.627.627,0,0,1,.456.187.6.6,0,0,1,.192.442v9.442a.6.6,0,0,1-.192.442.637.637,0,0,1-.456.187Zm5.383-2.96a.6.6,0,0,0,0,.885.627.627,0,0,0,.456.187h2.594a.627.627,0,0,0,.456-.187.6.6,0,0,0,0-.885.627.627,0,0,0-.456-.187H40.031a.627.627,0,0,0-.464.184ZM21.6,33.774l-3.882.627s-.645-2.539,0-3.284l1.986-.629C16.392,25.9,9.665,18.09,9.665,18.09,5.712,18.983,2.634,16.623,0,12.457c4.8,1.438,9.442,3.174,13.237-.951s.037-4.82,27.221-4.82c0,0-3.079.263.184,3.424h4.419a5.939,5.939,0,0,1-1.388-3.79,6.321,6.321,0,1,1,12.641,0,5.949,5.949,0,0,1-1.383,3.79h3.334c7.211,0-4.812,14-4.812,14H31.83s13.221-14,0-14H29.46s-19.6,1.622-7.685,20.279L23.7,32.272h3.511v1.167a13.584,13.584,0,0,1-4.066.961,1.7,1.7,0,0,1-1.551-.627ZM47.279,6.321a2.721,2.721,0,0,0,5.438,0,2.721,2.721,0,0,0-5.438,0ZM31.867,28.772v-3.5H52.9l-2.107,3.5ZM61.174,14.1V10.814h1.8V14.1ZM.582,6.321A6.229,6.229,0,0,1,6.905.182a6.231,6.231,0,0,1,6.321,6.136,6.231,6.231,0,0,1-6.321,6.139A6.234,6.234,0,0,1,.582,6.321Zm3.605,0A2.678,2.678,0,0,0,6.9,8.954,2.681,2.681,0,0,0,9.621,6.321,2.684,2.684,0,0,0,6.9,3.687,2.678,2.678,0,0,0,4.187,6.321Z" transform="translate(63.213 53.707) rotate(180)" fill="#8ac111"/>
  </g>
</svg>
