<svg id="giasu" xmlns="http://www.w3.org/2000/svg" xmlns:xlink="http://www.w3.org/1999/xlink" width="80" height="80" viewBox="0 0 80 80">
  <defs>
    <clipPath id="clip-path">
      <rect id="Rectangle_148963" data-name="Rectangle 148963" width="60.348" height="60.348" fill="none"/>
    </clipPath>
  </defs>
  <rect id="Rectangle_148962" data-name="Rectangle 148962" width="80" height="80" fill="none"/>
  <g id="Group_18041" data-name="Group 18041" transform="translate(9.826 9.826)">
    <g id="Group_18040" data-name="Group 18040" clip-path="url(#clip-path)">
      <g id="Mask_Group_13" data-name="Mask Group 13" transform="translate(2.82 0)">
        <path id="Union_5" data-name="Union 5" d="M1045.276,252.174h-43.483l-1.849-.543-1.251-.909a5.926,5.926,0,0,1-2.19-4.583,6.034,6.034,0,0,1,3.88-5.582,6.105,6.105,0,0,1-6.115-6.019,5.937,5.937,0,0,1,2.305-4.657l8.155-12.528h31.594l8.954,10.682v3.6h-3.561l3.39,6.193V240.1h2.231v2.678h-2.06v6.7h2.06v2.7Zm-46.034-6.035a3.391,3.391,0,0,0,3.43,3.347h39.86v-6.694h-39.858a3.39,3.39,0,0,0-3.419,3.347Zm-2.228-11.605a3.394,3.394,0,0,0,3.429,3.35h39.226v-6.248h-40.9a3.324,3.324,0,0,0-1.752,2.9Zm47.731-13.057-2.3,1.38.2-3.772,1.667.087c.059-1.085.4-7.582.572-10.617l-5.148,2.363.123-2.275a39.538,39.538,0,0,0-15.423-4.854,37.128,37.128,0,0,0-15.632,3.376l-.059,1.3-8.851-4.476,24.717-12.166,17.738,10.812a.813.813,0,0,1,.414-.336c4.526-1.79,3.553,2.028,3.553,2.028l-.038.708,2.687,1.624-2.846,1.307-.6,11.265,1.811.093-.2,3.771Zm-1.421-14.934a1.171,1.171,0,1,0,1.257-1.079h-.084a1.159,1.159,0,0,0-1.177,1.084Zm.371-3.1,1.42.865c.018-.37.032-.622.038-.712.02-.382-.143-.525-.376-.535h-.04a2.522,2.522,0,0,0-1.044.384Zm-19.638,9.714a43.944,43.944,0,0,0-14.081,2.285l.384-7.5a33.2,33.2,0,0,1,14.027-3.046,35.457,35.457,0,0,1,13.83,4.352l-.4,7.611a43.773,43.773,0,0,0-13.756-3.7Z" transform="translate(-994.268 -191.826)" fill="#2fa7ff"/>
      </g>
    </g>
  </g>
</svg>
