<svg id="congnghe" xmlns="http://www.w3.org/2000/svg" width="80" height="80" viewBox="0 0 80 80">
  <rect id="Rectangle_148968" data-name="Rectangle 148968" width="80" height="80" fill="none"/>
  <path id="Path_14060" data-name="Path 14060" d="M828.324,582.277a3.668,3.668,0,0,1-3.663-3.67l6.1-7.339V539.492a2.451,2.451,0,0,1,2.451-2.441h27.518v2.183H836.339a2.141,2.141,0,0,0-2.134,2.134v25.585a2.14,2.14,0,0,0,2.134,2.13H878.98a2.135,2.135,0,0,0,2.13-2.13v-7.5h3.446v9.384h0v2.443l6.114,7.339a3.67,3.67,0,0,1-3.668,3.67Zm23.836-1.836a.613.613,0,0,0,.616.608h9.782a.611.611,0,1,0,.065-1.221.388.388,0,0,0-.065,0h-9.777a.612.612,0,0,0-.621.6Zm-4.577-1.834h20.158l-1.864-2.235h-16.43Zm6.068-18.421v-5.1h5.1v5.1Zm8.222-.61v-5.1h5.093v5.1Zm9.59-.776v-6.057h6.054V558.8Zm8.02-2.115V546.218h10.463v10.468Zm-22.634-3.513v-5.1h5.1v5.1Zm9.08-1.126v-6.056h6.052v6.056Zm7.095-7.607v-8.655h8.655v8.655Zm-9.52,0v-6.054h6.059v6.054Zm19.943-4.9v-13h13v13Zm-8.952-6.049v-6.058h6.057v6.058Z" transform="translate(-817.445 -513.998)" fill="#00d7e2"/>
</svg>
