<svg xmlns="http://www.w3.org/2000/svg" xmlns:xlink="http://www.w3.org/1999/xlink" width="64" height="64" viewBox="0 0 64 64">
  <defs>
    <clipPath id="clip-path">
      <rect id="Rectangle_2179" data-name="Rectangle 2179" width="64" height="64" transform="translate(176.999 1023.998)" fill="#8218d1" stroke="#707070" stroke-width="1"/>
    </clipPath>
  </defs>
  <g id="Mask_Group_67" data-name="Mask Group 67" transform="translate(-176.999 -1023.998)" clip-path="url(#clip-path)">
    <g id="ramen1" transform="translate(177 1024.02)">
      <path id="Path_13449" data-name="Path 13449" d="M2.507,28.973a6.284,6.284,0,0,1,10.676-3.71,6.042,6.042,0,0,1,1.237,1.773,5.872,5.872,0,0,1,.55,1.943h1.438a10.136,10.136,0,0,0-1.636-3.516,9.815,9.815,0,0,0-1.182-1.411A10.937,10.937,0,0,0,10.938,22.1c-3.272-1.714-6.912-1.414-9.067.74a6.94,6.94,0,0,0-1.73,6.134Zm0,0" transform="translate(0 2.992)" fill="#8218d1"/>
      <path id="Path_13450" data-name="Path 13450" d="M8.765,25.171a3.963,3.963,0,0,0-4.541,3.213H12.07a3.734,3.734,0,0,0-.318-.959,3.774,3.774,0,0,0-.788-1.134,3.934,3.934,0,0,0-2.2-1.12Zm0,0" transform="translate(0.603 3.581)" fill="#8218d1"/>
      <path id="Path_13451" data-name="Path 13451" d="M16.008,53.971H43.43v2.285H16.008Zm0,0" transform="translate(2.286 7.702)" fill="#8218d1"/>
      <path id="Path_13452" data-name="Path 13452" d="M.074,33.975a22.949,22.949,0,0,0,17.21,20.567H46.706a22.949,22.949,0,0,0,17.21-20.567Zm2.658,2.588,2.236-.47a18.751,18.751,0,0,0,.638,2.285l-2.157.754a20.672,20.672,0,0,1-.717-2.569Zm10.39,13.915a20.56,20.56,0,0,1-8.684-9.012l2.048-1.013a18.283,18.283,0,0,0,7.73,8.016Zm0,0" transform="translate(0.011 4.846)" fill="#8218d1"/>
      <path id="Path_13453" data-name="Path 13453" d="M23.435,17.008a9.323,9.323,0,0,0-.52-3.313,11.731,11.731,0,0,1-.623-3.99,12.482,12.482,0,0,1,.228-2.545l-2.212-.051a9.3,9.3,0,0,0-.3,2.6,9.323,9.323,0,0,0,.52,3.313,11.726,11.726,0,0,1,.623,4,11.739,11.739,0,0,1-.623,4,9.325,9.325,0,0,0-.52,3.313,9.371,9.371,0,0,0,.52,3.32,11.5,11.5,0,0,1,.609,3.313h2.285a9.175,9.175,0,0,0-.5-2.638,11.739,11.739,0,0,1-.623-4,11.726,11.726,0,0,1,.623-4,9.359,9.359,0,0,0,.517-3.318Zm0,0" transform="translate(2.857 1.009)" fill="#8218d1"/>
      <path id="Path_13454" data-name="Path 13454" d="M16.008,5.151l7.718.18a7.964,7.964,0,0,0,.232-1.35h-7.95Zm0,0" transform="translate(2.286 0.562)" fill="#8218d1"/>
      <path id="Path_13455" data-name="Path 13455" d="M12.828,20.438a6.072,6.072,0,0,0-1.123.617,13.756,13.756,0,0,1,1.828,1.513,12.383,12.383,0,0,1,.861.956,6.255,6.255,0,0,1,4.561.1c-.026-.343-.044-.722-.044-1.143,0-.527.024-.986.063-1.4a6.836,6.836,0,0,0-6.148-.647Zm0,0" transform="translate(1.672 2.849)" fill="#8218d1"/>
      <path id="Path_13456" data-name="Path 13456" d="M19.53,28.438a8.6,8.6,0,0,0-.363-2.18,3.993,3.993,0,0,0-3.94-1.435,12,12,0,0,1,1.321,3.615Zm0,0" transform="translate(2.175 3.527)" fill="#8218d1"/>
      <path id="Path_13457" data-name="Path 13457" d="M32,24.766a9.368,9.368,0,0,0,.52,3.319,11.505,11.505,0,0,1,.609,3.314h2.285v-.077q-.02-.373-.058-.685a.206.206,0,0,0-.008-.071c-.027-.216-.062-.411-.1-.6-.008-.036-.015-.073-.023-.108-.04-.177-.082-.343-.129-.511-.011-.034-.021-.068-.03-.1-.049-.162-.1-.322-.149-.486a11.739,11.739,0,0,1-.623-4,11.724,11.724,0,0,1,.623-4,9.352,9.352,0,0,0,.52-3.313,9.326,9.326,0,0,0-.52-3.314,11.738,11.738,0,0,1-.63-3.984,11.71,11.71,0,0,1,.623-4c.045-.142.087-.28.129-.42l.031-.107c.041-.141.08-.282.114-.431l.009-.033c.035-.152.068-.313.1-.482.008-.045.014-.091.023-.138.023-.152.044-.313.06-.485,0-.026.006-.049.008-.075H33.1a11.59,11.59,0,0,1-.58,2.857A9.338,9.338,0,0,0,32,10.151a9.323,9.323,0,0,0,.52,3.313,11.726,11.726,0,0,1,.623,4,11.739,11.739,0,0,1-.623,4A9.32,9.32,0,0,0,32,24.766Zm0,0" transform="translate(4.571 0.562)" fill="#8218d1"/>
      <path id="Path_13458" data-name="Path 13458" d="M54.9,29.086l2.5-2.926-6.948-5.952-7.595,8.878Zm0,0" transform="translate(6.122 2.88)" fill="#8218d1"/>
      <path id="Path_13459" data-name="Path 13459" d="M36.01,22.692a8.976,8.976,0,0,0,.435,2.713,6.206,6.206,0,0,1,8.293-.993l1.5-1.748a8.524,8.524,0,0,0-10.224.028Zm0,0" transform="translate(5.143 2.989)" fill="#8218d1"/>
      <path id="Path_13460" data-name="Path 13460" d="M37.054,28.4h3.631l2.41-2.816a3.917,3.917,0,0,0-2.1-.612A3.992,3.992,0,0,0,37.054,28.4Zm0,0" transform="translate(5.292 3.561)" fill="#8218d1"/>
      <path id="Path_13461" data-name="Path 13461" d="M27.426,29.976H.011v2.285H64V29.976Zm0,0" transform="translate(0.002 4.275)" fill="#8218d1"/>
      <path id="Path_13462" data-name="Path 13462" d="M36.736,5.719l22.016.521V3.981H37a10.885,10.885,0,0,1-.263,1.738Zm0,0" transform="translate(5.247 0.562)" fill="#8218d1"/>
      <path id="Path_13463" data-name="Path 13463" d="M16.008,2.263h45.7V.005l-45.7,1.089Zm0,0" transform="translate(2.286 -0.005)" fill="#8218d1"/>
      <path id="Path_13464" data-name="Path 13464" d="M24.007,24.766a9.368,9.368,0,0,0,.52,3.319c.056.182.114.372.171.571.009.033.02.065.028.1q.084.3.159.641l.027.128c.048.228.091.485.128.762a1.205,1.205,0,0,0,.016.141c.034.3.063.611.078.966V31.4h2.285a9.172,9.172,0,0,0-.5-2.638,11.739,11.739,0,0,1-.623-4,11.71,11.71,0,0,1,.623-4,9.364,9.364,0,0,0,.52-3.313,9.323,9.323,0,0,0-.52-3.313,11.725,11.725,0,0,1-.625-3.989,11.71,11.71,0,0,1,.623-4,9.33,9.33,0,0,0,.472-2.171H25.109a.226.226,0,0,1-.008.072q-.034.414-.086.769c-.008.05-.017.1-.024.146q-.051.309-.114.578c-.008.035-.015.073-.023.105-.046.2-.095.382-.145.557-.015.054-.03.105-.046.158-.047.161-.095.317-.142.469a9.333,9.333,0,0,0-.515,3.316,9.323,9.323,0,0,0,.52,3.313,11.726,11.726,0,0,1,.623,4,11.739,11.739,0,0,1-.623,4,9.32,9.32,0,0,0-.52,3.3Zm0,0" transform="translate(3.428 0.562)" fill="#8218d1"/>
      <path id="Path_13465" data-name="Path 13465" d="M28.006,24.766a9.368,9.368,0,0,0,.52,3.319,11.506,11.506,0,0,1,.609,3.314H31.42a9.172,9.172,0,0,0-.5-2.638,11.739,11.739,0,0,1-.623-4,11.724,11.724,0,0,1,.623-4,9.365,9.365,0,0,0,.52-3.313,9.326,9.326,0,0,0-.52-3.314,11.738,11.738,0,0,1-.626-3.984,11.71,11.71,0,0,1,.623-4,9.33,9.33,0,0,0,.472-2.171H29.1a11.59,11.59,0,0,1-.58,2.857,9.333,9.333,0,0,0-.515,3.313,9.323,9.323,0,0,0,.52,3.313,11.726,11.726,0,0,1,.623,4,11.739,11.739,0,0,1-.623,4,9.32,9.32,0,0,0-.52,3.3Zm0,0" transform="translate(3.999 0.562)" fill="#8218d1"/>
    </g>
  </g>
</svg>
