<?xml version="1.0" encoding="utf-8"?>
<!-- Generator: Adobe Illustrator 23.0.0, SVG Export Plug-In . SVG Version: 6.00 Build 0)  -->
<svg version="1.1" id="Layer_1" xmlns="http://www.w3.org/2000/svg" xmlns:xlink="http://www.w3.org/1999/xlink" x="0px" y="0px"
	 viewBox="0 0 27 27" style="enable-background:new 0 0 27 27;" xml:space="preserve">
<style type="text/css">
	.st0{fill:#FFFFFF;}
</style>
<g>
	<rect class="st0" width="27" height="27"/>
	<g>
		<path d="M25,1h-1h-1h-1h-1h-1h-1v1v1v1v1v1v1v1h1h1h1h1h1h1h1V7V6V5V4V3V2V1H25z M25,3v1v1v1v1h-1h-1h-1h-1h-1V6V5V4V3V2h1h1h1h1
			h1V3z"/>
		<polygon points="22,3 21,3 21,4 21,5 21,6 22,6 23,6 24,6 24,5 24,4 24,3 23,3 		"/>
		<polygon points="10,4 9,4 9,5 9,6 10,6 10,5 		"/>
		<polygon points="14,5 13,5 13,6 14,6 14,7 15,7 15,6 15,5 15,4 14,4 		"/>
		<polygon points="17,5 17,6 18,6 18,5 18,4 18,3 18,2 18,1 17,1 17,2 17,3 17,4 16,4 16,5 		"/>
		<polygon points="5,6 6,6 6,5 6,4 6,3 5,3 4,3 3,3 3,4 3,5 3,6 4,6 		"/>
		<path d="M3,8h1h1h1h1h1V7V6V5V4V3V2V1H7H6H5H4H3H2H1v1v1v1v1v1v1v1h1H3z M2,6V5V4V3V2h1h1h1h1h1v1v1v1v1v1H6H5H4H3H2V6z"/>
		<rect x="9" y="7" width="1" height="1"/>
		<polygon points="11,8 12,8 12,7 12,6 12,5 13,5 13,4 13,3 14,3 15,3 15,4 16,4 16,3 16,2 16,1 15,1 15,2 14,2 13,2 13,1 12,1 
			11,1 10,1 10,2 11,2 12,2 12,3 11,3 10,3 10,4 11,4 11,5 11,6 10,6 10,7 11,7 		"/>
		<polygon points="2,9 1,9 1,10 2,10 3,10 3,9 		"/>
		<polygon points="8,10 9,10 9,9 8,9 7,9 6,9 6,10 6,11 7,11 7,10 		"/>
		<polygon points="12,10 12,9 11,9 11,8 10,8 10,9 10,10 11,10 11,11 12,11 		"/>
		<path d="M25,10h-1h-1V9h-1h-1v1h-1v1h1v1h-1v-1h-1h-1v1h-1v-1v-1h1V9V8V7h-1v1v1h-1V8V7h-1v1v1h-1V8V7h-1v1v1v1h1h1h1v1h-1h-1h-1
			h-1v1h-1v1h-1v1H9H8v1H7v-1h1v-1H7v-1H6v1v1v1v1h1h1v1h1v-1h1v1H9v1v1v1v1h1v-1v-1h1v-1h1v-1v-1h-1v-1h1v-1v-1h1v-1h1h1h1v1h1v1h1
			v-1h1v1h1v1v1h-1v1h-1v-1h1v-1h-1h-1v-1h-1v-1h-1v1v1h1v1h-1v1h-1v-1h-1v1v1h1h1v1h1v-1v-1h1v1v1v1h-1h-1v1h-1h-1v-1h-1v-1h-1v1v1
			v1h-1v1v1h1v-1h1v-1h1v1h1v-1h1h1h1h1v1h1h1v-1h1h1v1h1v-1h1v-1h-1h-1v-1h1v-1h-1v-1v-1h-1v-1h1h1v-1h-1h-1v-1v-1h1h1v-1v-1h1v1h1
			v1v1h1v-1v-1v-1h-1V10z M21,19v1v1h-1h-1h-1v-1v-1v-1h1h1h1V19z"/>
		<polygon points="3,12 3,11 2,11 1,11 1,12 2,12 		"/>
		<polygon points="4,12 4,13 5,13 5,12 5,11 5,10 4,10 3,10 3,11 4,11 		"/>
		<rect x="7" y="11" width="1" height="1"/>
		<polygon points="9,13 10,13 10,12 11,12 11,11 10,11 9,11 9,12 8,12 8,13 		"/>
		<rect x="13" y="14" width="1" height="1"/>
		<polygon points="24,15 24,16 25,16 25,17 26,17 26,16 26,15 25,15 25,14 24,14 		"/>
		<rect x="14" y="15" width="1" height="1"/>
		<polygon points="23,17 23,18 23,19 24,19 24,18 24,17 24,16 23,16 		"/>
		<polygon points="2,17 2,16 2,15 2,14 3,14 3,13 2,13 1,13 1,14 1,15 1,16 1,17 1,18 2,18 		"/>
		<rect x="5" y="17" width="1" height="1"/>
		<rect x="7" y="17" width="1" height="1"/>
		<path d="M6,19H5H4H3H2H1v1v1v1v1v1v1v1h1h1h1h1h1h1h1v-1v-1v-1v-1v-1v-1v-1H7H6z M7,21v1v1v1v1H6H5H4H3H2v-1v-1v-1v-1v-1h1h1h1h1
			h1V21z"/>
		<polygon points="13,19 13,20 14,20 15,20 15,19 14,19 		"/>
		<rect x="19" y="19" width="1" height="1"/>
		<polygon points="25,20 25,21 26,21 26,20 26,19 25,19 		"/>
		<polygon points="4,21 3,21 3,22 3,23 3,24 4,24 5,24 6,24 6,23 6,22 6,21 5,21 		"/>
		<polygon points="25,23 25,24 25,25 25,26 26,26 26,25 26,24 26,23 26,22 25,22 24,22 24,23 		"/>
		<polygon points="15,24 15,25 16,25 16,24 16,23 15,23 		"/>
		<polygon points="17,24 17,25 17,26 18,26 18,25 18,24 18,23 17,23 		"/>
		<rect x="23" y="23" width="1" height="1"/>
		<polygon points="10,24 9,24 9,25 9,26 10,26 11,26 11,25 10,25 		"/>
		<polygon points="12,25 12,26 13,26 14,26 14,25 14,24 13,24 12,24 11,24 11,25 		"/>
		<polygon points="20,25 21,25 22,25 22,24 21,24 21,23 20,23 20,24 		"/>
		<rect x="19" y="25" width="1" height="1"/>
		<rect x="22" y="25" width="1" height="1"/>
	</g>
</g>
</svg>
