<svg xmlns="http://www.w3.org/2000/svg" width="18" height="18" viewBox="0 0 18 18">
  <g id="download_2_" data-name="download (2)" transform="translate(0 0)">
    <path id="Path_16066" data-name="Path 16066" d="M9,18A9,9,0,0,0,17.643,6.491a.75.75,0,0,0-1.44.421,7.49,7.49,0,1,1-3.023-4.141.75.75,0,0,0,.839-1.244A9,9,0,1,0,9,18Zm0,0" transform="translate(0 0)" fill="#ff8500"/>
    <path id="Path_16067" data-name="Path 16067" d="M123.473,32.223l-7.72,7.719-2.47-2.469a.75.75,0,0,0-1.061,1.061l3,3a.75.75,0,0,0,1.061,0l8.25-8.25a.75.75,0,0,0-1.061-1.061Zm0,0" transform="translate(-106.753 -30.503)" fill="#ff8500"/>
  </g>
</svg>
