<svg id="Group_28039" data-name="Group 28039" xmlns="http://www.w3.org/2000/svg" width="287.405" height="146.469" viewBox="0 0 287.405 146.469">
  <path id="Path_35334" data-name="Path 35334" d="M0,23.437,14.648,0H102.53l14.648,23.437H29.3L43.941,46.872H102.53L87.881,70.307H58.589L73.237,93.743,58.589,117.177Z" fill="#ff8500" fill-rule="evenodd"/>
  <g id="Group_22425" data-name="Group 22425" transform="translate(78.269)">
    <path id="Path_35335" data-name="Path 35335" d="M520.434,163.088a35.152,35.152,0,1,1-35.156,35.152,35.151,35.151,0,0,1,35.156-35.152Zm0,14.645a20.506,20.506,0,1,0,20.5,20.507A20.505,20.505,0,0,0,520.434,177.733Z" transform="translate(-424.076 -116.216)" fill="#6e00c2" fill-rule="evenodd"/>
    <path id="Path_35336" data-name="Path 35336" d="M790.532,46.872a35.152,35.152,0,1,1-35.155,35.154V23.437L762.7,11.718,770.026,0V53.471a34.989,34.989,0,0,1,20.506-6.6Zm0,14.645a20.5,20.5,0,0,0-20.506,20.507v0a20.5,20.5,0,1,0,20.506-20.509Z" transform="translate(-616.548)" fill="#6e00c2" fill-rule="evenodd"/>
    <path id="Path_35337" data-name="Path 35337" d="M326.212,163.088l-14.648,23.443v46.862a14.643,14.643,0,0,1-29.287.007l-9.945,15.916a29.293,29.293,0,0,0,53.88-15.922v-70.3Z" transform="translate(-272.332 -116.216)" fill="#6e00c2"/>
  </g>
  <g id="Group_22426" data-name="Group 22426" transform="translate(139.471 128.683)">
    <path id="Path_35338" data-name="Path 35338" d="M492.524,461.786l.025.051a3.866,3.866,0,0,1-.956,2.778,3.45,3.45,0,0,1-2.586.96,3.355,3.355,0,0,1-2.722-1.212,5.27,5.27,0,0,1-1.007-3.456v-3.439a5.282,5.282,0,0,1,1.011-3.452,3.344,3.344,0,0,1,2.718-1.224,3.487,3.487,0,0,1,2.594.939,3.873,3.873,0,0,1,.948,2.8l-.025.051h-.947a3.311,3.311,0,0,0-.683-2.18,2.419,2.419,0,0,0-1.886-.7,2.346,2.346,0,0,0-2,.966,4.621,4.621,0,0,0-.717,2.787v3.47a4.688,4.688,0,0,0,.717,2.821,2.346,2.346,0,0,0,2,.966,2.445,2.445,0,0,0,1.886-.691,3.358,3.358,0,0,0,.683-2.228Z" transform="translate(-485.278 -451.34)" fill="#323232"/>
    <path id="Path_35339" data-name="Path 35339" d="M516.1,459.6a4.6,4.6,0,0,1,.922-2.953,3.228,3.228,0,0,1,4.954,0,4.585,4.585,0,0,1,.926,2.957v1.357a4.591,4.591,0,0,1-.922,2.966,3.251,3.251,0,0,1-4.959,0,4.588,4.588,0,0,1-.922-2.966Zm1.032,1.367a4.082,4.082,0,0,0,.615,2.309,2.116,2.116,0,0,0,3.5,0,4.042,4.042,0,0,0,.623-2.3V459.6a4.013,4.013,0,0,0-.623-2.288,2.113,2.113,0,0,0-3.5,0,4.056,4.056,0,0,0-.615,2.288Zm3.329-8.886h1.255l.017.043-1.886,2.228-.879,0Z" transform="translate(-507.242 -450.832)" fill="#323232"/>
    <path id="Path_35340" data-name="Path 35340" d="M559.638,471.424l.2.9h.051l.222-.9,1.98-6.9h1.05l-2.876,9.234h-.8l-2.893-9.234h1.058Z" transform="translate(-536.083 -459.698)" fill="#323232"/>
    <path id="Path_35341" data-name="Path 35341" d="M586.054,451.777h-1.033v-1.451h1.033Zm0,11.863h-1.033v-9.234h1.033Z" transform="translate(-556.355 -449.584)" fill="#323232"/>
    <path id="Path_35342" data-name="Path 35342" d="M599.01,464.6a3.048,3.048,0,0,1-2.441-1.122,4.285,4.285,0,0,1-.948-2.863V459.08a4.421,4.421,0,0,1,.952-2.906,2.877,2.877,0,0,1,2.292-1.156,2.688,2.688,0,0,1,2.253,1.033,4.41,4.41,0,0,1,.8,2.777v1.012h-5.283v.766a3.732,3.732,0,0,0,.641,2.234,2.023,2.023,0,0,0,1.732.891,2.979,2.979,0,0,0,1.31-.267,2.712,2.712,0,0,0,.943-.758l.418.722a2.991,2.991,0,0,1-1.08.854A3.641,3.641,0,0,1,599.01,464.6Zm-.145-8.68a1.865,1.865,0,0,0-1.583.879,3.81,3.81,0,0,0-.645,2.168H600.9v-.393a3.2,3.2,0,0,0-.537-1.9A1.732,1.732,0,0,0,598.865,455.922Zm2.091-2.586v.162h-.913l-1.135-1.417-1.127,1.417h-.888v-.179l1.647-1.895h.742Zm-1.383,13.774h-1.22V465.66h1.22Z" transform="translate(-563.909 -450.367)" fill="#323232"/>
    <path id="Path_35343" data-name="Path 35343" d="M625.718,472.639a1.973,1.973,0,0,0,1.408-.581,2.117,2.117,0,0,0,.606-1.6h.9l.026.051a2.783,2.783,0,0,1-.862,2.142,3.087,3.087,0,0,1-4.536-.277,4.743,4.743,0,0,1-.858-2.931v-1.434a4.766,4.766,0,0,1,.858-2.932,2.879,2.879,0,0,1,2.454-1.148,2.788,2.788,0,0,1,2.129.9,3.242,3.242,0,0,1,.815,2.368l-.017.043h-.913a2.557,2.557,0,0,0-.576-1.754,1.84,1.84,0,0,0-1.438-.653,1.883,1.883,0,0,0-1.741.9,4.339,4.339,0,0,0-.546,2.279v1.437a4.352,4.352,0,0,0,.546,2.292A1.885,1.885,0,0,0,625.718,472.639Z" transform="translate(-582.996 -459.275)" fill="#323232"/>
    <path id="Path_35344" data-name="Path 35344" d="M663.025,456.324v2.356h1.6v.871h-1.6v5.984a2.344,2.344,0,0,0,.256,1.27.782.782,0,0,0,.674.375,3.184,3.184,0,0,0,.4-.026q.2-.026.443-.077l.137.785a2.118,2.118,0,0,1-.534.167,3.482,3.482,0,0,1-.661.064,1.521,1.521,0,0,1-1.284-.614,3.233,3.233,0,0,1-.466-1.944V459.55h-1.28v-.871h1.28v-2.356Z" transform="translate(-610.292 -453.858)" fill="#323232"/>
    <path id="Path_35345" data-name="Path 35345" d="M684.658,465.018l-.674-.051a1.584,1.584,0,0,0-1.186.482,2.927,2.927,0,0,0-.692,1.327v6.554h-1.024V464.1h.9l.12,1.528a3.129,3.129,0,0,1,.858-1.25,1.885,1.885,0,0,1,1.251-.448,1.8,1.8,0,0,1,.324.03,1.637,1.637,0,0,1,.256.064Z" transform="translate(-624.807 -459.275)" fill="#323232"/>
    <path id="Path_35346" data-name="Path 35346" d="M696.85,468.04a4.6,4.6,0,0,1,.922-2.953,3.228,3.228,0,0,1,4.954,0,4.584,4.584,0,0,1,.926,2.958V469.4a4.59,4.59,0,0,1-.922,2.966,3.251,3.251,0,0,1-4.958,0,4.589,4.589,0,0,1-.922-2.966Zm1.033,1.367a4.084,4.084,0,0,0,.614,2.309,2.116,2.116,0,0,0,3.5,0,4.042,4.042,0,0,0,.623-2.3v-1.36a4.012,4.012,0,0,0-.623-2.288,2.113,2.113,0,0,0-3.5,0,4.057,4.057,0,0,0-.614,2.288Z" transform="translate(-636.043 -459.275)" fill="#323232"/>
    <path id="Path_35347" data-name="Path 35347" d="M728.022,464.1l.085,1.528a3.08,3.08,0,0,1,.977-1.255,2.366,2.366,0,0,1,1.43-.444,2.2,2.2,0,0,1,1.9.918,4.921,4.921,0,0,1,.661,2.854v5.633h-1.033v-5.624a3.949,3.949,0,0,0-.461-2.219,1.547,1.547,0,0,0-1.34-.64,1.808,1.808,0,0,0-1.314.516,3.2,3.2,0,0,0-.794,1.378v6.588h-1.024V464.1Z" transform="translate(-657.606 -459.275)" fill="#323232"/>
    <path id="Path_35348" data-name="Path 35348" d="M754.724,468.262a5.58,5.58,0,0,1,.794-3.149,2.5,2.5,0,0,1,2.193-1.186,2.444,2.444,0,0,1,1.361.38,2.944,2.944,0,0,1,.969,1.08l.1-1.289h.871v9.243a4.122,4.122,0,0,1-.828,2.748,2.913,2.913,0,0,1-2.347.973,4.6,4.6,0,0,1-1.173-.166,4.766,4.766,0,0,1-1.114-.44l.282-.9a3.648,3.648,0,0,0,.93.414,3.758,3.758,0,0,0,1.058.149,1.9,1.9,0,0,0,1.63-.708,3.432,3.432,0,0,0,.529-2.074v-1.118a2.814,2.814,0,0,1-.964.956,2.582,2.582,0,0,1-1.323.333,2.546,2.546,0,0,1-2.181-1.088,4.83,4.83,0,0,1-.789-2.9Zm1.033,1.263a4.085,4.085,0,0,0,.538,2.236,1.8,1.8,0,0,0,1.621.837,1.958,1.958,0,0,0,1.255-.406,2.74,2.74,0,0,0,.81-1.122v-4.574a3.149,3.149,0,0,0-.789-1.19,1.794,1.794,0,0,0-1.259-.457,1.767,1.767,0,0,0-1.63.947,4.9,4.9,0,0,0-.546,2.466Z" transform="translate(-677.284 -459.275)" fill="#323232"/>
    <path id="Path_35349" data-name="Path 35349" d="M803.825,469.524a4.864,4.864,0,0,1-.781,2.9,2.509,2.509,0,0,1-2.154,1.084,2.733,2.733,0,0,1-1.357-.324,2.667,2.667,0,0,1-.965-.939v4.634h-1.024V464.1h.862l.111,1.272a2.9,2.9,0,0,1,.973-1.067,2.63,2.63,0,0,1,3.55.806,5.622,5.622,0,0,1,.786,3.154Zm-1.042-1.255a4.869,4.869,0,0,0-.555-2.468,1.778,1.778,0,0,0-1.63-.954,1.8,1.8,0,0,0-1.259.453,2.973,2.973,0,0,0-.773,1.18v4.661a2.6,2.6,0,0,0,.785,1.1,1.963,1.963,0,0,0,1.254.4,1.812,1.812,0,0,0,1.626-.851,4.1,4.1,0,0,0,.55-2.254Z" transform="translate(-707.797 -459.275)" fill="#323232"/>
    <path id="Path_35350" data-name="Path 35350" d="M827.341,455.864a3.08,3.08,0,0,1,1-1.2,2.428,2.428,0,0,1,1.412-.427,2.185,2.185,0,0,1,1.878.9,4.789,4.789,0,0,1,.657,2.8v5.7h-1.033v-5.718a3.763,3.763,0,0,0-.456-2.125,1.511,1.511,0,0,0-1.31-.64,1.9,1.9,0,0,0-1.315.491,3.123,3.123,0,0,0-.836,1.31v6.682h-1.024V450.326h1.024Z" transform="translate(-728.301 -449.584)" fill="#323232"/>
    <path id="Path_35351" data-name="Path 35351" d="M859.994,463.89a2.964,2.964,0,0,1-.973,1.2,2.413,2.413,0,0,1-1.417.422,2.205,2.205,0,0,1-1.916-.986,5.431,5.431,0,0,1-.687-3.068V456.1h1.024v5.377a4.853,4.853,0,0,0,.44,2.4,1.407,1.407,0,0,0,1.276.721,2.116,2.116,0,0,0,1.43-.474,2.628,2.628,0,0,0,.789-1.3V456.1h1.024v9.234h-.922ZM858.953,452.7h1.255l.017.043-1.886,2.227-.879,0Z" transform="translate(-748.741 -451.277)" fill="#323232"/>
    <path id="Path_35352" data-name="Path 35352" d="M883.386,456.324v2.356h1.6v.871h-1.6v5.984a2.34,2.34,0,0,0,.256,1.27.781.781,0,0,0,.674.375,3.18,3.18,0,0,0,.4-.026q.2-.026.443-.077l.137.785a2.125,2.125,0,0,1-.534.167,3.486,3.486,0,0,1-.661.064,1.521,1.521,0,0,1-1.284-.614,3.237,3.237,0,0,1-.465-1.944V459.55h-1.28v-.871h1.28v-2.356Z" transform="translate(-767.32 -453.858)" fill="#323232"/>
    <path id="Path_35353" data-name="Path 35353" d="M915.147,464.1l.085,1.434a2.944,2.944,0,0,1,.973-1.186,2.448,2.448,0,0,1,1.426-.418,2.088,2.088,0,0,1,1.408.491,2.872,2.872,0,0,1,.837,1.489,3.389,3.389,0,0,1,.968-1.451,2.274,2.274,0,0,1,1.515-.529,2.147,2.147,0,0,1,1.882.985,5.448,5.448,0,0,1,.67,3.026v5.394h-1.033V467.92a4.537,4.537,0,0,0-.461-2.39,1.487,1.487,0,0,0-1.315-.691,1.586,1.586,0,0,0-1.4.768,4.205,4.205,0,0,0-.614,1.929v5.795h-1.024v-5.4a4.447,4.447,0,0,0-.473-2.373,1.5,1.5,0,0,0-1.319-.708,1.76,1.76,0,0,0-1.3.491,2.827,2.827,0,0,0-.7,1.344v6.648h-1.024V464.1Z" transform="translate(-790.956 -459.275)" fill="#323232"/>
    <path id="Path_35354" data-name="Path 35354" d="M957.833,456.508a4.6,4.6,0,0,1,.922-2.953,3.228,3.228,0,0,1,4.954,0,4.582,4.582,0,0,1,.926,2.957v1.357a4.591,4.591,0,0,1-.922,2.966,3.252,3.252,0,0,1-4.959,0,4.59,4.59,0,0,1-.922-2.966Zm5.794-5.547-.026.051h-1.084l-1.271-1.459-1.28,1.459h-1.076l-.025-.051,1.92-2.023h.922Zm-4.762,6.914a4.085,4.085,0,0,0,.614,2.309,2.116,2.116,0,0,0,3.5,0,4.044,4.044,0,0,0,.623-2.305v-1.36a4.014,4.014,0,0,0-.623-2.288,2.113,2.113,0,0,0-3.5,0,4.058,4.058,0,0,0-.614,2.288Zm5.351-10.132h1.143l-1.339,1.98h-.828Z" transform="translate(-822.019 -447.743)" fill="#323232"/>
    <path id="Path_35355" data-name="Path 35355" d="M987.614,456.324v2.356h1.6v.871h-1.6v5.984a2.342,2.342,0,0,0,.256,1.27.781.781,0,0,0,.674.375,3.174,3.174,0,0,0,.4-.026q.2-.026.443-.077l.137.785a2.116,2.116,0,0,1-.534.167,3.483,3.483,0,0,1-.661.064,1.521,1.521,0,0,1-1.284-.614,3.235,3.235,0,0,1-.465-1.944V459.55H985.3v-.871h1.28v-2.356Z" transform="translate(-841.592 -453.858)" fill="#323232"/>
  </g>
</svg>
