<svg xmlns="http://www.w3.org/2000/svg" width="12.641" height="14.949" viewBox="0 0 12.641 14.949">
  <path id="Union_103" data-name="Union 103" d="M-10801.54,21432.951a2.453,2.453,0,0,1-1.771-.65,2.291,2.291,0,0,1-.691-1.748c0-.281.011-.559.031-.826a7.813,7.813,0,0,1,.111-.881,6.236,6.236,0,0,1,.218-.885,4.077,4.077,0,0,1,.364-.826,3.2,3.2,0,0,1,.547-.719,2.484,2.484,0,0,1,.789-.494,2.813,2.813,0,0,1,1.01-.184.888.888,0,0,1,.458.18,1.685,1.685,0,0,1,.514.965l.614,2.223s.177.6.512.711a1.545,1.545,0,0,1,.021-.953l.455-1.4-.327-.717s-.131-.277.188-.277l-.017-.006a2.722,2.722,0,0,0,.331.023,2.65,2.65,0,0,0,.329-.023l-.015.006a.182.182,0,0,1,.189.277l-.327.717.453,1.4a1.56,1.56,0,0,1,.024.953c.333-.111.509-.711.509-.711l.615-2.223a1.684,1.684,0,0,1,.518-.969.888.888,0,0,1,.456-.176,2.781,2.781,0,0,1,1,.184,2.481,2.481,0,0,1,.793.494,3.169,3.169,0,0,1,.547.719,4.367,4.367,0,0,1,.364.826,6.816,6.816,0,0,1,.218.885,8.451,8.451,0,0,1,.113.881c.019.268.029.545.029.826a2.291,2.291,0,0,1-.691,1.748,2.453,2.453,0,0,1-1.771.65Zm.894-8.215a3.252,3.252,0,0,1-.984-2.373,3.251,3.251,0,0,1,.984-2.377,3.252,3.252,0,0,1,2.379-.984,3.249,3.249,0,0,1,2.372.984,3.241,3.241,0,0,1,.985,2.377,3.241,3.241,0,0,1-.985,2.373,3.243,3.243,0,0,1-2.372.984A3.256,3.256,0,0,1-10800.646,21424.736Z" transform="translate(10804.502 -21418.502)" fill="#6e00c2" stroke="rgba(0,0,0,0)" stroke-miterlimit="10" stroke-width="1"/>
</svg>
