<svg xmlns="http://www.w3.org/2000/svg" width="24" height="24" viewBox="0 0 24 24">
  <g id="Group_27652" data-name="Group 27652" transform="translate(-356 -10)">
    <rect id="Rectangle_160368" data-name="Rectangle 160368" width="24" height="24" transform="translate(356 10)" fill="rgba(255,255,255,0)"/>
    <g id="Group_27647" data-name="Group 27647" transform="translate(-9672.467 6793.952)">
      <path id="Path_14503" data-name="Path 14503" d="M296.241,381.464a2.8,2.8,0,1,1-2.8,2.8,2.8,2.8,0,0,1,2.8-2.8m0-1.2a4,4,0,1,0,4,4,4,4,0,0,0-4-4Z" transform="translate(9751.5 -7152.333)" fill="#06983c"/>
      <path id="Path_14504" data-name="Path 14504" d="M295.718,385.722a.5.5,0,0,1-.347-.14l-1.065-1.028a.5.5,0,1,1,.694-.72l.708.683,1.56-1.6a.5.5,0,0,1,.716.7l-1.908,1.954A.5.5,0,0,1,295.718,385.722Z" transform="translate(9751.5 -7152.333)" fill="#06983c"/>
      <path id="Path_14505" data-name="Path 14505" d="M292.921,386.5H279.34a.348.348,0,0,1-.348-.35v-6.994l.5,1.518a1.658,1.658,0,0,0,1.569,1.123h2.664v.353a.646.646,0,0,0,.646.647h4a.648.648,0,0,0,.652-.647v-.353h2.661a1.645,1.645,0,0,0,1.566-1.123l.506-1.518v2a3.939,3.939,0,0,1,1.3-.689v-5.338a.641.641,0,0,0-.653-.629h-4.381v-.35a1.652,1.652,0,0,0-1.652-1.648h-4a1.648,1.648,0,0,0-1.648,1.648v.35H278.34a.651.651,0,0,0-.649.652v11a1.649,1.649,0,0,0,1.649,1.649l14.064,0a1.642,1.642,0,0,0,.7-.16A4,4,0,0,1,292.921,386.5Zm-5.2-5h-2.7v-.7h2.7Zm-3.7-7.348v-.005a.349.349,0,0,1,.352-.346h4a.348.348,0,0,1,.348.349v.35h-4.7Zm9.483,1.647-1.488,4.461a.347.347,0,0,1-.332.242h-2.661v-.353a.651.651,0,0,0-.652-.649h-4a.649.649,0,0,0-.646.649v.353h-2.664a.343.343,0,0,1-.331-.242l-1.492-4.461Z" transform="translate(9751.5 -7152.333)" fill="#06983c"/>
    </g>
  </g>
</svg>
