<svg xmlns="http://www.w3.org/2000/svg" xmlns:xlink="http://www.w3.org/1999/xlink" width="45.608" height="43.847" viewBox="0 0 45.608 43.847">
  <defs>
    <linearGradient id="linear-gradient" x1="0.5" x2="0.5" y2="1" gradientUnits="objectBoundingBox">
      <stop offset="0" stop-color="#b207d2"/>
      <stop offset="1" stop-color="#9733ee"/>
    </linearGradient>
  </defs>
  <path id="Union_122" data-name="Union 122" d="M30.506,41.365A8.473,8.473,0,0,1,36.5,26.9h0a8.473,8.473,0,1,1-5.992,14.464Zm-.788-5.991A6.78,6.78,0,1,0,36.5,28.595,6.787,6.787,0,0,0,29.717,35.374ZM4.85,41.365A8.473,8.473,0,0,1,10.841,26.9h0A8.473,8.473,0,1,1,4.85,41.365Zm-.788-5.991a6.78,6.78,0,1,0,6.779-6.779A6.788,6.788,0,0,0,4.062,35.374Zm30.553,2.985-2.206-2.205a1.1,1.1,0,1,1,1.56-1.56l1.426,1.427,3.632-3.632a1.1,1.1,0,1,1,1.559,1.56l-4.411,4.41a1.1,1.1,0,0,1-1.559,0Zm-22.275,0-1.426-1.425L9.488,38.358A1.1,1.1,0,0,1,7.929,36.8l1.426-1.426L7.929,33.947a1.1,1.1,0,1,1,1.559-1.56l1.426,1.426,1.426-1.426a1.1,1.1,0,0,1,1.56,1.56l-1.426,1.426L13.9,36.8a1.1,1.1,0,1,1-1.56,1.559ZM27.949,22.993a1.425,1.425,0,0,1-1.425-1.427V18.718a10.258,10.258,0,0,1,5.747-9.2,5.7,5.7,0,1,1,8.455,0,10.26,10.26,0,0,1,5.747,9.2v2.848a1.425,1.425,0,0,1-1.425,1.427Zm8.325-12.376c-4.421.134-7.9,4.138-7.779,8.942v1.406h16V19.56c0-.163,0-.326,0-.49-.122-4.72-3.681-8.457-8-8.456C36.427,10.614,36.35,10.615,36.274,10.617ZM32.821,5.7A3.676,3.676,0,1,0,36.5,2.029,3.674,3.674,0,0,0,32.821,5.7ZM2.291,22.993A1.426,1.426,0,0,1,.865,21.567V18.718a10.26,10.26,0,0,1,5.748-9.2,5.7,5.7,0,1,1,8.456,0,10.264,10.264,0,0,1,5.747,9.2v2.848a1.426,1.426,0,0,1-1.426,1.427Zm8.324-12.376c-4.42.134-7.9,4.138-7.778,8.942l0,1.44h16V19.56c0-.163,0-.326,0-.49-.122-4.72-3.681-8.457-8-8.456C10.768,10.614,10.691,10.615,10.615,10.617ZM7.163,5.7a3.676,3.676,0,1,0,3.676-3.675A3.674,3.674,0,0,0,7.163,5.7Z" transform="translate(-0.865 0)" fill="url(#linear-gradient)"/>
</svg>
