<svg xmlns="http://www.w3.org/2000/svg" xmlns:xlink="http://www.w3.org/1999/xlink" width="47.331" height="47.331" viewBox="0 0 47.331 47.331">
  <defs>
    <linearGradient id="linear-gradient" x1="0.5" x2="0.5" y2="1" gradientUnits="objectBoundingBox">
      <stop offset="0" stop-color="#b207d2"/>
      <stop offset="1" stop-color="#9733ee"/>
    </linearGradient>
  </defs>
  <path id="Union_123" data-name="Union 123" d="M17.944,42.466,3.864,28.391a13.23,13.23,0,0,1,0-18.688A2.72,2.72,0,0,1,7.7,9.7l6.932,6.936a2.714,2.714,0,0,1,.324,3.452l-3.023,4.426a.9.9,0,0,0,.105,1.15l2.2,2.2a.915.915,0,0,1,0,1.282.9.9,0,0,1-1.281,0l-2.2-2.2a2.724,2.724,0,0,1-.318-3.457l.174-.255L5.423,18.051A.906.906,0,0,1,6.7,16.769l4.947,4.948,1.811-2.646a.9.9,0,0,0-.109-1.15L6.421,10.984a.894.894,0,0,0-1.275,0,11.4,11.4,0,0,0,0,16.125L19.22,41.19a11.426,11.426,0,0,0,11.986,2.639l-5.07-5.071a.906.906,0,0,1,1.281-1.281l5.537,5.542a11.41,11.41,0,0,0,2.393-1.828.9.9,0,0,0,0-1.282l-6.932-6.936a.91.91,0,0,0-1.15-.1l-4.424,3.023a2.719,2.719,0,0,1-3.453-.319l-1.465-1.465A.9.9,0,0,1,19.2,32.832l1.469,1.459a.9.9,0,0,0,1.146.109l4.424-3.028a2.72,2.72,0,0,1,3.453.324l6.936,6.931a2.721,2.721,0,0,1,0,3.839,13.222,13.222,0,0,1-18.684,0Zm16.8-9.885a.908.908,0,0,1-.561-.837v-2.6H29.63A4.848,4.848,0,0,1,24.792,24.3V12.015A4.844,4.844,0,0,1,29.63,7.176h2.16a.905.905,0,0,1,0,1.811H29.63A3.033,3.033,0,0,0,26.6,12.015V24.3a3.037,3.037,0,0,0,1.533,2.636V24.312a3.84,3.84,0,0,1,3.133-3.771l.586-.11a4.057,4.057,0,0,1-.205-1.266V17.083a4.1,4.1,0,0,1,8.2,0v2.081a4.057,4.057,0,0,1-.205,1.266l.586.11a3.84,3.84,0,0,1,3.133,3.771v2.364A3.027,3.027,0,0,0,44.521,24.3V12.015a3.034,3.034,0,0,0-3.033-3.028h-2a.905.905,0,0,1,0-1.811h2a4.846,4.846,0,0,1,4.844,4.839V24.3a4.85,4.85,0,0,1-4.844,4.844h-2.5l-3.264,3.242a.9.9,0,0,1-.637.262A.866.866,0,0,1,34.745,32.581ZM31.6,22.318a2.034,2.034,0,0,0-1.654,1.993v3.022h5.148a.9.9,0,0,1,.9.905v1.328L37.981,27.6a.883.883,0,0,1,.639-.262h2.867c.025,0,.047,0,.068,0V24.312A2.034,2.034,0,0,0,39.9,22.318l-1.275-.235a4.093,4.093,0,0,1-5.754,0Zm1.861-5.235v2.081a2.291,2.291,0,0,0,4.582,0V17.083a2.291,2.291,0,0,0-4.582,0Zm-17.92,14.64a.908.908,0,1,1,1.281,0,.893.893,0,0,1-.643.267A.9.9,0,0,1,15.538,31.723Zm5.408-20.4a9.4,9.4,0,0,0-9.268-9.51.907.907,0,1,1,0-1.814A11.218,11.218,0,0,1,22.757,11.324a.905.905,0,0,1-1.811,0Zm-4.2,0A5.155,5.155,0,0,0,11.673,6.1a.9.9,0,0,1,0-1.81,6.97,6.97,0,0,1,6.889,7.03.907.907,0,0,1-1.814,0ZM12.876,11.3a1.214,1.214,0,0,0-1.187-1.239.905.905,0,0,1,0-1.811,3.03,3.03,0,0,1,3,3.05.905.905,0,0,1-1.811,0Zm21.68-2.579a.92.92,0,0,1-.266-.638.907.907,0,0,1,1.814,0,.906.906,0,0,1-1.549.638Z" transform="translate(0.5 0.5)" stroke="rgba(0,0,0,0)" stroke-miterlimit="10" stroke-width="1" fill="url(#linear-gradient)"/>
</svg>
