<svg xmlns="http://www.w3.org/2000/svg" xmlns:xlink="http://www.w3.org/1999/xlink" width="46.012" height="46.011" viewBox="0 0 46.012 46.011">
  <defs>
    <linearGradient id="linear-gradient" x1="0.5" x2="0.5" y2="1" gradientUnits="objectBoundingBox">
      <stop offset="0" stop-color="#b207d2"/>
      <stop offset="1" stop-color="#9733ee"/>
    </linearGradient>
  </defs>
  <path id="Union_127" data-name="Union 127" d="M12.457,46.011a1,1,0,0,1-1-.994V24.78h-.107a2.072,2.072,0,0,1-2.074-2.06v-.015a.048.048,0,0,0-.031-.046,11.268,11.268,0,0,1-1.787-.743.039.039,0,0,0-.02,0,.045.045,0,0,0-.041.016l-.006,0a.737.737,0,0,1-.113.1,2.06,2.06,0,0,1-1.357.508,2.081,2.081,0,0,1-1.465-.595L2.859,20.36a2.07,2.07,0,0,1-.092-2.822.787.787,0,0,1,.092-.107.059.059,0,0,0,.016-.067,11.347,11.347,0,0,1-.687-1.587L2.127,15.6a.042.042,0,0,0-.047-.036H2.074A2.078,2.078,0,0,1,0,13.5V11.269A2.082,2.082,0,0,1,2.07,9.2l.016.006a.047.047,0,0,0,.041-.031A10.79,10.79,0,0,1,2.875,7.4a.051.051,0,0,0-.016-.056L2.854,7.34a.827.827,0,0,1-.092-.107,2.072,2.072,0,0,1,.086-2.817l1.6-1.572a2.051,2.051,0,0,1,1.459-.6,2.088,2.088,0,0,1,1.367.507c.031.025.063.051.1.087l.01.011a.038.038,0,0,0,.035.015.044.044,0,0,0,.025,0,11.776,11.776,0,0,1,1.8-.748c.006,0,.012-.01.012-.015V2.085a2.058,2.058,0,0,1,.6-1.47A2.083,2.083,0,0,1,11.336,0h2.242a2.073,2.073,0,0,1,2.07,2.049v.016a.048.048,0,0,0,.031.046,10.6,10.6,0,0,1,1.787.743.054.054,0,0,0,.061-.011.6.6,0,0,1,.119-.1,2.087,2.087,0,0,1,2.822.088L22.055,4.41a2.066,2.066,0,0,1,.094,2.822.737.737,0,0,1-.088.1l-.01.011c-.016.01-.016.035-.006.056a11.366,11.366,0,0,1,.738,1.768.048.048,0,0,0,.051.035h.006a2.081,2.081,0,0,1,2.074,2.064v.107h13.48a1.014,1.014,0,0,1,1.014,1.009V24.012H37.381V13.395H13.471v30.6H34.164l3.217-3.2V37.928h2.027v3.283a.984.984,0,0,1-.3.712l-3.816,3.8a1.009,1.009,0,0,1-.711.292ZM8.375,20.119a9,9,0,0,0,1.475.614,2.047,2.047,0,0,1,1.439,1.978.091.091,0,0,0,.01.03.039.039,0,0,0,.031.011h.113V19.387a7.114,7.114,0,0,1,.266-14.116,7.411,7.411,0,0,1,.754-.035A7.117,7.117,0,0,1,19.5,11.376h3.391v-.107a.072.072,0,0,0-.016-.036.069.069,0,0,0-.031-.01h-.025a2.06,2.06,0,0,1-1.971-1.449,9.077,9.077,0,0,0-.605-1.439,2.091,2.091,0,0,1,.3-2.346c.025-.026.051-.057.082-.088l0,0a.043.043,0,0,0,0-.056L19.039,4.262a.048.048,0,0,0-.031-.016.105.105,0,0,0-.031.016,1.2,1.2,0,0,1-.1.087,2.1,2.1,0,0,1-2.342.3,9.473,9.473,0,0,0-1.475-.615A2.057,2.057,0,0,1,13.625,2.06a.1.1,0,0,0-.01-.031.077.077,0,0,0-.031-.01H11.336a.087.087,0,0,0-.037.01.1.1,0,0,0-.01.031A2.062,2.062,0,0,1,9.85,4.036a10.036,10.036,0,0,0-1.475.61,2.142,2.142,0,0,1-.953.23,2.1,2.1,0,0,1-1.4-.533c-.035-.03-.061-.057-.086-.082a.053.053,0,0,0-.031-.01.038.038,0,0,0-.035.015L4.283,5.84a.045.045,0,0,0,0,.061c.035.036.061.067.086.1a2.091,2.091,0,0,1,.309,2.331,8.69,8.69,0,0,0-.621,1.465A2.041,2.041,0,0,1,2.1,11.223H2.07a.038.038,0,0,0-.031.016.037.037,0,0,0-.016.03l.006,2.238a.04.04,0,0,0,.01.031.046.046,0,0,0,.031.015h.02A2.053,2.053,0,0,1,4.063,15a9.273,9.273,0,0,0,.6,1.439,2.082,2.082,0,0,1-.3,2.351.471.471,0,0,1-.066.072l-.016.016a.038.038,0,0,0-.012.03.065.065,0,0,0,.016.031l1.588,1.572c.006.01.021.01.031.01a.04.04,0,0,0,.031-.01.669.669,0,0,1,.1-.087,2.1,2.1,0,0,1,2.34-.3Zm-.906-8.487a5.077,5.077,0,0,0,3.975,5.706V12.385a1.014,1.014,0,0,1,1.014-1.009h4.984a5.1,5.1,0,0,0-4.221-4,5.213,5.213,0,0,0-.748-.057A5.1,5.1,0,0,0,7.469,11.632ZM23.895,42.783,21.641,40.53l1.389-1.389L24.586,40.7l4.154-4.154,1.393,1.394-4.85,4.845a.967.967,0,0,1-.7.292A.951.951,0,0,1,23.895,42.783Zm9.322-6.018a.986.986,0,0,1-.738-1.184l.779-3.375a1.015,1.015,0,0,1,.266-.477l7.791-7.79a2.506,2.506,0,0,1,3.457,0l.006,0,.516.518a2.448,2.448,0,0,1,0,3.467l-7.779,7.791a.984.984,0,0,1-.477.267l-3.375.778a.951.951,0,0,1-.223.026A.927.927,0,0,1,33.217,36.766Zm1.535-2.279.953-.221-.732-.732Zm1.379-2.576,1.2,1.2,4.836-4.835-1.205-1.2ZM42.7,25.339l-.338.343,1.2,1.2.338-.349a.48.48,0,0,0,0-.682l-.512-.517a.509.509,0,0,0-.344-.139A.5.5,0,0,0,42.7,25.339Zm-22.527,7.5a.983.983,0,0,1-.982-.983v-7.34a3.189,3.189,0,0,1,3.186-3.186h.1a4.415,4.415,0,0,1-.318-.374,3.932,3.932,0,0,1,.83-5.485,3.87,3.87,0,0,1,2.326-.764,3.922,3.922,0,0,1,2.842,6.623h.1a3.192,3.192,0,0,1,3.186,3.186v7.34a.988.988,0,0,1-.988.983Zm.984-8.323V30.87h8.313V24.514a1.221,1.221,0,0,0-1.219-1.219H22.373A1.222,1.222,0,0,0,21.154,24.514Zm2.2-5.875a1.951,1.951,0,1,0,1.951-1.951A1.955,1.955,0,0,0,23.357,18.639Z" fill="url(#linear-gradient)"/>
</svg>
