<svg xmlns="http://www.w3.org/2000/svg" xmlns:xlink="http://www.w3.org/1999/xlink" width="47.23" height="46.459" viewBox="0 0 47.23 46.459">
  <defs>
    <linearGradient id="linear-gradient" x1="0.5" x2="0.5" y2="1" gradientUnits="objectBoundingBox">
      <stop offset="0" stop-color="#b207d2"/>
      <stop offset="1" stop-color="#9733ee"/>
    </linearGradient>
  </defs>
  <path id="Union_128" data-name="Union 128" d="M4.016,46.459A4.028,4.028,0,0,1,0,42.442V40.931a2.516,2.516,0,0,1,2.262-2.5V17.565a4.025,4.025,0,0,1,4.016-4.017h6.547a2.515,2.515,0,0,1,2.5-2.262h.256l-.945-1.893a4.884,4.884,0,0,1,.18-4.752,4.939,4.939,0,0,1,2.957-2.227l1.146-.863A7.966,7.966,0,0,1,26.883.688l2.1.957A6.328,6.328,0,0,1,32.18,9.924l-.586,1.363h.313a2.517,2.517,0,0,1,2.5,2.262h6.545a4.025,4.025,0,0,1,4.016,4.017V38.432a2.516,2.516,0,0,1,2.264,2.5v1.507a4.029,4.029,0,0,1-4.016,4.021ZM2.01,40.931v1.507a2.014,2.014,0,0,0,2.006,2.016h39.2a2.017,2.017,0,0,0,2.01-2.016V40.931a.505.505,0,0,0-.5-.5H2.51A.5.5,0,0,0,2.01,40.931Zm25.623-19.72v.781l3.682.617a.956.956,0,0,1,.324.108,1.028,1.028,0,0,1,.479.6.981.981,0,0,1,.01.5l3.949,1.183a3.961,3.961,0,0,1,2.072,1.445,4.006,4.006,0,0,1,.793,2.406v9.564h4.021V17.565a2.018,2.018,0,0,0-2.012-2.011H33.686a2.5,2.5,0,0,1-1.779.756h-.7c-.021.087-.047.185-.078.283l-.057.272a5.707,5.707,0,0,1-.715,1.583l-.072.124h-.01A7.793,7.793,0,0,1,27.633,21.211ZM32.91,33.146v5.276h4.02V28.857A1.993,1.993,0,0,0,35.5,26.935l-4.33-1.3-2.91,5.235a.994.994,0,0,1-.787.514h-.094a1,1,0,0,1-.771-.359l-1.994-2.392v5.014H22.609V28.631l-1.99,2.386a1.008,1.008,0,0,1-.775.365l-.088,0a1,1,0,0,1-.787-.509l-2.91-5.24-4.33,1.3a2,2,0,0,0-1.43,1.924v9.569H14.32V33.146h2.006v5.276H30.9V33.146ZM4.268,17.565V38.422H8.289V28.857a4,4,0,0,1,2.863-3.852L15.1,23.823c-.006-.021-.006-.041-.012-.057a1.006,1.006,0,0,1,.828-1.157l3.682-.617v-.781a14.438,14.438,0,0,1-2.621-2.638h-.016l-.078-.113a8.634,8.634,0,0,1-.693-1.568c-.062-.19-.113-.386-.16-.581h-.7a2.538,2.538,0,0,1-1.785-.756H6.277A2.014,2.014,0,0,0,4.268,17.565ZM25.4,26.436l1.82,2.18,2.365-4.258L27.453,24A4.019,4.019,0,0,1,25.4,26.436Zm-7.748-2.083,2.365,4.263,1.814-2.18A4.023,4.023,0,0,1,19.777,24ZM21.6,22.841a2.014,2.014,0,0,0,4.027,0v-.766a7.877,7.877,0,0,1-4.027,0ZM17.838,11.775v2.776a5.777,5.777,0,1,0,11.555,0V11.775l-.859-1.728-.246.18a7.785,7.785,0,0,1-9.344,0l-.246-.18ZM31.4,14.3h.5a.5.5,0,1,0,0-1h-.5ZM14.82,13.8a.5.5,0,0,0,.5.5h.5v-1h-.5A.5.5,0,0,0,14.82,13.8Zm4.123-6.083,1.2.905a5.777,5.777,0,0,0,6.938,0l1.2-.905a1.594,1.594,0,0,1,.158-.1,1.061,1.061,0,0,1,.447-.1.993.993,0,0,1,.9.556l.535,1.085.01-.026a4.353,4.353,0,0,0-2.18-5.656l-2.1-.961a5.94,5.94,0,0,0-5.033.112A5.227,5.227,0,0,1,23.453,4.6l.375.561L22.162,6.273l-.375-.566a3.28,3.28,0,0,0-2.725-1.455,2.972,2.972,0,0,0-2.525,1.425,2.906,2.906,0,0,0-.1,2.823l.4.8.607-1.224a.91.91,0,0,1,.1-.16.98.98,0,0,1,.8-.4A1.036,1.036,0,0,1,18.943,7.718Z" fill="url(#linear-gradient)"/>
</svg>
