<svg xmlns="http://www.w3.org/2000/svg" xmlns:xlink="http://www.w3.org/1999/xlink" width="64.998" height="64.998" viewBox="0 0 64.998 64.998">
  <defs>
    <linearGradient id="linear-gradient" x1="0.5" x2="0.5" y2="1" gradientUnits="objectBoundingBox">
      <stop offset="0" stop-color="#f9c412"/>
      <stop offset="1" stop-color="#f36a10"/>
    </linearGradient>
  </defs>
  <path id="Union_113" data-name="Union 113" d="M.031,65a9.521,9.521,0,0,1,1.706-6.378,1.985,1.985,0,0,0,.347-1.066c.023-4.44.015-8.878.015-13.318A10.349,10.349,0,0,1,5.887,36.01a1.094,1.094,0,0,0,.41-.95q-.014-10.826-.006-21.65V12.54h16.76V4.177h4.181V2.111h2.107V4.123h2.083V0h2.108V4.109h2.107V2.09H37.72V4.132H41.9v8.409h16.8v.837q0,10.793-.008,21.586a1.3,1.3,0,0,0,.486,1.114A10.284,10.284,0,0,1,62.9,44.141c.012,2.515-.04,5.031.016,7.545a5.793,5.793,0,0,1-1.878,4.754A9.322,9.322,0,0,1,64.975,65Zm54.624-2.085h8.1c-.1-2.812-3.027-5.624-6.163-5.9A12.269,12.269,0,0,1,54.654,62.914ZM43.881,59.189c.435,1.279.843,2.483,1.265,3.724h5.028a12.294,12.294,0,0,1-1.939-5.946A7.142,7.142,0,0,0,43.881,59.189Zm-15.167-2.33a8.1,8.1,0,0,0-4.841,2.367,6.854,6.854,0,0,0-1.746,3.68H42.87a6.792,6.792,0,0,0-1.389-3.246A7.844,7.844,0,0,0,36.576,56.9a.706.706,0,0,0-.856.328c-1.038,1.426-2.108,2.829-3.222,4.314-1.128-1.5-2.183-2.921-3.257-4.325-.118-.155-.347-.358-.5-.358ZM2.274,62.889H19.85c.43-1.259.831-2.428,1.263-3.693a7.3,7.3,0,0,0-4.553-2.272,4.21,4.21,0,0,1-7.976-.015C4.842,57.733,2.144,60.316,2.274,62.889Zm50.3-.444,1.786-3.672H50.7A7.19,7.19,0,0,0,52.57,62.446ZM30.6,55.455c.577.877,1.233,1.7,1.894,2.588.581-.777,1.061-1.479,1.607-2.125a1.028,1.028,0,0,0,.123-1.382H30.651C30.625,54.881,30.474,55.26,30.6,55.455ZM11.446,57.347a2.042,2.042,0,0,0,2.484-.162,2,2,0,0,0,.366-2.651h-3.48C10.354,55.955,10.543,56.758,11.446,57.347Zm27.238-6.978A5.437,5.437,0,0,1,36.5,53.618a.6.6,0,0,0-.163.437c.007.594.4.777.922.876a9.615,9.615,0,0,1,5.07,2.534c.04.04.113.044.162.061L43.8,56.419c-2.444-1.982-1.77-4.771-1.886-7.506A4.456,4.456,0,0,1,38.684,50.369Zm-15.6,6.708a9.406,9.406,0,0,1,3.794-1.949c.444-.111.894-.2,1.331-.333.421-.128.651-.929.318-1.162A5.519,5.519,0,0,1,26.3,50.36a4.511,4.511,0,0,1-3.218-1.409ZM50.25,56.6h4.342c-.121-.733-.232-1.4-.338-2.048H50.562C50.459,55.227,50.36,55.883,50.25,56.6ZM18.87,43v.569c0,1.88,0,3.76,0,5.64a5.271,5.271,0,0,1-2.075,4.262.971.971,0,0,0-.335.656.7.7,0,0,0,.577.732c1.283.4,2.534.9,3.8,1.36.027.01.073-.031.131-.058v-.58q-.005-6-.014-12a5.851,5.851,0,0,0-.1-.845,8.369,8.369,0,0,0-16.628.838c-.093,4.195-.02,8.394-.02,12.52,1.323-.425,2.609-.877,3.921-1.237a.682.682,0,0,0,.578-.731.969.969,0,0,0-.334-.652A5.262,5.262,0,0,1,6.292,49.21q-.007-3.05,0-6.1a3.126,3.126,0,0,1,2.085-3.093,3.074,3.074,0,0,1,3.575,1.208A4.136,4.136,0,0,0,15.55,43c.412-.008.823-.01,1.239-.01C17.468,42.992,18.157,43,18.87,43Zm33.007-7.337a8.41,8.41,0,0,0-7.833,8.059c-.053,2.907-.016,5.816-.011,8.725a3.029,3.029,0,0,0,.9,2.182,1.48,1.48,0,0,0,1.85.516,3.764,3.764,0,0,1,1.2-.306c.491-.053.543-.421.561-.746a.854.854,0,0,0-.314-.6,5.261,5.261,0,0,1-2.107-4.311q0-2.788,0-5.575c0-.189.022-.378.038-.608.392,0,.738.012,1.084,0a4.656,4.656,0,0,0,3.758-1.935,1.988,1.988,0,0,0,.344-1c.051-.752.016-1.512.016-2.253h2.1a10.754,10.754,0,0,1-.012,1.557,2.681,2.681,0,0,0,1.518,2.794,5.828,5.828,0,0,0,1.736.713,14.1,14.1,0,0,0,2,.194c0,2.08,0,4.113,0,6.146a5.271,5.271,0,0,1-2.074,4.263,1,1,0,0,0-.339.655.65.65,0,0,0,.646.74,3.025,3.025,0,0,1,1.011.253c.959.463,1.578-.037,2.139-.706a3.172,3.172,0,0,0,.716-2.126c-.005-2.777,0-5.553-.008-8.33a8.958,8.958,0,0,0-.112-1.238,8.4,8.4,0,0,0-8.342-7.067Q52.11,35.649,51.877,35.662Zm-3.654,9.37c0,.226,0,.419,0,.612,0,1.333-.053,2.668.032,4a3.071,3.071,0,0,0,2.9,2.792c.826.042,1.659.039,2.486,0A3.074,3.074,0,0,0,56.579,49.6c.076-1.5.016-3.01.016-4.584A7.186,7.186,0,0,1,52.4,42.7,7.118,7.118,0,0,1,48.223,45.032ZM32.306,42.454a8.65,8.65,0,0,1-3.983,1.562c0,1.92-.075,3.8.023,5.666a3.035,3.035,0,0,0,2.933,2.752c.8.035,1.614.034,2.418,0a3.078,3.078,0,0,0,2.966-2.867c.068-1.83.016-3.664.016-5.562a8.483,8.483,0,0,1-4.033-1.579.223.223,0,0,0-.127-.031A.4.4,0,0,0,32.306,42.454ZM9.1,42.028c-.5.058-.716.51-.715,1.028,0,2.121-.024,4.243.013,6.362a3.11,3.11,0,0,0,3.033,3.02c.763.025,1.529.024,2.292,0a3.062,3.062,0,0,0,3.007-2.757c.1-1.5.022-3.006.022-4.585-.252,0-.426-.008-.6,0a6.446,6.446,0,0,1-5.98-2.7,1.31,1.31,0,0,0-.955-.374A1.047,1.047,0,0,0,9.1,42.028Zm15.011,4.12a2.076,2.076,0,0,0,2.054,2.07V44.075A2.07,2.07,0,0,0,24.114,46.148Zm14.708,2.061a2.064,2.064,0,0,0,2.063-2.048,2.1,2.1,0,0,0-2.063-2.091Zm2.005-5.948a4.84,4.84,0,0,0,.052-.5A5.834,5.834,0,0,0,36,35.818a48.323,48.323,0,0,0-6.659-.084,4.895,4.895,0,0,0-1.92.587c-2.282,1.11-3.713,3.85-3.24,5.917,1.075-.1,2.079-.257,3.085-.277a6.248,6.248,0,0,0,4.576-1.912,4.184,4.184,0,0,0,.481-.783c.351.337.483.45.6.578a6.492,6.492,0,0,0,5.085,2.123h.056A25.844,25.844,0,0,1,40.827,42.261Zm-24.465-8a10.58,10.58,0,0,1,5.84,5.586,5.943,5.943,0,0,1,.38-1.1,4.74,4.74,0,0,0,.489-2.587q-.019-10.359-.007-20.716v-.74H8.418V34.4a11.078,11.078,0,0,1,4.19-.861A10.267,10.267,0,0,1,16.362,34.266Zm21.4-19.479q-.009,9.477,0,18.953c0,.169.208.388.375.5.508.335,1.075.587,1.565.945a8.122,8.122,0,0,1,3.059,4.566c3.174-5.519,7.766-7.341,13.82-5.434V14.694H37.813C37.778,14.752,37.758,14.769,37.758,14.787ZM25.195,35.152c.663-.347,1.279-.711,1.928-1a8.575,8.575,0,0,1,3.649-.609c1.607.021,3.213,0,4.883,0V12.536h4.128V10.492H25.195Zm.016-26.826H39.8V6.3H25.211Zm-14.692,23.1V29.381H12.53v2.041Zm29.35,0V29.4h2.018v2.019Zm-20.948,0V29.4h2.015v2.023Zm33.521,0V29.4h2.03v2.021Zm-20.957,0V29.4H33.5v2.012Zm12.58,0V29.381h2.015V31.41Zm-16.771,0V29.381h2.012v2.026ZM14.7,31.4v-2.01h2.038V31.4Zm33.567,0V29.38h2.014V31.4ZM31.5,27.218V25.2H33.52v2.016Zm-4.209-.008V25.184h2.035V27.21Zm-12.578,0V25.182h2.011v2.026Zm33.548,0V25.166h2v2.041Zm-37.742,0V25.188H12.55v2.019Zm33.551,0v-2h2.038v2Zm8.385,0V25.191H54.48V27.2Zm-12.6,0V25.19H41.9V27.2Zm-20.976,0v-2h2.038v2Zm8.419-4.158V21H29.3V23.04Zm4.171-.016V21h2.034v2.026Zm-20.944,0V20.98h2.011v2.041Zm37.742,0V21h2.016v2.016Zm-4.215,0V21h2.023v2.014Zm-4.187,0V20.986h2.012v2.027Zm12.575-.006v-2.02h2.015v2.02Zm-33.551,0V20.989h2.015v2.017Zm-4.175,0V20.992h2.023v2.014ZM31.5,18.823V16.8h2.015v2.023Zm8.368,0V16.8h2.018v2.018Zm-29.332,0V16.779h2V18.82Zm37.72,0V16.783h2.019v2.033Zm-29.375,0V16.808H20.92v2.007Zm33.569,0V16.783h2.014v2.029Zm-8.384,0V16.785h2.012v2.027ZM27.3,18.806V16.765h2v2.041Zm-12.575,0V16.784H16.74V18.8ZM31.5,14.627V12.6h2.015v2.03Zm-4.215-.02V12.594h2.038v2.013Z" transform="translate(0 -0.001)" fill="url(#linear-gradient)"/>
</svg>
