<svg xmlns="http://www.w3.org/2000/svg" xmlns:xlink="http://www.w3.org/1999/xlink" width="70.998" height="71" viewBox="0 0 70.998 71">
  <defs>
    <linearGradient id="linear-gradient" x1="0.5" x2="0.5" y2="1" gradientUnits="objectBoundingBox">
      <stop offset="0" stop-color="#f9c412"/>
      <stop offset="1" stop-color="#f36a10"/>
    </linearGradient>
  </defs>
  <path id="Union_111" data-name="Union 111" d="M23.406,70c.455-1.838.895-3.631,1.344-5.424.344-1.367.711-2.73,1.021-4.1a2.022,2.022,0,0,0-.076-1.082c-.535-1.527-1.145-3.033-1.678-4.562a.789.789,0,0,0-.895-.629q-10.2.026-20.393.012C.813,54.214,0,53.391,0,51.456V14.049C0,12.13.824,11.3,2.734,11.3q7.228,0,14.461,0h.869V5.223c0-.99-.018-1.979,0-2.965A2.255,2.255,0,0,1,20.309,0c.141-.006.281,0,.422,0q14.253,0,28.5,0c1.875,0,2.7.832,2.7,2.715V11.3H52.7q7.336,0,14.674,0c1.77,0,2.623.861,2.623,2.652q0,18.806,0,37.615a2.317,2.317,0,0,1-2.631,2.648H47.5c-1.105,1.932-2.164,3.758-3.189,5.6a1.207,1.207,0,0,0-.045.791q1.1,4.479,2.223,8.957c.033.131.043.268.07.436Zm2.889-2.262h17.41c-.566-2.27-1.121-4.49-1.678-6.727H27.973C27.416,63.251,26.861,65.469,26.295,67.739ZM34.723,37c-2.781,3.063-5.537,6.15-8.361,9.174a5.014,5.014,0,0,0-1.078,5.65c.8,2.105,1.605,4.213,2.365,6.336a.756.756,0,0,0,.861.582q6.592-.026,13.186,0a1,1,0,0,0,.965-.512,28.841,28.841,0,0,0,4.3-10.937c.24-1.422.334-2.867.5-4.371-3.045,0-5.932-.008-8.818.016a.873.873,0,0,0-.539.367q-1.9,2.5-3.768,5.018a1.871,1.871,0,0,0,.168,2.67c.457.467.982.869,1.494,1.314-.643.646-1.135,1.143-1.748,1.758-.4-.437-.73-.83-1.09-1.193-1.936-1.975-2.078-3.984-.432-6.176q2.5-3.322,4.986-6.658a3.749,3.749,0,0,0,.506-.844,2.214,2.214,0,0,0-.908-2.707,1.966,1.966,0,0,0-1.049-.348A2.136,2.136,0,0,0,34.723,37Zm17.207,3.66a2.247,2.247,0,0,1-1.682,2.178c-.193.055-.391.105-.586.154l.191.078q-.738,4.43-1.479,8.846H67.7V13.608H51.971V15.8H56.4V33.9H51.977v2.27H65.451v2.24H51.932C51.932,39.212,51.949,39.936,51.93,40.661ZM2.289,51.9h20.4V42.921H20.717c-1.789,0-2.65-.857-2.652-2.625V38.372H4.566V36.128H18.023v-2.27H4.551V15.8H18.012V13.592H2.289Zm22.584-7.424,1.361-1.5H24.873Zm-4.52-3.822c2.611,0,5.172.012,7.73-.016a1.038,1.038,0,0,0,.613-.387q2.5-2.687,4.955-5.41a.988.988,0,0,0,.209-.619c.014-2.238.01-4.471.006-6.709a2.751,2.751,0,0,0-.078-.437H22.631V24.9H47.379v2.221H36.127V33.86a4.577,4.577,0,0,1,3.918,2.309,4.5,4.5,0,0,1,.033,4.443h9.543V2.3H20.354ZM51.984,31.59h2.172V18.1H51.984ZM10.656,27.62c-1.469.9-1.77,2.316-1.586,3.957h6.7c.176-1.639-.119-3.051-1.588-3.957a3.171,3.171,0,0,0-3.525,0Zm3.73-6.652c1.441,1.049,1.725,2.5.912,4.656,1.65,1.275,1.832,1.525,2.727,3.766V18.118H6.813V29.374a6.126,6.126,0,0,1,2.764-3.738c-.861-1.883-.611-3.436.691-4.523a3.366,3.366,0,0,1,2.16-.777A3.306,3.306,0,0,1,14.387,20.967ZM11.3,23.712a1.122,1.122,0,1,0,1.131-1.117h-.01A1.133,1.133,0,0,0,11.3,23.712ZM54.25,47.4V45.229h11.2V47.4Zm-49.7,0V45.229H15.777V47.4Zm.021-4.514v-2.2H15.764v2.2Zm49.656-.014V40.7h11.2V42.87Zm-31.59-6.742v-2.2h8.916v2.2Zm18.023-.043V33.936h6.713v2.148Zm-2.232-4.5V29.4h8.941v2.184Zm-15.8-.014V29.4h8.941v2.172Zm36.121-2.25V27.143h6.7v2.176Zm.016-4.518V22.6H65.43v2.2ZM22.631,22.534V4.548H38.35V22.534Zm5.771-6a3.572,3.572,0,0,0-1.193,3.76h6.586a3.647,3.647,0,0,0-1.629-4.033,3.356,3.356,0,0,0-3.764.273ZM24.875,18.2a6.218,6.218,0,0,1,2.756-3.883c-.85-1.867-.6-3.412.7-4.5a3.363,3.363,0,0,1,4.121-.15c1.443,1.051,1.73,2.521.9,4.688A6.078,6.078,0,0,1,36.09,18.1V6.823H24.875Zm4.484-5.791A1.123,1.123,0,1,0,30.494,11.3H30.48A1.136,1.136,0,0,0,29.359,12.411Zm29.406,7.883V18.122h6.686v2.172Zm-18.088-2.27V15.85h6.684v2.174Zm.01-4.52v-2.2h6.676v2.2Zm-.01-4.518V6.815h6.684V8.987Z" transform="translate(0.5 0.5)" stroke="rgba(0,0,0,0)" stroke-miterlimit="10" stroke-width="1" fill="url(#linear-gradient)"/>
</svg>
