<svg xmlns="http://www.w3.org/2000/svg" xmlns:xlink="http://www.w3.org/1999/xlink" width="61" height="61" viewBox="0 0 61 61">
  <defs>
    <linearGradient id="linear-gradient" x1="0.5" x2="0.5" y2="1" gradientUnits="objectBoundingBox">
      <stop offset="0" stop-color="#f9c412"/>
      <stop offset="1" stop-color="#f36a10"/>
    </linearGradient>
  </defs>
  <path id="Union_112" data-name="Union 112" d="M0,60V13.08c1.232-1.08,2.467-2.4,3.7-3.6C6.84,6.359,9.982,3.121,13.123,0H46.4c.012.24.035.48.035.84V23.16h.955a3,3,0,0,1,2.9,3c.039,1.08.014,2.039.014,3.119v1.68h6.459A3.013,3.013,0,0,1,60,34.2c0,7.561,0,15,0,22.68a2.227,2.227,0,0,1-.074.723A2.953,2.953,0,0,1,56.705,60ZM21.3,38.279v.48q0,9,0,18c0,.959.277,1.32,1.359,1.32h33.98c1.09,0,1.41-.361,1.412-1.2.006-6.119,0-12.119,0-18.238a3.324,3.324,0,0,0-.088-.48,4.532,4.532,0,0,1-.3.719c-1.178,3-2.367,6-3.523,8.881-.184.48-.387.6-.914.6h-9.7v1.92H35.807v-1.92H26.148a.819.819,0,0,1-.932-.6c-1.166-3-2.371-5.881-3.566-9-.072-.119-.164-.361-.248-.48Zm-19.3,19.68H19.443c-.033-.479-.092-.719-.094-1.2-.006-7.561-.006-15,0-22.439a3.008,3.008,0,0,1,3.293-3.361h6.338c.031-.119.055-.119.055-.119,0-1.441.064-2.881,0-4.2a3.163,3.163,0,0,1,3.336-3.48c3.809.119,7.617,0,11.426,0h.7V2.041H14.508V14.52H5.859v4.8H38.65v-5.76H34.871V3.84h5.021a2.915,2.915,0,0,1,2.391,1.68,2.783,2.783,0,0,1-.434,3.121,2.852,2.852,0,0,1-.77,4.439.852.852,0,0,0-.434.84c.012,2.279.008,4.439.008,6.721v.719H3.844V14.52H1.994Zm35.773-9.6h3.814v-1.8H37.768ZM22.211,32.879c-.6.121-.725.361-.5.84,1.615,4.082,3.24,8.16,4.838,12.24.162.361.338.6.793.6,1.875-.121,3.75-.121,5.625-.121H35.82V44.52h7.744v1.92h.607c2.615,0,5.232,0,7.852.121.414,0,.6-.24.76-.6,1.6-3.959,3.225-8.158,4.84-12.119.252-.719.119-.84-.555-.961H22.211ZM46.455,27.24v3.719h1.936q0-2.341,0-4.318c0-1.2-.3-1.441-1.4-1.441H32.17c-.748,0-1.168.24-1.184.961-.043,1.441-.016,3.119-.016,4.8h1.961V27.24Zm-11.59,3.719h9.629V29.041H34.865ZM3.531,12.48h8.977v-9Q8.028,8.162,3.531,12.48ZM36.826,9.719v1.922h2.895a.963.963,0,0,0,.035-1.922h-2.93Zm-.012-3.84v1.8H39.67c.551,0,.939-.24.965-.84a.887.887,0,0,0-.824-.961h-3ZM3.9,56.16V54.24h9.6v1.92Zm11.613,0V54.24H17.43v1.92ZM3.9,52.32V50.4H17.4V52.32Zm0-3.961v-1.8H17.377v1.8Zm5.828-3.84V42.48h.844c2.1,0,4.205.121,6.307,0,.438,0,.6.121.563.6s-.01.961-.01,1.439Zm-5.818,0V42.6h3.8V44.52Zm0-3.84V38.76H17.4v1.92ZM3.9,36.84V34.92h13.5v1.92Zm.02-3.961v-1.8H17.4v1.8ZM3.9,29.041v-1.8H27.037v1.8Zm0-3.842v-1.92H5.764V25.2Zm3.875,0v-1.92H27.039V25.2ZM15.51,10.92a10.561,10.561,0,0,1,0-1.2h1.934c0,.361-.02.721,0,.961a.936.936,0,0,0,.938.961.926.926,0,0,0,.949-.961c.025-1.439.012-3,.016-4.32v-.48H17.471V3.84h5.711V5.879H21.3c0,1.2.008,2.281,0,3.48a14.675,14.675,0,0,1-.055,1.682,2.858,2.858,0,0,1-2.844,2.52h-.023A2.888,2.888,0,0,1,15.51,10.92Zm12.9,2.52A3.781,3.781,0,0,1,25.2,9.959c-.027-.357-.006-.838-.006-1.2a4.394,4.394,0,0,1,.729-3.24,3.987,3.987,0,0,1,4.105-1.561,3.791,3.791,0,0,1,2.8,3.48,12.359,12.359,0,0,1-.164,3.48,3.576,3.576,0,0,1-3.672,2.52ZM27.2,7.32a11.523,11.523,0,0,0-.006,2.879,1.747,1.747,0,0,0,2.016,1.441,1.934,1.934,0,0,0,1.74-1.8c.018-.359,0-.719,0-1.08,0-.48.02-.84,0-1.2a1.911,1.911,0,0,0-1.707-1.682h-.2A1.792,1.792,0,0,0,27.2,7.32Z" transform="translate(0.5 0.5)" stroke="rgba(0,0,0,0)" stroke-miterlimit="10" stroke-width="1" fill="url(#linear-gradient)"/>
</svg>
