<svg xmlns="http://www.w3.org/2000/svg" xmlns:xlink="http://www.w3.org/1999/xlink" width="45.21" height="43.924" viewBox="0 0 45.21 43.924">
  <defs>
    <linearGradient id="linear-gradient" x1="0.5" x2="0.5" y2="1" gradientUnits="objectBoundingBox">
      <stop offset="0" stop-color="#f9c412"/>
      <stop offset="1" stop-color="#f36a10"/>
    </linearGradient>
  </defs>
  <path id="Union_120" data-name="Union 120" d="M40.722,43.775,36,40.507l-4.7,3.268a.838.838,0,0,1-1.276-.94l1.688-5.3-4.545-3.722a.834.834,0,0,1,.528-1.482h5.728l1.784-5.164a.836.836,0,0,1,1.58,0l1.858,5.306h5.728a.838.838,0,0,1,.794.578.826.826,0,0,1-.3.932l-4.639,3.414,1.768,5.433a.837.837,0,0,1-1.273.947ZM33.212,36.6a.838.838,0,0,1,.269.9l-1.113,3.495L35.522,38.8a.839.839,0,0,1,.954,0l3.158,2.187-1.188-3.651a.841.841,0,0,1,.3-.932l3.07-2.258H38.05a.836.836,0,0,1-.79-.56L36,29.99,34.81,33.439A.84.84,0,0,1,34.02,34H30.043ZM3.969,39.9A3.974,3.974,0,0,1,0,35.93V3.966A3.973,3.973,0,0,1,3.969,0H32.9A3.971,3.971,0,0,1,36.87,3.966V21.508a.837.837,0,1,1-1.673,0V3.966A2.3,2.3,0,0,0,32.9,1.673H3.969A2.3,2.3,0,0,0,1.676,3.966V35.93a2.3,2.3,0,0,0,2.293,2.3H25.743a.836.836,0,1,1,0,1.673Zm2.849-5.923a.836.836,0,1,1,0-1.673h16a.836.836,0,0,1,0,1.673Zm0-5.7a.836.836,0,1,1,0-1.673H30.131a.836.836,0,1,1,0,1.673Zm1.858-6.029a2.7,2.7,0,0,1-2.7-2.7V8.641a2.7,2.7,0,0,1,2.7-2.7H28.27a2.7,2.7,0,0,1,2.7,2.7v10.91a2.7,2.7,0,0,1-2.7,2.7ZM7.655,8.641v10.91a1.022,1.022,0,0,0,1.021,1.024H28.27a1.025,1.025,0,0,0,1.024-1.024V8.641A1.024,1.024,0,0,0,28.27,7.62H8.676A1.021,1.021,0,0,0,7.655,8.641Z" fill="url(#linear-gradient)"/>
</svg>
