<svg xmlns="http://www.w3.org/2000/svg" xmlns:xlink="http://www.w3.org/1999/xlink" width="50.762" height="42.295" viewBox="0 0 50.762 42.295">
  <defs>
    <linearGradient id="linear-gradient" x1="0.5" x2="0.5" y2="1" gradientUnits="objectBoundingBox">
      <stop offset="0" stop-color="#f9c412"/>
      <stop offset="1" stop-color="#f36a10"/>
    </linearGradient>
  </defs>
  <path id="Union_124" data-name="Union 124" d="M37.471,42.04l-4.955-2a.99.99,0,0,1,.373-1.906,1.011,1.011,0,0,1,.369.073l4.955,2.01a1.439,1.439,0,0,0,.551.109,1.468,1.468,0,0,0,1.365-.919l1.387-3.429H27.752L30.516,37.1a.987.987,0,0,1-.369,1.9,1.031,1.031,0,0,1-.373-.073l-7.283-2.95H12.424a.987.987,0,0,1,0-1.974h3.309V20.428a12.685,12.685,0,0,0-4.705,6.415,1,1,0,0,1-.955.717.977.977,0,0,1-.322-.052A1,1,0,0,1,9.127,26.3,14.092,14.092,0,0,1,13.6,19.6H4.858V32.53A1.468,1.468,0,0,0,6.327,34H9.475a.987.987,0,0,1,0,1.974H6.327A3.448,3.448,0,0,1,2.883,32.53v-4.5l-.732-.29a3.461,3.461,0,0,1-1.9-4.488l2.633-6.482v-7A3.448,3.448,0,0,1,6.327,6.32h.785L8.8,2.15A3.441,3.441,0,0,1,12,0a3.366,3.366,0,0,1,1.289.254l3,1.21a.993.993,0,0,1,.541,1.288.984.984,0,0,1-1.283.546l-3-1.216a1.541,1.541,0,0,0-.549-.1,1.457,1.457,0,0,0-1.361.914L9.241,6.32H23.01L18.274,4.4a.986.986,0,0,1,.373-1.9.9.9,0,0,1,.369.073l9.25,3.744h16.17a3.451,3.451,0,0,1,3.443,3.444v4.5l.729.3a3.427,3.427,0,0,1,1.879,1.844l.021.053a3.425,3.425,0,0,1,0,2.586l-2.629,6.487v7a3.451,3.451,0,0,1-3.443,3.443h-.785l-1.687,4.171a3.447,3.447,0,0,1-3.2,2.15A3.368,3.368,0,0,1,37.471,42.04ZM17.713,34H44.436a1.472,1.472,0,0,0,1.471-1.47V19.6H19.842A14.01,14.01,0,0,1,24.319,26.3a1,1,0,0,1-.623,1.205.943.943,0,0,1-.316.052,1,1,0,0,1-.955-.717,12.724,12.724,0,0,0-4.711-6.415ZM2.084,23.991a1.443,1.443,0,0,0,.01,1.122,1.461,1.461,0,0,0,.789.784V22.022Zm45.795-3.719.795-1.969a1.472,1.472,0,0,0-.795-1.906ZM24.819,12.466a3.029,3.029,0,0,1,.793,3.334,4.329,4.329,0,0,1-1.6,1.818H45.9V9.765A1.466,1.466,0,0,0,44.436,8.3H17.713v6.8c1.168-1.626,2.773-3.34,4.461-3.594a3.188,3.188,0,0,1,.447-.037A3.013,3.013,0,0,1,24.819,12.466ZM4.858,9.765v7.854h4.58A4.376,4.376,0,0,1,7.832,15.8a3.03,3.03,0,0,1,.795-3.334,3.023,3.023,0,0,1,2.2-1,3.14,3.14,0,0,1,.447.037c1.688.254,3.293,1.968,4.461,3.594v-6.8H6.327A1.468,1.468,0,0,0,4.858,9.765Zm17.613,3.692c-.816.125-1.969,1.148-3.164,2.815-.275.385-.545.795-.816,1.226,2.566-.348,4.848-1.392,5.3-2.467.066-.161.229-.54-.4-1.194a1.1,1.1,0,0,0-.787-.391A.921.921,0,0,0,22.471,13.457Zm-12.42.38c-.629.649-.467,1.028-.4,1.194.463,1.075,2.738,2.119,5.3,2.467-.27-.436-.549-.856-.824-1.241-1.189-1.656-2.338-2.68-3.148-2.8a.982.982,0,0,0-.131-.009A1.111,1.111,0,0,0,10.051,13.837ZM37.709,31.273v-.515a2.794,2.794,0,0,1-1.9-1.771,1,1,0,0,1,.932-1.329.984.984,0,0,1,.887.561h.012l.025.083a.373.373,0,0,1,.025.083l.006.011c0,.021.16.478.939.53a1.062,1.062,0,0,0,.795-.2.827.827,0,0,0,.229-.572c0-.2,0-.623-1.064-.742a2.56,2.56,0,0,1-2.545-2.524,2.877,2.877,0,0,1,.488-1.563,2.413,2.413,0,0,1,1.168-.914v-.535a.989.989,0,1,1,1.979,0v.54A2.6,2.6,0,0,1,41.143,23.7v0a1.033,1.033,0,0,1-.078.977.95.95,0,0,1-.814.437.975.975,0,0,1-.9-.593.739.739,0,0,0-.645-.3.611.611,0,0,0-.676.67c0,.39.432.52.785.561a3.276,3.276,0,0,1,2.26,1.06,2.563,2.563,0,0,1,.566,1.646,2.806,2.806,0,0,1-.848,2.011,2.634,2.634,0,0,1-1.1.612v.494a.989.989,0,0,1-1.979,0Z" fill="url(#linear-gradient)"/>
</svg>
