<svg xmlns="http://www.w3.org/2000/svg" xmlns:xlink="http://www.w3.org/1999/xlink" width="34.762" height="46.817" viewBox="0 0 34.762 46.817">
  <defs>
    <linearGradient id="linear-gradient" x1="0.5" x2="0.5" y2="1" gradientUnits="objectBoundingBox">
      <stop offset="0" stop-color="#f9c412"/>
      <stop offset="1" stop-color="#f36a10"/>
    </linearGradient>
  </defs>
  <path id="Union_126" data-name="Union 126" d="M32.243,46.807H2.524a2.1,2.1,0,0,1-.4,0A2.314,2.314,0,0,1,.013,44.289V7.325a1.621,1.621,0,0,1,0-.435A2.294,2.294,0,0,1,2.317,4.8c.068,0,.137,0,.207.006h5.75c.016-.218.031-.43.063-.642V4.155a2.425,2.425,0,0,1,2.375-1.977h.016c.328,0,.674,0,1.027,0h.318V1.755c0-.09,0-.175,0-.265V1.48A1.626,1.626,0,0,1,13.7.006a1.176,1.176,0,0,1,.143.006H20.87a1.548,1.548,0,0,1,.42,0A1.638,1.638,0,0,1,22.7,1.851v.328H23.8c.1,0,.186-.011.266-.011.063,0,.121,0,.18.006a2.436,2.436,0,0,1,1.664.858,2.4,2.4,0,0,1,.572,1.76l.006.016h5.809c.1-.006.211,0,.318,0a2.312,2.312,0,0,1,2.146,2.459c0,10.6,0,21.368,0,31.781l-.006,5.284a2.374,2.374,0,0,1-.006.36,2.329,2.329,0,0,1-2.316,2.125C32.376,46.818,32.314,46.813,32.243,46.807ZM2.079,6.863A.913.913,0,0,0,2,7.352v36.9c0,.551.031.583.566.583H32.212a.924.924,0,0,0,.482-.08.987.987,0,0,0,.084-.508V7.346a.9.9,0,0,0-.084-.482c-.074-.074-.318-.079-.5-.079-.916,0-1.844,0-2.756,0h-.006c-.91,0-1.834,0-2.744,0-.064,0-.133,0-.207,0V8.448a1.027,1.027,0,0,1-1.172,1.16H9.45A1.021,1.021,0,0,1,8.3,8.444c-.006-.414,0-.816,0-1.246V6.784c-.08,0-.148,0-.219,0h-5.5A.945.945,0,0,0,2.079,6.863Zm8.209-2.379c-.016.789-.012,1.59-.006,2.369V7.6H24.5V6.938c0-.784.006-1.6-.006-2.39V4.522a.325.325,0,0,0-.078-.229.309.309,0,0,0-.223-.105l-.006-.006c-.217-.01-.461-.021-.758-.021-.158,0-.318,0-.477,0H22.7V4.23c0,.186.006.36,0,.535V4.95l0,.011a1.017,1.017,0,0,1-1.014.9.568.568,0,0,1-.1-.006c-1.395.006-2.8.006-4.2.006s-2.809,0-4.209-.006a1.016,1.016,0,0,1-1.107-1.118V4.166h-.35c-.186,0-.365,0-.545,0-.207,0-.377,0-.535.011h-.027A.324.324,0,0,0,10.288,4.485Zm3.8-.636h6.6V2.015h-6.6ZM4.087,42.911a14.747,14.747,0,0,1-1.076-1.064L3,41.836a.96.96,0,0,1,0-1.352l.025-.026a.973.973,0,0,1,1.373.026l.012.011a3.844,3.844,0,0,1,.3.382c.334-.34.643-.647.934-.943.174-.176.344-.345.514-.515l.084-.085a4.027,4.027,0,0,1,.3-.28l.006-.006a.927.927,0,0,1,.646-.265.909.909,0,0,1,.658.275.353.353,0,0,1,.063.053.941.941,0,0,1-.01,1.32c-.807.832-1.643,1.669-2.492,2.49l-.031.032a.916.916,0,0,1-.625.243A.9.9,0,0,1,4.087,42.911Zm4.352-.354a.952.952,0,0,1-.785-.943.913.913,0,0,1,.705-.943,2.187,2.187,0,0,1,.5-.059H25.933a1.922,1.922,0,0,1,.387.037.913.913,0,0,1,.789,1,.938.938,0,0,1-.879.917,1.837,1.837,0,0,1-.451.011h-8.41c-1.395.006-2.809.006-4.209.006s-2.8,0-4.2-.006c-.059.006-.123.011-.186.011A2.336,2.336,0,0,1,8.439,42.557Zm-4.51-5.7-.16-.159c-.227-.223-.465-.456-.7-.7a.59.59,0,0,1-.09-.09.955.955,0,0,1,.047-1.356l.033-.032a.078.078,0,0,0,.025-.021L3.1,34.48a1.007,1.007,0,0,1,.605-.212.98.98,0,0,1,.768.371c.086.1.17.207.25.313.572-.583,1.1-1.107,1.643-1.643a1.254,1.254,0,0,1,.869-.435.921.921,0,0,1,.668.313,1.01,1.01,0,0,1-.143,1.5c-.795.8-1.506,1.511-2.168,2.162a1.214,1.214,0,0,1-.832.44A1.209,1.209,0,0,1,3.929,36.855Zm21.859-.2H8.968c-.062,0-.127,0-.186,0a2.07,2.07,0,0,1-.26-.011.887.887,0,0,1-.631-.3.9.9,0,0,1-.238-.593v-.006l0-.031a.925.925,0,0,1,.205-.663.915.915,0,0,1,.605-.323,2.747,2.747,0,0,1,.557-.021c2.771,0,5.586-.006,8.361-.006s5.586.006,8.363.006a2.591,2.591,0,0,1,.609.037.9.9,0,0,1,.764.97.923.923,0,0,1-.816.922c-.117.011-.229.021-.334.021C25.905,36.669,25.847,36.663,25.788,36.658ZM3.917,30.929c-.291-.286-.576-.572-.857-.869a.885.885,0,0,1-.127-.121l-.006-.006a.963.963,0,0,1-.207-.721.935.935,0,0,1,.361-.651.953.953,0,0,1,.613-.223.976.976,0,0,1,.754.354c.1.111.2.229.3.345.111-.116.223-.228.33-.339.449-.456.869-.886,1.3-1.31a1.219,1.219,0,0,1,.854-.429.921.921,0,0,1,.646.286.9.9,0,0,1,.291.657,1.258,1.258,0,0,1-.424.885c-.693.694-1.414,1.42-2.125,2.125a1.288,1.288,0,0,1-.857.461A1.284,1.284,0,0,1,3.917,30.929Zm21.852-.185c-2.777,0-5.592,0-8.375,0s-5.605,0-8.395,0c-.074,0-.148,0-.217,0a.865.865,0,0,1-.115,0H8.624a.949.949,0,0,1-.68-.287.961.961,0,0,1-.275-.688l.006-.09a.949.949,0,0,1,.955-.869H8.7c.631-.006,1.262-.006,1.9,0H21.485c1.219,0,2.824,0,4.457,0h.027a1.444,1.444,0,0,1,.842.275l.027.021.016.021a1.021,1.021,0,0,1,.217.88l-.006.031-.016.026a1.381,1.381,0,0,1-.646.62l-.01.006-.016,0a1.234,1.234,0,0,1-.4.063A1,1,0,0,1,25.769,30.744Zm-8.375-4.7a7.591,7.591,0,0,1-7.582-7.572,7.58,7.58,0,0,1,7.551-7.568h.021A7.57,7.57,0,0,1,17.4,26.048ZM13.753,22.71a5.572,5.572,0,0,0,7.3,0,3.992,3.992,0,0,0-3.51-2.057c-.115,0-.227,0-.344.011h-.021A3.9,3.9,0,0,0,13.753,22.71ZM13.542,14.4a5.683,5.683,0,0,0-1.75,3.614,5.077,5.077,0,0,0,.627,3.021l2.1-1.771c-1.176-1.881-1.039-3.7.393-5a3.654,3.654,0,0,1,4.838-.127A3.587,3.587,0,0,1,21.03,16.3a3.686,3.686,0,0,1-.721,2.968l2.057,1.759a5.5,5.5,0,0,0-1.219-6.73A5.616,5.616,0,0,0,17.4,12.858,5.553,5.553,0,0,0,13.542,14.4Zm2.125,2.587a1.731,1.731,0,0,0,1.686,1.68h.053a1.7,1.7,0,1,0-.006-3.408h-.01A1.731,1.731,0,0,0,15.667,16.987Z" fill="url(#linear-gradient)"/>
</svg>
