<svg xmlns="http://www.w3.org/2000/svg" xmlns:xlink="http://www.w3.org/1999/xlink" width="48.752" height="43.993" viewBox="0 0 48.752 43.993">
  <defs>
    <linearGradient id="linear-gradient" x1="0.5" x2="0.5" y2="1" gradientUnits="objectBoundingBox">
      <stop offset="0" stop-color="#f9c412"/>
      <stop offset="1" stop-color="#f36a10"/>
    </linearGradient>
  </defs>
  <path id="Union_121" data-name="Union 121" d="M22,43.948c-8.97-.123-15.629-4.284-19.795-12.371A20.836,20.836,0,0,1,.161,19.454a21.5,21.5,0,0,1,2.634-8.192.548.548,0,0,0-.131-.8c-.476-.459-.941-.935-1.4-1.4C1,8.789.718,8.5.441,8.227A1.045,1.045,0,0,1,.108,6.989a1.042,1.042,0,0,1,1.064-.6h.011c.588,0,1.222,0,2,0H6.37V3.357c0-.718,0-1.466,0-2.2A1.031,1.031,0,0,1,6.98.083.949.949,0,0,1,7.361,0a1.132,1.132,0,0,1,.808.409c.208.21.414.415.624.624.538.537,1.095,1.092,1.625,1.65a.574.574,0,0,0,.411.236.71.71,0,0,0,.348-.113A21.107,21.107,0,0,1,21.623,0c.689,0,1.4.034,2.1.1a21.9,21.9,0,0,1,8.909,2.769,22.327,22.327,0,0,1,6.892,6.336,23.4,23.4,0,0,1,1.524,2.53c.131.236.261.48.4.717a1.356,1.356,0,0,1,.183,1.034.9.9,0,0,1-.471.543,1.04,1.04,0,0,1-.465.121c-.391,0-.728-.271-.978-.789A20.065,20.065,0,0,0,35.034,7.1,19.63,19.63,0,0,0,25,2.257a19.968,19.968,0,0,0-3.289-.274,19.646,19.646,0,0,0-9.293,2.384,1.281,1.281,0,0,0-.123.082c-.013.008-.027.019-.042.029.243.252.489.5.729.75.7.712,1.417,1.451,2.138,2.155a1.769,1.769,0,0,1,.567,1.379c-.022,1.612-.022,3.32,0,5.225a1.094,1.094,0,0,0,.28.675c1.259,1.292,2.552,2.6,3.8,3.855l1.5,1.511a2.825,2.825,0,0,1,.4.484.959.959,0,0,1-.143,1.18.983.983,0,0,1-.682.282.909.909,0,0,1-.493-.145,2.452,2.452,0,0,1-.474-.4l-.53-.529c-1.56-1.57-3.17-3.192-4.747-4.8a.95.95,0,0,0-.739-.314h-.026c-.541,0-1.077,0-1.715,0H10.541c-.721,0-1.319,0-1.887.011H8.628a1.644,1.644,0,0,1-1.259-.548c-.677-.689-1.355-1.36-2.078-2.068C5,12.9,4.7,12.607,4.405,12.312c-3.333,6.674-3.315,13.165.06,19.28,3.562,6.45,9.283,9.962,17.012,10.438V38.354c-.263-.034-.532-.068-.793-.1-.561-.063-1.14-.131-1.7-.229a15.629,15.629,0,0,1-7.516-3.491,16.09,16.09,0,0,1-5.4-8.722,16.35,16.35,0,0,1-.156-6.951,1.049,1.049,0,0,1,.974-.941.817.817,0,0,1,.2.023,1.041,1.041,0,0,1,.755,1.341,13.963,13.963,0,0,0-.176,4.231,14.246,14.246,0,0,0,4.343,8.848,14.02,14.02,0,0,0,7.982,3.846c.327.045.66.068,1.017.089.159.011.324.019.5.034v-1.35c0-1.037,0-2.112-.008-3.17a1.012,1.012,0,0,0-.145-.551,3.646,3.646,0,0,1-.752-2.3c0-.656,0-1.309,0-1.967,0-1.162,0-2.361,0-3.543,0-.865.363-1.217,1.23-1.217q1.581-.006,3.161,0h3.714v-.562c0-.4,0-.763,0-1.141a1.807,1.807,0,0,1,2.03-2.031h4.94c-.112-.3-.218-.6-.317-.885a15.151,15.151,0,0,0-.74-1.844A13.9,13.9,0,0,0,23.131,7.734a7.772,7.772,0,0,0-.911-.044c-.482,0-.979.029-1.462.06-.351.022-.718.049-1.075.06-.09,0-.181.012-.27.019a2.955,2.955,0,0,1-.336.023h-.06a.935.935,0,0,1-.9-.832A.923.923,0,0,1,18.721,6a5.505,5.505,0,0,1,1.121-.222,19.4,19.4,0,0,1,1.958-.1,15.943,15.943,0,0,1,6.3,1.247A16.8,16.8,0,0,1,33.494,10.7a15.762,15.762,0,0,1,4.044,7.442c.019.079.045.158.073.244.012.037.026.075.041.116h1.069a1.818,1.818,0,0,1,1.933,1.956c0,.4,0,.8,0,1.219,0,.184,0,.37,0,.559h.523c.605,0,1.214,0,1.82,0h1.823c1.023,0,1.86,0,2.63-.008h.027a1.177,1.177,0,0,1,1.271.794l0,0v6.629l0,.009c-.082.165-.169.332-.254.5-.191.39-.393.792-.575,1.192a1.317,1.317,0,0,0-.083.543c0,.794-.008,1.6-.008,2.384-.011,2.315-.021,4.708.019,7.061a2.6,2.6,0,0,1-.666,1.915,2.653,2.653,0,0,1-1.92.724h-.011c-1.271,0-2.609-.008-4.1-.008-1.791,0-3.592,0-5.269.008-1.795,0-3.647.007-5.473.007C27.051,43.993,24.455,43.979,22,43.948Zm1.464-2.619c0,.651.009.655.674.655q10.522,0,21.051,0A1.09,1.09,0,0,1,45.3,42a.889.889,0,0,0,.1.008.181.181,0,0,0,.1-.023c.091-.053.337-.2.341-.308.022-.569.022-1.131.02-1.728,0-.191,0-.385,0-.58H40.683c-.093,0-.187,0-.28,0h-.284c-.212,0-.377-.009-.53-.023a.961.961,0,0,1-.893-1,.98.98,0,0,1,.9-.947,1.7,1.7,0,0,1,.284-.016h5.938V32.574H37.545a4.273,4.273,0,0,1-1.063,1.84,2.281,2.281,0,0,1-1.643.627h-.1a3.776,3.776,0,0,1-1.621-.461,2.7,2.7,0,0,1-1.3-2.013h-8.35ZM33.808,31.095a12.789,12.789,0,0,0,.019,1.288.8.8,0,0,0,.832.694h.013a.819.819,0,0,0,.852-.667,12.224,12.224,0,0,0,.019-1.323c0-.172,0-.353-.007-.529h-1.72C33.815,30.738,33.812,30.919,33.808,31.095Zm-11.23-6.72c0,.112-.012.221-.012.326,0,1.353,0,2.746,0,4.122,0,1.21.539,1.75,1.738,1.754h7.5c0-.086,0-.166,0-.244,0-.184,0-.341,0-.5a1.2,1.2,0,0,1,1.342-1.275c.524,0,1.084-.007,1.656-.007.542,0,1.027,0,1.482.007a1.174,1.174,0,0,1,1.257,1.26c0,.172,0,.34,0,.521v.226c.728,0,1.453,0,2.175,0s1.45,0,2.17,0c1.421,0,2.568-.008,3.61-.02a1.351,1.351,0,0,0,1.279-1.368c.018-1.166.015-2.3.011-3.512,0-.472,0-.947,0-1.428H22.586C22.586,24.287,22.582,24.334,22.578,24.375Zm8.116-2.163h7.957v-1.7H30.694ZM3.456,8.421a.172.172,0,0,0,.012.045c1.409,1.433,3.27,3.32,5.123,5.194a.5.5,0,0,0,.3.139c.741.009,1.474.012,2.344.012h1.027a.339.339,0,0,1-.021-.045.326.326,0,0,0-.034-.061c-1.667-1.69-3.385-3.437-5.093-5.16a.434.434,0,0,0-.25-.154c-.692-.008-1.384-.008-1.97-.008H3.449A.166.166,0,0,1,3.456,8.421ZM8.337,3.46V4.3c0,.716.008,1.461-.009,2.188A1.02,1.02,0,0,0,8.65,7.3c1.163,1.155,2.332,2.34,3.465,3.482.411.419.822.833,1.236,1.251.07.071.146.14.242.229.034.029.067.063.109.1v-.861c0-.907,0-1.766,0-2.628a.371.371,0,0,0-.12-.217C11.856,6.91,10.108,5.135,8.415,3.418Zm26.683,35.9H35a.984.984,0,0,1-.013-1.968H35a.984.984,0,0,1,.018,1.968ZM16.677,30.308A9.276,9.276,0,0,1,14.051,27.9a10.247,10.247,0,0,1-1.837-4.244,10.179,10.179,0,0,1,.326-4.629A.967.967,0,0,1,13.5,18.2h.045a.941.941,0,0,1,.714.345.975.975,0,0,1,.193.8c-.041.226-.093.45-.145.668a8.086,8.086,0,0,0-.19,1.02,7.683,7.683,0,0,0,3.176,7.3c.078.061.157.115.235.169s.185.124.269.191a1.038,1.038,0,0,1,.273,1.434.9.9,0,0,1-.748.387A1.171,1.171,0,0,1,16.677,30.308ZM42.033,17.981a.982.982,0,0,1-.961-1.022.95.95,0,0,1,.961-.96.964.964,0,0,1,.688.284,1,1,0,0,1-.676,1.7ZM27.01,16.175a7.573,7.573,0,0,0-5.141-2.009c-.15,0-.3,0-.45.011a8.472,8.472,0,0,0-1.4.237c-.21.044-.422.093-.636.135-.074.015-.153.034-.227.052a1.886,1.886,0,0,1-.457.08H18.68a.976.976,0,0,1-.183-1.91c.8-.2,1.625-.365,2.425-.517l.3-.059a1.135,1.135,0,0,1,.234-.019c.065,0,.132,0,.2,0s.131.008.194.008a9.6,9.6,0,0,1,6.428,2.476c.55.491.65,1.043.284,1.507a.912.912,0,0,1-.719.367A1.291,1.291,0,0,1,27.01,16.175Z" fill="url(#linear-gradient)"/>
</svg>
