<svg xmlns="http://www.w3.org/2000/svg" width="130" height="130" viewBox="0 0 130 130">
    <g data-name="Group 13918" transform="translate(.227)">
        <rect data-name="Rectangle 148251" width="130" height="130" rx="38" transform="translate(-.227)" style="fill:#edf4fd"/>
        <path data-name="Union 85" d="M0 45.676v-1.268a4.91 4.91 0 0 0 .032-.91C.25 31.7 1.93 28.3 13.9 26.148c0 0 1.708 2.167 5.675 2.167s5.673-2.167 5.673-2.167c12.107 2.178 13.688 5.632 13.88 17.752a6.468 6.468 0 0 0 .026.836v.943s-2.889 5.808-19.579 5.808S0 45.676 0 45.676zM53.634 48.5a3.762 3.762 0 0 1-3.757-3.718h-4.824a1.61 1.61 0 0 1-1.611-1.611V27.355h-2.681a1.61 1.61 0 1 1 0-3.22h2.681V8.315a1.608 1.608 0 0 1 1.611-1.609h4.824a3.759 3.759 0 0 1 3.757-3.724h13.942a3.757 3.757 0 0 1 3.754 3.754v3.223a3.757 3.757 0 0 1-3.753 3.75H53.634a3.758 3.758 0 0 1-3.757-3.75v-.04h-3.22v14.216h3.22a3.76 3.76 0 0 1 3.757-3.756h13.942a3.759 3.759 0 0 1 3.753 3.756v3.22a3.757 3.757 0 0 1-3.753 3.745H53.634a3.758 3.758 0 0 1-3.757-3.748h-3.22v14.212h3.22v-.038a3.759 3.759 0 0 1 3.757-3.753h13.942a3.758 3.758 0 0 1 3.753 3.753v3.221a3.757 3.757 0 0 1-3.753 3.753zm2.4-6.465a1.063 1.063 0 0 0-.3.763 1.079 1.079 0 0 0 .328.758L58.9 46.29a1.03 1.03 0 0 0 .74.3 1.1 1.1 0 0 0 .758-.314l4.76-4.771a1.036 1.036 0 0 0 .319-.754 1.076 1.076 0 0 0-1.833-.762l-4.022 4.021-2.078-2a1.073 1.073 0 0 0-.744-.3 1.052 1.052 0 0 0-.77.323zm6.436-12.911a1.069 1.069 0 0 0 1.514 0 1.065 1.065 0 0 0 0-1.52l-1.865-1.862 1.865-1.867a1.06 1.06 0 0 0 0-1.516 1.079 1.079 0 0 0-.761-.314 1.059 1.059 0 0 0-.753.314l-1.87 1.867-1.867-1.868a1.07 1.07 0 0 0-.761-.314 1.091 1.091 0 0 0-.758.314 1.079 1.079 0 0 0 0 1.516l1.871 1.867-1.87 1.859a1.074 1.074 0 0 0 .758 1.834 1.065 1.065 0 0 0 .761-.314l1.866-1.866zM56.03 7.248a1.034 1.034 0 0 0-.3.754 1.085 1.085 0 0 0 .328.761L58.9 11.5a1.045 1.045 0 0 0 .74.3 1.07 1.07 0 0 0 .758-.311l4.76-4.763a1.065 1.065 0 0 0 0-1.52 1.045 1.045 0 0 0-.754-.311 1.061 1.061 0 0 0-.759.311l-4.023 4.019-2.077-2.009a1.073 1.073 0 0 0-1.515.032zM9.207 12.594C9.207 5.644 10.732 0 19.575 0s10.367 5.644 10.367 12.594S25.3 25.183 19.575 25.183 9.207 19.542 9.207 12.594z" transform="translate(28.019 39.206)" style="fill:#5394e8"/>
    </g>
</svg>
