<svg xmlns="http://www.w3.org/2000/svg" width="130" height="130" viewBox="0 0 130 130">
    <g data-name="Group 13925" transform="translate(.022 -.009)">
        <rect data-name="Rectangle 148255" width="130" height="130" rx="38" transform="translate(-.022 .009)" style="fill:#fff7e7"/>
        <path data-name="Union 101" d="m33.012 57.192-5.177-10.359a25.174 25.174 0 0 0 17.32-9.453l5.5 10.993a1.7 1.7 0 0 1-.075 1.655 1.682 1.682 0 0 1-1.443.808h-8.275L35.9 57.457a1.689 1.689 0 0 1-1.36.681 1.715 1.715 0 0 1-1.528-.946zm-18.076.265-4.964-6.62H1.7a1.7 1.7 0 0 1-1.521-2.463L5.673 37.38A25.206 25.206 0 0 0 23 46.833l-5.184 10.359a1.7 1.7 0 0 1-2.88.265zM3.648 21.77a21.769 21.769 0 1 1 21.77 21.774A21.8 21.8 0 0 1 3.648 21.77zm28.638 11.915a1.708 1.708 0 0 0 1.639-.2 1.688 1.688 0 0 0 .7-1.5l-.51-7.385 4.752-5.676a1.7 1.7 0 0 0-.891-2.743l-7.187-1.8L26.861 8.1a1.7 1.7 0 0 0-2.886 0l-3.931 6.282-7.185 1.8a1.7 1.7 0 0 0-.891 2.743l4.753 5.675-.507 7.388a1.688 1.688 0 0 0 .7 1.5 1.731 1.731 0 0 0 1.639.2l6.87-2.773zM26.053 27.5a1.743 1.743 0 0 0-1.271 0l-4.986 2.009.378-5.356a1.7 1.7 0 0 0-.4-1.217l-3.446-4.119 5.215-1.3a1.709 1.709 0 0 0 1.027-.748l2.85-4.556 2.848 4.556a1.7 1.7 0 0 0 1.035.748l5.207 1.3-3.444 4.119a1.685 1.685 0 0 0-.394 1.217l.37 5.356z" transform="translate(39.332 36.514)" style="fill:#feb017"/>
    </g>
</svg>
