<svg xmlns="http://www.w3.org/2000/svg" width="130" height="130" viewBox="0 0 130 130">
    <defs>
        <style>
            .cls-2{fill:#ff0808}
        </style>
    </defs>
    <g id="Group_16816" data-name="Group 16816" transform="translate(-1343 -1046)">
        <rect id="Rectangle_148257" data-name="Rectangle 148257" width="130" height="130" rx="38" transform="translate(1343 1046)" style="fill:#ffe5e5"/>
        <g id="discount-voucher" transform="translate(1379.048 1090.306)">
            <g id="Group_13791" data-name="Group 13791">
                <g id="Group_13790" data-name="Group 13790">
                    <path id="Path_15625" data-name="Path 15625" class="cls-2" d="M322.363 277.333c-1.281 0-2.363 1.623-2.363 3.544s1.082 3.544 2.363 3.544 2.363-1.623 2.363-3.544-1.082-3.544-2.363-3.544z" transform="translate(-284.556 -253.704)"/>
                    <path id="Path_15626" data-name="Path 15626" class="cls-2" d="M218.06 174.211c0-1.921-1.082-3.544-2.363-3.544s-2.363 1.623-2.363 3.544 1.082 3.544 2.363 3.544 2.363-1.623 2.363-3.544z" transform="translate(-189.705 -158.852)"/>
                    <path id="Path_15627" data-name="Path 15627" class="cls-2" d="M55.529 79.359a1.181 1.181 0 0 0 1.182-1.181v-9.452A4.731 4.731 0 0 0 51.985 64H4.726A4.731 4.731 0 0 0 0 68.726v9.452a1.181 1.181 0 0 0 1.182 1.181 5.907 5.907 0 0 1 0 11.815A1.181 1.181 0 0 0 0 92.355v9.452a4.73 4.73 0 0 0 4.726 4.726h47.259a4.73 4.73 0 0 0 4.726-4.726v-9.452a1.181 1.181 0 0 0-1.182-1.181 5.907 5.907 0 1 1 0-11.815zm-38.988 21.267a1.182 1.182 0 0 1-2.363 0v-2.363a1.182 1.182 0 1 1 2.363 0v2.363zm0-9.452a1.182 1.182 0 0 1-2.363 0v-2.363a1.182 1.182 0 0 1 2.363 0v2.363zm0-9.452a1.182 1.182 0 1 1-2.363 0v-2.363a1.182 1.182 0 0 1 2.363 0v2.363zm0-9.452a1.182 1.182 0 0 1-2.363 0v-2.658a1.182 1.182 0 1 1 2.363 0v2.658zm4.726 7.089c0-3.257 2.119-5.907 4.726-5.907s4.726 2.65 4.726 5.907-2.12 5.907-4.726 5.907-4.727-2.65-4.727-5.907zm3.543 17.722a1.181 1.181 0 0 1-.982-1.837l14.178-21.266a1.181 1.181 0 0 1 1.966 1.311L25.794 96.555a1.18 1.18 0 0 1-.984.526zm13 0c-2.606 0-4.726-2.65-4.726-5.907s2.12-5.907 4.726-5.907 4.726 2.65 4.726 5.907-2.123 5.907-4.729 5.907z" transform="translate(0 -64)"/>
                </g>
            </g>
        </g>
    </g>
</svg>
