<svg xmlns="http://www.w3.org/2000/svg" width="130" height="130" viewBox="0 0 130 130">
    <g data-name="Group 13922" transform="translate(-.488)">
        <rect data-name="Rectangle 148252" width="130" height="130" rx="38" transform="translate(.488)" style="fill:#edf4fd"/>
        <path data-name="Union 88" d="M6.861 54.891A6.869 6.869 0 0 1 0 48.029V13.722a6.868 6.868 0 0 1 6.861-6.86h1.716v.858a5.152 5.152 0 0 0 5.145 5.145h.143a5.152 5.152 0 0 0 5.147-5.145v-.858h16.154v.858a5.152 5.152 0 0 0 5.146 5.145h.143A5.152 5.152 0 0 0 45.6 7.72v-.858h2.429a6.868 6.868 0 0 1 6.862 6.861v34.306a6.869 6.869 0 0 1-6.862 6.862zm26.888-6.645a2.1 2.1 0 1 0 2.1-2.1 2.1 2.1 0 0 0-2.1 2.1zm-8.406 0a2.1 2.1 0 1 0 2.1-2.1 2.1 2.1 0 0 0-2.1 2.1zm-8.408 0a2.1 2.1 0 1 0 2.1-2.1 2.1 2.1 0 0 0-2.1 2.1zm-8.4 0a2.1 2.1 0 1 0 2.1-2.1 2.1 2.1 0 0 0-2.099 2.1zm33.62-6.825a2.1 2.1 0 1 0 2.1-2.106 2.1 2.1 0 0 0-2.099 2.107zm-8.407 0a2.1 2.1 0 1 0 2.1-2.106 2.1 2.1 0 0 0-2.099 2.107zm-8.406 0a2.1 2.1 0 1 0 2.1-2.106 2.1 2.1 0 0 0-2.099 2.107zm-8.408 0a2.1 2.1 0 1 0 2.1-2.106 2.1 2.1 0 0 0-2.099 2.107zm-8.4 0a2.1 2.1 0 1 0 2.1-2.106 2.1 2.1 0 0 0-2.098 2.107zM42.156 34.6a2.1 2.1 0 1 0 2.1-2.1 2.1 2.1 0 0 0-2.1 2.1zm-8.407 0a2.1 2.1 0 1 0 2.1-2.1 2.1 2.1 0 0 0-2.1 2.1zm-8.406 0a2.1 2.1 0 1 0 2.1-2.1 2.1 2.1 0 0 0-2.1 2.1zm-8.408 0a2.1 2.1 0 1 0 2.1-2.1 2.1 2.1 0 0 0-2.1 2.1zm-8.4 0a2.1 2.1 0 1 0 2.1-2.1 2.1 2.1 0 0 0-2.099 2.1zm33.62-6.832a2.1 2.1 0 1 0 2.1-2.1 2.1 2.1 0 0 0-2.099 2.099zm-8.407 0a2.1 2.1 0 1 0 2.1-2.1 2.1 2.1 0 0 0-2.099 2.099zm-8.406 0a2.1 2.1 0 1 0 2.1-2.1 2.1 2.1 0 0 0-2.099 2.099zM5.077 18.259v1.415a.454.454 0 0 0 .454.454h43.83a.454.454 0 0 0 .454-.454v-1.415a.454.454 0 0 0-.454-.455H5.53a.454.454 0 0 0-.453.455zm35.234-7.966a2.572 2.572 0 0 1-2.572-2.573V2.573A2.572 2.572 0 0 1 40.311 0h.143a2.574 2.574 0 0 1 2.573 2.573V7.72a2.574 2.574 0 0 1-2.573 2.573zm-26.588 0A2.574 2.574 0 0 1 11.15 7.72V2.573A2.574 2.574 0 0 1 13.723 0h.143a2.572 2.572 0 0 1 2.572 2.573V7.72a2.572 2.572 0 0 1-2.572 2.573z" transform="translate(37.701 39.203)" style="fill:#5394e8"/>
    </g>
</svg>
