<svg xmlns="http://www.w3.org/2000/svg" width="130" height="130" viewBox="0 0 130 130">
    <g data-name="Group 13920" transform="translate(.022 -.032)">
        <rect data-name="Rectangle 148254" width="130" height="130" rx="38" transform="translate(-.022 .032)" style="fill:#e8f5f3"/>
        <path data-name="Union 97" d="M4.666 51.358A4.676 4.676 0 0 1 0 46.687V18.672a4.671 4.671 0 0 1 4.666-4.664h4.04L31.684.624a4.629 4.629 0 0 1 6.34 1.713l6.706 11.71a4.65 4.65 0 0 1 4.3 4.624v3.5a1.171 1.171 0 0 1-1.169 1.171h-8.175a9.338 9.338 0 1 0 0 18.675h8.171a1.168 1.168 0 0 1 1.169 1.167v3.5a4.678 4.678 0 0 1-4.674 4.671zm27.176-37.351h10.171l-2.545-4.442zM32.86 2.642 13.345 14.007h4.607L36 3.5v-.009a2.306 2.306 0 0 0-1.4-1.077 2.347 2.347 0 0 0-.6-.081 2.271 2.271 0 0 0-1.14.309zm6.826 37.041a7 7 0 1 1 0-14h8.171a3.5 3.5 0 0 1 3.5 3.5v7a3.5 3.5 0 0 1-3.5 3.5zm-2.333-7.005a2.333 2.333 0 1 0 2.333-2.335 2.339 2.339 0 0 0-2.334 2.335z" transform="translate(39.299 35.34)" style="fill:#22a18b"/>
    </g>
</svg>
