<svg xmlns="http://www.w3.org/2000/svg" width="130" height="130" viewBox="0 0 130 130">
    <g data-name="Group 13923" transform="translate(0 -.009)">
        <rect data-name="Rectangle 148256" width="130" height="130" rx="38" transform="translate(0 .009)" style="fill:#f8e9f2"/>
        <path data-name="Union 99" d="M29.543 55.7v-22h21.428v17.948a4.074 4.074 0 0 1-4.056 4.052zm-20.855 0a4.073 4.073 0 0 1-4.051-4.056V33.7h21.428v22zm42.283-25.48H29.543V18.706q-.85.031-1.74.029t-1.738-.029V30.22H4.056A4.074 4.074 0 0 1 0 26.168v-5.8a4.073 4.073 0 0 1 4.056-4.052h9.775C7.564 13.745 4.637 9.588 4.637 6.294 4.637 3.392 6.869 0 13.147 0c7.829 0 12.378 5.552 14.659 10.839C30.086 5.552 34.635 0 42.466 0c6.279 0 8.5 3.392 8.5 6.294 0 3.294-2.928 7.451-9.194 10.025h9.778a4.073 4.073 0 0 1 4.05 4.052v5.8a4.073 4.073 0 0 1-4.05 4.049zm-21-15.007c6.547-.309 10.675-1.964 13.05-3.376 3.3-1.958 4.471-4.143 4.471-5.543 0-2.078-2.593-2.818-5.027-2.818-8.297.001-11.448 7.886-12.492 11.737zM8.113 6.294c0 2.962 5.173 8.356 17.522 8.918-1.044-3.85-4.2-11.736-12.488-11.736-2.433.001-5.034.741-5.034 2.818z" transform="translate(36.593 36.831)" style="fill:#b92683"/>
    </g>
</svg>
