<svg id="banhang" xmlns="http://www.w3.org/2000/svg" width="80" height="80" viewBox="0 0 80 80">
  <rect id="Rectangle_148972" data-name="Rectangle 148972" width="80" height="80" fill="none"/>
  <g id="Group_18058" data-name="Group 18058" transform="translate(4.822 3.656)">
    <path id="Path_21496" data-name="Path 21496" d="M342.033,583.686h51.98c-.068-.19-.1-.29-.138-.383-1.99-4.435-3.991-8.864-5.958-13.309-.217-.491-.535-.5-.949-.5q-18.939,0-37.879-.009a.942.942,0,0,0-1.021.651c-1.9,4.272-3.822,8.531-5.738,12.794C342.229,583.157,342.148,583.392,342.033,583.686Z" transform="translate(-334.429 -520.481)" fill="#093f8e"/>
    <path id="Path_21497" data-name="Path 21497" d="M355.426,567.915H358.9v-1.006c0-1.2-.014-2.408.008-3.611.014-.742.522-1.21,1.027-.914a1.307,1.307,0,0,1,.515.949c.055,1.49.024,2.983.024,4.517h14.208V567c0-1.2,0-2.407,0-3.611,0-.559.1-1.065.792-1.056s.775.531.774,1.08c0,.8,0,1.6,0,2.408v2.1c1.581,0,3.026-.052,4.465.021.769.039,1.057-.233,1.264-.943a14.848,14.848,0,0,0-9.317-17.977c-1.211-.419-2.493-.631-3.912-.981.205.549.31.85.428,1.145.973,2.429,1.927,4.867,2.937,7.282a1.289,1.289,0,0,1-.343,1.635c-1.139,1.092-2.235,2.229-3.357,3.34-.642.635-.976.635-1.618,0-1.122-1.11-2.211-2.254-3.36-3.336a1.314,1.314,0,0,1-.324-1.7c1-2.389,1.943-4.8,2.9-7.209.123-.307.224-.623.353-.983-.19,0-.3-.007-.4,0a14.933,14.933,0,0,0-13.008,17.759C353.4,567.915,353.4,567.915,355.426,567.915Z" transform="translate(-334.429 -520.481)" fill="#093f8e"/>
    <path id="Path_21498" data-name="Path 21498" d="M389.769,544.486a8.983,8.983,0,1,0-8.974-8.911A8.994,8.994,0,0,0,389.769,544.486Zm1.055-7.672a12.007,12.007,0,0,0-1.979-.62,2.753,2.753,0,0,1-2.33-2.325,2.464,2.464,0,0,1,1.539-2.788,1.148,1.148,0,0,0,.9-1.456,2.959,2.959,0,0,1,.04-.534h1.758v1.517l2.6,1.187c-.407.579-.721,1.024-1.028,1.46-.619-.244-1.191-.512-1.79-.689a1.861,1.861,0,0,0-1.1-.053,1.568,1.568,0,0,0-.924.788c-.066.23.35.734.665.908a7.266,7.266,0,0,0,1.594.507c1.877.519,2.689,1.35,2.718,2.8.028,1.42-.792,2.31-2.716,2.885v1.538H389.09c-.027-.031-.1-.075-.09-.109a1.613,1.613,0,0,0-1.4-2.025,6.532,6.532,0,0,1-1.585-.97l1.167-1.41a10.624,10.624,0,0,0,1.685.919,3.835,3.835,0,0,0,1.722.171.866.866,0,0,0,.232-1.7Z" transform="translate(-334.429 -520.481)" fill="#093f8e"/>
    <path id="Path_21499" data-name="Path 21499" d="M341.566,588.422h52.9v-3.076h-52.9Z" transform="translate(-334.429 -520.481)" fill="#093f8e"/>
    <path id="Path_21500" data-name="Path 21500" d="M367.571,546.545a7.107,7.107,0,1,0-7.105-7.113A7.152,7.152,0,0,0,367.571,546.545Z" transform="translate(-334.429 -520.481)" fill="#093f8e"/>
    <path id="Path_21501" data-name="Path 21501" d="M347.139,593.169h41.794v-3.052H347.139Z" transform="translate(-334.429 -520.481)" fill="#093f8e"/>
    <path id="Path_21502" data-name="Path 21502" d="M347.859,540.284a6.32,6.32,0,1,0-6.3,6.289A6.367,6.367,0,0,0,347.859,540.284Z" transform="translate(-334.429 -520.481)" fill="#093f8e"/>
    <path id="Path_21503" data-name="Path 21503" d="M379.644,526.594c.224-.064.382-.356.571-.545a13.442,13.442,0,1,1,3.212,21.314c-.521-.272-1.071-.582-1.45.112s.18.994.7,1.269a14.739,14.739,0,0,0,9.55,1.553,15.011,15.011,0,0,0-2.787-29.816,14.726,14.726,0,0,0-10.547,4.67c-.13.134-.345.271-.356.418-.024.339-.066.811.124.992S379.33,526.684,379.644,526.594Z" transform="translate(-334.429 -520.481)" fill="#093f8e"/>
    <path id="Path_21504" data-name="Path 21504" d="M395.331,556.859a3.941,3.941,0,1,0,3.917,3.942A3.951,3.951,0,0,0,395.331,556.859Z" transform="translate(-334.429 -520.481)" fill="#093f8e"/>
    <path id="Path_21505" data-name="Path 21505" d="M364.789,557.186c.9.945,1.827,1.863,2.8,2.838.956-.965,1.868-1.864,2.746-2.8a.706.706,0,0,0,.091-.616c-.91-2.334-1.846-4.659-2.847-7.164-1,2.518-1.934,4.843-2.844,7.176A.649.649,0,0,0,364.789,557.186Z" transform="translate(-334.429 -520.481)" fill="#093f8e"/>
    <path id="Path_21506" data-name="Path 21506" d="M366.449,523.629a1.185,1.185,0,0,0,1.169-1.166,1.215,1.215,0,0,0-1.16-1.187,1.186,1.186,0,0,0-1.2,1.136A1.173,1.173,0,0,0,366.449,523.629Z" transform="translate(-334.429 -520.481)" fill="#093f8e"/>
    <path id="Path_21507" data-name="Path 21507" d="M347.064,554.084a1.227,1.227,0,0,0-1.162-1.191,1.2,1.2,0,0,0-1.2,1.144,1.182,1.182,0,0,0,1.11,1.218A1.2,1.2,0,0,0,347.064,554.084Z" transform="translate(-334.429 -520.481)" fill="#093f8e"/>
    <path id="Path_21508" data-name="Path 21508" d="M335.625,571.1a1.164,1.164,0,1,0-.046,2.327,1.171,1.171,0,0,0,1.206-1.138A1.184,1.184,0,0,0,335.625,571.1Z" transform="translate(-334.429 -520.481)" fill="#093f8e"/>
    <path id="Path_21509" data-name="Path 21509" d="M348.223,526.806a1.185,1.185,0,0,0,.055-2.368,1.17,1.17,0,0,0-1.189,1.154A1.185,1.185,0,0,0,348.223,526.806Z" transform="translate(-334.429 -520.481)" fill="#093f8e"/>
    <path id="Path_21510" data-name="Path 21510" d="M400.431,570.313a1.16,1.16,0,1,0,1.157,1.162A1.122,1.122,0,0,0,400.431,570.313Z" transform="translate(-334.429 -520.481)" fill="#093f8e"/>
  </g>
</svg>
