<svg id="dulieu" xmlns="http://www.w3.org/2000/svg" width="80" height="80" viewBox="0 0 80 80">
  <rect id="Rectangle_148974" data-name="Rectangle 148974" width="80" height="80" transform="translate(0 0)" fill="none"/>
  <g id="Group_18062" data-name="Group 18062" transform="translate(12.894 12.894)">
    <path id="Path_21515" data-name="Path 21515" d="M1046.462,394.793q-24.974.03-49.949,0a2.044,2.044,0,0,0-2.132,1.179v20.012a2.446,2.446,0,0,0,1.165,1.165h51.883a2.444,2.444,0,0,0,1.164-1.165V395.972A2.037,2.037,0,0,0,1046.462,394.793Zm-21.8,6.369a1.587,1.587,0,1,1-1.581,1.578A1.6,1.6,0,0,1,1024.658,401.162Zm-6.348,0a1.587,1.587,0,1,1-1.585,1.573A1.6,1.6,0,0,1,1018.31,401.162Zm-15.878,0c.545-.015,1.09,0,1.636,0,.51,0,1.021-.012,1.531,0a1.584,1.584,0,0,1,.029,3.167q-1.609.033-3.22,0a1.583,1.583,0,0,1,.024-3.166Zm6.286,9.523c-1.039.011-2.078,0-3.117,0-1.022,0-2.043.007-3.064,0a1.589,1.589,0,1,1-.019-3.172q3.09-.012,6.181,0a1.587,1.587,0,1,1,.019,3.171Zm3.209-6.352a1.587,1.587,0,1,1,1.617-1.6A1.605,1.605,0,0,1,1011.927,404.335Zm17.386,5.344a1.6,1.6,0,0,1-1.585,1.009c-2.08.005-4.16,0-6.239,0q-3.068,0-6.133,0a1.6,1.6,0,1,1-.03-3.175q6.186,0,12.372,0A1.591,1.591,0,0,1,1029.313,409.679Zm1.677-5.344a1.587,1.587,0,1,1,1.613-1.6A1.606,1.606,0,0,1,1030.99,404.335Zm3.224,6.353a1.587,1.587,0,1,1,1.565-1.6A1.606,1.606,0,0,1,1034.214,410.688Zm7.917-1.644a1.587,1.587,0,1,1-3.171-.039c-.008-1.533,0-3.065,0-4.669-.56,0-1.052.009-1.543,0a1.586,1.586,0,1,1,.01-3.171q1.534-.016,3.069,0a1.575,1.575,0,0,1,1.636,1.637Q1042.148,405.922,1042.131,409.044Z" transform="translate(-994.381 -362.936)" fill="#057195"/>
    <path id="Path_21516" data-name="Path 21516" d="M1002.747,388.454h13.988V391.6h9.519v-3.144H1040.2c1.352,0,1.939-.583,1.939-1.924q0-10.826,0-21.65c0-1.355-.58-1.943-1.918-1.943q-18.739,0-37.478,0c-1.306,0-1.9.595-1.9,1.911v21.7C1000.841,387.859,1001.437,388.454,1002.747,388.454Zm7.761-16.511a1.615,1.615,0,0,1,1.619-.963c3.138.008,6.277,0,9.415,0,3.12,0,6.241-.005,9.361,0a1.592,1.592,0,1,1-.029,3.176q-4.286-.006-8.569,0-5.1,0-10.207,0A1.587,1.587,0,0,1,1010.508,371.943Zm0,6.353a1.615,1.615,0,0,1,1.619-.963c3.138.008,6.276,0,9.415,0,3.12,0,6.241-.005,9.361,0a1.592,1.592,0,1,1-.029,3.176q-4.284-.006-8.568,0-5.1,0-10.208,0A1.587,1.587,0,0,1,1010.508,378.3Z" transform="translate(-994.381 -362.936)" fill="#057195"/>
  </g>
</svg>
