<svg id="freelance" xmlns="http://www.w3.org/2000/svg" width="80" height="80" viewBox="0 0 80 80">
  <rect id="Rectangle_148970" data-name="Rectangle 148970" width="80" height="80" transform="translate(0 0)" fill="none"/>
  <g id="Group_18054" data-name="Group 18054" transform="translate(9.558 7.067)">
    <path id="Path_21486" data-name="Path 21486" d="M360.017,368.961a6.246,6.246,0,0,0,6.97.352,1.3,1.3,0,0,0,.556-.7,4.189,4.189,0,0,1,1.906-2.409,1.372,1.372,0,0,0,.57-.693,6.5,6.5,0,0,0-4.088-8.025c-.419-.145-.852-.253-1.278-.378h-1.8c-.158.05-.314.106-.475.148a6.326,6.326,0,0,0-4.994,5.123A6.141,6.141,0,0,0,360.017,368.961Z" transform="translate(-339.23 -357.11)" fill="#0fa3b2"/>
    <path id="Path_21487" data-name="Path 21487" d="M400.107,393.988a3.612,3.612,0,0,0-3.878-3.447c-1.843,0-3.687,0-5.531,0h-2.144v-3.384h.8c2.508,0,5.016.005,7.524,0a2.1,2.1,0,0,0,2.374-2.369q0-7.426,0-14.855a2.071,2.071,0,0,0-2.341-2.325q-12.638,0-25.274,0a2.062,2.062,0,0,0-2.355,2.364q0,7.4,0,14.791a2.088,2.088,0,0,0,2.4,2.395q3.762.008,7.524,0h.732v3.352H371.6v-1.467a4.1,4.1,0,0,1-4.2-4.543c.093-4.136.024-8.275.024-12.412v-.79a.8.8,0,0,0-.166-.008,8.415,8.415,0,0,1-10.277-2.727.632.632,0,0,0-.4-.253,7.164,7.164,0,0,0-7.606,4.6c-.281.739-.489,1.506-.723,2.262q-1.728,5.58-3.451,11.162a3.115,3.115,0,0,0,1.714,4.011c.066.035.125.083.3.2-1.475,0-2.8-.025-4.127.006a3.549,3.549,0,0,0-3.432,3.218,3.616,3.616,0,0,0,2.568,3.838c.263.075.533.122.834.19v9.4q0,6.689,0,13.376a2.308,2.308,0,0,0,4.57.542,4.455,4.455,0,0,0,.053-.9q0-10.836,0-21.672v-.769h44.582v.839q0,10.707,0,21.415a7.546,7.546,0,0,0,.038.963,2.281,2.281,0,0,0,2.833,1.9,2.359,2.359,0,0,0,1.747-2.588q0-10.836,0-21.672v-.815c.121-.033.181-.057.243-.066A3.648,3.648,0,0,0,400.107,393.988Zm-36.44-3.937a.86.86,0,0,1-.865.5c-.726-.04-1.456-.011-2.3-.011a3.791,3.791,0,0,1,.335-.249,3.156,3.156,0,0,0-1.482-6c-2.228-.017-4.457,0-6.686-.006-.19,0-.38-.016-.633-.028l1.694-5.475.115.01v3.672h3.513c-.34-1.471-.677-2.881-.985-4.3-.065-.3-.147-.721,0-.924a1.7,1.7,0,0,1,.982-.666c.542-.083.91.3,1.041.847.33,1.373.68,2.743.96,4.126a1.131,1.131,0,0,0,1.087,1.094A4.9,4.9,0,0,1,363.667,390.051Zm20.588-9.546a2.872,2.872,0,0,1-2.839-2.888,2.832,2.832,0,0,1,2.869-2.775,2.792,2.792,0,0,1,2.791,2.837A2.828,2.828,0,0,1,384.255,380.505Z" transform="translate(-339.23 -357.11)" fill="#0fa3b2"/>
    <path id="Path_21488" data-name="Path 21488" d="M358.53,407.02c-.7-1.928-1.389-3.857-2.1-5.821l2.92-1.379-.053-.1H348.546c.051.194.075.317.116.434q2.927,8.26,5.867,16.514a3.816,3.816,0,0,0,.769,1.244,3.516,3.516,0,0,0,5.847-3.644C360.294,411.844,359.4,409.436,358.53,407.02Z" transform="translate(-339.23 -357.11)" fill="#0fa3b2"/>
    <path id="Path_21489" data-name="Path 21489" d="M373.649,401.059c-.078.223-.143.422-.217.618-1.536,4.105-3.1,8.2-4.589,12.322a4.639,4.639,0,0,0-.24,2.185,3.365,3.365,0,0,0,3.085,2.809,3.454,3.454,0,0,0,3.658-2.341q3.036-8.178,6.033-16.369c.063-.171.1-.351.152-.552H371.1Z" transform="translate(-339.23 -357.11)" fill="#0fa3b2"/>
  </g>
</svg>
