<svg id="giaitri" xmlns="http://www.w3.org/2000/svg" width="80" height="80" viewBox="0 0 80 80">
  <rect id="Rectangle_148971" data-name="Rectangle 148971" width="80" height="80" fill="none"/>
  <g id="Group_18056" data-name="Group 18056" transform="translate(12.451 6.299)">
    <path id="Path_21490" data-name="Path 21490" d="M1045.577,529.038a2.572,2.572,0,0,0-2.194,1.991q-1.172,4.38-2.315,8.766c-.08.308-.138.55-.557.593-1.329.134-2.65.361-3.98.481a12.52,12.52,0,0,1-2.924.063c-2.729-.405-5.435-.965-8.162-1.389a2.788,2.788,0,0,0-1.695.284c-2.852,1.632-5.665,3.335-8.481,5.031a.617.617,0,0,0-.269.491c.322,1.54.681,3.072,1.055,4.717,2.275-.734,4.024-2.326,6.149-3.334-.027.2-.034.33-.062.455-.789,3.5-1.55,7.015-2.38,10.51a6.422,6.422,0,0,0,1.152,5.643q3.921,5.241,7.759,10.544a1.522,1.522,0,0,1,.246,1c-.545,4.106-1.128,8.207-1.687,12.312a3.207,3.207,0,0,0,.048.977,3.15,3.15,0,0,0,2.146,2.35h1.316a3.371,3.371,0,0,0,2.286-2.975c.559-4.414,1.189-8.819,1.836-13.22a3.53,3.53,0,0,0-.693-2.772c-1.817-2.447-3.61-4.912-5.411-7.371-.131-.178-.256-.361-.467-.661,2.555,2.52,5,4.917,7.423,7.33a3.089,3.089,0,0,1,.925,2.191,13.1,13.1,0,0,1-.178,1.828c-.156,1.207-.326,2.411-.507,3.738,1.019-.52,1.916-.97,2.806-1.432a2.937,2.937,0,0,0,1.227-4.643c-2.33-3.558-4.672-7.108-6.982-10.678a1.638,1.638,0,0,1-.247-1.082c.9-4.691,1.835-9.374,2.745-14.062.1-.5.317-.648.814-.7,2.331-.259,4.657-.559,6.981-.872a2.406,2.406,0,0,0,2.118-1.9c.988-3.681,1.973-7.362,2.913-11.055A2.513,2.513,0,0,0,1045.577,529.038Z" transform="translate(-993.319 -523.124)" fill="#e6161a"/>
    <path id="Path_21491" data-name="Path 21491" d="M1014.335,549.523c-.416-1.877-.826-3.755-1.2-5.449,1.105-.574,2.129-1.086,3.134-1.632,2.825-1.534,5.358-3.6,8.421-4.7-.31-.437-.643-.908-.987-1.392a25.473,25.473,0,0,0-2.347,1.664,6.057,6.057,0,0,1-4.626,1.483,49.918,49.918,0,0,0-6.831.107,58.2,58.2,0,0,0-5.882,1.048.814.814,0,0,1-.9-.3c-1.264-1.487-2.541-2.962-3.846-4.413a.728.728,0,0,1-.088-.98q2.015-3.878,3.988-7.775a3.7,3.7,0,0,0,.435-1.357,2.605,2.605,0,0,0-1.959-2.7h-1.185a3.989,3.989,0,0,0-2.052,2.164c-1.524,3.057-3.106,6.086-4.661,9.128a2.623,2.623,0,0,0,.407,3.376c1.8,2.07,3.6,4.132,5.389,6.211a1.928,1.928,0,0,1,.422.852q1.6,8.49,3.16,16.99a1.068,1.068,0,0,1-.157.712c-.582.875-1.2,1.726-1.81,2.585-1.771,2.506-3.549,5.008-5.31,7.521a2.741,2.741,0,0,0,.334,3.851,36.975,36.975,0,0,0,3.786,2.163c-.225-1.633-.4-3.067-.626-4.492a3.906,3.906,0,0,1,1.206-3.7c2.02-1.917,4.013-3.863,6.019-5.8.127-.123.269-.231.405-.346a1.518,1.518,0,0,1-.3.593c-1.648,2.217-3.283,4.443-4.951,6.646a3.5,3.5,0,0,0-.675,2.776c.615,4.251,1.234,8.5,1.763,12.762.2,1.619.762,2.851,2.389,3.4h1.185c.2-.084.4-.165.6-.253a2.853,2.853,0,0,0,1.7-2.98c-.528-3.842-1.038-7.687-1.626-11.519a3.094,3.094,0,0,1,.631-2.581c2.5-3.279,4.9-6.624,7.357-9.935a6.209,6.209,0,0,0,1.168-5.272Q1015.277,553.755,1014.335,549.523Z" transform="translate(-993.319 -523.124)" fill="#e6161a"/>
    <path id="Path_21492" data-name="Path 21492" d="M1007.6,538.424a5.177,5.177,0,1,0-5.165-5.2A5.183,5.183,0,0,0,1007.6,538.424Z" transform="translate(-993.319 -523.124)" fill="#e6161a"/>
    <path id="Path_21493" data-name="Path 21493" d="M1029.733,538.426a5.183,5.183,0,0,0,.125-10.365,5.183,5.183,0,1,0-.125,10.365Z" transform="translate(-993.319 -523.124)" fill="#e6161a"/>
    <path id="Path_21494" data-name="Path 21494" d="M1012.575,578.654c-1.127-.7-2.339-1.259-3.664-1.96.32,2.333.607,4.5.933,6.654a.768.768,0,0,0,.505.458,2.837,2.837,0,0,0,3.223-1.664A2.794,2.794,0,0,0,1012.575,578.654Z" transform="translate(-993.319 -523.124)" fill="#e6161a"/>
    <path id="Path_21495" data-name="Path 21495" d="M1022.339,582.145a2.927,2.927,0,0,0,3.1,1.706.683.683,0,0,0,.685-.7c.149-1.238.339-2.47.507-3.706.116-.857.222-1.715.355-2.75-1.375.743-2.649,1.327-3.807,2.089A2.736,2.736,0,0,0,1022.339,582.145Z" transform="translate(-993.319 -523.124)" fill="#e6161a"/>
  </g>
</svg>
