<svg id="lamdep" xmlns="http://www.w3.org/2000/svg" width="80" height="80" viewBox="0 0 80 80">
  <rect id="Rectangle_148964" data-name="Rectangle 148964" width="80" height="80" transform="translate(0 0)" fill="none"/>
  <g id="Group_18044" data-name="Group 18044" transform="translate(7.487 12.705)">
    <g id="Group_18043" data-name="Group 18043">
      <path id="Path_21467" data-name="Path 21467" d="M539.188,409.72H498.563a1.9,1.9,0,0,0-1.9,1.905,5.713,5.713,0,0,0,5.713,5.713H535.38a5.712,5.712,0,0,0,5.712-5.713A1.9,1.9,0,0,0,539.188,409.72Z" transform="translate(-496.659 -362.748)" fill="#fa4087"/>
      <path id="Path_21468" data-name="Path 21468" d="M560.723,366.019c-7.382-4.362-14.868-4.362-22.25,0a1.9,1.9,0,0,0-.706,2.545l5.781,10.694h12.1l5.781-10.694A1.905,1.905,0,0,0,560.723,366.019Z" transform="translate(-496.659 -362.748)" fill="#fa4087"/>
      <path id="Path_21469" data-name="Path 21469" d="M544.837,383.06h9.522v5.713h-9.522Z" transform="translate(-496.659 -362.747)" fill="#fa4087"/>
      <path id="Path_21470" data-name="Path 21470" d="M544.837,412.577a4.761,4.761,0,1,0,9.522,0V392.582h-9.522Z" transform="translate(-496.659 -362.747)" fill="#fa4087"/>
      <path id="Path_21471" data-name="Path 21471" d="M529.2,377.18a14.6,14.6,0,1,0,4.276,10.323A14.505,14.505,0,0,0,529.2,377.18Zm-17.5,14.023a1.9,1.9,0,0,1-1.346-3.251l8.977-8.977a1.9,1.9,0,0,1,2.693,2.694l-8.977,8.976a1.9,1.9,0,0,1-1.347.558Zm15.71-4.148-8.977,8.976a1.9,1.9,0,0,1-2.693-2.693l8.977-8.976a1.9,1.9,0,0,1,2.693,2.693Z" transform="translate(-496.659 -362.747)" fill="#fa4087"/>
      <path id="Path_21472" data-name="Path 21472" d="M518.876,365.287a22.211,22.211,0,0,0-12.426,40.625h12.426A18.408,18.408,0,1,1,537.284,387.5a18.409,18.409,0,0,1-18.408,18.409H531.3a22.212,22.212,0,0,0-12.426-40.625Z" transform="translate(-496.659 -362.747)" fill="#fa4087"/>
    </g>
  </g>
</svg>
