<svg id="marketing" xmlns="http://www.w3.org/2000/svg" width="80" height="80" viewBox="0 0 80 80">
  <rect id="Rectangle_148969" data-name="Rectangle 148969" width="80" height="80" fill="none"/>
  <path id="Path_21485" data-name="Path 21485" d="M556.794,553.115a3.8,3.8,0,0,0-2.562.121,3.994,3.994,0,0,0-2.31,2.562h-5.933a17.253,17.253,0,0,0-4.07-10.449l6.061-6.39a6.52,6.52,0,0,0,8.863-1.121,6.448,6.448,0,0,0-8.63-9.4,6.477,6.477,0,0,0-1.811,8.811l-6.09,6.442a17.463,17.463,0,0,0-10.629-4.474v-5.644c.232-.1.445-.182.65-.281a3.868,3.868,0,1,0-5.535-3.622,3.754,3.754,0,0,0,2.307,3.656.791.791,0,0,1,.569.912c-.025,1.453-.008,2.906-.011,4.359,0,.2-.019.4-.03.626a17.262,17.262,0,0,0-10.183,4.08l-6.384-6.052a6.436,6.436,0,1,0-1.661,1.557l6.422,6.069a17.5,17.5,0,0,0-4.505,10.935h-5.905c-.974-2.17-2.565-3.163-4.456-2.795a3.868,3.868,0,0,0-.33,7.543,3.93,3.93,0,0,0,4.8-2.7h5.931a17.252,17.252,0,0,0,4.081,9.905l-6.046,6.378a6.548,6.548,0,0,0-9.021,1.207,6.453,6.453,0,1,0,10.5.4l6.076-6.414a17.537,17.537,0,0,0,10.707,4.527c0,1.917-.015,3.743.01,5.568a.8.8,0,0,1-.576.907,3.79,3.79,0,0,0-2.23,4.277,3.866,3.866,0,1,0,5.4-4.275c-.2-.093-.405-.179-.575-.254V573.84a17.272,17.272,0,0,0,10.221-4.111l6.377,6.038a6.543,6.543,0,0,0,1.007,8.9,6.449,6.449,0,0,0,9.592-8.383,6.241,6.241,0,0,0-3.52-2.719,6.324,6.324,0,0,0-5.488.742l-6.43-6.075a17.516,17.516,0,0,0,4.507-10.388h5.95c.932,2.13,2.532,3.138,4.405,2.8a3.874,3.874,0,0,0,.478-7.531Zm-18.966-2.3a7.607,7.607,0,0,1,1.238-1.2,1.258,1.258,0,0,1,1.011-.133c.285.106.466.492.686.747a2.881,2.881,0,0,1-.312.724,15.144,15.144,0,0,1-1.265,1.269.937.937,0,0,1-1.337-.06A.96.96,0,0,1,537.828,550.819Zm-19.184,8.174a3.68,3.68,0,0,1-3-3.994,3.815,3.815,0,0,1,3.757-3.53c1.325-.018,2.651,0,4.042,0v7.569A38.547,38.547,0,0,1,518.644,558.993Zm4.8,7.023a2.108,2.108,0,0,1-2.779-1.906c-.036-.806-.011-1.615-.013-2.423v-.5h2.792Zm11.2-8.365c0,1.224.014,2.463-.006,3.7-.012.7.222,1.5-.584,1.958s-1.377-.131-1.976-.5a30.8,30.8,0,0,0-6.21-3.109.688.688,0,0,1-.372-.51q-.035-3.951,0-7.9a.691.691,0,0,1,.316-.5c2.272-1.191,4.563-2.345,6.834-3.538,1.167-.614,2-.137,2,1.2,0,1.531,0,3.062,0,4.583,1.542.24,2.363,1.054,2.368,2.3S536.208,557.387,534.641,557.651Zm5.3,3.459a1.225,1.225,0,0,1-1.02-.094,8.036,8.036,0,0,1-1.32-1.295.881.881,0,0,1,0-1.194.832.832,0,0,1,1.152-.28,14.959,14.959,0,0,1,1.656,1.637c.074.077.068.231.139.505C540.388,560.6,540.223,560.992,539.941,561.11Zm1.793-4.786c-.288.021-.578,0-.867,0-.268,0-.538.016-.8,0a.96.96,0,0,1-.947-.949.943.943,0,0,1,.877-1.015,12.486,12.486,0,0,1,1.793,0,.973.973,0,0,1,.9,1.007A.988.988,0,0,1,541.734,556.324Z" transform="translate(-488.661 -516.825)" fill="#00bdff"/>
</svg>
