<svg id="pg-pb" xmlns="http://www.w3.org/2000/svg" width="80" height="80" viewBox="0 0 80 80">
  <rect id="Rectangle_148967" data-name="Rectangle 148967" width="80" height="80" fill="none"/>
  <g id="Group_18050" data-name="Group 18050" transform="translate(7.285 7.306)">
    <g id="Group_18049" data-name="Group 18049">
      <path id="Path_21473" data-name="Path 21473" d="M701.7,533.112l4.022,2.2,2.2,4.022a.7.7,0,0,0,1.233,0l2.2-4.022,4.022-2.2a.7.7,0,0,0,0-1.232l-4.022-2.2-2.2-4.022a.7.7,0,0,0-1.233,0l-2.2,4.022-4.022,2.2a.7.7,0,0,0,0,1.232Z" transform="translate(-667 -524.131)" fill="#f77a49"/>
      <path id="Path_21474" data-name="Path 21474" d="M698.742,538.859a1.915,1.915,0,1,1-1.915,1.915A1.915,1.915,0,0,1,698.742,538.859Z" transform="translate(-667 -524.131)" fill="#f77a49"/>
      <path id="Path_21475" data-name="Path 21475" d="M717.169,563.194a1.916,1.916,0,1,0,2.709,0A1.916,1.916,0,0,0,717.169,563.194Z" transform="translate(-667 -524.131)" fill="#f77a49"/>
      <path id="Path_21476" data-name="Path 21476" d="M717.855,539.7a1.915,1.915,0,1,1-1.915,1.916A1.916,1.916,0,0,1,717.855,539.7Z" transform="translate(-667 -524.131)" fill="#f77a49"/>
      <path id="Path_21477" data-name="Path 21477" d="M687.378,535.882a1.914,1.914,0,0,0,2.446-1.163l2.014-5.663a1.916,1.916,0,0,0-3.61-1.284l-2.014,5.663A1.917,1.917,0,0,0,687.378,535.882Z" transform="translate(-667 -524.131)" fill="#f77a49"/>
      <path id="Path_21478" data-name="Path 21478" d="M730.983,543.261a1.915,1.915,0,0,0-2.326,1.389l-1.326,5.26a28.2,28.2,0,0,1-3.016-2.111,2.641,2.641,0,0,0-4.284,1.814c-.138,1.494-.247,3.005-.324,4.512-1.022-.522-2.037-1.081-3.03-1.629-.732-.4-1.49-.821-2.244-1.221a2.641,2.641,0,0,0-3.875,2.312c-.014,1.727-.016,3.48-.005,5.21a1.916,1.916,0,0,0,1.916,1.9h.012a1.914,1.914,0,0,0,1.9-1.927c-.006-1.052-.008-2.112,0-3.169l.449.248c1.572.866,3.2,1.762,4.887,2.537a2.64,2.64,0,0,0,3.742-2.3c.046-1.324.118-2.658.214-3.987a32.077,32.077,0,0,0,3.2,1.956,2.5,2.5,0,0,0,2.02.168,2.97,2.97,0,0,0,1.705-1.687,1.784,1.784,0,0,0,.1-.294l1.678-6.655a1.916,1.916,0,0,0-1.389-2.325Z" transform="translate(-667 -524.131)" fill="#f77a49"/>
      <path id="Path_21479" data-name="Path 21479" d="M726.618,524.131a5.776,5.776,0,1,1-5.776,5.775A5.776,5.776,0,0,1,726.618,524.131Z" transform="translate(-667 -524.131)" fill="#f77a49"/>
      <path id="Path_21480" data-name="Path 21480" d="M702.756,549.994a1.925,1.925,0,0,0,.694-.13l5.6-2.178a1.916,1.916,0,0,0-1.389-3.571l-5.6,2.178a1.915,1.915,0,0,0,.694,3.7Z" transform="translate(-667 -524.131)" fill="#f77a49"/>
      <path id="Path_21481" data-name="Path 21481" d="M673.01,574.241l14.863,6.842,9.524-4.169-20.973-10.446Z" transform="translate(-667 -524.131)" fill="#f77a49"/>
      <path id="Path_21482" data-name="Path 21482" d="M678.008,562.863,700.97,574.3l-19.445-19.444Z" transform="translate(-667 -524.131)" fill="#f77a49"/>
      <path id="Path_21483" data-name="Path 21483" d="M687.787,543.521a4.255,4.255,0,0,0-6.018,6.018l25.6,25.6a4.255,4.255,0,0,0,6.018-6.017Z" transform="translate(-667 -524.131)" fill="#f77a49"/>
      <path id="Path_21484" data-name="Path 21484" d="M667.116,587.659a1.324,1.324,0,0,0,1.743,1.745l14.193-6.211-11.624-5.351Z" transform="translate(-667 -524.131)" fill="#f77a49"/>
    </g>
  </g>
</svg>
