<svg id="sieuthi" xmlns="http://www.w3.org/2000/svg" width="80" height="80" viewBox="0 0 80 80">
  <rect id="Rectangle_148960" data-name="Rectangle 148960" width="80" height="80" fill="none"/>
  <g id="Group_18030" data-name="Group 18030" transform="translate(11.05 11.05)">
    <g id="_02-shop" data-name=" 02-shop">
      <g id="Group_18029" data-name="Group 18029">
        <g id="Glyph">
          <path id="Path_21459" data-name="Path 21459" d="M558.269,212.73H500.38v2.412a4.825,4.825,0,0,0,4.825,4.825h7.237a4.825,4.825,0,0,0,4.825-4.825,4.825,4.825,0,0,0,4.825,4.825h14.475a4.825,4.825,0,0,0,4.825-4.825,4.825,4.825,0,0,0,4.825,4.825h7.238a4.825,4.825,0,0,0,4.825-4.825V212.73Z" transform="translate(-500.38 -193.43)" fill="#fd5b36"/>
          <path id="Path_21460" data-name="Path 21460" d="M557.687,210.317l-4.325-15.138a2.412,2.412,0,0,0-2.32-1.749h-11.05l3.378,16.887Z" transform="translate(-500.38 -193.43)" fill="#fd5b36"/>
          <path id="Path_21461" data-name="Path 21461" d="M518.667,193.43h-11.05a2.411,2.411,0,0,0-2.319,1.749l-4.326,15.138H515.29Z" transform="translate(-500.38 -193.43)" fill="#fd5b36"/>
          <path id="Path_21462" data-name="Path 21462" d="M535.072,193.43H523.587l-3.377,16.887h18.24Z" transform="translate(-500.38 -193.43)" fill="#fd5b36"/>
          <path id="Path_21463" data-name="Path 21463" d="M546.217,222.38a7.212,7.212,0,0,1-4.825-1.848,7.21,7.21,0,0,1-4.825,1.848H522.092a7.211,7.211,0,0,1-4.825-1.848,7.212,7.212,0,0,1-4.825,1.848h-7.237a7.189,7.189,0,0,1-2.413-.423v26.96a2.413,2.413,0,0,0,2.413,2.413h4.825V229.617a2.412,2.412,0,0,1,2.412-2.412h12.063a2.412,2.412,0,0,1,2.412,2.412V251.33h26.538a2.412,2.412,0,0,0,2.412-2.413v-26.96a7.188,7.188,0,0,1-2.412.423Zm2.413,14.475a2.412,2.412,0,0,1-2.413,2.412H534.155a2.412,2.412,0,0,1-2.413-2.412v-7.238a2.412,2.412,0,0,1,2.413-2.412h12.062a2.412,2.412,0,0,1,2.413,2.412Z" transform="translate(-500.38 -193.43)" fill="#fd5b36"/>
        </g>
      </g>
    </g>
  </g>
</svg>
