<svg id="suachua" xmlns="http://www.w3.org/2000/svg" width="80" height="80" viewBox="0 0 80 80">
  <rect id="Rectangle_148961" data-name="Rectangle 148961" width="80" height="80" fill="none"/>
  <g id="Group_18038" data-name="Group 18038" transform="translate(11.371 11.371)">
    <g id="Group_18033" data-name="Group 18033" transform="translate(0 0.001)">
      <g id="Group_18032" data-name="Group 18032">
        <path id="Path_21464" data-name="Path 21464" d="M891.224,202.01a1.679,1.679,0,0,0-2.847-.95l-2.372,2.374a3.436,3.436,0,0,1-4.746,0,3.352,3.352,0,0,1,0-4.744l2.372-2.372a1.678,1.678,0,0,0-.95-2.847,10.065,10.065,0,0,0-11.145,12.569l-24.8,24.8,0,0a10.068,10.068,0,0,0-12.569,11.148,1.678,1.678,0,0,0,2.847.95l2.372-2.374a3.436,3.436,0,0,1,4.746,0,3.353,3.353,0,0,1,0,4.744l-2.373,2.372a1.679,1.679,0,0,0,.951,2.848,10.065,10.065,0,0,0,11.144-12.57l24.8-24.8v0a10.069,10.069,0,0,0,12.57-11.148Z" transform="translate(-834.065 -193.372)" fill="#0246a9"/>
      </g>
    </g>
    <g id="Group_18035" data-name="Group 18035" transform="translate(31.001 31.001)">
      <g id="Group_18034" data-name="Group 18034">
        <path id="Path_21465" data-name="Path 21465" d="M881.258,230.5a9.9,9.9,0,0,0-2.572.374l-6.5-6.5-7.118,7.117,6.5,6.5a9.923,9.923,0,0,0-.373,2.574A10.065,10.065,0,1,0,881.258,230.5Zm5.5,9.729-1,3.722a1.683,1.683,0,0,1-1.186,1.186l-3.722,1a1.675,1.675,0,0,1-1.62-.434l-2.724-2.724a1.675,1.675,0,0,1-.434-1.62l1-3.722a1.68,1.68,0,0,1,1.186-1.186l3.721-1a1.664,1.664,0,0,1,1.62.434l2.725,2.724A1.677,1.677,0,0,1,886.762,240.228Z" transform="translate(-865.066 -224.372)" fill="#0246a9"/>
      </g>
    </g>
    <g id="Group_18037" data-name="Group 18037">
      <g id="Group_18036" data-name="Group 18036">
        <path id="Path_21466" data-name="Path 21466" d="M853.848,205.946a10.106,10.106,0,0,0-2.606-9.724,10.309,10.309,0,0,0-14.234,0,10.066,10.066,0,0,0,9.724,16.84l6.472,6.565,7.118-7.116Zm-4.387-3.111-1,3.722a1.683,1.683,0,0,1-1.186,1.186l-3.722,1a1.675,1.675,0,0,1-1.62-.434l-2.724-2.724a1.675,1.675,0,0,1-.434-1.62l1-3.722a1.68,1.68,0,0,1,1.186-1.186l3.721-1a1.67,1.67,0,0,1,1.621.434l2.724,2.724A1.677,1.677,0,0,1,849.461,202.835Z" transform="translate(-834.065 -193.371)" fill="#0246a9"/>
      </g>
    </g>
  </g>
</svg>
