<svg id="viecnha" xmlns="http://www.w3.org/2000/svg" width="80" height="80" viewBox="0 0 80 80">
  <rect id="Rectangle_148973" data-name="Rectangle 148973" width="80" height="80" fill="none"/>
  <g id="Group_18060" data-name="Group 18060" transform="translate(4.9 5.235)">
    <path id="Path_21511" data-name="Path 21511" d="M731.323,244.989c-.537.043-1.081.007-1.691.007a6.631,6.631,0,0,0,.913-3.161c.7-3.724,1.338-7.458,2.013-11.185.27-1.488-.225-2.1-1.75-2.1q-6.2,0-12.408,0c-1.468,0-1.975.616-1.717,2.058.783,4.358,1.556,8.717,2.352,13.073a8.332,8.332,0,0,0,.445,1.265h-4.086v-.831c0-7.244.012-14.488-.021-21.732a3.86,3.86,0,0,0-.5-1.785,1.72,1.72,0,0,0-1.616-.721c-1.325.006-2.652-.027-3.976.014-.58.017-.766-.131-.807-.745-.516-7.795-1.067-15.588-1.6-23.382a1.673,1.673,0,0,0-1.068-1.607,1.336,1.336,0,0,0-1.627.345,2.482,2.482,0,0,0-.511,1.477c.229,3.991.529,7.978.8,11.966q.4,5.811.788,11.624a1.924,1.924,0,0,1-.04.3c-1.167,0-2.345.025-3.519-.031-.152-.007-.354-.412-.416-.662q-1.692-6.843-3.353-13.694c-.346-1.418-.669-2.843-1.058-4.25a1.608,1.608,0,0,0-2.492-1.072,1.678,1.678,0,0,0-.622,1.945c.577,2.395,1.164,4.788,1.745,7.183.052.214.09.431.14.672l-11.5.624c.244-.923.468-1.777.7-2.63.759-2.817-.411-4.853-3.239-5.628-2.091-.572-4.18-1.148-6.273-1.709a4.163,4.163,0,0,0-5.545,3.193q-2.544,9.342-5.061,18.693c-.076.28-.161.557-.241.835v1.371c.543,2.211,1.1,4.419,1.629,6.631.54,2.24,1,4.5,1.619,6.718a8.789,8.789,0,0,1-.009,3.583c-.49,3.9-1.013,7.787-1.491,11.684a3.209,3.209,0,1,0,6.358.856c.571-4.138.95-8.307,1.673-12.418.493-2.8-.35-5.327-.936-7.933-.57-2.535-1.2-5.057-1.723-7.63.1.147.2.289.289.442,2.279,4.007,4.564,8.011,6.821,12.031a1.953,1.953,0,0,1,.206,1.087c-.464,4.52-.971,9.035-1.434,13.555a3.212,3.212,0,1,0,6.373.74c.393-3.149.706-6.308,1.049-9.463.2-1.838.37-3.68.6-5.515a3.876,3.876,0,0,0-.529-2.491c-1.646-2.87-3.266-5.756-4.933-8.615a1.834,1.834,0,0,1-.2-1.6c.328-1.063.592-2.145.879-3.2a18.575,18.575,0,0,1-2.412-.67,4.9,4.9,0,0,1-3.073-3.671c-.69-3.373-1.4-6.744-2.006-10.159.1.194.208.385.3.584,1.407,3.018,2.831,6.029,4.209,9.061a3.288,3.288,0,0,0,2.755,2.045c3.413.481,6.816,1.023,10.221,1.555a2.806,2.806,0,0,0,3.375-2.147,2.733,2.733,0,0,0-2.4-3.294c-2.929-.476-5.866-.9-8.794-1.372a1.087,1.087,0,0,1-.724-.47c-1.327-2.778-2.618-5.574-3.915-8.367a.324.324,0,0,1,.022-.3c.284.338.57.674.851,1.015,1.4,1.691,2.775,3.4,4.2,5.061a1.939,1.939,0,0,0,1.067.6c2.611.44,5.242.763,7.84,1.264a6.657,6.657,0,0,1,2.567,1.175,1.393,1.393,0,0,0,1.6.188c.142-.064.285-.125.506-.221.4,1.609.778,3.168,1.157,4.708-.071.058-.107.111-.135.107-.852-.111-1.311.173-1.434,1.108a2.922,2.922,0,0,1-.749,1.434,2.184,2.184,0,0,0-.531,1.62c.022,2.442.009,4.884.009,7.419h-.772c-1.691,0-3.381-.005-5.072,0a1.7,1.7,0,0,0-1.64.922,1.474,1.474,0,0,0,.164,1.67,1.828,1.828,0,0,0,1.57.671c1.645-.007,3.29,0,4.935,0h.815v.872q0,7.574,0,15.148a5.188,5.188,0,0,0,.091,1.018,1.4,1.4,0,0,0,1.3,1.211c.765.065,1.541.015,2.357.015a6.483,6.483,0,0,1,2.426-4.808,6.118,6.118,0,0,1,3.718-1.379,6.193,6.193,0,0,1,4.608,1.743,6.435,6.435,0,0,1,2,4.451h6.751a6.493,6.493,0,0,1,2.527-4.9,6.129,6.129,0,0,1,3.952-1.3c3.335.058,5.384,2.049,6.337,6.161,2.41.223,2.774.022,3.375-1.2v-4.662A2.954,2.954,0,0,0,731.323,244.989Z" transform="translate(-664.48 -187.615)" fill="#8ec541"/>
    <path id="Path_21512" data-name="Path 21512" d="M681.7,199.832a6.108,6.108,0,1,0-6.108-6.108A6.14,6.14,0,0,0,681.7,199.832Z" transform="translate(-664.48 -187.615)" fill="#8ec541"/>
    <path id="Path_21513" data-name="Path 21513" d="M705.4,249.089a4.026,4.026,0,0,0-.067,8.052,4.026,4.026,0,1,0,.067-8.052Zm0,5.443a1.426,1.426,0,0,1-1.452-1.4,1.4,1.4,0,0,1,1.408-1.432,1.423,1.423,0,0,1,1.429,1.424A1.461,1.461,0,0,1,705.406,254.532Z" transform="translate(-664.48 -187.615)" fill="#8ec541"/>
    <path id="Path_21514" data-name="Path 21514" d="M724.866,249.089a4.028,4.028,0,1,0,4.048,4.044A4.042,4.042,0,0,0,724.866,249.089Zm.017,5.445a1.462,1.462,0,0,1-1.435-1.435,1.429,1.429,0,0,1,2.858.055A1.47,1.47,0,0,1,724.883,254.534Z" transform="translate(-664.48 -187.615)" fill="#8ec541"/>
  </g>
</svg>
