<svg xmlns="http://www.w3.org/2000/svg" width="36" height="36" viewBox="0 0 36 36">
  <g id="quanlyungvien" transform="translate(-12 -282)">
    <rect id="Rectangle_148948" data-name="Rectangle 148948" width="36" height="36" rx="18" transform="translate(12 282)" fill="none"/>
    <g id="Group_17969" data-name="Group 17969" transform="translate(-1775.244 -718.912)">
      <rect id="Rectangle_148928" data-name="Rectangle 148928" width="5.705" height="3.332" rx="1.075" transform="translate(1810.54 1023.422)" fill="none" stroke="#838383" stroke-linecap="round" stroke-linejoin="round" stroke-width="1.2"/>
      <rect id="Rectangle_148929" data-name="Rectangle 148929" width="5.705" height="3.332" rx="1.075" transform="translate(1810.54 1017.076)" fill="none" stroke="#838383" stroke-linecap="round" stroke-linejoin="round" stroke-width="1.2"/>
      <g id="Group_17968" data-name="Group 17968" transform="translate(1793.245 1009.913)">
        <g id="Path_21389" data-name="Path 21389" transform="translate(-1793.245 -1010)" fill="none" stroke-linecap="round" stroke-linejoin="round">
          <path d="M1793.245,1025.662v-.435a1.731,1.731,0,0,0,.011-.312c.074-4.046.651-5.211,4.755-5.949a2.919,2.919,0,0,0,3.891,0c4.151.747,4.692,1.931,4.759,6.087a2.262,2.262,0,0,0,.009.286v.324s-.991,1.991-6.713,1.991S1793.245,1025.662,1793.245,1025.662Z" stroke="none"/>
          <path d="M 1799.956787109375 1026.453735351562 C 1803.6103515625 1026.453735351562 1805.018310546875 1025.605346679688 1805.461181640625 1025.2314453125 C 1805.459350585938 1025.169311523438 1805.459106445312 1025.107421875 1805.46044921875 1025.046020507812 C 1805.431640625 1023.301025390625 1805.317260742188 1022.08837890625 1804.84326171875 1021.43798828125 C 1804.45751953125 1020.908996582031 1803.685913085938 1020.553894042969 1802.233276367188 1020.252014160156 C 1801.762329101562 1020.570922851562 1801.013916015625 1020.908813476562 1799.956787109375 1020.908813476562 C 1798.899291992188 1020.908813476562 1798.150756835938 1020.571044921875 1797.6796875 1020.252197265625 C 1796.255249023438 1020.549743652344 1795.466064453125 1020.907958984375 1795.08251953125 1021.419799804688 C 1794.606201171875 1022.055297851562 1794.488647460938 1023.222534179688 1794.456420898438 1024.898315429688 C 1794.460693359375 1025.007934570312 1794.458618164062 1025.119018554688 1794.450317382812 1025.230224609375 C 1794.561279296875 1025.32470703125 1794.739013671875 1025.453857421875 1795.005981445312 1025.592041015625 C 1795.765869140625 1025.985107421875 1797.241577148438 1026.453735351562 1799.956787109375 1026.453735351562 M 1799.956787109375 1027.653686523438 C 1794.233276367188 1027.653686523438 1793.2451171875 1025.661987304688 1793.2451171875 1025.661987304688 L 1793.2451171875 1025.22705078125 C 1793.257934570312 1025.123046875 1793.261840820312 1025.019287109375 1793.255859375 1024.915161132812 C 1793.330200195312 1020.869567871094 1793.90673828125 1019.703918457031 1798.0107421875 1018.966003417969 C 1798.0107421875 1018.966003417969 1798.595947265625 1019.708801269531 1799.956787109375 1019.708801269531 C 1801.316528320312 1019.708801269531 1801.901977539062 1018.966003417969 1801.901977539062 1018.966003417969 C 1806.052490234375 1019.712707519531 1806.594360351562 1020.897277832031 1806.660766601562 1025.052856445312 C 1806.657592773438 1025.148071289062 1806.660766601562 1025.244018554688 1806.669677734375 1025.338989257812 L 1806.669677734375 1025.662841796875 C 1806.669677734375 1025.662841796875 1805.679077148438 1027.653686523438 1799.956787109375 1027.653686523438 Z" stroke="none" fill="#838383"/>
        </g>
        <g id="Path_21390" data-name="Path 21390" transform="translate(-1793.276 -1009.913)" fill="none" stroke-linecap="round" stroke-linejoin="round">
          <path d="M1796.432,1014.231c0-2.383.523-4.318,3.555-4.318s3.554,1.935,3.554,4.318-1.591,4.317-3.554,4.317S1796.432,1016.614,1796.432,1014.231Z" stroke="none"/>
          <path d="M 1799.9873046875 1017.34814453125 C 1800.571411132812 1017.34814453125 1801.135009765625 1017.054321289062 1801.57421875 1016.520812988281 C 1802.069213867188 1015.919677734375 1802.341796875 1015.1064453125 1802.341796875 1014.231018066406 C 1802.341796875 1013.495300292969 1802.295532226562 1012.446411132812 1801.896240234375 1011.833862304688 C 1801.767578125 1011.63671875 1801.426147460938 1011.113037109375 1799.9873046875 1011.113037109375 C 1798.547729492188 1011.113037109375 1798.2060546875 1011.636840820312 1798.077514648438 1011.833984375 C 1797.678100585938 1012.446411132812 1797.6318359375 1013.495361328125 1797.6318359375 1014.231018066406 C 1797.6318359375 1015.106079101562 1797.904541015625 1015.919128417969 1798.399536132812 1016.520385742188 C 1798.838989257812 1017.05419921875 1799.402954101562 1017.34814453125 1799.9873046875 1017.34814453125 M 1799.9873046875 1018.548156738281 C 1798.0234375 1018.548156738281 1796.431884765625 1016.613830566406 1796.431884765625 1014.231018066406 C 1796.431884765625 1011.848205566406 1796.954711914062 1009.913024902344 1799.9873046875 1009.913024902344 C 1803.018920898438 1009.913024902344 1803.541748046875 1011.848205566406 1803.541748046875 1014.231018066406 C 1803.541748046875 1016.614929199219 1801.950317382812 1018.548156738281 1799.9873046875 1018.548156738281 Z" stroke="none" fill="#838383"/>
        </g>
      </g>
      <rect id="Rectangle_148930" data-name="Rectangle 148930" width="5.705" height="3.332" rx="1.075" transform="translate(1810.54 1010.616)" fill="none" stroke="#838383" stroke-linecap="round" stroke-linejoin="round" stroke-width="1.2"/>
      <path id="Path_21391" data-name="Path 21391" d="M1810.393,1012.3h-1.551v12.806h1.551" transform="translate(-0.15 -0.023)" fill="none" stroke="#838383" stroke-linecap="round" stroke-linejoin="round" stroke-width="1.2"/>
      <line id="Line_661" data-name="Line 661" x1="3.545" transform="translate(1806.697 1018.684)" fill="none" stroke="#838383" stroke-linecap="round" stroke-linejoin="round" stroke-width="1.2"/>
      <line id="Line_662" data-name="Line 662" x2="1.254" transform="translate(1812.766 1018.74)" fill="none" stroke="#838383" stroke-linecap="round" stroke-linejoin="round" stroke-width="1.2"/>
      <line id="Line_663" data-name="Line 663" x2="1.254" transform="translate(1812.766 1012.28)" fill="none" stroke="#838383" stroke-linecap="round" stroke-linejoin="round" stroke-width="1.2"/>
      <line id="Line_664" data-name="Line 664" x2="1.254" transform="translate(1812.766 1025.087)" fill="none" stroke="#838383" stroke-linecap="round" stroke-linejoin="round" stroke-width="1.2"/>
    </g>
  </g>
</svg>
