<svg xmlns="http://www.w3.org/2000/svg" width="36" height="36" viewBox="0 0 36 36">
  <g id="quanly" transform="translate(6470 7576)">
    <g id="Group_14274" data-name="Group 14274" transform="translate(-6464 -7571)">
      <rect id="Rectangle_148680" data-name="Rectangle 148680" width="36" height="36" rx="18" transform="translate(-6 -5)" fill="none"/>
      <path id="Path_20044" data-name="Path 20044" d="M326.361,1299.422a.774.774,0,0,1,.559.232l8.5,8.5a.792.792,0,0,1,0,1.116.775.775,0,0,1-.559.232h-.314a1.128,1.128,0,0,0-1.128,1.128v6.253a1.117,1.117,0,0,1-1.116,1.115h-2.807v-4.383a2.154,2.154,0,0,0-2.152-2.152h-1.96a2.154,2.154,0,0,0-2.152,2.152v4.383h-2.807a1.117,1.117,0,0,1-1.116-1.115v-6.253a1.128,1.128,0,0,0-1.128-1.128h-.318l-.032,0a.778.778,0,0,1-.523-.23.792.792,0,0,1,.005-1.12l8.493-8.492a.772.772,0,0,1,.558-.232m0-1.128a1.905,1.905,0,0,0-1.355.562l-8.493,8.492-.009.009a1.917,1.917,0,0,0,1.276,3.267l.06,0h.338v6.253a2.246,2.246,0,0,0,2.244,2.243h3.325a.61.61,0,0,0,.61-.61v-4.9a1.025,1.025,0,0,1,1.024-1.024h1.96a1.025,1.025,0,0,1,1.024,1.024v4.9a.61.61,0,0,0,.61.61H332.3a2.246,2.246,0,0,0,2.244-2.243v-6.253h.314a1.917,1.917,0,0,0,1.357-3.272l0,0-8.5-8.5a1.9,1.9,0,0,0-1.356-.562Z" transform="translate(-314.603 -1296.123)" fill="#838383"/>
    </g>
  </g>
</svg>
