<svg xmlns="http://www.w3.org/2000/svg" width="36" height="36" viewBox="0 0 36 36">
  <g id="quatang" transform="translate(-12 -692)">
    <rect id="Rectangle_148955" data-name="Rectangle 148955" width="36" height="36" rx="18" transform="translate(12 692)" fill="none"/>
    <path id="Path_18328" data-name="Path 18328" d="M724.918,185.6h.739a.2.2,0,0,0,.061.033,2.376,2.376,0,0,1,1.554.864,6.423,6.423,0,0,1,.932,1.684c.122.284.236.572.368.893l.086-.2c.246-.554.471-1.119.742-1.661a2.741,2.741,0,0,1,1.5-1.451c.193-.071.4-.111.6-.166h.739a.405.405,0,0,0,.084.034,2.755,2.755,0,0,1,2.113,3.85c-.08.183-.186.353-.291.549h.2c.671,0,1.341,0,2.012,0a1.548,1.548,0,0,1,1.333.66,4.47,4.47,0,0,1,.351.779v1.588l-.073.226a1.587,1.587,0,0,1-.864,1,.265.265,0,0,0-.175.29q.006,4.108,0,8.217a1.652,1.652,0,0,1-1.673,1.713q-6.675.006-13.35-.005a1.742,1.742,0,0,1-.726-.168,1.6,1.6,0,0,1-.943-1.543q0-4.118,0-8.235a.243.243,0,0,0-.161-.261,1.6,1.6,0,0,1-.946-1.448c-.015-.369-.005-.738,0-1.108a1.661,1.661,0,0,1,1.716-1.708c.665,0,1.329,0,1.994,0,.057,0,.114-.006.189-.011-.042-.069-.069-.116-.1-.162a2.747,2.747,0,0,1,1.16-3.994A6.587,6.587,0,0,1,724.918,185.6Zm1.428,17.8v-8.925h-5.011v.162q0,4.044,0,8.088c0,.464.213.674.679.674h4.332Zm4.448,0h4.333c.479,0,.688-.208.688-.684q0-4.026,0-8.051v-.189h-5.021Zm-3.315-12.256v12.241h2.2V191.148Zm-1.128,0c-.039,0-.057-.008-.076-.008q-2.724,0-5.448,0a.563.563,0,0,0-.6.6c0,.308,0,.616,0,.923,0,.48.207.689.682.69h5.442Zm4.448,2.209c1.862,0,3.7,0,5.543,0a.556.556,0,0,0,.58-.585c.006-.314,0-.628,0-.942,0-.479-.208-.688-.684-.688H730.8ZM727.731,190c-.038-.1-.074-.2-.116-.3a14.282,14.282,0,0,0-1.047-2.288,1.492,1.492,0,0,0-1.716-.642,1.657,1.657,0,0,0-1.232,1.908A1.623,1.623,0,0,0,725,189.993C725.9,190.025,726.808,190,727.731,190Zm1.677.018a.771.771,0,0,0,.092.013c.793,0,1.587.013,2.379-.008a1.787,1.787,0,0,0,.726-.169,1.64,1.64,0,0,0,.265-2.825,1.613,1.613,0,0,0-1.965.016,2.728,2.728,0,0,0-.562.787c-.3.612-.544,1.246-.812,1.872C729.489,189.806,729.452,189.908,729.408,190.019Z" transform="translate(-698.715 515.488)" fill="#838383"/>
  </g>
</svg>
