<svg xmlns="http://www.w3.org/2000/svg" width="36" height="36" viewBox="0 0 36 36">
  <g id="quanlynhanvien" transform="translate(-12 -332)">
    <rect id="Rectangle_148949" data-name="Rectangle 148949" width="36" height="36" rx="18" transform="translate(12 332)" fill="none"/>
    <g id="Group_17972" data-name="Group 17972" transform="translate(-1799.363 -645.145)">
      <path id="Path_21397" data-name="Path 21397" d="M1824.3,988.814h.052a.949.949,0,0,0,.95-.949v-1.9a.95.95,0,0,0-.95-.95h-.052a.95.95,0,0,0-.95.95v1.9A.949.949,0,0,0,1824.3,988.814Z" fill="#838383"/>
      <path id="Path_21398" data-name="Path 21398" d="M1834.112,988.814h.053a.949.949,0,0,0,.949-.949v-1.9a.95.95,0,0,0-.949-.95h-.053a.95.95,0,0,0-.95.95v1.9A.95.95,0,0,0,1834.112,988.814Z" fill="#838383"/>
      <path id="Path_21399" data-name="Path 21399" d="M1836.961,987.548h-.9v.317a1.9,1.9,0,0,1-1.9,1.9h-.053a1.9,1.9,0,0,1-1.9-1.9v-.317h-5.962v.317a1.9,1.9,0,0,1-1.9,1.9h-.052a1.9,1.9,0,0,1-1.9-1.9v-.317h-.633a2.533,2.533,0,0,0-2.533,2.533v12.662a2.533,2.533,0,0,0,2.533,2.533h15.2a2.533,2.533,0,0,0,2.533-2.533V990.081A2.533,2.533,0,0,0,1836.961,987.548Zm1.388,15.2a1.39,1.39,0,0,1-1.388,1.388h-15.2a1.389,1.389,0,0,1-1.387-1.388V990.081a1.389,1.389,0,0,1,1.005-1.334,3.05,3.05,0,0,0,2.915,2.162h.052a3.049,3.049,0,0,0,2.93-2.216h3.9a3.049,3.049,0,0,0,2.93,2.216h.053a3.05,3.05,0,0,0,2.928-2.21,1.391,1.391,0,0,1,1.256,1.382Z" fill="#838383"/>
      <circle id="Ellipse_7551" data-name="Ellipse 7551" cx="0.776" cy="0.776" r="0.776" transform="translate(1828.588 994.137)" fill="#838383"/>
      <circle id="Ellipse_7552" data-name="Ellipse 7552" cx="0.776" cy="0.776" r="0.776" transform="translate(1822.384 996.656)" fill="#838383"/>
      <circle id="Ellipse_7553" data-name="Ellipse 7553" cx="0.776" cy="0.776" r="0.776" transform="translate(1825.486 996.656)" fill="#838383"/>
      <circle id="Ellipse_7554" data-name="Ellipse 7554" cx="0.776" cy="0.776" r="0.776" transform="translate(1828.588 996.656)" fill="#838383"/>
      <circle id="Ellipse_7555" data-name="Ellipse 7555" cx="0.776" cy="0.776" r="0.776" transform="translate(1822.384 999.176)" fill="#838383"/>
      <circle id="Ellipse_7556" data-name="Ellipse 7556" cx="0.776" cy="0.776" r="0.776" transform="translate(1825.486 999.176)" fill="#838383"/>
      <circle id="Ellipse_7557" data-name="Ellipse 7557" cx="0.776" cy="0.776" r="0.776" transform="translate(1828.588 999.176)" fill="#838383"/>
      <circle id="Ellipse_7558" data-name="Ellipse 7558" cx="0.776" cy="0.776" r="0.776" transform="translate(1822.384 1001.695)" fill="#838383"/>
      <circle id="Ellipse_7559" data-name="Ellipse 7559" cx="0.776" cy="0.776" r="0.776" transform="translate(1825.486 1001.695)" fill="#838383"/>
      <circle id="Ellipse_7560" data-name="Ellipse 7560" cx="0.776" cy="0.776" r="0.776" transform="translate(1828.588 1001.695)" fill="#838383"/>
      <path id="Path_21400" data-name="Path 21400" d="M1832.466,1001.7a.775.775,0,1,0,.775.776A.775.775,0,0,0,1832.466,1001.7Z" fill="#838383"/>
      <path id="Path_21401" data-name="Path 21401" d="M1832.466,994.137a.775.775,0,1,0,.775.775A.775.775,0,0,0,1832.466,994.137Z" fill="#838383"/>
      <path id="Path_21402" data-name="Path 21402" d="M1832.466,996.656a.775.775,0,1,0,.775.776A.775.775,0,0,0,1832.466,996.656Z" fill="#838383"/>
      <path id="Path_21403" data-name="Path 21403" d="M1832.466,999.176a.775.775,0,1,0,.775.775A.775.775,0,0,0,1832.466,999.176Z" fill="#838383"/>
      <circle id="Ellipse_7561" data-name="Ellipse 7561" cx="0.776" cy="0.776" r="0.776" transform="translate(1834.792 994.137)" fill="#838383"/>
      <circle id="Ellipse_7562" data-name="Ellipse 7562" cx="0.776" cy="0.776" r="0.776" transform="translate(1834.792 996.656)" fill="#838383"/>
      <circle id="Ellipse_7563" data-name="Ellipse 7563" cx="0.776" cy="0.776" r="0.776" transform="translate(1834.792 999.176)" fill="#838383"/>
      <rect id="Rectangle_148933" data-name="Rectangle 148933" width="16.513" height="0.857" rx="0.4" transform="translate(1821.107 991.851)" fill="#838383"/>
    </g>
  </g>
</svg>
