<svg xmlns="http://www.w3.org/2000/svg" width="36" height="36" viewBox="0 0 36 36">
  <g id="dichvucuatoi" transform="translate(-12 -462)">
    <rect id="Rectangle_148951" data-name="Rectangle 148951" width="36" height="36" rx="18" transform="translate(12 462)" fill="none"/>
    <g id="Union_86" data-name="Union 86" transform="translate(-1765.701 -562.389)" fill="none" stroke-linecap="round" stroke-linejoin="round">
      <path d="M1787.383,1053.808l-4.137-8.272a.69.69,0,0,1,.308-.926h0l.918-.454a1.378,1.378,0,0,1,1.844.62l3.514,7.042a1.378,1.378,0,0,1-.619,1.849l0,0-.905.45a.687.687,0,0,1-.922-.31Zm4.958-2.376h-1.161l-3.917-7.858,1-.877.019.018a5.024,5.024,0,0,1,2.118-1.058,4.793,4.793,0,0,1,4.28,1.049c.272.235.44.456.786.456h3.614a1.378,1.378,0,0,1,0,2.755h-2.76a.69.69,0,1,0,0,1.38h3.214a1.658,1.658,0,0,0,1.017-.44l3.769-4.633a1.378,1.378,0,0,1,2.11,1.766l-4.045,5.79a4.15,4.15,0,0,1-3.308,1.655Zm8.659-8.016a2.232,2.232,0,0,0-1.927-1.117h-1.531v-8.131h.006l.763,1.75a1.488,1.488,0,0,0,1.341.95h5.31v4.086a2.247,2.247,0,0,0-1.278.686l-.017.02-1.429,1.758Zm-5.487-1.118a1.6,1.6,0,0,1-.131-.116c-.041-.037-.09-.083-.131-.118a5.539,5.539,0,0,0-3.726-1.4,5.72,5.72,0,0,0-1.322.152,5.6,5.6,0,0,0-.81.253v-4.206h5.31a1.487,1.487,0,0,0,1.341-.95l.761-1.75h.006v8.13Zm4.138-6.291a.747.747,0,0,1-.67-.477l-1.011-2.317a.434.434,0,0,1,.338-.623h6.37a.749.749,0,0,1,.669.471l1.027,2.321a.429.429,0,0,1-.334.625Zm-11.335,0a.431.431,0,0,1-.38-.478.406.406,0,0,1,.046-.147l1.028-2.321a.749.749,0,0,1,.667-.471h6.373a.43.43,0,0,1,.334.623l-1.008,2.317a.748.748,0,0,1-.672.477Z" stroke="none"/>
      <path d="M 1788.227905273438 1052.815185546875 L 1788.67529296875 1052.592895507812 C 1788.677734375 1052.591552734375 1788.680297851562 1052.59033203125 1788.682861328125 1052.589111328125 C 1788.73486328125 1052.5615234375 1788.75830078125 1052.51904296875 1788.768676757812 1052.48779296875 C 1788.779418945312 1052.455932617188 1788.786376953125 1052.406494140625 1788.75927734375 1052.352172851562 L 1785.244506835938 1045.309448242188 C 1785.208374023438 1045.236938476562 1785.13818359375 1045.211181640625 1785.084594726562 1045.211181640625 C 1785.057373046875 1045.211181640625 1785.031616210938 1045.21728515625 1785.006591796875 1045.229736328125 L 1784.547729492188 1045.456787109375 L 1788.227905273438 1052.815185546875 M 1799.07080078125 1050.232055664062 C 1799.983276367188 1050.230346679688 1800.8564453125 1049.796508789062 1801.410400390625 1049.070678710938 L 1805.442016601562 1043.299926757812 C 1805.449584960938 1043.289184570312 1805.457275390625 1043.278564453125 1805.465087890625 1043.26806640625 C 1805.519897460938 1043.194946289062 1805.510864257812 1043.092651367188 1805.444580078125 1043.03076171875 C 1805.410888671875 1042.999389648438 1805.370361328125 1042.9833984375 1805.323974609375 1042.9833984375 C 1805.292724609375 1042.9833984375 1805.249145507812 1042.990966796875 1805.209594726562 1043.024536132812 L 1801.47802734375 1047.61181640625 C 1801.443359375 1047.654541015625 1801.405639648438 1047.69482421875 1801.365478515625 1047.732299804688 C 1800.8876953125 1048.177856445312 1800.264770507812 1048.44775390625 1799.611450195312 1048.492309570312 C 1799.584228515625 1048.494140625 1799.557006835938 1048.494995117188 1799.52978515625 1048.494995117188 L 1796.3154296875 1048.494995117188 C 1795.273071289062 1048.494995117188 1794.425048828125 1047.647583007812 1794.425048828125 1046.605834960938 C 1794.425048828125 1045.5634765625 1795.273071289062 1044.715576171875 1796.3154296875 1044.715576171875 L 1799.075439453125 1044.715576171875 C 1799.173095703125 1044.715576171875 1799.252685546875 1044.636108398438 1799.252685546875 1044.538452148438 C 1799.252685546875 1044.440185546875 1799.173095703125 1044.360229492188 1799.075439453125 1044.360229492188 L 1795.461669921875 1044.360229492188 C 1794.710083007812 1044.360229492188 1794.265625 1043.953735351562 1794.000122070312 1043.710815429688 C 1793.965698242188 1043.679321289062 1793.930053710938 1043.646362304688 1793.8916015625 1043.61328125 C 1793.889770507812 1043.611694335938 1793.888061523438 1043.610107421875 1793.88623046875 1043.608520507812 C 1793.231201171875 1043.03662109375 1792.391723632812 1042.721557617188 1791.522338867188 1042.721557617188 C 1791.238403320312 1042.721557617188 1790.954345703125 1042.755493164062 1790.678100585938 1042.822265625 C 1790.67333984375 1042.823364257812 1790.668579101562 1042.824462890625 1790.663940429688 1042.825561523438 C 1790.074340820312 1042.960571289062 1789.516967773438 1043.2392578125 1789.052001953125 1043.63134765625 C 1788.994018554688 1043.680297851562 1788.9326171875 1043.722778320312 1788.868774414062 1043.758911132812 L 1788.748291015625 1043.864990234375 L 1791.92236328125 1050.232055664062 L 1799.07080078125 1050.232055664062 M 1801.666015625 1042.216064453125 L 1802.734619140625 1040.9013671875 C 1802.744018554688 1040.8896484375 1802.753662109375 1040.878173828125 1802.763549804688 1040.866943359375 L 1802.781005859375 1040.84716796875 C 1802.788940429688 1040.838134765625 1802.796997070312 1040.829223632812 1802.80517578125 1040.8203125 C 1803.079711914062 1040.525756835938 1803.404663085938 1040.2822265625 1803.760986328125 1040.100219726562 L 1803.760986328125 1038.067016601562 L 1799.651123046875 1038.067016601562 C 1799.638549804688 1038.067016601562 1799.626098632812 1038.06689453125 1799.613525390625 1038.066528320312 C 1799.309448242188 1038.057006835938 1799.015625 1037.996826171875 1798.74169921875 1037.892822265625 L 1798.74169921875 1041.099365234375 L 1799.07666015625 1041.099365234375 C 1800.044189453125 1041.102294921875 1800.958984375 1041.517333984375 1801.599487304688 1042.216064453125 L 1801.666015625 1042.216064453125 M 1795.61181640625 1040.811157226562 L 1795.61181640625 1037.8935546875 C 1795.338256835938 1037.9970703125 1795.044799804688 1038.057006835938 1794.741088867188 1038.066528320312 C 1794.728637695312 1038.06689453125 1794.716064453125 1038.067016601562 1794.70361328125 1038.067016601562 L 1790.59375 1038.067016601562 L 1790.59375 1039.529052734375 C 1790.89794921875 1039.48828125 1791.204345703125 1039.467651367188 1791.509887695312 1039.467651367188 L 1791.521728515625 1039.4677734375 C 1791.538696289062 1039.467529296875 1791.5556640625 1039.467529296875 1791.57275390625 1039.467529296875 C 1793.036010742188 1039.467529296875 1794.4501953125 1039.941162109375 1795.61181640625 1040.811157226562 M 1804.806518554688 1034.807495117188 L 1804.356811523438 1033.790893554688 L 1799.530517578125 1033.790893554688 L 1799.974243164062 1034.807495117188 L 1804.806518554688 1034.807495117188 M 1794.38134765625 1034.807495117188 L 1794.823486328125 1033.790893554688 L 1789.999267578125 1033.790893554688 L 1789.549072265625 1034.807495117188 L 1794.38134765625 1034.807495117188 M 1787.998779296875 1054.189331054688 C 1787.74609375 1054.189331054688 1787.503051757812 1054.04931640625 1787.382568359375 1053.8076171875 L 1783.24560546875 1045.535888671875 C 1783.074951171875 1045.19482421875 1783.212890625 1044.7802734375 1783.553955078125 1044.609741210938 L 1783.55615234375 1044.608520507812 L 1784.474365234375 1044.154174804688 C 1785.155029296875 1043.817749023438 1785.97998046875 1044.094604492188 1786.318603515625 1044.7744140625 L 1789.8330078125 1051.816284179688 C 1790.1728515625 1052.497192382812 1789.89599609375 1053.325317382812 1789.2138671875 1053.665283203125 L 1789.209228515625 1053.66748046875 L 1788.30419921875 1054.1171875 C 1788.205932617188 1054.166137695312 1788.1015625 1054.189331054688 1787.998779296875 1054.189331054688 Z M 1799.072998046875 1051.432006835938 L 1791.1796875 1051.432006835938 L 1787.26220703125 1043.57373046875 L 1788.259765625 1042.696533203125 L 1788.2783203125 1042.714111328125 C 1788.890380859375 1042.197875976562 1789.61572265625 1041.834594726562 1790.39599609375 1041.655883789062 C 1791.907836914062 1041.289794921875 1793.50390625 1041.681396484375 1794.675537109375 1042.704711914062 C 1794.94775390625 1042.939575195312 1795.11572265625 1043.160278320312 1795.461669921875 1043.160278320312 L 1799.075439453125 1043.160278320312 C 1799.835693359375 1043.160278320312 1800.45263671875 1043.778076171875 1800.45263671875 1044.538452148438 C 1800.45263671875 1045.298828125 1799.835693359375 1045.91552734375 1799.075439453125 1045.91552734375 L 1796.3154296875 1045.91552734375 C 1795.9345703125 1045.91552734375 1795.625 1046.22509765625 1795.625 1046.605834960938 C 1795.625 1046.986572265625 1795.9345703125 1047.295043945312 1796.3154296875 1047.295043945312 L 1799.52978515625 1047.295043945312 C 1799.9091796875 1047.269165039062 1800.26904296875 1047.113891601562 1800.547119140625 1046.854614257812 L 1804.316162109375 1042.22119140625 C 1804.834716796875 1041.665161132812 1805.707275390625 1041.634765625 1806.26318359375 1042.1533203125 C 1806.777099609375 1042.633422851562 1806.84716796875 1043.424194335938 1806.42578125 1043.987182617188 L 1802.380859375 1049.776977539062 C 1801.598388671875 1050.81640625 1800.374267578125 1051.429565429688 1799.072998046875 1051.432006835938 Z M 1802.237060546875 1043.416015625 L 1801.000244140625 1043.416015625 C 1800.60302734375 1042.726928710938 1799.868408203125 1042.3017578125 1799.072998046875 1042.29931640625 L 1797.541748046875 1042.29931640625 L 1797.541748046875 1034.167846679688 L 1797.547607421875 1034.167846679688 L 1798.310546875 1035.91748046875 C 1798.5263671875 1036.474609375 1799.054443359375 1036.848388671875 1799.651123046875 1036.867065429688 L 1804.9609375 1036.867065429688 L 1804.9609375 1040.952758789062 C 1804.471435546875 1041.033325195312 1804.021728515625 1041.275024414062 1803.68310546875 1041.638427734375 L 1803.665771484375 1041.658203125 L 1802.237060546875 1043.416015625 Z M 1796.811767578125 1042.298217773438 L 1795.512939453125 1042.298217773438 C 1795.4755859375 1042.270263671875 1795.421875 1042.22119140625 1795.382080078125 1042.1826171875 C 1795.34130859375 1042.145263671875 1795.292236328125 1042.099731445312 1795.25146484375 1042.064697265625 C 1794.237670898438 1041.1640625 1792.928466796875 1040.66748046875 1791.57275390625 1040.66748046875 C 1791.551635742188 1040.66748046875 1791.531005859375 1040.667724609375 1791.509887695312 1040.667724609375 C 1791.0703125 1040.667724609375 1790.631713867188 1040.719116210938 1790.203369140625 1040.819580078125 C 1789.927734375 1040.8837890625 1789.65673828125 1040.9677734375 1789.393798828125 1041.072998046875 L 1789.393798828125 1036.867065429688 L 1794.70361328125 1036.867065429688 C 1795.300537109375 1036.848388671875 1795.82958984375 1036.474609375 1796.04443359375 1035.91748046875 L 1796.805908203125 1034.167846679688 L 1796.811767578125 1034.167846679688 L 1796.811767578125 1042.298217773438 Z M 1806.0390625 1036.007446289062 L 1799.651123046875 1036.007446289062 C 1799.352294921875 1035.996826171875 1799.08935546875 1035.81005859375 1798.980712890625 1035.530883789062 L 1797.96923828125 1033.213623046875 C 1797.863037109375 1033.0009765625 1797.9482421875 1032.74169921875 1798.160888671875 1032.635498046875 C 1798.206298828125 1032.612060546875 1798.256591796875 1032.596801757812 1798.306884765625 1032.590942382812 L 1804.677001953125 1032.590942382812 C 1804.973876953125 1032.6015625 1805.236572265625 1032.7861328125 1805.346435546875 1033.061767578125 L 1806.373046875 1035.382446289062 C 1806.48291015625 1035.5927734375 1806.39990234375 1035.852172851562 1806.189697265625 1035.9619140625 C 1806.142822265625 1035.986450195312 1806.091552734375 1036.001586914062 1806.0390625 1036.007446289062 Z M 1794.70361328125 1036.007446289062 L 1788.31591796875 1036.007446289062 C 1788.078857421875 1035.980590820312 1787.909423828125 1035.766845703125 1787.936279296875 1035.52978515625 C 1787.942138671875 1035.478271484375 1787.957275390625 1035.428100585938 1787.98193359375 1035.382446289062 L 1789.009765625 1033.061767578125 C 1789.119384765625 1032.7861328125 1789.381103515625 1032.602661132812 1789.676513671875 1032.590942382812 L 1796.049072265625 1032.590942382812 C 1796.28515625 1032.619018554688 1796.454345703125 1032.832763671875 1796.427490234375 1033.068725585938 C 1796.421630859375 1033.118896484375 1796.406494140625 1033.16796875 1796.38330078125 1033.213623046875 L 1795.375244140625 1035.530883789062 C 1795.2666015625 1035.81005859375 1795.002685546875 1035.996826171875 1794.70361328125 1036.007446289062 Z" stroke="none" fill="#838383"/>
    </g>
  </g>
</svg>
