<svg id="Group_13917" data-name="Group 13917" xmlns="http://www.w3.org/2000/svg" width="100" height="100" viewBox="0 0 100 100">
  <rect id="Rectangle_148182" data-name="Rectangle 148182" width="100" height="100" rx="20" fill="#fff3e5"/>
  <path id="Path_15539" data-name="Path 15539" d="M541.081,1181.635l-13.973-4.459a1.643,1.643,0,0,1-1.151-1.628c.137-1.206,2.4-2.09,2.4-2.09l51.075-19.672s2.107-.776,3.337.351c1.211,1.112.846,2.477.562,3.808s-8.877,41.566-8.877,41.566a2.776,2.776,0,0,1-1.912,1.962,4.09,4.09,0,0,1-3.323-.937l-12.587-9.267-6.393,6.139a3.2,3.2,0,0,1-2.652,1.182l.954-13.361,24.912-22.833Z" transform="translate(-504.778 -1127.549)" fill="#ff8500"/>
</svg>
