<svg xmlns="http://www.w3.org/2000/svg" width="100" height="100" viewBox="0 0 100 100">
  <g id="Group_16815" data-name="Group 16815" transform="translate(-634 -761)">
    <g id="Group_14100" data-name="Group 14100" transform="translate(634 761)">
      <rect id="Rectangle_148182" data-name="Rectangle 148182" width="100" height="100" rx="20" fill="#eef9eb"/>
    </g>
    <path id="Union_107" data-name="Union 107" d="M39.223,57.656H7.933A7.942,7.942,0,0,1,0,49.721V7.928A7.941,7.941,0,0,1,7.933,0h31.29a7.942,7.942,0,0,1,7.933,7.928V31.59h-.018a4.975,4.975,0,0,0-4.654,3.285,4.994,4.994,0,0,0-7.04,4.546,4.912,4.912,0,0,0,.448,2.06,5.047,5.047,0,0,0-3.21,4.671,4.927,4.927,0,0,0,3.256,4.64,5.1,5.1,0,0,0-.416,1.995,4.981,4.981,0,0,0,3.945,4.869v.006C39.39,57.656,39.307,57.656,39.223,57.656ZM7.605,43.664a1.855,1.855,0,0,0,1.851,1.852H20.472a1.849,1.849,0,1,0,0-3.7H9.456A1.849,1.849,0,0,0,7.605,43.664Zm0-7.509A1.849,1.849,0,0,0,9.456,38H20.472a1.848,1.848,0,1,0,0-3.7H9.456A1.855,1.855,0,0,0,7.605,36.155Zm0-7.392a1.852,1.852,0,0,0,1.851,1.849H20.472a1.847,1.847,0,1,0,0-3.693H9.456A1.849,1.849,0,0,0,7.605,28.763Zm17.228-7.384a1.847,1.847,0,0,0,1.845,1.844H37.7a1.845,1.845,0,1,0,0-3.691H26.679A1.848,1.848,0,0,0,24.833,21.378Zm-17.228,0a1.848,1.848,0,0,0,1.851,1.844H20.472a1.845,1.845,0,1,0,0-3.691H9.456A1.849,1.849,0,0,0,7.605,21.378Zm17.228-7.386a1.848,1.848,0,0,0,1.845,1.844H37.7a1.848,1.848,0,1,0,0-3.7H26.679A1.849,1.849,0,0,0,24.833,13.993Zm-17.228,0a1.849,1.849,0,0,0,1.851,1.844H20.472a1.848,1.848,0,1,0,0-3.7H9.456A1.85,1.85,0,0,0,7.605,13.993Zm37.52,41.555v-.1a1.727,1.727,0,0,0-1.142-1.593,1.68,1.68,0,0,0-.69-.151,1.8,1.8,0,0,0-1.225.5l-.059.07a2.116,2.116,0,0,1-1.489.607,2.1,2.1,0,0,1-1.493-3.59l.06-.07a1.747,1.747,0,0,0-1.232-2.965H37.67a2.11,2.11,0,0,1,0-4.219h.1A1.738,1.738,0,0,0,39.348,42.9,1.713,1.713,0,0,0,39,40.985l-.06-.066a2.064,2.064,0,0,1-.613-1.486,2.039,2.039,0,0,1,.613-1.492,2.109,2.109,0,0,1,2.988,0L41.99,38a1.712,1.712,0,0,0,1.22.489,1.8,1.8,0,0,0,.7-.137h.077a1.768,1.768,0,0,0,1.061-1.594v-.18a2.1,2.1,0,1,1,4.207,0v.1a1.762,1.762,0,0,0,1.053,1.589,1.667,1.667,0,0,0,.7.143,1.774,1.774,0,0,0,1.225-.489l.06-.07a2.11,2.11,0,0,1,2.981,2.986l-.059.06a1.741,1.741,0,0,0-.346,1.922V42.9a1.716,1.716,0,0,0,1.583,1.054h.185a2.108,2.108,0,0,1,0,4.217h-.1a1.717,1.717,0,0,0-1.584,1.05,1.739,1.739,0,0,0,.352,1.919l.052.066a2.106,2.106,0,0,1,0,2.983,2.1,2.1,0,0,1-1.488.611,2.125,2.125,0,0,1-1.493-.611l-.059-.071a1.757,1.757,0,0,0-1.923-.346,1.725,1.725,0,0,0-1.052,1.588v.185a2.108,2.108,0,1,1-4.215,0Zm-1.142-9.486A3.16,3.16,0,1,0,47.145,42.9,3.164,3.164,0,0,0,43.983,46.061Z" transform="translate(654.632 782.169)" fill="#5ec141"/>
  </g>
</svg>
