<svg xmlns="http://www.w3.org/2000/svg" width="100" height="100" viewBox="0 0 100 100">
  <g id="Group_13921" data-name="Group 13921" transform="translate(0.204)">
    <rect id="Rectangle_148250" data-name="Rectangle 148250" width="100" height="100" rx="20" transform="translate(-0.204)" fill="#f5edfb"/>
    <path id="Union_83" data-name="Union 83" d="M55.537,57.313l-4.084-4.088a1.236,1.236,0,0,1-.254-1.383,7.9,7.9,0,1,1,.64-.64,1.243,1.243,0,0,1,1.386.259l4.084,4.079a1.256,1.256,0,0,1-.887,2.142A1.24,1.24,0,0,1,55.537,57.313ZM40.91,45.961a5.046,5.046,0,1,0,5.048-5.048A5.048,5.048,0,0,0,40.91,45.961Zm-30.694-2.47V42.275c0,.108.012.061.028-.859.212-11.223,1.809-14.462,13.206-16.521,0,0,1.623,2.063,5.4,2.063S34.26,24.9,34.26,24.9c8.981,1.623,11.868,4,12.8,10.416a10.3,10.3,0,0,0-1.08-.108A10.771,10.771,0,0,0,35.22,45.958a10.628,10.628,0,0,0,.372,2.656,52.451,52.451,0,0,1-6.74.4C12.962,49.019,10.216,43.491,10.216,43.491ZM0,37.711v-.732a4.769,4.769,0,0,0,.016-.647C.167,26.97,1.39,24.3,10.748,22.611a5.617,5.617,0,0,0,4.39,1.675c.127,0,.249,0,.372-.009a12.277,12.277,0,0,0-5.032,3.9c-2.261,3.1-2.783,7.264-2.889,13.378C1.291,40.306,0,37.711,0,37.711Zm49.779-1.755a15.654,15.654,0,0,0-2.574-7.779,12.262,12.262,0,0,0-5.032-3.9c.12,0,.245.009.369.009a5.625,5.625,0,0,0,4.392-1.675c9.36,1.689,10.583,4.359,10.727,13.721a5.89,5.89,0,0,0,.019.647v.732a6.6,6.6,0,0,1-2.792,2.263A10.832,10.832,0,0,0,49.779,35.956Zm-30.8-23.971C18.974,5.366,20.426,0,28.84,0s9.871,5.366,9.871,11.985S34.288,23.973,28.84,23.973,18.974,18.607,18.974,11.985Zm19.925,8.8a16.463,16.463,0,0,0,2.461-8.774c0-2.823-.219-6.361-1.8-9.271a11.475,11.475,0,0,1,2.995-.355c6.834,0,8.015,4.361,8.015,9.739s-3.59,9.734-8.015,9.734A6.864,6.864,0,0,1,38.9,20.781ZM7.135,12.1c0-5.38,1.174-9.737,8.012-9.737a11.345,11.345,0,0,1,2.99.353c-1.578,2.91-1.795,6.448-1.795,9.271a16.4,16.4,0,0,0,2.465,8.772,6.9,6.9,0,0,1-3.66,1.075C10.72,21.83,7.135,17.469,7.135,12.1Z" transform="translate(20.956 21.159)" fill="#9558c4"/>
  </g>
</svg>
