<svg xmlns="http://www.w3.org/2000/svg" width="100" height="100" viewBox="0 0 100 100">
  <g id="Group_13918" data-name="Group 13918" transform="translate(0.227)">
    <rect id="Rectangle_148251" data-name="Rectangle 148251" width="100" height="100" rx="20" transform="translate(-0.227)" fill="#edf4fd"/>
    <path id="Union_85" data-name="Union 85" d="M0,45.676V44.408a4.91,4.91,0,0,0,.032-.91C.25,31.7,1.93,28.3,13.9,26.148c0,0,1.708,2.167,5.675,2.167s5.673-2.167,5.673-2.167C37.355,28.326,38.936,31.78,39.128,43.9a6.468,6.468,0,0,0,.026.836v.943s-2.889,5.808-19.579,5.808S0,45.676,0,45.676ZM53.634,48.5a3.762,3.762,0,0,1-3.757-3.718H45.053a1.61,1.61,0,0,1-1.611-1.611V27.355H40.761a1.61,1.61,0,1,1,0-3.22h2.681V8.315a1.608,1.608,0,0,1,1.611-1.609h4.824a3.759,3.759,0,0,1,3.757-3.724H67.576A3.757,3.757,0,0,1,71.33,6.736V9.959a3.757,3.757,0,0,1-3.753,3.75H53.634a3.758,3.758,0,0,1-3.757-3.75v-.04h-3.22V24.135h3.22a3.76,3.76,0,0,1,3.757-3.756H67.576a3.759,3.759,0,0,1,3.753,3.756v3.22A3.757,3.757,0,0,1,67.576,31.1H53.634a3.758,3.758,0,0,1-3.757-3.748h-3.22V41.564h3.22v-.038a3.759,3.759,0,0,1,3.757-3.753H67.576a3.758,3.758,0,0,1,3.753,3.753v3.221A3.757,3.757,0,0,1,67.576,48.5Zm2.4-6.465a1.063,1.063,0,0,0-.3.763,1.079,1.079,0,0,0,.328.758L58.9,46.29a1.03,1.03,0,0,0,.74.3,1.1,1.1,0,0,0,.758-.314l4.76-4.771a1.036,1.036,0,0,0,.319-.754,1.076,1.076,0,0,0-1.833-.762L59.622,44.01l-2.078-2a1.073,1.073,0,0,0-.744-.3A1.052,1.052,0,0,0,56.03,42.033Zm6.436-12.911a1.069,1.069,0,0,0,1.514,0,1.065,1.065,0,0,0,0-1.52l-1.865-1.862,1.865-1.867a1.06,1.06,0,0,0,0-1.516,1.079,1.079,0,0,0-.761-.314,1.059,1.059,0,0,0-.753.314L60.6,24.226l-1.867-1.868a1.07,1.07,0,0,0-.761-.314,1.091,1.091,0,0,0-.758.314,1.079,1.079,0,0,0,0,1.516l1.871,1.867L57.215,27.6a1.074,1.074,0,0,0,.758,1.834,1.065,1.065,0,0,0,.761-.314L60.6,27.254ZM56.03,7.248a1.034,1.034,0,0,0-.3.754,1.085,1.085,0,0,0,.328.761L58.9,11.5a1.045,1.045,0,0,0,.74.3,1.07,1.07,0,0,0,.758-.311l4.76-4.763a1.065,1.065,0,0,0,0-1.52,1.045,1.045,0,0,0-.754-.311,1.061,1.061,0,0,0-.759.311L59.622,9.225,57.545,7.216a1.073,1.073,0,0,0-1.515.032ZM9.207,12.594C9.207,5.644,10.732,0,19.575,0S29.942,5.644,29.942,12.594,25.3,25.183,19.575,25.183,9.207,19.542,9.207,12.594Z" transform="translate(14.109 24.258)" fill="#5394e8"/>
  </g>
</svg>
