<svg xmlns="http://www.w3.org/2000/svg" width="100" height="100" viewBox="0 0 100 100">
  <g id="Group_13922" data-name="Group 13922" transform="translate(-0.488)">
    <rect id="Rectangle_148252" data-name="Rectangle 148252" width="100" height="100" rx="20" transform="translate(0.488)" fill="#edf4fd"/>
    <path id="Union_88" data-name="Union 88" d="M6.861,54.891A6.869,6.869,0,0,1,0,48.029V13.722A6.868,6.868,0,0,1,6.861,6.862H8.577V7.72a5.152,5.152,0,0,0,5.145,5.145h.143A5.152,5.152,0,0,0,19.012,7.72V6.862H35.166V7.72a5.152,5.152,0,0,0,5.146,5.145h.143A5.152,5.152,0,0,0,45.6,7.72V6.862h2.429a6.868,6.868,0,0,1,6.862,6.861V48.029a6.869,6.869,0,0,1-6.862,6.862Zm26.888-6.645a2.1,2.1,0,1,0,2.1-2.1A2.1,2.1,0,0,0,33.749,48.246Zm-8.406,0a2.1,2.1,0,1,0,2.1-2.1A2.1,2.1,0,0,0,25.343,48.246Zm-8.408,0a2.1,2.1,0,1,0,2.1-2.1A2.1,2.1,0,0,0,16.935,48.246Zm-8.4,0a2.1,2.1,0,1,0,2.1-2.1A2.1,2.1,0,0,0,8.536,48.246Zm33.62-6.825a2.1,2.1,0,1,0,2.1-2.106A2.1,2.1,0,0,0,42.156,41.422Zm-8.407,0a2.1,2.1,0,1,0,2.1-2.106A2.1,2.1,0,0,0,33.749,41.422Zm-8.406,0a2.1,2.1,0,1,0,2.1-2.106A2.1,2.1,0,0,0,25.343,41.422Zm-8.408,0a2.1,2.1,0,1,0,2.1-2.106A2.1,2.1,0,0,0,16.935,41.422Zm-8.4,0a2.1,2.1,0,1,0,2.1-2.106A2.1,2.1,0,0,0,8.536,41.422ZM42.156,34.6a2.1,2.1,0,1,0,2.1-2.1A2.1,2.1,0,0,0,42.156,34.6Zm-8.407,0a2.1,2.1,0,1,0,2.1-2.1A2.1,2.1,0,0,0,33.749,34.6Zm-8.406,0a2.1,2.1,0,1,0,2.1-2.1A2.1,2.1,0,0,0,25.343,34.6Zm-8.408,0a2.1,2.1,0,1,0,2.1-2.1A2.1,2.1,0,0,0,16.935,34.6Zm-8.4,0a2.1,2.1,0,1,0,2.1-2.1A2.1,2.1,0,0,0,8.536,34.6Zm33.62-6.832a2.1,2.1,0,1,0,2.1-2.1A2.1,2.1,0,0,0,42.156,27.767Zm-8.407,0a2.1,2.1,0,1,0,2.1-2.1A2.1,2.1,0,0,0,33.749,27.767Zm-8.406,0a2.1,2.1,0,1,0,2.1-2.1A2.1,2.1,0,0,0,25.343,27.767ZM5.077,18.259v1.415a.454.454,0,0,0,.454.454h43.83a.454.454,0,0,0,.454-.454V18.259a.454.454,0,0,0-.454-.455H5.53A.454.454,0,0,0,5.077,18.259Zm35.234-7.966A2.572,2.572,0,0,1,37.739,7.72V2.573A2.572,2.572,0,0,1,40.311,0h.143a2.574,2.574,0,0,1,2.573,2.573V7.72a2.574,2.574,0,0,1-2.573,2.573Zm-26.588,0A2.574,2.574,0,0,1,11.15,7.72V2.573A2.574,2.574,0,0,1,13.723,0h.143a2.572,2.572,0,0,1,2.572,2.573V7.72a2.572,2.572,0,0,1-2.572,2.573Z" transform="translate(23.043 22.555)" fill="#5394e8"/>
  </g>
</svg>
