<svg xmlns="http://www.w3.org/2000/svg" width="100" height="100" viewBox="0 0 100 100">
  <g id="Group_13919" data-name="Group 13919" transform="translate(0 -0.032)">
    <rect id="Rectangle_148253" data-name="Rectangle 148253" width="100" height="100" rx="20" transform="translate(0 0.032)" fill="#feeded"/>
    <path id="Union_86" data-name="Union 86" d="M11.241,56.644.195,34.56a1.844,1.844,0,0,1,.83-2.476L3.476,30.87A3.68,3.68,0,0,1,8.4,32.526l9.382,18.8a3.681,3.681,0,0,1-1.664,4.943l-2.417,1.2a1.837,1.837,0,0,1-2.461-.826ZM24.477,50.3h-3.1L10.92,29.321l2.662-2.341.051.045A13.417,13.417,0,0,1,19.285,24.2,12.8,12.8,0,0,1,30.711,27c.726.628,1.177,1.218,2.1,1.218h9.645a3.678,3.678,0,1,1,0,7.356H35.088a1.84,1.84,0,0,0,0,3.681h8.581a4.424,4.424,0,0,0,2.718-1.175L56.449,25.709a3.678,3.678,0,0,1,5.633,4.714l-10.8,15.46A11.084,11.084,0,0,1,42.451,50.3ZM47.595,28.9a5.955,5.955,0,0,0-5.143-2.983h-4.09V4.21h.017l2.036,4.669a3.97,3.97,0,0,0,3.581,2.536H58.171V22.323a6,6,0,0,0-3.413,1.831l-.047.052L50.9,28.9ZM32.946,25.916c-.1-.074-.241-.207-.35-.308s-.24-.223-.348-.315a14.785,14.785,0,0,0-9.947-3.73,15.293,15.293,0,0,0-3.531.406,15.062,15.062,0,0,0-2.159.674V11.415H30.785a3.97,3.97,0,0,0,3.582-2.536L36.4,4.21h.015V25.916ZM43.994,9.12a1.991,1.991,0,0,1-1.788-1.271l-2.7-6.186A1.151,1.151,0,0,1,40.407,0H57.414A2,2,0,0,1,59.2,1.256L61.94,7.451a1.147,1.147,0,0,1-.891,1.669Zm-30.262,0a1.151,1.151,0,0,1-.893-1.669l2.744-6.195A2,2,0,0,1,17.366,0H34.379a1.149,1.149,0,0,1,.891,1.663L32.58,7.849A2,2,0,0,1,30.785,9.12Z" transform="translate(18.594 21.201)" fill="#f64c4f"/>
  </g>
</svg>
