<svg xmlns="http://www.w3.org/2000/svg" width="100" height="100" viewBox="0 0 100 100">
  <g id="Group_13920" data-name="Group 13920" transform="translate(0.022 -0.032)">
    <rect id="Rectangle_148254" data-name="Rectangle 148254" width="100" height="100" rx="20" transform="translate(-0.022 0.032)" fill="#e8f5f3"/>
    <path id="Union_97" data-name="Union 97" d="M4.666,51.358A4.676,4.676,0,0,1,0,46.687V18.672a4.671,4.671,0,0,1,4.666-4.664h4.04L31.684.624a4.629,4.629,0,0,1,6.34,1.713l6.706,11.71a4.65,4.65,0,0,1,4.3,4.624v3.5a1.171,1.171,0,0,1-1.169,1.171H39.686a9.338,9.338,0,1,0,0,18.675h8.171a1.168,1.168,0,0,1,1.169,1.167v3.5a4.678,4.678,0,0,1-4.674,4.671ZM31.842,14.007H42.013L39.468,9.565ZM32.86,2.642,13.345,14.007h4.607L36,3.5V3.491a2.306,2.306,0,0,0-1.4-1.077A2.347,2.347,0,0,0,34,2.333,2.271,2.271,0,0,0,32.86,2.642Zm6.826,37.041a7,7,0,1,1,0-14h8.171a3.5,3.5,0,0,1,3.5,3.5v7a3.5,3.5,0,0,1-3.5,3.5Zm-2.333-7.005a2.333,2.333,0,1,0,2.333-2.335A2.339,2.339,0,0,0,37.352,32.678Z" transform="translate(24.298 24.353)" fill="#22a18b"/>
  </g>
</svg>
