<svg xmlns="http://www.w3.org/2000/svg" width="100" height="100" viewBox="0 0 100 100">
  <g id="Group_13923" data-name="Group 13923" transform="translate(0 -0.009)">
    <rect id="Rectangle_148256" data-name="Rectangle 148256" width="100" height="100" rx="20" transform="translate(0 0.009)" fill="#f8e9f2"/>
    <path id="Union_99" data-name="Union 99" d="M29.543,55.7V33.7H50.971V51.648A4.074,4.074,0,0,1,46.915,55.7Zm-20.855,0a4.073,4.073,0,0,1-4.051-4.056V33.7H26.065V55.7ZM50.971,30.22H29.543V18.706q-.85.031-1.74.029t-1.738-.029V30.22H4.056A4.074,4.074,0,0,1,0,26.168v-5.8a4.073,4.073,0,0,1,4.056-4.052h9.775C7.564,13.745,4.637,9.588,4.637,6.294,4.637,3.392,6.869,0,13.147,0c7.829,0,12.378,5.552,14.659,10.839C30.086,5.552,34.635,0,42.466,0c6.279,0,8.5,3.392,8.5,6.294,0,3.294-2.928,7.451-9.194,10.025H51.55A4.073,4.073,0,0,1,55.6,20.371v5.8A4.073,4.073,0,0,1,51.55,30.22Zm-21-15.007c6.547-.309,10.675-1.964,13.05-3.376,3.3-1.958,4.471-4.143,4.471-5.543,0-2.078-2.593-2.818-5.027-2.818C34.168,3.477,31.017,11.362,29.973,15.213ZM8.113,6.294c0,2.962,5.173,8.356,17.522,8.918-1.044-3.85-4.2-11.736-12.488-11.736C10.714,3.477,8.113,4.217,8.113,6.294Z" transform="translate(22.199 22.157)" fill="#b92683"/>
  </g>
</svg>
