<svg xmlns="http://www.w3.org/2000/svg" width="100" height="100" viewBox="0 0 100 100">
  <g id="Group_13925" data-name="Group 13925" transform="translate(0.022 -0.009)">
    <rect id="Rectangle_148255" data-name="Rectangle 148255" width="100" height="100" rx="20" transform="translate(-0.022 0.009)" fill="#fff7e7"/>
    <path id="Union_101" data-name="Union 101" d="M33.012,57.192,27.835,46.833a25.174,25.174,0,0,0,17.32-9.453l5.5,10.993a1.7,1.7,0,0,1-.075,1.655,1.682,1.682,0,0,1-1.443.808H40.862L35.9,57.457a1.689,1.689,0,0,1-1.36.681A1.715,1.715,0,0,1,33.012,57.192Zm-18.076.265L9.972,50.837H1.7A1.7,1.7,0,0,1,.179,48.374L5.673,37.38A25.206,25.206,0,0,0,23,46.833L17.816,57.192a1.7,1.7,0,0,1-2.88.265ZM3.648,21.77a21.769,21.769,0,1,1,21.77,21.774A21.8,21.8,0,0,1,3.648,21.77ZM32.286,33.685a1.708,1.708,0,0,0,1.639-.2,1.688,1.688,0,0,0,.7-1.5L34.115,24.6l4.752-5.676a1.7,1.7,0,0,0-.891-2.743l-7.187-1.8L26.861,8.1a1.7,1.7,0,0,0-2.886,0l-3.931,6.282-7.185,1.8a1.7,1.7,0,0,0-.891,2.743L16.721,24.6l-.507,7.388a1.688,1.688,0,0,0,.7,1.5,1.731,1.731,0,0,0,1.639.2l6.87-2.773ZM26.053,27.5a1.743,1.743,0,0,0-1.271,0l-4.986,2.009.378-5.356a1.7,1.7,0,0,0-.4-1.217l-3.446-4.119,5.215-1.3a1.709,1.709,0,0,0,1.027-.748l2.85-4.556,2.848,4.556a1.7,1.7,0,0,0,1.035.748l5.207,1.3-3.444,4.119a1.685,1.685,0,0,0-.394,1.217l.37,5.356Z" transform="translate(24.56 20.94)" fill="#feb017"/>
  </g>
</svg>
