<svg xmlns="http://www.w3.org/2000/svg" width="100" height="100" viewBox="0 0 100 100">
  <g id="Group_16816" data-name="Group 16816" transform="translate(-1343 -1046)">
    <rect id="Rectangle_148257" data-name="Rectangle 148257" width="100" height="100" rx="20" transform="translate(1343 1046)" fill="#ffe5e5"/>
    <g id="discount-voucher" transform="translate(1364.645 1074.734)">
      <g id="Group_13791" data-name="Group 13791" transform="translate(0 0)">
        <g id="Group_13790" data-name="Group 13790" transform="translate(0 0)">
          <path id="Path_15625" data-name="Path 15625" d="M322.363,277.333c-1.281,0-2.363,1.623-2.363,3.544s1.082,3.544,2.363,3.544,2.363-1.623,2.363-3.544S323.644,277.333,322.363,277.333Z" transform="translate(-284.556 -253.704)" fill="#ff0808"/>
          <path id="Path_15626" data-name="Path 15626" d="M218.06,174.211c0-1.921-1.082-3.544-2.363-3.544s-2.363,1.623-2.363,3.544,1.082,3.544,2.363,3.544S218.06,176.132,218.06,174.211Z" transform="translate(-189.705 -158.852)" fill="#ff0808"/>
          <path id="Path_15627" data-name="Path 15627" d="M55.529,79.359a1.181,1.181,0,0,0,1.182-1.181V68.726A4.731,4.731,0,0,0,51.985,64H4.726A4.731,4.731,0,0,0,0,68.726v9.452a1.181,1.181,0,0,0,1.182,1.181,5.907,5.907,0,0,1,0,11.815A1.181,1.181,0,0,0,0,92.355v9.452a4.73,4.73,0,0,0,4.726,4.726H51.985a4.73,4.73,0,0,0,4.726-4.726V92.355a1.181,1.181,0,0,0-1.182-1.181,5.907,5.907,0,1,1,0-11.815ZM16.541,100.626a1.182,1.182,0,0,1-2.363,0V98.263a1.182,1.182,0,1,1,2.363,0v2.363Zm0-9.452a1.182,1.182,0,0,1-2.363,0V88.811a1.182,1.182,0,0,1,2.363,0v2.363Zm0-9.452a1.182,1.182,0,1,1-2.363,0V79.359a1.182,1.182,0,0,1,2.363,0v2.363Zm0-9.452a1.182,1.182,0,0,1-2.363,0V69.612a1.182,1.182,0,1,1,2.363,0V72.27Zm4.726,7.089c0-3.257,2.119-5.907,4.726-5.907s4.726,2.65,4.726,5.907-2.12,5.907-4.726,5.907S21.266,82.616,21.266,79.359ZM24.81,97.081a1.181,1.181,0,0,1-.982-1.837L38.006,73.978a1.181,1.181,0,0,1,1.966,1.311L25.794,96.555A1.18,1.18,0,0,1,24.81,97.081Zm13,0c-2.606,0-4.726-2.65-4.726-5.907s2.12-5.907,4.726-5.907,4.726,2.65,4.726,5.907S40.413,97.081,37.807,97.081Z" transform="translate(0 -64)" fill="#ff0808"/>
        </g>
      </g>
    </g>
  </g>
</svg>
