<svg xmlns="http://www.w3.org/2000/svg" width="18" height="16.5">
    <path data-name="Path 13569" d="M16.4 7.656a3.61 3.61 0 0 1 1.52 2.644 2.448 2.448 0 0 0 1.116.272 2.765 2.765 0 0 0 2.64-2.872 2.765 2.765 0 0 0-2.64-2.876A2.761 2.761 0 0 0 16.4 7.656zm-1.73 5.888a2.766 2.766 0 0 0 2.64-2.876 2.765 2.765 0 0 0-2.64-2.875 2.766 2.766 0 0 0-2.64 2.875 2.766 2.766 0 0 0 2.639 2.876zm1.12.2h-2.24a3.545 3.545 0 0 0-3.38 3.682v2.984l.007.046.189.065a14.24 14.24 0 0 0 4.6.807 8.788 8.788 0 0 0 4.013-.821l.176-.1h.019v-2.985a3.544 3.544 0 0 0-3.386-3.682zm4.368-2.968h-2.225a3.7 3.7 0 0 1-1 2.468 4.342 4.342 0 0 1 2.867 4.183v.92a8.5 8.5 0 0 0 3.543-.811l.176-.1h.019v-2.983a3.545 3.545 0 0 0-3.382-3.681zm-10.119-.2a2.468 2.468 0 0 0 1.4-.444 3.631 3.631 0 0 1 1.228-2.27c0-.054.007-.107.007-.161a2.765 2.765 0 0 0-2.639-2.876A2.765 2.765 0 0 0 7.4 7.7a2.764 2.764 0 0 0 2.637 2.875zm2.371 2.665a3.7 3.7 0 0 1-1-2.454 2.897 2.897 0 0 0-.248-.014H8.916a3.545 3.545 0 0 0-3.38 3.682v2.984l.007.046.189.065a14.694 14.694 0 0 0 3.806.78v-.9a4.342 4.342 0 0 1 2.869-4.19z" transform="translate(-5.536 -4.824)" style="fill:#fff"/>
</svg>
