<svg xmlns="http://www.w3.org/2000/svg" width="24" height="24" viewBox="0 0 24 24">
  <g id="themsodienthoai" transform="translate(6416 7571)">
    <g id="Group_14273" data-name="Group 14273" transform="translate(-6416 -7571)">
      <rect id="Rectangle_148682" data-name="Rectangle 148682" width="24" height="24" fill="#fff" opacity="0"/>
      <g id="Group_14267" data-name="Group 14267" transform="translate(6.303 2.4)">
        <path id="Path_18293" data-name="Path 18293" d="M1318.971-886.65v2.238a1.428,1.428,0,0,1-1.424,1.424H1309a1.428,1.428,0,0,1-1.424-1.424v-2.238Z" transform="translate(-1307.578 902.188)" fill="none" stroke="#858585" stroke-miterlimit="2.613" stroke-width="1.2" fill-rule="evenodd"/>
        <path id="Path_18294" data-name="Path 18294" d="M1318.972-967.087v12.87h-11.394v-12.87Z" transform="translate(-1307.578 969.755)" fill="none" stroke="#858585" stroke-miterlimit="2.613" stroke-width="1.2" fill-rule="evenodd"/>
        <path id="Path_18295" data-name="Path 18295" d="M1309-983.758h8.546a1.428,1.428,0,0,1,1.424,1.424v1.243h-11.393v-1.243A1.428,1.428,0,0,1,1309-983.758Z" transform="translate(-1307.578 983.758)" fill="none" stroke="#858585" stroke-miterlimit="2.613" stroke-width="1.2" fill-rule="evenodd"/>
        <line id="Line_617" data-name="Line 617" x2="1.733" transform="translate(4.83 17.354)" fill="none" stroke="#858585" stroke-linecap="round" stroke-linejoin="round" stroke-width="1.2"/>
        <path id="Path_18296" data-name="Path 18296" d="M1335.9-930.605l.758.789,1.994-1.994" transform="translate(-1331.649 939.948)" fill="none" stroke="#858585" stroke-linecap="round" stroke-linejoin="round" stroke-width="1.2" fill-rule="evenodd"/>
        <path id="Path_18297" data-name="Path 18297" d="M1330.9-936.537a3.047,3.047,0,0,0,3.041-3.041,3.047,3.047,0,0,0-3.041-3.041,3.047,3.047,0,0,0-3.041,3.041A3.047,3.047,0,0,0,1330.9-936.537Z" transform="translate(-1325.206 948.612)" fill="none" stroke="#858585" stroke-linecap="round" stroke-linejoin="round" stroke-width="1.2" fill-rule="evenodd"/>
      </g>
    </g>
  </g>
</svg>
