<svg xmlns="http://www.w3.org/2000/svg" width="24" height="24" viewBox="0 0 24 24">
  <g id="chedonhatuyendung" transform="translate(6464 7476)">
    <rect id="Rectangle_148691" data-name="Rectangle 148691" width="24" height="24" transform="translate(-6464 -7476)" fill="#fff" opacity="0"/>
    <g id="Group_14265" data-name="Group 14265" transform="translate(-6460.605 -7473.6)">
      <g id="Group_14263" data-name="Group 14263" transform="translate(0 8.173)">
        <path id="Path_18282" data-name="Path 18282" d="M1023.125-490.08a2.3,2.3,0,0,0,2.3-2.3,2.3,2.3,0,0,0-2.3-2.3,2.3,2.3,0,0,0-2.3,2.3A2.3,2.3,0,0,0,1023.125-490.08Z" transform="translate(-1018.918 494.678)" fill="none" stroke="#858585" stroke-linecap="round" stroke-linejoin="round" stroke-width="1.2" fill-rule="evenodd"/>
        <path id="Path_18283" data-name="Path 18283" d="M1013.084-461.538a3.6,3.6,0,0,1-2.038-.689,1.762,1.762,0,0,0-1.807,1.277,4.706,4.706,0,0,0-.3,1.4,7.567,7.567,0,0,0-.036.78,1.426,1.426,0,0,0,1.491,1.536h5.432a1.426,1.426,0,0,0,1.491-1.536,7.5,7.5,0,0,0-.036-.78,4.7,4.7,0,0,0-.3-1.4,1.762,1.762,0,0,0-1.807-1.277A3.741,3.741,0,0,1,1013.084-461.538Z" transform="translate(-1008.9 467.423)" fill="none" stroke="#858585" stroke-linecap="round" stroke-linejoin="round" stroke-width="1.2" fill-rule="evenodd"/>
      </g>
      <path id="Path_18284" data-name="Path 18284" d="M1070.142-453.673l1.107-1.6-1.107,1.6a8.664,8.664,0,0,0,1.423-.324,8.6,8.6,0,0,0,4.836-3.9" transform="translate(-1060.343 471.951)" fill="none" stroke="#858585" stroke-linecap="round" stroke-linejoin="round" stroke-width="1.2" fill-rule="evenodd"/>
      <path id="Path_18285" data-name="Path 18285" d="M1008.9-529.964v0a8.607,8.607,0,0,1,7.168-8.48q.122-.021.244-.038a8.675,8.675,0,0,1,1.193-.084" transform="translate(-1008.897 539.721)" fill="none" stroke="#858585" stroke-linecap="round" stroke-linejoin="round" stroke-width="1.2" fill-rule="evenodd"/>
      <path id="Path_18286" data-name="Path 18286" d="M1053.122-543.178l1.319-1.432-1.57-1.151" transform="translate(-1045.835 545.76)" fill="none" stroke="#858585" stroke-linecap="round" stroke-linejoin="round" stroke-width="1.2" fill-rule="evenodd"/>
      <g id="Group_14264" data-name="Group 14264" transform="translate(8.796 1.151)">
        <path id="Path_18287" data-name="Path 18287" d="M1078.1-533.969a2.3,2.3,0,0,0,2.3-2.3,2.3,2.3,0,0,0-2.3-2.3,2.3,2.3,0,0,0-2.3,2.3A2.3,2.3,0,0,0,1078.1-533.969Z" transform="translate(-1073.891 538.568)" fill="none" stroke="#858585" stroke-linecap="round" stroke-linejoin="round" stroke-width="1.2" fill-rule="evenodd"/>
        <path id="Path_18288" data-name="Path 18288" d="M1068.057-505.427a3.6,3.6,0,0,1-2.038-.689,1.762,1.762,0,0,0-1.807,1.277,4.7,4.7,0,0,0-.3,1.4,7.492,7.492,0,0,0-.036.78,1.426,1.426,0,0,0,1.491,1.536h5.432a1.426,1.426,0,0,0,1.491-1.536,7.56,7.56,0,0,0-.036-.78,4.693,4.693,0,0,0-.3-1.4,1.762,1.762,0,0,0-1.807-1.277A3.74,3.74,0,0,1,1068.057-505.427Z" transform="translate(-1063.873 511.313)" fill="none" stroke="#858585" stroke-linecap="round" stroke-linejoin="round" stroke-width="1.2" fill-rule="evenodd"/>
      </g>
      <path id="Path_18289" data-name="Path 18289" d="M1071.249-441.528l-1.107,1.6,1.714.922" transform="translate(-1060.343 458.205)" fill="none" stroke="#858585" stroke-linecap="round" stroke-linejoin="round" stroke-width="1.2" fill-rule="evenodd"/>
    </g>
  </g>
</svg>
