<svg xmlns="http://www.w3.org/2000/svg" width="24" height="24" viewBox="0 0 24 24">
  <g id="khoangcachphuhop" transform="translate(6447 13195)">
    <rect id="Rectangle_148698" data-name="Rectangle 148698" width="24" height="24" transform="translate(-6447 -13195)" fill="rgba(255,255,255,0)"/>
    <g id="Group_14051" data-name="Group 14051" transform="translate(-6444.601 -13192.601)">
      <path id="Path_15961" data-name="Path 15961" d="M1863.417-290.76a3.687,3.687,0,0,1,3.687,3.687,3.669,3.669,0,0,1-.565,1.961h0l-3.122,5.209-3.123-5.209h0a3.669,3.669,0,0,1-.564-1.961A3.687,3.687,0,0,1,1863.417-290.76Z" transform="translate(-1859.73 290.76)" fill="none" stroke="#858585" stroke-linecap="round" stroke-linejoin="round" stroke-width="1.2" fill-rule="evenodd"/>
      <path id="Path_15962" data-name="Path 15962" d="M1875.972-273.223a1.3,1.3,0,0,0,1.295-1.295,1.3,1.3,0,0,0-1.295-1.3,1.3,1.3,0,0,0-1.295,1.3A1.3,1.3,0,0,0,1875.972-273.223Z" transform="translate(-1872.286 278.204)" fill="none" stroke="#858585" stroke-linecap="round" stroke-linejoin="round" stroke-width="1.2" fill-rule="evenodd"/>
      <path id="Path_15963" data-name="Path 15963" d="M1866.846-222.909h4a1.679,1.679,0,0,1,1.674,1.673h0a1.678,1.678,0,0,1-1.674,1.673h-4m1.084,0h-2.445a1.678,1.678,0,0,0-1.674,1.673h0a1.678,1.678,0,0,0,1.674,1.674h8.994" transform="translate(-1863.159 233.765)" fill="none" stroke="#858585" stroke-linecap="round" stroke-linejoin="round" stroke-width="1.2" fill-rule="evenodd"/>
      <path id="Path_15964" data-name="Path 15964" d="M1932.173-188.085a1.653,1.653,0,0,0,1.65-1.65,1.653,1.653,0,0,0-1.65-1.65,1.653,1.653,0,0,0-1.65,1.65A1.653,1.653,0,0,0,1932.173-188.085Z" transform="translate(-1919.196 207.285)" fill="none" stroke="#858585" stroke-linecap="round" stroke-linejoin="round" stroke-width="1.2" fill-rule="evenodd"/>
      <path id="Path_15965" data-name="Path 15965" d="M1940.836-238.221v-8.921l6.048,2.461-6.048,3.088" transform="translate(-1927.859 254.121)" fill="none" stroke="#858585" stroke-linecap="round" stroke-linejoin="round" stroke-width="1.2" fill-rule="evenodd"/>
    </g>
  </g>
</svg>
