<svg xmlns="http://www.w3.org/2000/svg" width="24" height="24" viewBox="0 0 24 24">
  <g id="trogiup" transform="translate(6438 7476)">
    <rect id="Rectangle_148692" data-name="Rectangle 148692" width="24" height="24" transform="translate(-6438 -7476)" fill="#fff" opacity="0"/>
    <g id="Group_14259" data-name="Group 14259" transform="translate(-6434.281 -7473.978)">
      <path id="Path_18270" data-name="Path 18270" d="M1589.753-683.7h-.507a2.538,2.538,0,0,1-2.531-2.531v-2.408a7.136,7.136,0,0,1,7.115-7.115h0a7.136,7.136,0,0,1,7.115,7.115v2.408a2.538,2.538,0,0,1-2.531,2.531h-3.529" transform="translate(-1585.549 695.758)" fill="none" stroke="#858585" stroke-linecap="round" stroke-linejoin="round" stroke-width="1.2" fill-rule="evenodd"/>
      <rect id="Rectangle_148679" data-name="Rectangle 148679" width="9.524" height="11.979" rx="4.762" transform="translate(3.519 2.381)" fill="none" stroke="#858585" stroke-linecap="round" stroke-linejoin="round" stroke-width="1.2"/>
      <path id="Path_18271" data-name="Path 18271" d="M1635.944-655.655h-2.325a2.444,2.444,0,0,1-2.437-2.437" transform="translate(-1622.901 664.119)" fill="none" stroke="#858585" stroke-linecap="round" stroke-linejoin="round" stroke-width="1.2" fill-rule="evenodd"/>
      <line id="Line_613" data-name="Line 613" transform="translate(8.281 6.027)" fill="none" stroke="#858585" stroke-linecap="round" stroke-linejoin="round" stroke-width="1.2"/>
      <path id="Path_18272" data-name="Path 18272" d="M1601.421-655.655h2.325a2.444,2.444,0,0,0,2.437-2.437" transform="translate(-1597.902 664.119)" fill="none" stroke="#858585" stroke-linecap="round" stroke-linejoin="round" stroke-width="1.2" fill-rule="evenodd"/>
      <path id="Path_18273" data-name="Path 18273" d="M1582.94-606.009h9.539a3.062,3.062,0,0,1,2.8,1.769l.681,1.614a1.25,1.25,0,0,1-1.137,1.456H1580.6a1.25,1.25,0,0,1-1.137-1.456l.681-1.614A3.062,3.062,0,0,1,1582.94-606.009Z" transform="translate(-1579.429 620.369)" fill="none" stroke="#858585" stroke-linecap="round" stroke-linejoin="round" stroke-width="1.2" fill-rule="evenodd"/>
      <path id="Path_18274" data-name="Path 18274" d="M1612.721-601.169l-1.758-2.42-1.758-2.42h7.033l-1.758,2.42Z" transform="translate(-1604.441 620.369)" fill="none" stroke="#858585" stroke-linecap="round" stroke-linejoin="round" stroke-width="1.2" fill-rule="evenodd"/>
      <path id="Path_18275" data-name="Path 18275" d="M1586.715-647.879v-.965a1.41,1.41,0,0,1,1.406-1.406h.947" transform="translate(-1585.549 657.532)" fill="none" stroke="#858585" stroke-linecap="round" stroke-linejoin="round" stroke-width="1.2" fill-rule="evenodd"/>
      <path id="Path_18276" data-name="Path 18276" d="M1663.3-647.879v-.965a1.41,1.41,0,0,0-1.406-1.406h-.947" transform="translate(-1647.901 657.532)" fill="none" stroke="#858585" stroke-linecap="round" stroke-linejoin="round" stroke-width="1.2" fill-rule="evenodd"/>
    </g>
  </g>
</svg>
