<svg xmlns="http://www.w3.org/2000/svg" width="24" height="24" viewBox="0 0 24 24">
  <g id="thongtintaikhoan" transform="translate(6447 13227)">
    <rect id="Rectangle_148695" data-name="Rectangle 148695" width="24" height="24" transform="translate(-6447 -13227)" fill="rgba(255,255,255,0)"/>
    <path id="Path_15960" data-name="Path 15960" d="M1013.584-280.258v3.747m-.03-14.249a4.333,4.333,0,0,1,4.333,4.333,4.333,4.333,0,0,1-4.333,4.334,4.333,4.333,0,0,1-4.333-4.334,4.333,4.333,0,0,1,4.333-4.333Zm0,15.742c-2.855,0-2.573-5.067-3.884-5.949-1.526-.112-2.687.7-3.4,2.407a8.842,8.842,0,0,0-.571,2.635,14.143,14.143,0,0,0-.068,1.47c0,1.811,1.015,2.729,2.81,2.894h10.237c1.8-.165,2.806-1.084,2.811-2.894a14.245,14.245,0,0,0-.069-1.47,8.857,8.857,0,0,0-.571-2.635c-.718-1.711-1.88-2.519-3.4-2.407C1016.128-280.085,1016.257-275.018,1013.554-275.018Z" transform="translate(-7448.425 -12933.24)" fill="none" stroke="#858585" stroke-linecap="round" stroke-linejoin="round" stroke-width="1.2" fill-rule="evenodd"/>
  </g>
</svg>
