<svg xmlns="http://www.w3.org/2000/svg" width="24" height="24" viewBox="0 0 24 24">
  <g id="ngonngu" transform="translate(6392 7571)">
    <g id="Group_14272" data-name="Group 14272" transform="translate(-6392 -7571)">
      <rect id="Rectangle_148683" data-name="Rectangle 148683" width="24" height="24" fill="#fff" opacity="0"/>
      <g id="Group_14266" data-name="Group 14266" transform="translate(2.4 2.4)">
        <path id="Path_18290" data-name="Path 18290" d="M1436.783-983.759a9.6,9.6,0,0,1,9.6,9.6,9.555,9.555,0,0,1-1.382,4.965l1.166,4.273-4.079-1.237a9.553,9.553,0,0,1-5.3,1.6,9.6,9.6,0,0,1-9.6-9.6A9.6,9.6,0,0,1,1436.783-983.759Z" transform="translate(-1427.183 983.759)" fill="none" stroke="#858585" stroke-linecap="round" stroke-linejoin="round" stroke-width="1.2" fill-rule="evenodd"/>
        <path id="Path_18291" data-name="Path 18291" d="M1455.911-960.988a5.959,5.959,0,0,1,5.686,4.178h-11.373l0-.013a5.959,5.959,0,0,1,5.682-4.165Zm5.687,4.178a5.952,5.952,0,0,1,.27,1.778,5.953,5.953,0,0,1-.27,1.778h-11.373l0-.013a5.953,5.953,0,0,1-.266-1.765,5.952,5.952,0,0,1,.27-1.778Zm0,3.557a5.959,5.959,0,0,1-5.687,4.178,5.959,5.959,0,0,1-5.687-4.178Z" transform="translate(-1446.311 964.631)" fill="none" stroke="#858585" stroke-linecap="round" stroke-miterlimit="2.613" stroke-width="1.2" fill-rule="evenodd"/>
        <path id="Path_18292" data-name="Path 18292" d="M1473.824-949.075c1.4,0,2.544-2.676,2.544-5.957s-1.143-5.957-2.544-5.957-2.545,2.676-2.545,5.957S1472.422-949.075,1473.824-949.075Z" transform="translate(-1464.224 964.631)" fill="none" stroke="#858585" stroke-linecap="round" stroke-miterlimit="2.613" stroke-width="1.2" fill-rule="evenodd"/>
      </g>
    </g>
  </g>
</svg>
