<svg xmlns="http://www.w3.org/2000/svg" width="24" height="24" viewBox="0 0 24 24">
  <g id="dieukhoandichvu" transform="translate(6442 7511)">
    <rect id="Rectangle_148688" data-name="Rectangle 148688" width="24" height="24" transform="translate(-6442 -7511)" fill="#fff" opacity="0"/>
    <g id="Group_14258" data-name="Group 14258" transform="translate(-6437.517 -7508.6)">
      <path id="Path_18267" data-name="Path 18267" d="M1167.238-683.326v-9.412a3.031,3.031,0,0,0-3.022-3.022h-7.253l-4.757,4.807v11.37a3.031,3.031,0,0,0,3.022,3.022h5.913" transform="translate(-1152.206 695.76)" fill="none" stroke="#858585" stroke-linecap="round" stroke-linejoin="round" stroke-width="1.2" fill-rule="evenodd"/>
      <path id="Path_18268" data-name="Path 18268" d="M1156.964-695.76l-4.757,4.807h3.246a1.515,1.515,0,0,0,1.511-1.511Z" transform="translate(-1152.206 695.76)" fill="none" stroke="#858585" stroke-linecap="round" stroke-linejoin="round" stroke-width="1.2" fill-rule="evenodd"/>
      <line id="Line_609" data-name="Line 609" x2="7.136" transform="translate(3.938 10.914)" fill="none" stroke="#858585" stroke-linecap="round" stroke-linejoin="round" stroke-width="1.2"/>
      <line id="Line_610" data-name="Line 610" x2="4.418" transform="translate(3.938 13.633)" fill="none" stroke="#858585" stroke-linecap="round" stroke-linejoin="round" stroke-width="1.2"/>
      <line id="Line_611" data-name="Line 611" x2="4.418" transform="translate(3.938 16.401)" fill="none" stroke="#858585" stroke-linecap="round" stroke-linejoin="round" stroke-width="1.2"/>
      <line id="Line_612" data-name="Line 612" x2="4.418" transform="translate(6.656 8.575)" fill="none" stroke="#858585" stroke-linecap="round" stroke-linejoin="round" stroke-width="1.2"/>
      <path id="Path_18269" data-name="Path 18269" d="M1222.8-605.967l-1.947.685v1.189a2.907,2.907,0,0,0,1.947,2.82,2.907,2.907,0,0,0,1.947-2.82v-1.189Z" transform="translate(-1209.864 620.334)" fill="none" stroke="#858585" stroke-linecap="round" stroke-linejoin="round" stroke-width="1.2" fill-rule="evenodd"/>
    </g>
  </g>
</svg>
