<svg xmlns="http://www.w3.org/2000/svg" width="24" height="24" viewBox="0 0 24 24">
  <g id="hosocanhan" transform="translate(6416 13227)">
    <rect id="Rectangle_148696" data-name="Rectangle 148696" width="24" height="24" transform="translate(-6416 -13227)" fill="rgba(255,255,255,0)"/>
    <g id="Group_14057" data-name="Group 14057" transform="translate(-6411.596 -13224.601)">
      <rect id="Rectangle_148304" data-name="Rectangle 148304" width="15.192" height="19.2" rx="2" transform="translate(0 0)" fill="none" stroke="#858585" stroke-linecap="round" stroke-linejoin="round" stroke-width="1.2"/>
      <path id="Path_15968" data-name="Path 15968" d="M1189.235-266.6a1.9,1.9,0,0,0,1.895-1.895,1.9,1.9,0,0,0-1.895-1.895,1.9,1.9,0,0,0-1.895,1.895A1.9,1.9,0,0,0,1189.235-266.6Z" transform="translate(-1181.639 273.651)" fill="none" stroke="#858585" stroke-linecap="round" stroke-linejoin="round" stroke-width="1.2" fill-rule="evenodd"/>
      <line id="Line_599" data-name="Line 599" x2="10.611" transform="translate(2.29 13.499)" fill="none" stroke="#858585" stroke-linecap="round" stroke-linejoin="round" stroke-width="1.2"/>
      <line id="Line_600" data-name="Line 600" x2="10.611" transform="translate(2.29 16.025)" fill="none" stroke="#858585" stroke-linecap="round" stroke-linejoin="round" stroke-width="1.2"/>
      <path id="Path_15969" data-name="Path 15969" d="M1182.681-243.355a3.925,3.925,0,0,0-3.883-3.352,3.925,3.925,0,0,0-3.883,3.352Z" transform="translate(-1171.203 253.755)" fill="none" stroke="#858585" stroke-linecap="round" stroke-linejoin="round" stroke-width="1.2" fill-rule="evenodd"/>
    </g>
  </g>
</svg>
