<!-- Generated by IcoMoon.io -->
<svg version="1.1" xmlns="http://www.w3.org/2000/svg" width="1024" height="1024" viewBox="0 0 1024 1024">
<title></title>
<g id="icomoon-ignore">
</g>
<path fill="#858585" d="M512 477.86c0.012 0 0.027 0 0.041 0 131.963 0 238.94-106.977 238.94-238.94s-106.977-238.94-238.94-238.94c-131.963 0-238.94 106.977-238.94 238.94 0 0.007 0 0.014 0 0.022v-0.001c0.012 131.94 106.961 238.896 238.897 238.92h0.002zM631.46 404.992c-33.084 24.208-74.581 38.734-119.47 38.734s-86.386-14.527-120.046-39.135l0.576 0.401v-4.444c0.136-19.932 11.478-37.183 28.035-45.78l0.289-0.136 9.728-4.772 14.684 32.604c2.031 4.549 5.898 7.967 10.634 9.35l0.118 0.030c1.334 0.431 2.868 0.679 4.461 0.679 0.109 0 0.218-0.001 0.327-0.004h-0.016c0.018 0 0.040 0 0.061 0 3.485 0 6.716-1.088 9.372-2.943l-0.053 0.035 41.82-27.812 41.82 27.812c2.603 1.82 5.834 2.908 9.319 2.908 0.021 0 0.043 0 0.064 0h-0.003c0.081 0.002 0.177 0.002 0.273 0.002 1.606 0 3.153-0.248 4.607-0.708l-0.108 0.029c4.848-1.424 8.711-4.838 10.709-9.274l0.043-0.106 14.684-32.604 9.728 4.772c16.846 8.734 28.188 25.985 28.324 45.898v0.019zM523.94 181.084c8.549 13.179 22.758 22.060 39.101 23.195l0.159 0.009v0.512c0 28.277-22.923 51.2-51.2 51.2s-51.2-22.923-51.2-51.2v0-0.676c23.927-1.524 45.629-9.939 63.45-23.262l-0.31 0.222zM460.8 169.82v-16.22c0-28.277 22.923-51.2 51.2-51.2s51.2 22.923 51.2 51.2v0 16.548c-4.973-1.165-9.017-4.423-11.22-8.772l-0.044-0.096-7.68-15.36c-2.849-5.646-8.602-9.451-15.244-9.451-4.711 0-8.974 1.914-12.056 5.006v0l-4.096 4.26c-13.574 13.367-31.638 22.209-51.726 24.060l-0.334 0.025zM562.852 334.684l-7.004 15.36-17.060-11.428 10.752-10.588zM529.060 288.44v11.776l-17.060 17.060-17.060-17.060v-11.776c5.12 1.086 11.002 1.707 17.030 1.707 6.064 0 11.981-0.629 17.689-1.826l-0.558 0.098zM485.192 338.616l-17.060 11.428-7.004-15.36 13.312-6.656zM372.941 88.064c36.425-33.84 85.402-54.607 139.23-54.607 113.108 0 204.8 91.692 204.8 204.8 0 53.828-20.766 102.805-54.724 139.358l0.118-0.128c-6.838-23.401-22.662-42.284-43.387-53.021l-0.481-0.227-55.296-27.648v-24.064c20.772-15.548 34.082-40.079 34.12-67.721v-51.206c-0.744-46.56-38.663-84.018-85.33-84.018s-84.586 37.458-85.329 83.948l-0.001 0.070v51.2c0.018 27.663 13.343 52.21 33.919 67.59l0.221 0.158v24.064l-55.296 27.648c-21.222 10.944-37.054 29.835-43.716 52.639l-0.153 0.609c-33.752-36.404-54.459-85.319-54.459-139.071 0-59.373 25.265-112.845 65.632-150.252l0.133-0.121z"></path>
<path fill="#858585" d="M802.12 170.66h-17.019v34.14h17.060c9.417 0.012 17.048 7.643 17.060 17.059v750.941c-0.012 9.417-7.643 17.048-17.059 17.060h-580.261c-9.422 0-17.060-7.638-17.060-17.060v-750.94c0-9.422 7.638-17.060 17.060-17.060v0h17.060v-34.14h-17.060c-28.277 0-51.2 22.923-51.2 51.2v0 750.94c0 28.277 22.923 51.2 51.2 51.2v0h580.219c28.277 0 51.2-22.923 51.2-51.2v0-750.94c0-28.277-22.923-51.2-51.2-51.2v0z"></path>
<path fill="#858585" d="M972.8 238.94h-85.299v34.14h85.34c9.417 0.012 17.048 7.643 17.060 17.059v614.401c-0.012 9.417-7.643 17.048-17.059 17.060h-85.341v34.14h85.34c28.277 0 51.2-22.923 51.2-51.2v0-614.4c0-28.277-22.923-51.2-51.2-51.2-0.014 0-0.029 0-0.043 0h0.002z"></path>
<path fill="#858585" d="M0.041 290.14v614.4c0 28.277 22.923 51.2 51.2 51.2v0h85.34v-34.14h-85.34c-9.422 0-17.060-7.638-17.060-17.060v-614.4c0-9.422 7.638-17.060 17.060-17.060v0h85.34v-34.14h-85.34c-28.277 0-51.2 22.923-51.2 51.2v0z"></path>
<path fill="#858585" d="M68.26 375.46h68.26v34.14h-68.26v-34.14z"></path>
<path fill="#858585" d="M68.26 443.74h68.26v34.14h-68.26v-34.14z"></path>
<path fill="#858585" d="M68.26 512h68.26v34.14h-68.26v-34.14z"></path>
<path fill="#858585" d="M68.26 580.26h68.26v34.14h-68.26v-34.14z"></path>
<path fill="#858585" d="M68.26 648.54h68.26v34.14h-68.26v-34.14z"></path>
<path fill="#858585" d="M68.26 716.8h68.26v34.14h-68.26v-34.14z"></path>
<path fill="#858585" d="M68.26 785.060h68.26v34.14h-68.26v-34.14z"></path>
<path fill="#858585" d="M887.46 375.46h68.26v34.14h-68.26v-34.14z"></path>
<path fill="#858585" d="M887.46 443.74h68.26v34.14h-68.26v-34.14z"></path>
<path fill="#858585" d="M887.46 512h68.26v34.14h-68.26v-34.14z"></path>
<path fill="#858585" d="M887.46 580.26h68.26v34.14h-68.26v-34.14z"></path>
<path fill="#858585" d="M887.46 648.54h68.26v34.14h-68.26v-34.14z"></path>
<path fill="#858585" d="M887.46 716.8h68.26v34.14h-68.26v-34.14z"></path>
<path fill="#858585" d="M887.46 785.060h68.26v34.14h-68.26v-34.14z"></path>
<path fill="#858585" d="M431.657 551.219l-16.835 16.835c-14.869-13.096-34.507-21.088-56.012-21.088-46.906 0-84.931 38.025-84.931 84.931s38.025 84.931 84.931 84.931c46.906 0 84.931-38.025 84.931-84.931 0-0.125 0-0.249-0.001-0.373v0.019c-0.059-13.038-3.075-25.356-8.411-36.34l0.219 0.5 20.275-20.275zM367.391 681.841c-2.804 0.545-6.028 0.856-9.325 0.856-28.277 0-51.2-22.923-51.2-51.2s22.923-51.2 51.2-51.2c12.458 0 23.878 4.45 32.755 11.847l-0.082-0.067-44.38 44.298 24.125 24.125 38.195-38.195c0.526 2.756 0.827 5.925 0.827 9.165 0 25.073-18.023 45.936-41.82 50.343l-0.315 0.049z"></path>
<path fill="#858585" d="M597.32 580.26h136.54v34.14h-136.54v-34.14z"></path>
<path fill="#858585" d="M529.060 648.54h204.8v34.14h-204.8v-34.14z"></path>
<path fill="#858585" d="M431.657 756.019l-16.835 16.835c-14.869-13.096-34.507-21.088-56.012-21.088-46.906 0-84.931 38.025-84.931 84.931s38.025 84.931 84.931 84.931c46.906 0 84.931-38.025 84.931-84.931 0-0.125 0-0.249-0.001-0.373v0.019c-0.059-13.038-3.075-25.356-8.411-36.34l0.219 0.5 20.275-20.275zM367.391 886.641c-2.804 0.545-6.028 0.856-9.325 0.856-28.277 0-51.2-22.923-51.2-51.2s22.923-51.2 51.2-51.2c12.458 0 23.878 4.45 32.755 11.847l-0.082-0.067-44.38 44.298 24.125 24.125 38.195-38.195c0.526 2.756 0.827 5.925 0.827 9.165 0 25.073-18.023 45.936-41.82 50.343l-0.315 0.049z"></path>
<path fill="#858585" d="M529.060 785.060h204.8v34.14h-204.8v-34.14z"></path>
<path fill="#858585" d="M529.060 853.34h204.8v34.14h-204.8v-34.14z"></path>
<path fill="#858585" d="M529.060 580.26h34.14v34.14h-34.14v-34.14z"></path>
</svg>
